<svg preserveAspectRatio="none" width="100%" height="100%" overflow="visible" style="display: block;" viewBox="0 0 246.183 90.4574" fill="none" xmlns="http://www.w3.org/2000/svg">
<g id="Group 69" opacity="0.1">
<circle id="Ellipse 7" cx="45.2287" cy="45.2287" r="44.6958" stroke="var(--stroke-0, white)" stroke-width="1.06572"/>
<path id="Ellipse 8" d="M123.093 0.533216C131.89 0.533375 139.902 5.4738 145.735 13.5586C151.568 21.643 155.192 32.8385 155.192 45.2285C155.192 57.6186 151.568 68.8141 145.735 76.8985C139.902 84.9834 131.89 89.9247 123.093 89.9248C114.296 89.9248 106.283 84.9836 100.449 76.8985C94.6162 68.8141 90.9922 57.6186 90.9922 45.2285C90.9922 32.8385 94.6162 21.643 100.449 13.5586C106.283 5.47363 114.296 0.533216 123.093 0.533216Z" stroke="var(--stroke-0, white)" stroke-width="1.06572"/>
<path id="Ellipse 9" d="M178.053 0.53321C183.904 0.533231 189.349 5.35272 193.363 13.4834C197.36 21.5802 199.848 32.803 199.848 45.2285C199.848 57.6542 197.36 68.8778 193.363 76.9746C189.349 85.1052 183.904 89.9248 178.053 89.9248C172.201 89.9248 166.756 85.1052 162.742 76.9746C158.745 68.8778 156.258 57.6542 156.258 45.2285C156.258 32.803 158.745 21.5802 162.742 13.4834C166.756 5.3527 172.201 0.53321 178.053 0.53321Z" stroke="var(--stroke-0, white)" stroke-width="1.06572"/>
<path id="Ellipse 10" d="M211.833 0.533206C213.113 0.533206 214.481 1.56917 215.833 3.82813C217.165 6.05328 218.383 9.30857 219.413 13.3779C221.472 21.5088 222.751 32.7699 222.751 45.2285C222.751 57.6871 221.471 68.9483 219.413 77.0791C218.383 81.1486 217.165 84.4047 215.833 86.6299C214.481 88.8887 213.112 89.9248 211.833 89.9248C210.554 89.9248 209.185 88.8887 207.833 86.6299C206.501 84.4047 205.283 81.1486 204.253 77.0791C202.195 68.9483 200.916 57.687 200.916 45.2285C200.916 32.7699 202.194 21.5088 204.253 13.3779C205.283 9.30861 206.501 6.05329 207.833 3.82813C209.185 1.56923 210.553 0.533264 211.833 0.533206Z" stroke="var(--stroke-0, white)" stroke-width="1.06572"/>
<path id="Ellipse 11" d="M230.724 0.533204C231.002 0.533204 231.367 0.703946 231.809 1.25293C232.244 1.7944 232.688 2.6256 233.124 3.74707C233.995 5.98511 234.79 9.25556 235.461 13.334C236.802 21.4823 237.634 32.7589 237.634 45.2285C237.634 57.6983 236.802 68.9757 235.461 77.124C234.79 81.2023 233.995 84.472 233.124 86.71C232.688 87.8314 232.244 88.6626 231.809 89.2041C231.367 89.7531 231.002 89.9248 230.724 89.9248C230.445 89.9247 230.081 89.7529 229.64 89.2041C229.204 88.6625 228.76 87.8317 228.323 86.71C227.453 84.472 226.658 81.2023 225.987 77.124C224.646 68.9757 223.814 57.6983 223.814 45.2285C223.814 32.7589 224.646 21.4823 225.987 13.334C226.658 9.25556 227.453 5.98511 228.323 3.74707C228.76 2.62547 229.204 1.79444 229.64 1.25293C230.081 0.704259 230.446 0.533333 230.724 0.533204Z" stroke="var(--stroke-0, white)" stroke-width="1.06572"/>
<path id="Ellipse 12" d="M242.184 0.583984C242.267 0.679116 242.374 0.852315 242.494 1.13086C242.733 1.68353 242.977 2.53014 243.214 3.66309C243.687 5.92104 244.117 9.20877 244.479 13.2939C245.202 21.4586 245.65 32.7496 245.65 45.2285C245.65 57.7075 245.202 68.9984 244.479 77.1631C244.117 81.2484 243.687 84.5359 243.214 86.7939C242.976 87.9272 242.733 88.7744 242.494 89.3271C242.374 89.6055 242.267 89.7789 242.184 89.874C242.181 89.8769 242.177 89.8782 242.175 89.8809C242.173 89.8784 242.169 89.8767 242.167 89.874C242.084 89.7789 241.977 89.6056 241.856 89.3271C241.617 88.7744 241.374 87.9272 241.137 86.7939C240.664 84.5359 240.234 81.2484 239.872 77.1631C239.149 68.9984 238.701 57.7075 238.701 45.2285C238.701 32.7496 239.149 21.4586 239.872 13.2939C240.234 9.20875 240.664 5.92105 241.137 3.66309C241.374 2.53023 241.617 1.68355 241.856 1.13086C241.977 0.852563 242.084 0.67917 242.167 0.583984C242.169 0.581201 242.173 0.578727 242.175 0.576172C242.177 0.578952 242.181 0.58093 242.184 0.583984Z" stroke="var(--stroke-0, white)" stroke-width="1.06572"/>
</g>
</svg>
