<svg preserveAspectRatio="none" width="100%" height="100%" overflow="visible" style="display: block;" viewBox="0 0 246.181 90.4574" fill="none" xmlns="http://www.w3.org/2000/svg">
<g id="Group 69" opacity="0.1">
<circle id="Ellipse 7" cx="45.2287" cy="45.2287" r="44.6958" stroke="var(--stroke-0, white)" stroke-width="1.06572"/>
<path id="Ellipse 8" d="M123.093 0.533222C131.89 0.533381 139.902 5.47381 145.735 13.5586C151.568 21.643 155.192 32.8385 155.192 45.2285C155.192 57.6187 151.568 68.8141 145.735 76.8985C139.902 84.9834 131.89 89.9247 123.093 89.9248C114.296 89.9248 106.283 84.9836 100.449 76.8985C94.6162 68.8141 90.9922 57.6187 90.9922 45.2285C90.9922 32.8385 94.6162 21.643 100.449 13.5586C106.283 5.47364 114.296 0.533222 123.093 0.533222Z" stroke="var(--stroke-0, white)" stroke-width="1.06572"/>
<path id="Ellipse 9" d="M178.053 0.533217C183.904 0.533238 189.349 5.35273 193.363 13.4834C197.36 21.5802 199.848 32.803 199.848 45.2285C199.848 57.6542 197.36 68.8778 193.363 76.9746C189.349 85.1052 183.904 89.9248 178.053 89.9248C172.201 89.9248 166.756 85.1052 162.742 76.9746C158.745 68.8778 156.258 57.6542 156.258 45.2285C156.258 32.803 158.745 21.5802 162.742 13.4834C166.756 5.35271 172.201 0.533217 178.053 0.533217Z" stroke="var(--stroke-0, white)" stroke-width="1.06572"/>
<path id="Ellipse 10" d="M211.831 0.533203C213.11 0.533203 214.479 1.56916 215.831 3.82812C217.163 6.05328 218.381 9.30856 219.411 13.3779C221.469 21.5087 222.749 32.7699 222.749 45.2285C222.749 57.6871 221.469 68.9483 219.411 77.0791C218.381 81.1486 217.163 84.4047 215.831 86.6299C214.479 88.8887 213.11 89.9248 211.831 89.9248C210.551 89.9247 209.183 88.8887 207.831 86.6299C206.499 84.4047 205.281 81.1486 204.251 77.0791C202.192 68.9483 200.914 57.687 200.914 45.2285C200.914 32.7699 202.192 21.5087 204.251 13.3779C205.281 9.3086 206.499 6.05328 207.831 3.82812C209.183 1.56923 210.551 0.533261 211.831 0.533203Z" stroke="var(--stroke-0, white)" stroke-width="1.06572"/>
<path id="Ellipse 11" d="M230.724 0.533211C231.002 0.533211 231.367 0.703952 231.809 1.25294C232.244 1.79441 232.688 2.6256 233.124 3.74708C233.995 5.98512 234.79 9.25557 235.461 13.334C236.802 21.4823 237.634 32.7589 237.634 45.2285C237.634 57.6983 236.802 68.9757 235.461 77.124C234.79 81.2023 233.995 84.472 233.124 86.71C232.688 87.8315 232.244 88.6626 231.809 89.2041C231.367 89.7531 231.002 89.9248 230.724 89.9248C230.445 89.9247 230.081 89.7529 229.64 89.2041C229.204 88.6626 228.76 87.8317 228.323 86.71C227.453 84.472 226.658 81.2023 225.987 77.124C224.646 68.9757 223.814 57.6983 223.814 45.2285C223.814 32.7589 224.646 21.4823 225.987 13.334C226.658 9.25557 227.453 5.98512 228.323 3.74708C228.76 2.62547 229.204 1.79444 229.64 1.25294C230.081 0.704266 230.446 0.53334 230.724 0.533211Z" stroke="var(--stroke-0, white)" stroke-width="1.06572"/>
<path id="Ellipse 12" d="M242.182 0.583991C242.265 0.679122 242.372 0.852321 242.492 1.13087C242.731 1.68354 242.975 2.53015 243.212 3.66309C243.685 5.92104 244.115 9.20878 244.477 13.294C245.2 21.4587 245.648 32.7496 245.648 45.2285C245.648 57.7075 245.2 68.9984 244.477 77.1631C244.115 81.2484 243.685 84.536 243.212 86.794C242.975 87.9272 242.732 88.7744 242.492 89.3272C242.372 89.6055 242.265 89.7789 242.182 89.874C242.179 89.8769 242.175 89.8783 242.173 89.8809C242.171 89.8784 242.167 89.8767 242.165 89.874C242.082 89.7789 241.975 89.6056 241.854 89.3272C241.615 88.7744 241.372 87.9272 241.135 86.794C240.662 84.536 240.232 81.2484 239.87 77.1631C239.147 68.9984 238.699 57.7075 238.699 45.2285C238.699 32.7496 239.147 21.4587 239.87 13.294C240.232 9.20876 240.662 5.92105 241.135 3.66309C241.372 2.53023 241.615 1.68356 241.854 1.13087C241.975 0.85257 242.082 0.679177 242.165 0.583991C242.167 0.581207 242.171 0.578733 242.173 0.576178C242.175 0.578958 242.179 0.580936 242.182 0.583991Z" stroke="var(--stroke-0, white)" stroke-width="1.06572"/>
</g>
</svg>
