<svg preserveAspectRatio="none" width="100%" height="100%" overflow="visible" style="display: block;" viewBox="0 0 246.181 90.4574" fill="none" xmlns="http://www.w3.org/2000/svg">
<g id="Group 69" opacity="0.1">
<circle id="Ellipse 7" cx="45.2287" cy="45.2287" r="44.6958" stroke="var(--stroke-0, white)" stroke-width="1.06572"/>
<path id="Ellipse 8" d="M123.091 0.533216C131.888 0.533375 139.9 5.4738 145.733 13.5586C151.566 21.643 155.19 32.8385 155.19 45.2285C155.19 57.6186 151.566 68.8141 145.733 76.8985C139.9 84.9834 131.888 89.9247 123.091 89.9248C114.294 89.9248 106.281 84.9836 100.447 76.8985C94.6142 68.8141 90.9902 57.6186 90.9902 45.2285C90.9903 32.8385 94.6143 21.643 100.447 13.5586C106.281 5.47363 114.294 0.533216 123.091 0.533216Z" stroke="var(--stroke-0, white)" stroke-width="1.06572"/>
<path id="Ellipse 9" d="M178.055 0.53321C183.906 0.533231 189.351 5.35272 193.365 13.4834C197.362 21.5802 199.85 32.803 199.85 45.2285C199.85 57.6542 197.362 68.8778 193.365 76.9746C189.351 85.1052 183.906 89.9248 178.055 89.9248C172.203 89.9248 166.758 85.1052 162.744 76.9746C158.747 68.8778 156.26 57.6542 156.26 45.2285C156.26 32.803 158.747 21.5802 162.744 13.4834C166.758 5.3527 172.203 0.53321 178.055 0.53321Z" stroke="var(--stroke-0, white)" stroke-width="1.06572"/>
<path id="Ellipse 10" d="M211.831 0.533206C213.111 0.533206 214.479 1.56917 215.831 3.82813C217.163 6.05328 218.381 9.30857 219.411 13.3779C221.47 21.5088 222.749 32.7699 222.749 45.2285C222.749 57.6871 221.47 68.9483 219.411 77.0791C218.381 81.1486 217.163 84.4047 215.831 86.6299C214.479 88.8887 213.111 89.9248 211.831 89.9248C210.552 89.9248 209.183 88.8887 207.831 86.6299C206.499 84.4047 205.281 81.1486 204.251 77.0791C202.193 68.9483 200.914 57.687 200.914 45.2285C200.914 32.7699 202.193 21.5088 204.251 13.3779C205.281 9.30861 206.499 6.05329 207.831 3.82813C209.183 1.56923 210.552 0.533264 211.831 0.533206Z" stroke="var(--stroke-0, white)" stroke-width="1.06572"/>
<path id="Ellipse 11" d="M230.724 0.533216C231.002 0.533216 231.367 0.703957 231.808 1.25294C232.244 1.79442 232.688 2.62561 233.124 3.74708C233.995 5.98512 234.79 9.25557 235.461 13.334C236.802 21.4823 237.634 32.7589 237.634 45.2285C237.634 57.6983 236.802 68.9757 235.461 77.124C234.79 81.2023 233.995 84.472 233.124 86.71C232.688 87.8315 232.244 88.6626 231.808 89.2041C231.367 89.7531 231.002 89.9248 230.724 89.9248C230.445 89.9247 230.081 89.7529 229.64 89.2041C229.204 88.6626 228.76 87.8317 228.323 86.71C227.452 84.472 226.658 81.2023 225.987 77.124C224.646 68.9757 223.814 57.6983 223.814 45.2285C223.814 32.7589 224.646 21.4823 225.987 13.334C226.658 9.25557 227.452 5.98512 228.323 3.74708C228.76 2.62548 229.204 1.79445 229.64 1.25294C230.081 0.70427 230.445 0.533344 230.724 0.533216Z" stroke="var(--stroke-0, white)" stroke-width="1.06572"/>
<path id="Ellipse 12" d="M242.182 0.583984C242.265 0.679116 242.372 0.852315 242.492 1.13086C242.731 1.68353 242.975 2.53014 243.212 3.66309C243.685 5.92104 244.115 9.20877 244.477 13.2939C245.2 21.4586 245.648 32.7496 245.648 45.2285C245.648 57.7075 245.2 68.9984 244.477 77.1631C244.115 81.2484 243.685 84.5359 243.212 86.7939C242.975 87.9272 242.732 88.7744 242.492 89.3271C242.372 89.6055 242.265 89.7789 242.182 89.874C242.179 89.8769 242.175 89.8782 242.173 89.8809C242.171 89.8784 242.167 89.8767 242.165 89.874C242.082 89.7789 241.975 89.6056 241.854 89.3271C241.615 88.7744 241.372 87.9272 241.135 86.7939C240.662 84.5359 240.232 81.2484 239.87 77.1631C239.147 68.9984 238.699 57.7075 238.699 45.2285C238.699 32.7496 239.147 21.4586 239.87 13.2939C240.232 9.20875 240.662 5.92105 241.135 3.66309C241.372 2.53023 241.615 1.68355 241.854 1.13086C241.975 0.852563 242.082 0.67917 242.165 0.583984C242.167 0.581201 242.171 0.578727 242.173 0.576172C242.175 0.578952 242.179 0.58093 242.182 0.583984Z" stroke="var(--stroke-0, white)" stroke-width="1.06572"/>
</g>
</svg>
