<svg preserveAspectRatio="none" width="100%" height="100%" overflow="visible" style="display: block;" viewBox="0 0 515 428" fill="none" xmlns="http://www.w3.org/2000/svg">
<path id="Vector" opacity="0.2" d="M226.75 216.878V113.24C197.18 115.547 173.731 142.004 172.147 171.112C171.934 175.025 172.813 178.433 172.853 181.987C173.092 210.327 172.706 238.68 172.706 267.019C157.176 281.58 141.419 295.996 125.623 310.318C121.763 313.806 117.944 318.301 113.765 321.497C113.113 321.988 112.954 322.731 111.836 322.452V216.891C80.3092 230.762 59.9879 263.173 57.9119 297.189C56.4214 321.789 59.2959 347.622 57.5792 372.342C53.9062 375.697 50.5925 379.529 47.0393 382.924C33.2389 396.106 14.874 409.739 2.7105 423.849C1.52609 425.228 -0.563254 425.069 0.142067 428H111.53C114.763 428 125.836 423.557 129.109 421.847C143.934 414.129 156.497 398.122 159.172 381.426C159.372 380.206 160.516 374.901 159.039 374.901H66.8947C71.1932 370.299 76.1038 366.387 80.7084 362.117C97.8091 346.336 114.684 330.422 131.877 314.562C132.742 314.164 133.674 314.164 134.592 314.097C166.478 311.604 213.189 320.887 241.282 306.538C257.305 298.356 272.423 281.514 275.537 263.585C274.645 263.2 273.62 264.221 273.288 264.221H186.932C199.469 251.238 213.069 239.21 226.697 227.394C246.153 225.657 266.887 229.967 285.651 224.079C300.636 219.371 315.394 208.006 323.366 194.492C325.375 191.084 328.05 186.204 328.17 182.332H275.523C284.533 173.314 293.849 164.522 303.537 156.246C316.445 158.978 329.008 163.633 341.89 166.418C362.371 170.847 382.267 162.519 388.215 141.394C388.588 140.041 390.105 133.264 389.2 132.721C368.879 132.522 348.345 131.421 328.183 133.702L357.354 106.158C388.042 103.638 420.46 107.431 451.148 105.574C480.612 103.797 508.932 80.8285 515 51.8125H406.181L344.871 108.107V0H341.651C340.839 0.888517 339.867 0.888517 339.082 0H337.805C338.124 1.52507 337.099 1.39245 336.075 1.76377C308.527 11.564 291.24 32.0662 290.974 61.7188C290.681 93.9839 291.24 126.276 290.801 158.541C269.056 177.412 248.562 198.06 226.737 216.891L226.75 216.878Z" fill="var(--fill-0, white)"/>
</svg>
