<svg preserveAspectRatio="none" width="100%" height="100%" overflow="visible" style="display: block;" viewBox="0 0 70 64" fill="none" xmlns="http://www.w3.org/2000/svg">
<path id="&#226;&#128;&#156;" d="M0 43.1461C0 29.563 9.19403 15.181 27.5821 0L36.702 7.19102C27.9528 18.2172 23.5782 27.7253 23.5782 35.7154C23.5782 40.6692 25.506 46.9813 29.3616 54.6517L7.56283 64C2.52094 57.1286 0 50.1773 0 43.1461ZM33.298 43.1461C33.298 29.563 42.4921 15.181 60.8801 0L70 7.19102C61.2508 18.2172 56.8763 27.7253 56.8763 35.7154C56.8763 40.6692 58.804 46.9813 62.6596 54.6517L40.8609 64C35.819 57.1286 33.298 50.1773 33.298 43.1461Z" fill="var(--fill-0, #233A58)"/>
</svg>
