<svg preserveAspectRatio="none" width="100%" height="100%" overflow="visible" style="display: block;" viewBox="0 0 540 468.226" fill="none" xmlns="http://www.w3.org/2000/svg">
<g id="Group" opacity="0.04">
<path id="Vector" d="M60.1707 263.334C56.0893 248.103 53.9868 232.477 53.9868 216.625C53.9868 194.342 58.0682 172.454 66.1073 151.694C73.899 131.554 85.2156 112.825 99.7478 96.0144C128.812 62.3925 169.688 38.0786 214.954 27.5859L208.214 3.49769C157.196 15.3443 111.126 42.7045 78.3514 80.6138C61.9641 99.5684 49.2252 120.723 40.444 143.401C31.3537 166.869 26.7776 191.521 26.7776 216.625C26.7776 239.077 30.4879 261.247 37.7849 282.458L60.1707 263.334Z" fill="#FFF9E8"/>
<path id="Vector_2" d="M533.798 212.451L530.211 209.066L482.286 251.432L520.564 286.803L539.92 269.371L520.935 251.827L533.303 240.883C542.022 233.155 542.27 220.405 533.798 212.395V212.451Z" fill="#FFF9E8"/>
<path id="Vector_3" d="M520.377 286.633L505.659 300.172C505.659 300.172 505.659 300.172 505.597 300.116L486.489 317.773C508.256 337.348 505.721 347.221 500.464 354.272C488.22 370.632 468.308 369.616 467.38 369.56H467.504L467.38 370.914V369.56L405.788 368.037C349.515 368.037 341.909 343.272 340.981 341.015L335.848 323.809L319.77 334.923C295.158 351.959 267.764 344.513 259.044 341.41C251.624 332.722 243.213 325.897 235.916 320.876L258.055 302.485L273.453 317.04C283.904 326.912 301.157 327.194 311.917 317.66L278.153 285.731L303.259 264.858C321.254 249.852 331.705 228.754 332.014 206.527L333.808 90.5429L395.647 37.6842L388.721 30.9711C382.228 24.6529 371.406 24.3709 364.542 30.2378L42.4217 305.644C19.2938 325.445 6.12209 353.087 6.12209 381.971V433.363C2.10254 444.42 0 456.097 0 467.887V468.169H58.9327L169.192 376.386L183.848 390.997C188.486 395.623 188.238 402.731 183.291 407.074L113.908 468.169H153.114L201.472 425.578C207.161 420.557 211.552 414.239 213.345 407.187C216.375 395.115 212.789 382.986 203.946 374.186L189.351 359.631L215.386 337.969C227.506 345.528 246.862 360.872 251.314 383.889C253.664 395.961 251.624 409.162 245.316 423.039C238.823 437.312 227.815 452.43 212.417 468.169H247.604C273.267 436.917 283.533 407.131 278.091 379.376C277.472 376.16 276.668 373.114 275.679 370.124C289.469 371.309 306.351 370.124 323.295 362.17C332.633 373.565 385.505 400.813 436.832 398.838L353.72 468.226H394.039L422.361 444.589L448.272 468.226H486.798L442.459 427.834L484.695 392.576C496.63 389.868 511.657 383.437 522.974 368.319C531.693 356.641 533.672 343.554 528.725 330.41C527.364 326.799 525.447 323.189 523.036 319.522L539.794 304.065L520.438 286.577L520.377 286.633ZM61.0352 323.809L247.109 164.726V192.029C247.109 199.137 243.894 206.076 238.266 211.04L36.7943 388.797C35.6194 389.812 34.5063 390.884 33.3932 391.956V382.027C33.3932 359.97 43.4111 338.871 61.0352 323.809ZM27.5803 460.723C29.4973 440.358 39.5152 420.952 55.7171 406.679L257.189 228.923C268.073 219.333 274.319 205.85 274.319 192.029V141.427L306.227 114.123L304.805 206.189C304.558 221.477 297.323 236.2 284.893 246.524L27.5184 460.723H27.5803Z" fill="#FFF9E8"/>
<path id="Vector_4" d="M430.03 195.188C442.336 195.188 465.216 167.997 465.216 167.997H388.536C388.536 167.997 405.851 195.188 430.03 195.188Z" fill="#FFF9E8"/>
<path id="Vector_5" d="M362.932 161.17L398.675 133.302C398.675 133.302 402.881 129.071 417.104 129.071H465.895L439.984 104.701H413.146C403.128 104.701 393.295 107.24 384.823 112.148C370.6 120.384 353.966 135.841 362.932 161.114V161.17Z" fill="#FFF9E8"/>
<path id="Vector_6" d="M188.92 106.169V55.4536C173.089 56.5819 160.597 69.5568 159.731 83.7728C159.608 85.6908 160.103 87.3832 160.103 89.0756C160.226 102.953 160.041 116.831 160.041 130.708C151.754 137.816 143.344 144.868 134.872 151.919C132.831 153.612 130.791 155.812 128.503 157.391C128.132 157.617 128.07 158.012 127.451 157.843V106.169C110.569 112.938 99.7475 128.79 98.6344 145.488C97.8305 157.504 99.3765 170.197 98.4489 182.269C96.4701 183.905 94.7385 185.767 92.8215 187.459C85.4627 193.89 75.6303 200.603 69.1372 207.486C68.5188 208.163 67.4057 208.106 67.7767 209.517H127.328C129.059 209.517 134.996 207.317 136.727 206.527C144.643 202.747 151.383 194.906 152.806 186.726C152.929 186.105 153.548 183.51 152.744 183.51H103.52C105.808 181.254 108.467 179.336 110.879 177.249C120.031 169.52 129.059 161.735 138.211 153.95C138.644 153.781 139.139 153.781 139.696 153.724C156.763 152.483 181.684 157.053 196.711 150.001C205.245 145.996 213.346 137.76 215.016 128.959C214.521 128.79 213.964 129.298 213.841 129.298H167.709C174.387 122.923 181.684 117.056 188.981 111.302C199.37 110.456 210.44 112.543 220.519 109.666C228.558 107.353 236.412 101.825 240.679 95.1682C241.73 93.4758 243.152 91.1064 243.276 89.1884H215.139C219.963 84.7882 224.91 80.5009 230.104 76.4391C237.03 77.7931 243.709 80.0496 250.635 81.4035C261.581 83.5471 272.217 79.4854 275.371 69.1619C275.556 68.485 276.36 65.213 275.865 64.931C264.982 64.8181 254.036 64.3104 243.214 65.3823L258.798 51.8996C275.185 50.6586 292.562 52.5202 308.949 51.6176C324.718 50.7714 339.869 39.4889 343.085 25.3293H284.894L252.119 52.8587V0H250.388C249.955 0.451301 249.46 0.451301 249.027 0H248.347C248.532 0.733364 247.976 0.676952 247.419 0.84619C232.702 5.64127 223.426 15.6827 223.302 30.1808C223.117 45.9763 223.426 61.7719 223.24 77.5674C211.615 86.8191 200.669 96.9169 188.981 106.112L188.92 106.169Z" fill="#FFF9E8"/>
</g>
</svg>
