<svg preserveAspectRatio="none" width="100%" height="100%" overflow="visible" style="display: block;" viewBox="0 0 183.781 1096.52" fill="none" xmlns="http://www.w3.org/2000/svg">
<g id="Group 81" opacity="0.2">
<ellipse id="Ellipse 7" cx="201.452" cy="91.89" rx="201.452" ry="91.89" transform="matrix(-1.99384e-08 -1 -1 9.58292e-08 183.78 1096.52)" fill="url(#paint0_linear_0_5)"/>
<ellipse id="Ellipse 8" cx="145.352" cy="91.89" rx="145.352" ry="91.89" transform="matrix(-1.99384e-08 -1 -1 9.58292e-08 183.781 693.609)" fill="url(#paint1_linear_0_5)"/>
<ellipse id="Ellipse 9" cx="99.451" cy="91.89" rx="99.451" ry="91.89" transform="matrix(-1.99384e-08 -1 -1 9.58292e-08 183.78 402.904)" fill="url(#paint2_linear_0_5)"/>
<ellipse id="Ellipse 10" cx="51.0005" cy="91.89" rx="51.0005" ry="91.89" transform="matrix(-1.99384e-08 -1 -1 9.58292e-08 183.78 204)" fill="url(#paint3_linear_0_5)"/>
<ellipse id="Ellipse 11" cx="33.1504" cy="91.89" rx="33.1504" ry="91.89" transform="matrix(-1.99384e-08 -1 -1 9.58292e-08 183.78 102.001)" fill="url(#paint4_linear_0_5)"/>
<ellipse id="Ellipse 12" cx="17.8502" cy="91.89" rx="17.8502" ry="91.89" transform="matrix(-1.99384e-08 -1 -1 9.58292e-08 183.78 35.7004)" fill="url(#paint5_linear_0_5)"/>
</g>
<defs>
<linearGradient id="paint0_linear_0_5" x1="201.452" y1="0" x2="201.452" y2="183.78" gradientUnits="userSpaceOnUse">
<stop stop-color="#FFC932"/>
<stop offset="1" stop-color="#FFFDF8"/>
</linearGradient>
<linearGradient id="paint1_linear_0_5" x1="145.352" y1="0" x2="145.352" y2="183.78" gradientUnits="userSpaceOnUse">
<stop stop-color="#FFC932"/>
<stop offset="1" stop-color="#FFFDF8"/>
</linearGradient>
<linearGradient id="paint2_linear_0_5" x1="99.451" y1="0" x2="99.451" y2="183.78" gradientUnits="userSpaceOnUse">
<stop stop-color="#FFC932"/>
<stop offset="1" stop-color="#FFFDF8"/>
</linearGradient>
<linearGradient id="paint3_linear_0_5" x1="51.0005" y1="0" x2="51.0005" y2="183.78" gradientUnits="userSpaceOnUse">
<stop stop-color="#FFC932"/>
<stop offset="1" stop-color="#FFFDF8"/>
</linearGradient>
<linearGradient id="paint4_linear_0_5" x1="33.1504" y1="0" x2="33.1504" y2="183.78" gradientUnits="userSpaceOnUse">
<stop stop-color="#FFC932"/>
<stop offset="1" stop-color="#FFFDF8"/>
</linearGradient>
<linearGradient id="paint5_linear_0_5" x1="17.8502" y1="0" x2="17.8502" y2="183.78" gradientUnits="userSpaceOnUse">
<stop stop-color="#FFC932"/>
<stop offset="1" stop-color="#FFFDF8"/>
</linearGradient>
</defs>
</svg>
