<svg preserveAspectRatio="none" width="100%" height="100%" overflow="visible" style="display: block;" viewBox="0 0 584.136 1354" fill="none" xmlns="http://www.w3.org/2000/svg">
<g id="Frame 98">
<rect width="402" height="1354" transform="translate(77.0952)" fill="url(#paint0_linear_0_63)"/>
<path id="Vector" opacity="0.25" d="M231.927 699.172L174.264 541.584C130.092 561.725 108.766 615.143 122.528 660.296C124.377 666.365 127.623 671.053 129.662 676.435C145.798 719.392 160.98 762.722 176.748 805.814C160.976 836.691 144.775 867.473 128.461 898.136C124.469 905.61 121.099 914.594 116.454 921.804C115.725 922.917 115.892 924.136 114.019 924.342L55.2862 763.829C14.541 802.655 1.33586 863.368 17.0704 916.259C28.4663 954.503 47.2583 992.167 58.3728 1030.72C54.5934 1037.89 51.632 1045.58 48.0588 1052.74C34.1789 1080.55 13.533 1111.61 2.68587 1139.9C1.63255 1142.67 -1.66777 1143.6 1.0471 1147.66L172.274 1085.01C177.245 1083.19 191.794 1070.2 195.874 1065.76C214.369 1045.69 224.775 1014.28 219.597 987.389C219.225 985.421 218.033 976.712 215.763 977.543L74.117 1029.37C78.1643 1019.96 83.5363 1011.25 88.2387 1002.16C105.746 968.548 122.831 934.859 140.437 901.07C141.546 899.979 142.978 899.455 144.352 898.838C191.981 877.111 268.95 864.953 304.152 827.333C324.23 805.878 338.099 771.766 332.91 742.751C331.325 742.668 330.318 744.797 329.807 744.984L197.06 793.557C209.107 766.765 223.322 740.825 237.696 715.193C266.638 701.608 300.908 696.499 326.477 676.991C346.892 661.404 363.256 635.821 367.991 610.789C369.184 604.477 370.58 595.552 368.61 589.596L287.681 619.209C296.514 600.429 305.942 581.82 316.23 563.787C337.594 560.68 359.495 560.692 380.847 557.681C414.795 552.896 440.745 529.041 438.136 493.573C437.956 491.306 436.517 480.149 434.824 479.831C403.475 490.959 371.297 500.835 341.574 515.644L371.091 457.353C416.863 436.261 468.807 423.793 514.948 403.709C559.252 384.434 590.005 333.579 583.19 286.045L415.911 347.254L352.986 467.339L292.837 302.955L287.886 304.767C287.133 306.574 285.639 307.121 283.938 306.211L281.974 306.93C283.314 309.069 281.665 309.444 280.296 310.585C243.402 340.982 228.236 381.88 244.325 427.118C261.827 476.344 280.652 525.131 297.929 574.439C275.002 615.365 254.986 658.29 231.914 699.2L231.927 699.172Z" fill="white"/>
</g>
<defs>
<linearGradient id="paint0_linear_0_63" x1="201" y1="0" x2="201" y2="1354" gradientUnits="userSpaceOnUse">
<stop stop-color="white"/>
<stop offset="1" stop-color="#E6C464"/>
</linearGradient>
</defs>
</svg>
