<svg preserveAspectRatio="none" width="100%" height="100%" overflow="visible" style="display: block;" viewBox="0 0 192.715 70.8117" fill="none" xmlns="http://www.w3.org/2000/svg">
<g id="Group 69" opacity="0.4">
<circle id="Ellipse 7" cx="35.4058" cy="35.4058" r="35.2059" stroke="var(--stroke-0, white)" stroke-width="0.399824"/>
<path id="Ellipse 8" d="M96.3571 0.2002C103.331 0.2002 109.663 4.11752 114.259 10.4873C118.854 16.8568 121.703 25.6665 121.703 35.4063C121.703 45.1458 118.854 53.9548 114.259 60.3242C109.663 66.694 103.331 70.6113 96.3571 70.6113C89.3833 70.6113 83.0517 66.694 78.4558 60.3242C73.8602 53.9548 71.0115 45.1458 71.0114 35.4063C71.0114 25.6665 73.8601 16.8568 78.4558 10.4873C83.0517 4.11753 89.3833 0.200232 96.3571 0.2002Z" stroke="var(--stroke-0, white)" stroke-width="0.399824"/>
<path id="Ellipse 9" d="M139.381 0.200198C144.09 0.200198 148.409 4.07208 151.562 10.459C154.709 16.8332 156.661 25.6533 156.661 35.4063C156.661 45.1592 154.709 53.9794 151.562 60.3535C148.409 66.7402 144.09 70.6113 139.381 70.6113C134.673 70.6112 130.355 66.74 127.202 60.3535C124.055 53.9794 122.103 45.1592 122.103 35.4063C122.103 25.6533 124.055 16.8332 127.202 10.459C130.355 4.07222 134.673 0.20037 139.381 0.200198Z" stroke="var(--stroke-0, white)" stroke-width="0.399824"/>
<path id="Ellipse 10" d="M165.825 0.200197C166.949 0.200392 168.076 1.10453 169.142 2.88477C170.2 4.6525 171.159 7.22409 171.968 10.4189C173.585 16.8059 174.588 25.6408 174.588 35.4063C174.588 45.1716 173.585 54.0057 171.968 60.3926C171.159 63.5875 170.2 66.159 169.142 67.9268C168.076 69.707 166.949 70.6111 165.825 70.6113C164.7 70.6113 163.573 69.707 162.507 67.9268C161.449 66.159 160.489 63.5875 159.68 60.3926C158.063 54.0057 157.061 45.1716 157.061 35.4063C157.061 25.6408 158.063 16.8059 159.68 10.4189C160.489 7.22407 161.449 4.65251 162.507 2.88477C163.573 1.10455 164.7 0.200197 165.825 0.200197Z" stroke="var(--stroke-0, white)" stroke-width="0.399824"/>
<path id="Ellipse 11" d="M180.613 0.200196C180.927 0.200196 181.269 0.393162 181.632 0.844727C181.993 1.29347 182.35 1.96731 182.695 2.85449C183.385 4.62708 184.01 7.20408 184.536 10.4023C185.588 16.7959 186.24 25.6366 186.24 35.4063C186.24 45.1757 185.588 54.0158 184.536 60.4092C184.01 63.6075 183.385 66.1844 182.695 67.957C182.35 68.8442 181.993 69.518 181.632 69.9668C181.269 70.4184 180.927 70.6113 180.613 70.6113C180.299 70.6113 179.958 70.4183 179.595 69.9668C179.234 69.5181 178.877 68.844 178.532 67.957C177.842 66.1844 177.217 63.6075 176.69 60.4092C175.638 54.0158 174.987 45.1757 174.987 35.4063C174.987 25.6366 175.638 16.7959 176.69 10.4023C177.217 7.20407 177.842 4.62709 178.532 2.85449C178.877 1.9675 179.234 1.29343 179.595 0.844727C179.958 0.393212 180.299 0.200239 180.613 0.200196Z" stroke="var(--stroke-0, white)" stroke-width="0.399824"/>
<path id="Ellipse 12" d="M189.578 0.200195C189.604 0.200368 189.661 0.215115 189.748 0.314453C189.834 0.413108 189.928 0.571724 190.026 0.798828C190.222 1.2518 190.417 1.93161 190.603 2.82324C190.976 4.60334 191.313 7.1868 191.597 10.3877C192.164 16.7874 192.514 25.6332 192.514 35.4062C192.514 45.1792 192.164 54.0242 191.597 60.4238C191.313 63.6247 190.976 66.2082 190.603 67.9883C190.417 68.8799 190.222 69.5597 190.026 70.0127C189.928 70.2397 189.834 70.3984 189.748 70.4971C189.661 70.5964 189.604 70.6112 189.578 70.6113C189.552 70.6113 189.494 70.597 189.407 70.4971C189.321 70.3984 189.227 70.2397 189.129 70.0127C188.933 69.5597 188.738 68.8798 188.552 67.9883C188.179 66.2082 187.842 63.6247 187.558 60.4238C186.991 54.0242 186.64 45.1792 186.64 35.4062C186.64 25.6332 186.991 16.7874 187.558 10.3877C187.842 7.1868 188.179 4.60334 188.552 2.82324C188.738 1.93161 188.933 1.2518 189.129 0.798828C189.227 0.571739 189.321 0.413109 189.407 0.314453C189.494 0.214519 189.552 0.200195 189.578 0.200195Z" stroke="var(--stroke-0, white)" stroke-width="0.399824"/>
</g>
</svg>
