<svg preserveAspectRatio="none" width="100%" height="100%" overflow="visible" style="display: block;" viewBox="0 0 129.846 353.379" fill="none" xmlns="http://www.w3.org/2000/svg">
<g id="Group 86" opacity="0.1">
<circle id="Ellipse 7" cx="64.9231" cy="64.9231" r="64.9231" transform="matrix(-4.37114e-08 -1 -1 4.37114e-08 129.846 353.379)" fill="var(--fill-0, #FFF9E8)"/>
<ellipse id="Ellipse 8" cx="46.8433" cy="64.9231" rx="46.8433" ry="64.9231" transform="matrix(-4.37114e-08 -1 -1 4.37114e-08 129.846 223.531)" fill="var(--fill-0, #FFF9E8)"/>
<ellipse id="Ellipse 9" cx="32.0506" cy="64.9231" rx="32.0506" ry="64.9231" transform="matrix(-4.37114e-08 -1 -1 4.37114e-08 129.846 129.847)" fill="var(--fill-0, #FFF9E8)"/>
<ellipse id="Ellipse 10" cx="16.4362" cy="64.9231" rx="16.4362" ry="64.9231" transform="matrix(-4.37114e-08 -1 -1 4.37114e-08 129.846 65.7451)" fill="var(--fill-0, #FFF9E8)"/>
<ellipse id="Ellipse 11" cx="10.6836" cy="64.9231" rx="10.6836" ry="64.9231" transform="matrix(-4.37114e-08 -1 -1 4.37114e-08 129.846 32.8726)" fill="var(--fill-0, #FFF9E8)"/>
<ellipse id="Ellipse 12" cx="5.75268" cy="64.9231" rx="5.75268" ry="64.9231" transform="matrix(-4.37114e-08 -1 -1 4.37114e-08 129.846 11.5054)" fill="var(--fill-0, #FFF9E8)"/>
</g>
</svg>
