<svg preserveAspectRatio="none" width="100%" height="100%" overflow="visible" style="display: block;" viewBox="0 0 94.4143 256.951" fill="none" xmlns="http://www.w3.org/2000/svg">
<g id="Group 86" opacity="0.1">
<circle id="Ellipse 7" cx="47.2072" cy="47.2072" r="47.2072" transform="matrix(-4.37114e-08 -1 -1 4.37114e-08 94.4143 256.951)" fill="#FFF9E8"/>
<ellipse id="Ellipse 8" cx="34.0609" cy="47.2072" rx="34.0609" ry="47.2072" transform="matrix(-4.37114e-08 -1 -1 4.37114e-08 94.4143 162.535)" fill="#FFF9E8"/>
<ellipse id="Ellipse 9" cx="23.3048" cy="47.2072" rx="23.3048" ry="47.2072" transform="matrix(-4.37114e-08 -1 -1 4.37114e-08 94.4143 94.4146)" fill="#FFF9E8"/>
<ellipse id="Ellipse 10" cx="11.9512" cy="47.2072" rx="11.9512" ry="47.2072" transform="matrix(-4.37114e-08 -1 -1 4.37114e-08 94.4143 47.8049)" fill="#FFF9E8"/>
<ellipse id="Ellipse 11" cx="7.76827" cy="47.2072" rx="7.76827" ry="47.2072" transform="matrix(-4.37114e-08 -1 -1 4.37114e-08 94.4143 23.9024)" fill="#FFF9E8"/>
<ellipse id="Ellipse 12" cx="4.18291" cy="47.2072" rx="4.18291" ry="47.2072" transform="matrix(-4.37114e-08 -1 -1 4.37114e-08 94.4143 8.36583)" fill="#FFF9E8"/>
</g>
</svg>
