<svg preserveAspectRatio="none" width="100%" height="100%" overflow="visible" style="display: block;" viewBox="0 0 940.972 682.796" fill="none" xmlns="http://www.w3.org/2000/svg">
<path id="Subtract" d="M739.923 0C742.238 0 744.013 2.03529 743.737 4.33448C740.083 34.7847 741.672 99.7359 787.513 154.057C833.564 208.626 904.718 220.284 936.828 218.563C939.065 218.444 940.972 220.193 940.972 222.433V460.363C940.972 462.603 939.065 464.353 936.828 464.233C904.718 462.512 833.564 474.17 787.513 528.739C741.672 583.06 740.083 648.011 743.737 678.462C744.013 680.761 742.238 682.796 739.923 682.796H201.05C198.734 682.796 196.96 680.761 197.236 678.462C200.889 648.011 199.301 583.06 153.459 528.739C107.409 474.17 36.2548 462.512 4.14413 464.233C1.90733 464.353 0 462.603 0 460.363V222.433C0 220.193 1.90732 218.444 4.14412 218.563C36.2548 220.284 107.409 208.626 153.459 154.057C199.301 99.7359 200.889 34.7847 197.236 4.33447C196.96 2.03529 198.734 0 201.05 0H739.923Z" fill="var(--fill-0, #D9D9D9)"/>
</svg>
