<svg preserveAspectRatio="none" width="100%" height="100%" overflow="visible" style="display: block;" viewBox="0 0 549.251 480" fill="none" xmlns="http://www.w3.org/2000/svg">
<g id="Group" opacity="0.03">
<path id="Vector" d="M61.2015 269.955C57.0502 254.341 54.9117 238.322 54.9117 222.071C54.9117 199.228 59.063 176.789 67.2398 155.507C75.165 134.862 86.6755 115.662 101.457 98.4278C131.019 63.9604 172.595 39.0352 218.637 28.2785L211.781 3.58461C159.889 15.7292 113.03 43.7773 79.6937 82.6399C63.0256 102.071 50.0685 123.758 41.1369 147.006C31.8908 171.064 27.2363 196.336 27.2363 222.071C27.2363 245.088 31.0102 267.816 38.4323 289.56L61.2015 269.955Z" fill="#427BBA"/>
<path id="Vector_2" d="M542.943 217.793L539.294 214.324L490.548 257.755L529.482 294.015L549.17 276.145L529.86 258.16L542.439 246.94C551.308 239.017 551.56 225.948 542.943 217.736V217.793Z" fill="#427BBA"/>
<path id="Vector_3" d="M529.291 293.841L514.322 307.721C514.322 307.721 514.322 307.721 514.259 307.663L494.823 325.764C516.963 345.832 514.385 355.952 509.038 363.181C496.584 379.952 476.331 378.911 475.387 378.853H475.513L475.387 380.241V378.853L412.74 377.292C355.503 377.292 347.766 351.904 346.823 349.591L341.602 331.952L325.248 343.345C300.215 360.81 272.351 353.176 263.482 349.995C255.934 341.089 247.38 334.092 239.958 328.945L262.476 310.092L278.137 325.012C288.767 335.133 306.316 335.422 317.26 325.648L282.918 292.916L308.455 271.518C326.758 256.135 337.388 234.506 337.702 211.721L339.526 92.8199L402.425 38.632L395.38 31.7501C388.776 25.273 377.769 24.9838 370.787 30.9983L43.1484 313.33C19.6244 333.629 6.22697 361.966 6.22697 391.576V444.26C2.13856 455.595 0 467.566 0 479.653V479.942H59.9423L172.09 385.851L186.997 400.829C191.715 405.571 191.463 412.858 186.431 417.311L115.859 479.942H155.737L204.924 436.28C210.71 431.133 215.176 424.656 217 417.427C220.082 405.051 216.434 392.617 207.439 383.595L192.595 368.675L219.076 346.468C231.404 354.217 251.091 369.947 255.62 393.542C258.01 405.918 255.934 419.451 249.519 433.677C242.914 448.308 231.718 463.807 216.057 479.942H251.846C277.949 447.904 288.39 417.369 282.855 388.916C282.226 385.619 281.408 382.497 280.402 379.431C294.428 380.646 311.6 379.431 328.834 371.277C338.331 382.959 392.11 410.892 444.315 408.868L359.78 480H400.79L429.597 455.769L455.952 480H495.138L450.039 438.593L492.999 402.448C505.138 399.672 520.423 393.08 531.933 377.581C540.802 365.61 542.815 352.193 537.783 338.718C536.399 335.017 534.449 331.316 531.996 327.557L549.042 311.711L529.354 293.783L529.291 293.841ZM62.0809 331.952L251.343 168.868V196.858C251.343 204.145 248.072 211.258 242.348 216.347L37.4247 398.574C36.2296 399.615 35.0974 400.713 33.9652 401.812V391.634C33.9652 369.022 44.1548 347.393 62.0809 331.952ZM28.0528 472.308C30.0026 451.431 40.1922 431.537 56.6716 416.906L261.595 234.68C272.665 224.849 279.018 211.027 279.018 196.858V144.984L311.474 116.993L310.027 211.374C309.775 227.046 302.416 242.14 289.774 252.723L27.9899 472.308H28.0528Z" fill="#427BBA"/>
<path id="Vector_4" d="M437.397 200.097C449.914 200.097 473.186 172.222 473.186 172.222H395.192C395.192 172.222 412.804 200.097 437.397 200.097Z" fill="#427BBA"/>
<path id="Vector_5" d="M369.15 165.223L405.506 136.654C405.506 136.654 409.783 132.317 424.249 132.317H473.876L447.522 107.334H420.224C410.034 107.334 400.033 109.936 391.416 114.968C376.95 123.411 360.03 139.257 369.15 165.165V165.223Z" fill="#427BBA"/>
<path id="Vector_6" d="M192.156 108.838V56.8481C176.054 58.0047 163.349 71.3059 162.468 85.8794C162.342 87.8456 162.845 89.5806 162.845 91.3155C162.971 105.542 162.782 119.768 162.782 133.995C154.354 141.282 145.8 148.511 137.183 155.74C135.107 157.474 133.031 159.73 130.704 161.349C130.327 161.58 130.264 161.985 129.635 161.812V108.838C112.464 115.778 101.456 132.029 100.324 149.147C99.5065 161.465 101.079 174.477 100.136 186.853C98.1228 188.53 96.3616 190.438 94.4117 192.173C86.9268 198.766 76.926 205.648 70.3216 212.703C69.6926 213.397 68.5604 213.339 68.9378 214.785H129.509C131.27 214.785 137.309 212.53 139.07 211.72C147.121 207.845 153.977 199.807 155.423 191.421C155.549 190.785 156.178 188.125 155.36 188.125H105.293C107.62 185.812 110.325 183.845 112.778 181.706C122.087 173.783 131.27 165.802 140.579 157.821C141.02 157.648 141.523 157.648 142.089 157.59C159.449 156.318 184.797 161.002 200.081 153.773C208.761 149.667 217.001 141.224 218.699 132.202C218.196 132.029 217.63 132.549 217.504 132.549H170.582C177.375 126.014 184.797 120 192.219 114.101C202.786 113.234 214.045 115.373 224.297 112.424C232.474 110.053 240.462 104.385 244.802 97.5613C245.871 95.8264 247.318 93.3974 247.444 91.4312H218.825C223.731 86.9203 228.763 82.5252 234.047 78.3613C241.091 79.7493 247.884 82.0625 254.929 83.4505C266.062 85.6481 276.88 81.4842 280.088 70.9011C280.277 70.2071 281.095 66.8529 280.591 66.5637C269.521 66.4481 258.388 65.9276 247.381 67.0264L263.231 53.2047C279.9 51.9324 297.574 53.8409 314.242 52.9156C330.281 52.0481 345.691 40.4819 348.962 25.9662H289.775L256.438 54.1879V0H254.677C254.237 0.46265 253.734 0.46265 253.293 0H252.602C252.79 0.751806 252.224 0.693975 251.658 0.867468C236.688 5.78312 227.254 16.0771 227.128 30.9397C226.939 47.1325 227.253 63.3252 227.065 79.5179C215.24 89.0023 204.107 99.3541 192.219 108.781L192.156 108.838Z" fill="#427BBA"/>
</g>
</svg>
