<svg preserveAspectRatio="none" width="100%" height="100%" overflow="visible" style="display: block;" viewBox="0 0 302.077 1440" fill="none" xmlns="http://www.w3.org/2000/svg">
<g id="Group 85" opacity="0.2">
<ellipse id="Ellipse 7" cx="143.707" cy="146.64" rx="143.707" ry="146.64" transform="matrix(-4.47551e-08 -1 -1 4.2692e-08 297.961 353.4)" fill="url(#paint0_linear_0_112)"/>
<ellipse id="Ellipse 13" cx="214.827" cy="146.64" rx="214.827" ry="146.64" transform="matrix(-4.47551e-08 -1 -1 4.2692e-08 297.961 783.054)" fill="url(#paint1_linear_0_112)"/>
<ellipse id="Ellipse 14" cx="328.473" cy="146.64" rx="328.473" ry="146.64" transform="matrix(-4.47551e-08 -1 -1 4.2692e-08 297.961 1440)" fill="url(#paint2_linear_0_112)"/>
<ellipse id="Ellipse 12" cx="32.9939" cy="151.039" rx="32.9939" ry="151.039" transform="matrix(-4.47551e-08 -1 -1 4.2692e-08 302.077 65.9878)" fill="url(#paint3_linear_0_112)"/>
</g>
<defs>
<linearGradient id="paint0_linear_0_112" x1="143.707" y1="0" x2="143.707" y2="293.279" gradientUnits="userSpaceOnUse">
<stop stop-color="#B3902F"/>
<stop offset="1" stop-color="white"/>
</linearGradient>
<linearGradient id="paint1_linear_0_112" x1="214.827" y1="0" x2="214.827" y2="293.279" gradientUnits="userSpaceOnUse">
<stop stop-color="#B3902F"/>
<stop offset="1" stop-color="white"/>
</linearGradient>
<linearGradient id="paint2_linear_0_112" x1="328.473" y1="0" x2="328.473" y2="293.279" gradientUnits="userSpaceOnUse">
<stop stop-color="#B3902F"/>
<stop offset="1" stop-color="white"/>
</linearGradient>
<linearGradient id="paint3_linear_0_112" x1="32.9939" y1="0" x2="32.9939" y2="302.077" gradientUnits="userSpaceOnUse">
<stop stop-color="#B3902F"/>
<stop offset="1" stop-color="white"/>
</linearGradient>
</defs>
</svg>
