<svg preserveAspectRatio="none" width="100%" height="100%" overflow="visible" style="display: block;" viewBox="0 0 758 758" fill="none" xmlns="http://www.w3.org/2000/svg">
<path id="Vector 7" fill-rule="evenodd" clip-rule="evenodd" d="M14.0237 526.636C6.15098 525.7 0 519.165 0 511.237V247.653C0 239.369 6.72463 232.712 14.984 232.07C64.8687 228.192 120.485 204.614 176.101 150.099C217.681 109.343 229.124 51.2948 230.077 16.3045C230.317 7.52219 237.241 0 246.026 0H505.646C513.931 0 520.59 6.72367 521.153 14.9888C524.373 62.293 543.11 108.72 581.899 157.604C620.395 206.118 698.802 225.998 743.976 231.364C751.849 232.3 758 238.835 758 246.763V510.347C758 518.631 751.275 525.288 743.016 525.93C693.131 529.808 637.515 553.386 581.899 607.901C540.319 648.657 528.876 706.705 527.923 741.696C527.683 750.478 520.759 758 511.974 758H252.354C244.069 758 237.41 751.276 236.847 743.011C233.627 695.707 214.89 649.28 176.101 600.396C137.605 551.882 59.1977 532.002 14.0237 526.636Z" fill="var(--fill-0, #B3902F)"/>
</svg>
