<svg preserveAspectRatio="none" width="100%" height="100%" overflow="visible" style="display: block;" viewBox="0 0 80.6362 76.4329" fill="none" xmlns="http://www.w3.org/2000/svg">
<g id="Group">
<path id="Vector" d="M8.98492 42.9866C8.37546 40.5002 8.0615 37.9494 8.0615 35.3617C8.0615 31.7243 8.67096 28.1512 9.87141 24.7624C11.0349 21.4749 12.7248 18.4176 14.8948 15.6733C19.2349 10.1849 25.3388 6.21593 32.0982 4.50309L31.0917 0.570944C23.4735 2.50479 16.5939 6.97105 11.6998 13.1593C9.25272 16.2535 7.35046 19.7068 6.0392 23.4087C4.68177 27.2396 3.99843 31.2638 3.99843 35.3617C3.99843 39.0268 4.55248 42.6459 5.64212 46.1084L8.98492 42.9866Z" fill="var(--fill-0, #233A58)"/>
<path id="Vector_2" d="M79.71 34.6803L79.1744 34.1277L72.0179 41.0435L77.7339 46.8174L80.6242 43.9719L77.7893 41.108L79.6361 39.3215C80.9382 38.0599 80.9751 35.9787 79.71 34.6711V34.6803Z" fill="var(--fill-0, #233A58)"/>
<path id="Vector_3" d="M77.7062 46.7898L75.5084 48.9999C75.5084 48.9999 75.5084 48.9999 75.4992 48.9907L72.6458 51.8731C75.8963 55.0685 75.5177 56.68 74.7328 57.8311C72.9044 60.5017 69.9309 60.3359 69.7924 60.3267H69.8109L69.7924 60.5477V60.3267L60.5951 60.0781C52.192 60.0781 51.0561 56.0354 50.9176 55.6671L50.1512 52.8584L47.7503 54.6725C44.0751 57.4536 39.9843 56.238 38.6823 55.7315C37.5741 54.3134 36.3183 53.1991 35.2287 52.3795L38.5345 49.3775L40.8338 51.7534C42.3944 53.3649 44.9708 53.4109 46.5775 51.8546L41.5356 46.6425L45.2847 43.2352C47.9719 40.7857 49.5325 37.3416 49.5787 33.7133L49.8465 14.7801L59.0807 6.15147L58.0465 5.05562C57.0769 4.02424 55.4609 3.97819 54.4359 4.93591L6.3347 49.8932C2.88109 53.1255 0.914192 57.6378 0.914192 62.3527V70.7419C0.313966 72.5468 0 74.453 0 76.3776V76.4237H8.80024L25.2649 61.441L27.4534 63.8261C28.146 64.5812 28.109 65.7415 27.3703 66.4506L17.0095 76.4237H22.864L30.0852 69.471C30.9347 68.6515 31.5904 67.6201 31.8582 66.469C32.3106 64.4983 31.775 62.5184 30.4545 61.0818L28.2753 58.706L32.1629 55.1698C33.9728 56.4038 36.8631 58.9086 37.528 62.6658C37.8789 64.6364 37.5741 66.7913 36.6323 69.0566C35.6627 71.3865 34.019 73.8544 31.7196 76.4237H36.9739C40.8061 71.322 42.339 66.4598 41.5264 61.9291C41.4341 61.4042 41.314 60.9069 41.1663 60.4188C43.2255 60.6122 45.7465 60.4188 48.2766 59.1204C49.671 60.9805 57.5663 65.4284 65.2307 65.1061L52.8199 76.4329H58.8406L63.0699 72.5744L66.9391 76.4329H72.692L66.071 69.8394L72.378 64.0839C74.1602 63.6419 76.4042 62.5921 78.094 60.1241C79.396 58.2179 79.6915 56.0815 78.9528 53.9358C78.7496 53.3465 78.4634 52.7571 78.1032 52.1585L80.6057 49.6353L77.7154 46.7806L77.7062 46.7898ZM9.1142 52.8584L36.9 26.8896V31.3467C36.9 32.507 36.4199 33.6397 35.5795 34.4501L5.49438 63.4669C5.31893 63.6327 5.15271 63.8076 4.98649 63.9826V62.3619C4.98649 58.7612 6.48244 55.3171 9.1142 52.8584ZM4.11848 75.2081C4.40474 71.8837 5.90068 68.7159 8.32005 66.3861L38.4052 37.3692C40.0305 35.8037 40.9631 33.6028 40.9631 31.3467V23.0864L45.728 18.6294L45.5156 33.6581C45.4787 36.1537 44.3983 38.5572 42.5422 40.2424L4.10924 75.2081H4.11848Z" fill="var(--fill-0, #233A58)"/>
<path id="Vector_4" d="M64.2149 31.8624C66.0526 31.8624 69.4692 27.4237 69.4692 27.4237H58.0188C58.0188 27.4237 60.6044 31.8624 64.2149 31.8624Z" fill="var(--fill-0, #233A58)"/>
<path id="Vector_5" d="M54.1958 26.3095L59.5332 21.7603C59.5332 21.7603 60.1611 21.0697 62.285 21.0697H69.5708L65.7017 17.0915H61.694C60.198 17.0915 58.7298 17.5059 57.4647 18.3071C55.3408 19.6515 52.8568 22.1747 54.1958 26.3003V26.3095Z" fill="var(--fill-0, #233A58)"/>
<path id="Vector_6" d="M28.2106 17.3309V9.05223C25.8467 9.23641 23.9813 11.3544 23.8521 13.675C23.8336 13.9881 23.9075 14.2644 23.9075 14.5407C23.9259 16.806 23.8982 19.0714 23.8982 21.3367C22.6608 22.4971 21.405 23.6482 20.1399 24.7992C19.8352 25.0755 19.5304 25.4347 19.1888 25.6925C19.1334 25.7293 19.1241 25.7938 19.0318 25.7662V17.3309C16.5108 18.436 14.8948 21.0236 14.7286 23.7494C14.6086 25.7109 14.8394 27.7829 14.7009 29.7536C14.4054 30.0206 14.1469 30.3245 13.8606 30.6008C12.7617 31.6506 11.2935 32.7464 10.3239 33.8699C10.2315 33.9804 10.0653 33.9712 10.1207 34.2014H19.0133C19.2719 34.2014 20.1584 33.8423 20.4169 33.7133C21.5989 33.0964 22.6054 31.8163 22.8178 30.4811C22.8363 30.3798 22.9286 29.9562 22.8086 29.9562H15.4581C15.7998 29.5878 16.1969 29.2747 16.557 28.934C17.9237 27.6724 19.2719 26.4016 20.6385 25.1308C20.7032 25.1031 20.7771 25.1031 20.8602 25.0939C23.4088 24.8913 27.1302 25.6372 29.3741 24.4861C30.6485 23.8323 31.8581 22.4878 32.1075 21.0513C32.0336 21.0236 31.9505 21.1065 31.932 21.1065H25.0433C26.0406 20.0659 27.1302 19.1082 28.2199 18.1689C29.7712 18.0308 31.4241 18.3715 32.9293 17.9019C34.1298 17.5243 35.3025 16.6219 35.9397 15.5352C36.0967 15.259 36.3091 14.8722 36.3275 14.5591H32.1259C32.8462 13.8408 33.585 13.1409 34.3606 12.4779C35.3949 12.6989 36.3922 13.0673 37.4264 13.2883C39.0609 13.6382 40.6492 12.9752 41.1201 11.29C41.1478 11.1795 41.2678 10.6454 41.194 10.5993C39.5687 10.5809 37.9343 10.498 36.3183 10.673L38.6453 8.47208C41.0924 8.26949 43.6872 8.57337 46.1343 8.42603C48.489 8.2879 50.7514 6.44615 51.2316 4.13474H42.5422L37.648 8.62863V0H37.3895C37.3248 0.0736702 37.2509 0.0736702 37.1863 0H37.0847C37.1124 0.119714 37.0293 0.110505 36.9462 0.138132C34.7485 0.920878 33.3633 2.56004 33.3449 4.9267C33.3172 7.50516 33.3633 10.0836 33.3356 12.6621C31.5996 14.1723 29.9651 15.8207 28.2199 17.3217L28.2106 17.3309Z" fill="var(--fill-0, #B28F2F)"/>
</g>
</svg>
