<svg preserveAspectRatio="none" width="100%" height="100%" overflow="visible" style="display: block;" viewBox="0 0 821 640.925" fill="none" xmlns="http://www.w3.org/2000/svg">
<g id="Group 98">
<path id="Vector 9" d="M4.85237 325.934C48.7706 338.801 130.433 415.14 143.927 633.255C144.19 637.498 147.701 640.925 151.952 640.925H518.953V0H151.952C147.701 0 144.19 3.42126 143.928 7.66473C130.434 225.979 48.7604 310.078 4.8436 323.506C3.79738 323.826 3.80246 325.627 4.85237 325.934Z" fill="var(--fill-0, #EBD28C)"/>
<path id="Vector 12" d="M811.392 327.526C766.585 344.329 690.094 422.789 677.073 633.255C676.81 637.498 673.299 640.925 669.048 640.925H302.047V0H669.048C673.299 0 676.81 3.42126 677.072 7.66473C690.095 218.363 766.624 304.047 811.427 321.84C813.461 322.648 813.441 326.757 811.392 327.526Z" fill="var(--fill-0, #EBD28C)"/>
</g>
</svg>
