<svg preserveAspectRatio="none" width="100%" height="100%" overflow="visible" style="display: block;" viewBox="0 0 223.75 1162" fill="none" xmlns="http://www.w3.org/2000/svg">
<g id="Group 81" opacity="0.2">
<ellipse id="Ellipse 7" cx="213.483" cy="111.874" rx="213.483" ry="111.874" transform="matrix(-2.29066e-08 -1 -1 8.3412e-08 223.749 1162)" fill="url(#paint0_linear_0_164)"/>
<ellipse id="Ellipse 8" cx="154.032" cy="111.874" rx="154.032" ry="111.874" transform="matrix(-2.29066e-08 -1 -1 8.3412e-08 223.75 735.031)" fill="url(#paint1_linear_0_164)"/>
<ellipse id="Ellipse 9" cx="105.39" cy="111.874" rx="105.39" ry="111.874" transform="matrix(-2.29066e-08 -1 -1 8.3412e-08 223.749 426.966)" fill="url(#paint2_linear_0_164)"/>
<ellipse id="Ellipse 10" cx="54.0464" cy="111.874" rx="54.0464" ry="111.874" transform="matrix(-2.29066e-08 -1 -1 8.3412e-08 223.749 216.185)" fill="url(#paint3_linear_0_164)"/>
<ellipse id="Ellipse 11" cx="35.1302" cy="111.874" rx="35.1302" ry="111.874" transform="matrix(-2.29066e-08 -1 -1 8.3412e-08 223.749 108.093)" fill="url(#paint4_linear_0_164)"/>
<ellipse id="Ellipse 12" cx="18.9162" cy="111.874" rx="18.9162" ry="111.874" transform="matrix(-2.29066e-08 -1 -1 8.3412e-08 223.749 37.8325)" fill="url(#paint5_linear_0_164)"/>
</g>
<defs>
<linearGradient id="paint0_linear_0_164" x1="213.483" y1="0" x2="213.483" y2="223.749" gradientUnits="userSpaceOnUse">
<stop stop-color="#FFC932"/>
<stop offset="1" stop-color="#FFFDF8"/>
</linearGradient>
<linearGradient id="paint1_linear_0_164" x1="154.032" y1="0" x2="154.032" y2="223.749" gradientUnits="userSpaceOnUse">
<stop stop-color="#FFC932"/>
<stop offset="1" stop-color="#FFFDF8"/>
</linearGradient>
<linearGradient id="paint2_linear_0_164" x1="105.39" y1="0" x2="105.39" y2="223.749" gradientUnits="userSpaceOnUse">
<stop stop-color="#FFC932"/>
<stop offset="1" stop-color="#FFFDF8"/>
</linearGradient>
<linearGradient id="paint3_linear_0_164" x1="54.0464" y1="0" x2="54.0464" y2="223.749" gradientUnits="userSpaceOnUse">
<stop stop-color="#FFC932"/>
<stop offset="1" stop-color="#FFFDF8"/>
</linearGradient>
<linearGradient id="paint4_linear_0_164" x1="35.1302" y1="0" x2="35.1302" y2="223.749" gradientUnits="userSpaceOnUse">
<stop stop-color="#FFC932"/>
<stop offset="1" stop-color="#FFFDF8"/>
</linearGradient>
<linearGradient id="paint5_linear_0_164" x1="18.9162" y1="0" x2="18.9162" y2="223.749" gradientUnits="userSpaceOnUse">
<stop stop-color="#FFC932"/>
<stop offset="1" stop-color="#FFFDF8"/>
</linearGradient>
</defs>
</svg>
