<svg preserveAspectRatio="none" width="100%" height="100%" overflow="visible" style="display: block;" viewBox="0 0 413.852 246.903" fill="none" xmlns="http://www.w3.org/2000/svg">
<g id="Group 99">
<path id="Vector 9" d="M7.81871 126.66C34.9596 133.933 78.6986 163.612 87.6806 239.579C88.1684 243.704 91.6164 246.903 95.7708 246.903H317.852V0H95.7708C91.6164 0 88.1683 3.19754 87.6816 7.32332C78.6999 83.4682 34.9426 115.718 7.80194 123.463C6.67033 123.786 6.68204 126.355 7.81871 126.66Z" fill="var(--fill-0, #1F3A58)"/>
<path id="Vector 12" d="M406.033 126.66C378.892 133.933 335.153 163.612 326.171 239.579C325.684 243.704 322.236 246.903 318.081 246.903H96.0002V0H318.081C322.236 0 325.684 3.19754 326.17 7.32332C335.152 83.4682 378.909 115.718 406.05 123.463C407.182 123.786 407.17 126.355 406.033 126.66Z" fill="var(--fill-0, #1F3A58)"/>
</g>
</svg>
