<svg preserveAspectRatio="none" width="100%" height="100%" overflow="visible" style="display: block;" viewBox="0 0 22 22" fill="none" xmlns="http://www.w3.org/2000/svg">
<path id="Vector" d="M21.9996 21.1408V21.4417C21.8816 21.7478 21.7477 21.8821 21.4412 22H21.1403L20.7954 21.8076L15.0971 16.2072C14.7777 16.3806 14.4914 16.6251 14.1758 16.8201C9.22099 19.881 2.57037 17.6931 0.55771 12.2278C-1.45409 6.76297 2.20357 0.904727 7.89069 0.096367C14.4427 -0.834668 20.0037 5.12817 18.1542 11.6037C17.7676 12.957 17.034 14.1729 16.1166 15.2279L22 21.1408H21.9996ZM8.54206 1.43503C2.37922 1.91367 -0.800139 9.24831 3.22433 14.0296C7.1403 18.6826 14.9034 17.2458 16.7262 11.4216C18.4065 6.05275 14.0475 1.0076 8.54249 1.43503H8.54206Z" fill="var(--fill-0, white)"/>
</svg>
