<svg preserveAspectRatio="none" width="100%" height="100%" overflow="visible" style="display: block;" viewBox="0 0 735 733.291" fill="none" xmlns="http://www.w3.org/2000/svg">
<g id="Group" opacity="0.03">
<path id="Vector" d="M81.899 412.409C76.3438 388.555 73.482 364.083 73.482 339.257C73.482 304.359 79.0372 270.08 89.9793 237.568C100.585 206.028 115.988 176.696 135.768 150.368C175.328 97.7126 230.964 59.6345 292.576 43.2018L283.402 5.47706C213.962 24.0302 151.255 66.8791 106.645 126.249C84.34 155.934 67.001 189.065 55.0489 224.581C42.6759 261.334 36.4473 299.942 36.4473 339.257C36.4473 374.419 41.4975 409.14 51.4295 442.359L81.899 412.409Z" fill="var(--fill-0, #427BBA)"/>
<path id="Vector_2" d="M726.558 332.721L721.676 327.42L656.444 393.77L708.546 449.164L734.891 421.865L709.051 394.388L725.885 377.249C737.753 365.145 738.089 345.178 726.558 332.633V332.721Z" fill="var(--fill-0, #427BBA)"/>
<path id="Vector_3" d="M708.29 448.898L688.258 470.102C688.258 470.102 688.258 470.102 688.174 470.013L662.165 497.666C691.793 528.323 688.342 543.784 681.188 554.827C664.522 580.448 637.419 578.858 636.157 578.77H636.325L636.157 580.89V578.77L552.323 576.384C475.729 576.384 465.376 537.6 464.113 534.066L457.127 507.119L435.243 524.524C401.743 551.205 364.456 539.543 352.588 534.684C342.488 521.078 331.04 510.388 321.108 502.525L351.241 473.724L372.2 496.518C386.424 511.979 409.908 512.42 424.553 497.49L378.596 447.484L412.77 414.796C437.263 391.295 451.488 358.253 451.909 323.443L454.349 141.799L538.519 59.0172L529.092 48.5038C520.255 38.6088 505.525 38.167 496.182 47.3552L57.7406 478.671C26.2611 509.682 8.33284 552.972 8.33284 598.206V678.692C2.86179 696.008 0 714.296 0 732.761V733.203H80.214L230.289 589.46L250.237 612.342C256.55 619.587 256.213 630.719 249.48 637.521L155.041 733.203H208.405L274.226 666.5C281.969 658.637 287.945 648.742 290.386 637.698C294.511 618.792 289.629 599.797 277.593 586.014L257.728 563.221L293.164 529.295C309.661 541.134 336.007 565.164 342.067 601.21C345.265 620.117 342.488 640.79 333.902 662.524C325.064 684.876 310.082 708.553 289.124 733.203H337.017C371.947 684.258 385.919 637.61 378.512 594.142C377.671 589.107 376.576 584.336 375.23 579.653C394 581.509 416.978 579.653 440.041 567.196C452.75 585.043 524.716 627.715 594.577 624.623L481.452 733.291H536.331L574.881 696.273L610.148 733.291H662.586L602.236 670.034L659.724 614.816C675.969 610.575 696.422 600.504 711.825 576.826C723.693 558.538 726.387 538.041 719.653 517.456C717.801 511.802 715.192 506.148 711.91 500.405L734.72 476.198L708.374 448.81L708.29 448.898ZM83.0757 507.119L336.343 257.977V300.738C336.343 311.87 331.966 322.737 324.307 330.511L50.0811 608.897C48.4819 610.487 46.9669 612.166 45.4518 613.844V598.295C45.4518 563.751 59.0873 530.708 83.0757 507.119ZM37.5398 721.541C40.1491 689.647 53.7846 659.255 75.8371 636.903L350.063 358.518C364.877 343.499 373.378 322.383 373.378 300.738V221.49L416.81 178.729L414.874 322.913C414.537 346.856 404.689 369.915 387.771 386.082L37.4556 721.541H37.5398Z" fill="var(--fill-0, #427BBA)"/>
<path id="Vector_4" d="M585.319 305.686C602.068 305.686 633.211 263.102 633.211 263.102H528.84C528.84 263.102 552.408 305.686 585.319 305.686Z" fill="var(--fill-0, #427BBA)"/>
<path id="Vector_5" d="M493.991 252.41L542.642 208.766C542.642 208.766 548.365 202.14 567.724 202.14H634.134L598.867 163.974H562.337C548.702 163.974 535.319 167.95 523.788 175.636C504.428 188.535 481.787 212.742 493.991 252.322V252.41Z" fill="var(--fill-0, #427BBA)"/>
<path id="Vector_6" d="M257.141 166.271V86.8463C235.593 88.6133 218.591 108.933 217.412 131.197C217.244 134.201 217.917 136.851 217.917 139.502C218.086 161.236 217.833 182.969 217.833 204.703C206.555 215.835 195.107 226.878 183.576 237.922C180.799 240.572 178.021 244.018 174.907 246.492C174.402 246.845 174.317 247.463 173.476 247.198V166.271C150.497 176.873 135.768 201.699 134.253 227.85C133.158 246.668 135.263 266.547 134 285.453C131.307 288.015 128.95 290.931 126.341 293.581C116.324 303.653 102.941 314.166 94.1035 324.945C93.2618 326.005 91.7467 325.917 92.2517 328.125H173.307C175.664 328.125 183.744 324.68 186.101 323.443C196.875 317.524 206.05 305.243 207.985 292.433C208.154 291.461 208.995 287.397 207.901 287.397H140.902C144.016 283.863 147.636 280.859 150.918 277.59C163.375 265.486 175.664 253.294 188.121 241.102C188.711 240.837 189.384 240.837 190.141 240.749C213.372 238.805 247.293 245.961 267.746 234.918C279.362 228.645 290.388 215.746 292.66 201.964C291.987 201.699 291.229 202.494 291.061 202.494H228.27C237.361 192.511 247.293 183.323 257.225 174.311C271.365 172.986 286.432 176.255 300.151 171.749C311.094 168.127 321.783 159.469 327.591 149.043C329.022 146.393 330.958 142.682 331.126 139.679H292.829C299.394 132.787 306.128 126.073 313.198 119.712C322.625 121.832 331.715 125.366 341.142 127.487C356.04 130.844 370.518 124.483 374.81 108.315C375.063 107.255 376.157 102.131 375.484 101.689C360.67 101.512 345.772 100.717 331.042 102.396L352.253 81.2804C374.558 79.3367 398.21 82.2522 420.515 80.8386C441.978 79.5134 462.6 61.8438 466.976 39.6684H387.772L343.162 82.7823V0H340.806C340.216 0.706786 339.543 0.706786 338.954 0H338.028C338.28 1.14853 337.523 1.06018 336.765 1.32522C316.733 8.83482 304.108 24.5608 303.939 47.2663C303.687 72.0038 304.108 96.7413 303.855 121.479C288.031 135.968 273.133 151.782 257.225 166.183L257.141 166.271Z" fill="var(--fill-0, #427BBA)"/>
</g>
</svg>
