<svg preserveAspectRatio="none" width="100%" height="100%" overflow="visible" style="display: block;" viewBox="0 0 373 310" fill="none" xmlns="http://www.w3.org/2000/svg">
<g id="Frame 7">
<path id="Vector" opacity="0.1" d="M164.229 157.084V82.0193C142.812 83.6906 125.828 102.853 124.681 123.937C124.527 126.77 125.163 129.239 125.192 131.813C125.366 152.339 125.086 172.875 125.086 193.402C113.838 203.948 102.426 214.389 90.985 224.763C88.1898 227.289 85.4235 230.545 82.397 232.86C81.9247 233.216 81.8091 233.753 80.9994 233.552V157.094C58.1657 167.141 43.4476 190.616 41.9439 215.254C40.8644 233.072 42.9463 251.783 41.703 269.687C39.0427 272.117 36.6427 274.893 34.0692 277.352C24.074 286.899 10.7728 296.774 1.96314 306.994C1.10531 307.993 -0.407949 307.877 0.102895 310H80.7777C83.1199 310 91.1392 306.782 93.5103 305.543C104.248 299.953 113.346 288.359 115.284 276.266C115.428 275.383 116.257 271.541 115.187 271.541H48.45C51.5632 268.208 55.1199 265.374 58.4548 262.281C70.8404 250.851 83.0621 239.325 95.5151 227.837C96.1416 227.549 96.8163 227.549 97.4814 227.5C120.575 225.695 154.407 232.418 174.754 222.025C186.359 216.099 197.308 203.9 199.564 190.914C198.918 190.636 198.176 191.375 197.935 191.375H135.39C144.469 181.972 154.32 173.26 164.19 164.701C178.282 163.443 193.298 166.565 206.889 162.3C217.742 158.89 228.431 150.658 234.205 140.871C235.66 138.402 237.597 134.867 237.684 132.063H199.554C206.079 125.531 212.826 119.163 219.843 113.169C229.192 115.148 238.291 118.519 247.621 120.536C262.455 123.745 276.865 117.712 281.173 102.411C281.443 101.431 282.542 96.5232 281.887 96.1294C267.168 95.9853 252.296 95.1881 237.694 96.8402L258.821 76.8901C281.048 75.0651 304.528 77.8122 326.754 76.4674C348.094 75.1803 368.605 58.544 373 37.5277H294.185L249.78 78.302V0H247.448C246.86 0.643552 246.156 0.643552 245.588 0H244.662C244.894 1.1046 244.152 1.00855 243.409 1.2775C223.458 8.37578 210.937 23.2255 210.744 44.7029C210.532 68.0724 210.937 91.4612 210.619 114.831C194.87 128.499 180.026 143.454 164.219 157.094L164.229 157.084Z" fill="var(--fill-0, white)"/>
</g>
</svg>
