<svg preserveAspectRatio="none" width="100%" height="100%" overflow="visible" style="display: block;" viewBox="0 0 565.045 108" fill="none" xmlns="http://www.w3.org/2000/svg">
<g id="Group 135" opacity="0.3">
<path id="Vector 4" fill-rule="evenodd" clip-rule="evenodd" d="M213.624 107.5C209.077 68.6947 176.677 56.14 161.045 54.7133C176.677 53.2867 209.077 39.3053 213.624 0.5H350.045C352.414 18.0956 366.53 54.7133 404.045 54.7133C366.53 54.7133 352.414 89.9044 350.045 107.5H213.624Z" stroke="var(--stroke-0, #FFF9E8)"/>
<path id="Vector 5" fill-rule="evenodd" clip-rule="evenodd" d="M374.624 107.5C370.077 68.6947 337.677 56.14 322.045 54.7133C337.677 53.2867 370.077 39.3053 374.624 0.5H511.045C513.414 18.0956 527.53 54.7133 565.045 54.7133C527.53 54.7133 513.414 89.9044 511.045 107.5H374.624Z" stroke="var(--stroke-0, #FFF9E8)"/>
<path id="Vector 6" fill-rule="evenodd" clip-rule="evenodd" d="M52.6244 107.5C48.077 68.6947 15.677 56.14 0.0454452 54.7133C15.677 53.2867 48.077 39.3053 52.6244 0.5H189.045C191.414 18.0956 205.53 54.7133 243.045 54.7133C205.53 54.7133 191.414 89.9044 189.045 107.5H52.6244Z" stroke="var(--stroke-0, #FFF9E8)"/>
</g>
</svg>
