<svg preserveAspectRatio="none" overflow="visible" style="display: block;" width="151.938" height="607.75" viewBox="0 0 151.938 607.75" fill="none" xmlns="http://www.w3.org/2000/svg">
<g id="Group 133" opacity="0.3">
<path id="Vector" d="M143.518 379.844C108.04 375.954 79.859 347.774 75.9688 312.296C72.0785 347.773 43.8982 375.954 8.4209 379.844C43.8985 383.734 72.0789 411.915 75.9688 447.393C79.8586 411.914 108.04 383.734 143.518 379.844Z" stroke="white" stroke-width="0.920833"/>
<path id="Vector_2" d="M143.518 531.781C108.04 527.891 79.859 499.711 75.9688 464.233C72.0785 499.711 43.8982 527.891 8.4209 531.781C43.8985 535.671 72.0789 563.852 75.9688 599.33C79.8586 563.852 108.04 535.671 143.518 531.781Z" stroke="white" stroke-width="0.920833"/>
<path id="Vector_3" d="M143.518 227.906C108.04 224.016 79.859 195.836 75.9688 160.358C72.0786 195.836 43.8982 224.016 8.42091 227.906C43.8985 231.796 72.079 259.977 75.9688 295.455C79.8586 259.977 108.04 231.796 143.518 227.906Z" stroke="white" stroke-width="0.920833"/>
<path id="Vector_4" d="M143.518 75.9688C108.04 72.079 79.859 43.8985 75.9688 8.4209C72.0786 43.8982 43.8982 72.0785 8.42091 75.9688C43.8985 79.859 72.079 108.04 75.9688 143.518C79.8586 108.039 108.04 79.8586 143.518 75.9688Z" stroke="white" stroke-width="0.920833"/>
</g>
</svg>
