<svg preserveAspectRatio="none" width="100%" height="100%" overflow="visible" style="display: block;" viewBox="0 0 316 184.292" fill="none" xmlns="http://www.w3.org/2000/svg">
<g id="Group 73">
<circle id="Ellipse 7" cx="61.098" cy="121.814" r="60.598" stroke="var(--stroke-0, white)" stroke-opacity="0.2"/>
<path id="Ellipse 8" d="M152.48 0.500085C164.452 0.500085 175.336 7.22462 183.246 18.1876C191.156 29.1499 196.064 44.3194 196.064 61.0977C196.064 77.876 191.156 93.0456 183.246 104.008C175.336 114.971 164.452 121.696 152.48 121.696C140.508 121.696 129.624 114.971 121.714 104.008C113.805 93.0456 108.897 77.8761 108.897 61.0977C108.897 44.3194 113.805 29.1499 121.714 18.1876C129.624 7.2248 140.508 0.500225 152.48 0.500085Z" stroke="var(--stroke-0, white)" stroke-opacity="0.2"/>
<path id="Ellipse 9" d="M226.726 22.5791C234.76 22.5791 242.172 29.1896 247.606 40.1953C253.023 51.1693 256.388 66.3651 256.388 83.1767C256.388 99.9884 253.023 115.184 247.606 126.158C242.172 137.164 234.76 143.775 226.726 143.775C218.692 143.775 211.279 137.164 205.846 126.158C200.429 115.184 197.064 99.9883 197.064 83.1767C197.064 66.3651 200.428 51.1693 205.846 40.1953C211.279 29.1896 218.692 22.5792 226.726 22.5791Z" stroke="var(--stroke-0, white)" stroke-opacity="0.2"/>
<path id="Ellipse 10" d="M270.976 62.5957C272.829 62.5957 274.734 64.0905 276.568 67.1543C278.383 70.1863 280.035 74.6068 281.429 80.1133C284.216 91.1192 285.944 106.351 285.944 123.193C285.944 140.036 284.216 155.267 281.429 166.273C280.035 171.78 278.383 176.201 276.568 179.233C274.734 182.297 272.829 183.792 270.976 183.792C269.124 183.792 267.218 182.297 265.385 179.233C263.57 176.201 261.918 171.78 260.524 166.273C257.738 155.267 256.009 140.036 256.009 123.193C256.009 106.351 257.738 91.1192 260.524 80.1133C261.918 74.6069 263.57 70.1863 265.385 67.1543C267.218 64.0905 269.124 62.5957 270.976 62.5957Z" stroke="var(--stroke-0, white)" stroke-opacity="0.2"/>
<path id="Ellipse 11" d="M295.118 22.5791C295.591 22.5791 296.14 22.8702 296.754 23.6338C297.363 24.3905 297.973 25.5369 298.566 27.0615C299.75 30.1057 300.826 34.5405 301.734 40.0557C303.548 51.0779 304.672 66.3238 304.672 83.1767C304.672 100.03 303.548 115.276 301.734 126.299C300.826 131.814 299.75 136.248 298.566 139.292C297.973 140.817 297.363 141.964 296.754 142.721C296.14 143.484 295.591 143.775 295.118 143.775C294.645 143.775 294.096 143.484 293.482 142.721C292.873 141.964 292.264 140.817 291.67 139.292C290.486 136.248 289.41 131.814 288.502 126.299C286.689 115.276 285.564 100.03 285.564 83.1767C285.564 66.3237 286.689 51.0779 288.502 40.0557C289.41 34.5405 290.486 30.1057 291.67 27.0615C292.264 25.5369 292.873 24.3904 293.482 23.6338C294.096 22.8705 294.645 22.5792 295.118 22.5791Z" stroke="var(--stroke-0, white)" stroke-opacity="0.2"/>
<path id="Ellipse 12" d="M310.587 22.5791C310.568 22.5791 310.627 22.5674 310.763 22.7236C310.897 22.8766 311.052 23.1342 311.219 23.5195C311.551 24.2867 311.882 25.4481 312.204 26.9834C312.845 30.0463 313.428 34.4971 313.917 40.0185C314.895 51.0562 315.5 66.3151 315.5 83.1767C315.5 100.039 314.895 115.298 313.917 126.336C313.427 131.857 312.846 136.308 312.204 139.371C311.882 140.906 311.551 142.068 311.219 142.835C311.052 143.22 310.897 143.478 310.763 143.631C310.627 143.787 310.568 143.775 310.587 143.775C310.604 143.776 310.545 143.786 310.41 143.631C310.276 143.478 310.121 143.221 309.954 142.835C309.622 142.068 309.29 140.906 308.969 139.371C308.327 136.308 307.746 131.857 307.257 126.336C306.279 115.298 305.673 100.039 305.673 83.1767C305.673 66.3151 306.279 51.0562 307.257 40.0185C307.746 34.4971 308.327 30.0463 308.969 26.9834C309.29 25.4482 309.622 24.2867 309.954 23.5195C310.121 23.1339 310.276 22.8766 310.41 22.7236C310.545 22.5683 310.604 22.579 310.587 22.5791Z" stroke="var(--stroke-0, white)" stroke-opacity="0.2"/>
</g>
</svg>
