<svg preserveAspectRatio="none" width="100%" height="100%" overflow="visible" style="display: block;" viewBox="0 0 176.372 480" fill="none" xmlns="http://www.w3.org/2000/svg">
<g id="Group 76" opacity="0.3">
<circle id="Ellipse 7" cx="88.1859" cy="88.1859" r="87.6859" transform="matrix(-4.37114e-08 -1 -1 4.37114e-08 176.372 480)" stroke="var(--stroke-0, white)"/>
<path id="Ellipse 8" d="M175.872 240C175.872 222.631 166.115 206.861 150.25 195.414C134.386 183.968 112.445 176.872 88.1863 176.872C63.9278 176.872 41.9861 183.968 26.1218 195.414C10.2569 206.861 0.499801 222.631 0.499755 240C0.499756 257.369 10.2569 273.139 26.1218 284.586C41.9861 296.032 63.9277 303.128 88.1863 303.128C112.445 303.128 134.386 296.032 150.25 284.586C166.115 273.139 175.872 257.369 175.872 240Z" stroke="var(--stroke-0, white)"/>
<path id="Ellipse 9" d="M175.872 132.837C175.872 121.11 166.229 110.355 150.321 102.502C134.445 94.6643 112.478 89.8026 88.1863 89.8025C63.8944 89.8025 41.9265 94.6642 26.0505 102.502C10.1429 110.355 0.499944 121.11 0.499756 132.837C0.499756 144.564 10.1428 155.319 26.0505 163.173C41.9265 171.01 63.8944 175.872 88.1863 175.872C112.478 175.872 134.445 171.01 150.321 163.173C166.229 155.319 175.872 144.564 175.872 132.837Z" stroke="var(--stroke-0, white)"/>
<path id="Ellipse 10" d="M175.872 66.9768C175.872 64.1772 173.62 61.3694 169.185 58.7151C164.782 56.0798 158.377 53.6897 150.42 51.6751C134.512 47.6478 112.509 45.1507 88.1863 45.1507C63.8634 45.1507 41.8598 47.6478 25.9519 51.6751C17.9944 53.6897 11.5901 56.0799 7.18724 58.7151C2.75269 61.3694 0.499741 64.1772 0.499742 66.9769C0.49993 69.7764 2.75288 72.5834 7.18724 75.2376C11.5901 77.8728 17.9943 80.264 25.9519 82.2786C41.8598 86.3059 63.8634 88.802 88.1863 88.802C112.509 88.802 134.512 86.3058 150.42 82.2786C158.377 80.264 164.782 77.8729 169.185 75.2376C173.619 72.5835 175.872 69.7764 175.872 66.9768Z" stroke="var(--stroke-0, white)"/>
<path id="Ellipse 11" d="M175.872 30.1395C175.872 29.3588 175.392 28.5085 174.267 27.6043C173.15 26.7056 171.471 25.8167 169.26 24.9568C164.846 23.2392 158.428 21.6828 150.462 20.3719C134.537 17.7514 112.519 16.1278 88.1863 16.1277C63.8529 16.1278 41.8342 17.7514 25.9099 20.3719C17.9439 21.6828 11.5259 23.2392 7.11107 24.9569C4.90136 25.8166 3.22271 26.7057 2.10521 27.6043C0.980752 28.5086 0.499788 29.3588 0.499742 30.1395C0.499742 30.9202 0.980698 31.7703 2.10521 32.6746C3.2227 33.5732 4.90133 34.4624 7.11107 35.3221C11.5259 37.0397 17.9439 38.5962 25.9099 39.907C41.8342 42.5275 63.8529 44.1512 88.1863 44.1512C112.519 44.1512 134.537 42.5275 150.462 39.907C158.428 38.5962 164.846 37.0397 169.26 35.3221C171.47 34.4623 173.15 33.5733 174.267 32.6746C175.392 31.7704 175.872 30.9201 175.872 30.1395Z" stroke="var(--stroke-0, white)"/>
<path id="Ellipse 12" d="M175.872 7.81441C175.872 7.75013 175.836 7.60854 175.588 7.39155C175.342 7.17747 174.947 6.94322 174.382 6.6982C173.254 6.20976 171.56 5.7269 169.34 5.26167C164.906 4.33287 158.471 3.49349 150.499 2.78706C134.559 1.37469 112.528 0.499965 88.1863 0.499957C63.8443 0.499958 41.8125 1.37469 25.8728 2.78707C17.9006 3.49348 11.4665 4.33291 7.03295 5.26168C4.8121 5.72693 3.11802 6.20975 1.98998 6.6982C1.42415 6.94324 1.02932 7.17747 0.783922 7.39156C0.535232 7.60855 0.499742 7.75014 0.499742 7.81441C0.499912 7.87891 0.535829 8.01983 0.783922 8.23629C1.02931 8.45039 1.42414 8.6846 1.98998 8.92965C3.11802 9.41811 4.8121 9.90092 7.03295 10.3662C11.4665 11.2949 17.9006 12.1344 25.8728 12.8408C41.8125 14.2532 63.8443 15.1279 88.1863 15.1279C112.528 15.1279 134.559 14.2531 150.499 12.8408C158.471 12.1343 164.906 11.295 169.34 10.3662C171.56 9.90094 173.254 9.41807 174.382 8.92964C174.947 8.68461 175.342 8.45037 175.588 8.23628C175.836 8.01982 175.872 7.8789 175.872 7.81441Z" stroke="var(--stroke-0, white)"/>
</g>
</svg>
