<svg preserveAspectRatio="none" overflow="visible" style="display: block;" width="290.982" height="169.701" viewBox="0 0 290.982 169.701" fill="none" xmlns="http://www.w3.org/2000/svg">
<g id="Group 73">
<circle id="Ellipse 7" cx="56.2611" cy="112.17" r="55.8007" stroke="white" stroke-opacity="0.2" stroke-width="0.920833"/>
<path id="Ellipse 8" d="M140.41 0.459961C151.434 0.460075 161.456 6.653 168.74 16.748C176.023 26.8425 180.543 40.8108 180.543 56.2607C180.543 71.7109 176.023 85.6799 168.74 95.7744C161.456 105.869 151.434 112.061 140.41 112.062C129.385 112.062 119.363 105.87 112.079 95.7744C104.795 85.6799 100.276 71.7109 100.276 56.2607C100.276 40.8108 104.796 26.8425 112.079 16.748C119.363 6.6529 129.385 0.459961 140.41 0.459961Z" stroke="white" stroke-opacity="0.2" stroke-width="0.920833"/>
<path id="Ellipse 9" d="M208.778 20.7903C216.176 20.7903 223.001 26.8785 228.004 37.013C232.993 47.1182 236.092 61.1105 236.092 76.5911C236.092 92.072 232.993 106.065 228.004 116.17C223.001 126.305 216.176 132.392 208.778 132.392C201.38 132.392 194.554 126.305 189.551 116.17C184.563 106.065 181.463 92.072 181.463 76.5911C181.463 61.1105 184.563 47.1182 189.551 37.013C194.554 26.8785 201.38 20.7904 208.778 20.7903Z" stroke="white" stroke-opacity="0.2" stroke-width="0.920833"/>
<path id="Ellipse 10" d="M249.523 57.6388C251.229 57.6388 252.984 59.0158 254.672 61.8371C256.344 64.6291 257.864 68.7001 259.148 73.7707C261.714 83.9052 263.306 97.9304 263.306 113.44C263.306 128.949 261.714 142.975 259.148 153.11C257.864 158.18 256.344 162.251 254.672 165.043C252.984 167.864 251.229 169.24 249.523 169.24C247.817 169.24 246.062 167.864 244.374 165.043C242.702 162.251 241.182 158.18 239.898 153.11C237.332 142.975 235.74 128.949 235.74 113.44C235.74 97.9305 237.332 83.9052 239.898 73.7707C241.182 68.7001 242.703 64.6291 244.374 61.8371C246.062 59.0159 247.817 57.6389 249.523 57.6388Z" stroke="white" stroke-opacity="0.2" stroke-width="0.920833"/>
<path id="Ellipse 11" d="M271.754 20.7903C272.189 20.7903 272.696 21.0588 273.262 21.762C273.822 22.4588 274.382 23.5146 274.929 24.9183C276.019 27.7215 277.011 31.8055 277.847 36.8841C279.517 47.0337 280.552 61.0725 280.552 76.5911C280.552 92.11 279.517 106.149 277.847 116.299C277.011 121.378 276.019 125.461 274.929 128.264C274.382 129.668 273.822 130.724 273.262 131.421C272.696 132.124 272.189 132.392 271.754 132.392C271.318 132.392 270.812 132.124 270.247 131.421C269.687 130.724 269.126 129.668 268.58 128.264C267.489 125.461 266.498 121.378 265.662 116.299C263.992 106.149 262.956 92.11 262.956 76.5911C262.956 61.0725 263.992 47.0337 265.662 36.8841C266.498 31.8055 267.489 27.7215 268.58 24.9183C269.126 23.5146 269.687 22.4587 270.247 21.762C270.812 21.059 271.318 20.7905 271.754 20.7903Z" stroke="white" stroke-opacity="0.2" stroke-width="0.920833"/>
<path id="Ellipse 12" d="M285.997 20.7903C285.98 20.7903 286.034 20.7798 286.16 20.9231C286.282 21.064 286.426 21.3014 286.579 21.6565C286.885 22.363 287.191 23.4323 287.487 24.846C288.078 27.6664 288.613 31.7654 289.064 36.8499C289.964 47.0137 290.522 61.0645 290.522 76.5911C290.522 92.118 289.964 106.169 289.064 116.333C288.613 121.418 288.078 125.517 287.487 128.337C287.191 129.751 286.885 130.82 286.579 131.527C286.426 131.882 286.282 132.118 286.16 132.259C286.064 132.368 286.011 132.389 285.997 132.392C285.985 132.389 285.93 132.369 285.834 132.259C285.712 132.118 285.569 131.881 285.415 131.527C285.11 130.82 284.803 129.751 284.507 128.337C283.916 125.517 283.382 121.418 282.931 116.333C282.03 106.169 281.472 92.118 281.472 76.5911C281.472 61.0645 282.03 47.0137 282.931 36.8499C283.382 31.7654 283.916 27.6664 284.507 24.846C284.803 23.4321 285.11 22.363 285.415 21.6565C285.569 21.3014 285.711 21.064 285.834 20.9231C285.959 20.78 286.014 20.7903 285.997 20.7903Z" stroke="white" stroke-opacity="0.2" stroke-width="0.920833"/>
</g>
</svg>
