<svg preserveAspectRatio="none" width="100%" height="100%" overflow="visible" style="display: block;" viewBox="0 0 165 660" fill="none" xmlns="http://www.w3.org/2000/svg">
<g id="Group 133" opacity="0.3">
<path id="Vector" d="M155.853 412.5C117.328 408.275 86.7262 377.674 82.5002 339.149C78.2741 377.673 47.6731 408.274 9.14859 412.5C47.6735 416.727 78.2745 447.328 82.5002 485.853C86.7258 447.328 117.327 416.726 155.853 412.5Z" stroke="var(--stroke-0, white)"/>
<path id="Vector_2" d="M155.853 577.5C117.328 573.275 86.7262 542.674 82.5002 504.149C78.2741 542.673 47.6731 573.274 9.14859 577.5C47.6735 581.726 78.2745 612.328 82.5002 650.853C86.7258 612.328 117.327 581.726 155.853 577.5Z" stroke="var(--stroke-0, white)"/>
<path id="Vector_3" d="M155.853 247.5C117.328 243.275 86.7262 212.674 82.5002 174.149C78.2741 212.673 47.6731 243.274 9.14859 247.5C47.6735 251.727 78.2745 282.328 82.5002 320.853C86.7258 282.328 117.327 251.726 155.853 247.5Z" stroke="var(--stroke-0, white)"/>
<path id="Vector_4" d="M155.853 82.5002C117.328 78.2746 86.7261 47.6735 82.5 9.14862C78.274 47.6732 47.673 78.2742 9.14845 82.5002C47.6733 86.7262 78.2744 117.328 82.5 155.853C86.7257 117.327 117.327 86.7258 155.853 82.5002Z" stroke="var(--stroke-0, white)"/>
</g>
</svg>
