<svg preserveAspectRatio="none" width="100%" height="100%" overflow="visible" style="display: block;" viewBox="0 0 481 161" fill="none" xmlns="http://www.w3.org/2000/svg">
<g id="Group 134" opacity="0.3">
<path id="Vector 7" fill-rule="evenodd" clip-rule="evenodd" d="M1.43525 111.459C0.908484 111.415 0.5 110.979 0.5 110.451V50.6091C0.5 50.0568 0.94753 49.6104 1.49965 49.5967C12.5716 49.3235 25.1217 44.4849 37.6717 32.1833C47.4664 22.5826 49.3386 8.43634 49.0523 1.58164C49.0278 0.996447 49.4878 0.500163 50.0735 0.500163H109.399C109.951 0.500163 110.398 0.947973 110.41 1.50013C110.637 12.238 114.55 22.7048 123.328 33.7675C132.065 44.7778 150.54 48.8009 159.565 49.5418C160.092 49.585 160.5 50.0211 160.5 50.5497V110.391C160.5 110.944 160.052 111.39 159.5 111.404C148.428 111.677 135.878 116.515 123.328 128.817C113.534 138.418 111.661 152.564 111.948 159.419C111.972 160.004 111.512 160.5 110.927 160.5H51.601C51.0487 160.5 50.6021 160.052 50.5904 159.5C50.3629 148.762 46.4499 138.296 37.6717 127.233C28.9352 116.223 10.4597 112.199 1.43525 111.459Z" stroke="var(--stroke-0, white)"/>
<path id="Vector 8" fill-rule="evenodd" clip-rule="evenodd" d="M161.435 111.458C160.908 111.415 160.5 110.979 160.5 110.45V50.6089C160.5 50.0566 160.948 49.6102 161.5 49.5966C172.572 49.3233 185.122 44.4847 197.672 32.1832C207.466 22.5825 209.339 8.43618 209.052 1.58148C209.028 0.996284 209.488 0.5 210.073 0.5H269.399C269.951 0.5 270.398 0.94781 270.41 1.49997C270.637 12.2378 274.55 22.7046 283.328 33.7673C292.065 44.7776 310.54 48.8007 319.565 49.5416C320.092 49.5848 320.5 50.021 320.5 50.5495V110.391C320.5 110.943 320.052 111.39 319.5 111.403C308.428 111.677 295.878 116.515 283.328 128.817C273.534 138.418 271.661 152.564 271.948 159.419C271.972 160.004 271.512 160.5 270.927 160.5H211.601C211.049 160.5 210.602 160.052 210.59 159.5C210.363 148.762 206.45 138.295 197.672 127.233C188.935 116.222 170.46 112.199 161.435 111.458Z" stroke="var(--stroke-0, white)"/>
<path id="Vector 9" fill-rule="evenodd" clip-rule="evenodd" d="M321.435 111.458C320.908 111.415 320.5 110.979 320.5 110.45V50.6089C320.5 50.0566 320.948 49.6102 321.5 49.5966C332.572 49.3233 345.122 44.4847 357.672 32.1832C367.466 22.5825 369.339 8.43618 369.052 1.58148C369.028 0.996284 369.488 0.5 370.073 0.5H429.399C429.951 0.5 430.398 0.94781 430.41 1.49997C430.637 12.2378 434.55 22.7046 443.328 33.7673C452.065 44.7776 470.54 48.8007 479.565 49.5416C480.092 49.5848 480.5 50.021 480.5 50.5495V110.391C480.5 110.943 480.052 111.39 479.5 111.403C468.428 111.677 455.878 116.515 443.328 128.817C433.534 138.418 431.661 152.564 431.948 159.419C431.972 160.004 431.512 160.5 430.927 160.5H371.601C371.049 160.5 370.602 160.052 370.59 159.5C370.363 148.762 366.45 138.295 357.672 127.233C348.935 116.222 330.46 112.199 321.435 111.458Z" stroke="var(--stroke-0, white)"/>
</g>
</svg>
