<svg width="540" height="181" viewBox="0 0 540 181" fill="none" xmlns="http://www.w3.org/2000/svg">
<rect width="540" height="181" fill="#525252"/>
<g id="For Developer">
<path d="M-1545 -314.185C-1545 -315.289 -1544.1 -316.185 -1543 -316.185H707C708.104 -316.185 709 -315.289 709 -314.185V3253.82C709 3254.92 708.104 3255.82 707 3255.82H-1543C-1544.1 3255.82 -1545 3254.92 -1545 3253.82V-314.185Z" fill="#444444"/>
<path d="M-1543 -316.185V-315.185H707V-316.185V-317.185H-1543V-316.185ZM709 -314.185H708V3253.82H709H710V-314.185H709ZM707 3255.82V3254.82H-1543V3255.82V3256.82H707V3255.82ZM-1545 3253.82H-1544V-314.185H-1545H-1546V3253.82H-1545ZM-1543 3255.82V3254.82C-1543.55 3254.82 -1544 3254.37 -1544 3253.82H-1545H-1546C-1546 3255.47 -1544.66 3256.82 -1543 3256.82V3255.82ZM709 3253.82H708C708 3254.37 707.552 3254.82 707 3254.82V3255.82V3256.82C708.657 3256.82 710 3255.47 710 3253.82H709ZM707 -316.185V-315.185C707.552 -315.185 708 -314.737 708 -314.185H709H710C710 -315.841 708.657 -317.185 707 -317.185V-316.185ZM-1543 -316.185V-317.185C-1544.66 -317.185 -1546 -315.841 -1546 -314.185H-1545H-1544C-1544 -314.737 -1543.55 -315.185 -1543 -315.185V-316.185Z" fill="white" fill-opacity="0.1"/>
<g id="1920px- Homepage">
<rect width="1920" height="3198" transform="translate(-1380 -129.185)" fill="white"/>
<g id="Group" opacity="0.04">
<path id="Vector" d="M479.829 101.524C483.911 95.6521 486.013 89.6277 486.013 83.5162C486.013 74.9254 481.932 66.4868 473.893 58.4832C466.101 50.7188 454.784 43.4981 440.252 37.0169C411.188 24.0546 370.312 14.6807 325.046 10.6354L331.786 1.34863C382.804 5.91592 428.874 16.4642 461.649 31.0795C478.036 38.3871 490.775 46.543 499.556 55.2861C508.646 64.3336 513.222 73.8379 513.222 83.5162C513.222 92.1723 509.512 100.72 502.215 108.897L479.829 101.524Z" fill="#FFF9E8"/>
<path id="Vector_2" d="M6.2024 81.9075L9.78908 80.6025L57.7144 96.936L19.436 110.573L0.0802879 103.852L19.0649 97.0882L6.69712 92.869C-2.0222 89.8893 -2.26957 84.9741 6.2024 81.8857V81.9075Z" fill="#FFF9E8"/>
<path id="Vector_3" d="M19.6235 110.507L34.3412 115.726C34.3412 115.726 34.3412 115.726 34.403 115.705L53.5114 122.512C31.744 130.059 34.2794 133.865 39.5357 136.584C51.7798 142.891 71.6921 142.499 72.6197 142.478H72.496L72.6197 143V142.478L134.212 141.89C190.485 141.89 198.091 132.343 199.019 131.473L204.152 124.839L220.23 129.124C244.842 135.692 272.236 132.821 280.956 131.625C288.376 128.275 296.787 125.644 304.084 123.708L281.945 116.618L266.547 122.229C256.096 126.035 238.843 126.144 228.083 122.469L261.848 110.159L236.741 102.111C218.746 96.3263 208.295 88.1922 207.986 79.6231L206.192 34.9072L144.353 14.5284L151.279 11.9403C157.772 9.50439 168.594 9.39564 175.458 11.6575L497.578 117.836C520.706 125.47 533.878 136.127 533.878 147.262V167.076C537.897 171.338 540 175.84 540 180.386V180.495H481.067L370.808 145.109L356.152 150.742C351.514 152.526 351.762 155.266 356.709 156.941L426.092 180.495H386.886L338.528 164.074C332.839 162.139 328.448 159.703 326.655 156.984C323.625 152.33 327.211 147.654 336.054 144.261L350.649 138.65L324.614 130.298C312.494 133.213 293.138 139.128 288.686 148.002C286.336 152.656 288.376 157.745 294.684 163.096C301.177 168.598 312.185 174.427 327.583 180.495H292.396C266.733 168.446 256.467 156.962 261.909 146.262C262.528 145.022 263.332 143.848 264.321 142.695C250.531 143.152 233.649 142.695 216.705 139.628C207.367 144.022 154.495 154.526 103.168 153.765L186.28 180.517H145.961L117.639 171.404L91.728 180.517H53.2022L97.5409 164.944L55.3047 151.351C43.3698 150.307 28.3428 147.828 17.0262 141.999C8.30695 137.497 6.32812 132.451 11.2753 127.384C12.6357 125.992 14.5527 124.6 16.9644 123.186L0.205994 117.227L19.5617 110.485L19.6235 110.507ZM478.965 124.839L292.891 63.5071V74.0336C292.891 76.7739 296.106 79.4491 301.734 81.363L503.206 149.894C504.381 150.285 505.494 150.699 506.607 151.112V147.284C506.607 138.78 496.589 130.646 478.965 124.839ZM512.42 177.624C510.503 169.773 500.485 162.291 484.283 156.788L282.811 88.2574C271.927 84.5601 265.681 79.3621 265.681 74.0336V54.5247L233.773 43.9982L235.195 79.4926C235.442 85.3865 242.677 91.063 255.107 95.0431L512.482 177.624H512.42Z" fill="#FFF9E8"/>
<path id="Vector_4" d="M109.97 75.2516C97.6642 75.2516 74.7837 64.7686 74.7837 64.7686H151.464C151.464 64.7686 134.149 75.2516 109.97 75.2516Z" fill="#FFF9E8"/>
<path id="Vector_5" d="M177.068 62.1369L141.325 51.3929C141.325 51.3929 137.119 49.7618 122.896 49.7618H74.1053L100.016 40.3662H126.854C136.872 40.3662 146.705 41.3449 155.177 43.2371C169.4 46.4124 186.034 52.3716 177.068 62.1152V62.1369Z" fill="#FFF9E8"/>
<path id="Vector_6" d="M351.08 40.9316V21.3792C366.911 21.8142 379.403 26.8165 380.269 32.2972C380.392 33.0367 379.897 33.6891 379.897 34.3416C379.774 39.6919 379.959 45.0421 379.959 50.3924C388.246 53.1327 396.656 55.8513 405.128 58.57C407.169 59.2224 409.209 60.0706 411.497 60.6796C411.868 60.7666 411.93 60.9188 412.549 60.8536V40.9316C429.431 43.5414 440.252 49.6529 441.366 56.0906C442.169 60.7231 440.623 65.6166 441.551 70.2709C443.53 70.9016 445.261 71.6193 447.178 72.2718C454.537 74.7512 464.37 77.3393 470.863 79.9927C471.481 80.2537 472.594 80.2319 472.223 80.7757H412.672C410.941 80.7757 405.004 79.9274 403.273 79.623C395.357 78.1658 388.617 75.1427 387.194 71.9891C387.071 71.7498 386.452 70.7494 387.256 70.7494H436.48C434.192 69.8794 431.533 69.14 429.121 68.3353C419.969 65.3556 410.941 62.3543 401.789 59.3529C401.356 59.2877 400.861 59.2877 400.304 59.2659C383.237 58.7875 358.316 60.5491 343.289 57.8305C334.755 56.2863 326.654 53.111 324.984 49.7181C325.479 49.6529 326.036 49.8486 326.159 49.8486H372.291C365.613 47.391 358.316 45.1291 351.019 42.9107C340.63 42.5845 329.56 43.3892 319.481 42.28C311.442 41.3883 303.588 39.2569 299.321 36.6905C298.27 36.038 296.848 35.1246 296.724 34.3851H324.861C320.037 32.6887 315.09 31.0358 309.896 29.4698C302.97 29.9918 296.291 30.8618 289.365 31.3838C278.419 32.2102 267.783 30.6443 264.629 26.6642C264.444 26.4032 263.64 25.1418 264.135 25.0331C275.018 24.9896 285.964 24.7938 296.786 25.2071L281.202 20.009C264.815 19.5306 247.438 20.2483 231.051 19.9003C215.282 19.5741 200.131 15.2243 196.915 9.76528H255.106L287.881 20.3788V0H289.612C290.045 0.173992 290.54 0.173992 290.973 0H291.653C291.467 0.282737 292.024 0.260988 292.581 0.326234C307.298 2.1749 316.574 6.04621 316.698 11.6357C316.883 17.7254 316.574 23.8151 316.76 29.9048C328.385 33.4717 339.331 37.3647 351.019 40.9098L351.08 40.9316Z" fill="#FFF9E8"/>
</g>
</g>
</g>
</svg>
