<svg width="71" height="193" viewBox="0 0 71 193" fill="none" xmlns="http://www.w3.org/2000/svg">
<g id="For Developer">
<g id="1920px- Homepage">
<g id="Frame 2147225626">
<g id="Frame 83">
<g id="Frame 34">
<g id="Group 69" opacity="0.4">
<circle id="Ellipse 7" cx="35.4058" cy="35.4058" r="35.2059" transform="matrix(-4.37114e-08 -1 -1 4.37114e-08 70.8116 192.715)" stroke="white" stroke-width="0.399824"/>
<path id="Ellipse 8" d="M70.6114 96.3574C70.6114 89.3835 66.6941 83.052 60.3243 78.4561C53.9548 73.8603 45.1451 71.0117 35.4054 71.0117C25.6659 71.0118 16.8569 73.8604 10.4874 78.4561C4.11762 83.052 0.200316 89.3835 0.200316 96.3574C0.200348 103.331 4.11765 109.663 10.4874 114.259C16.8569 118.854 25.6659 121.703 35.4054 121.703C45.1451 121.703 53.9548 118.855 60.3243 114.259C66.6941 109.663 70.6114 103.331 70.6114 96.3574Z" stroke="white" stroke-width="0.399824"/>
<path id="Ellipse 9" d="M70.6114 53.333C70.6114 48.6242 66.7396 44.3054 60.3527 41.1523C53.9785 38.0057 45.1583 36.0537 35.4054 36.0537C25.6525 36.0538 16.8322 38.0056 10.4581 41.1523C4.0714 44.3054 0.200316 48.6243 0.200317 53.333C0.200488 58.0416 4.07162 62.3598 10.4581 65.5127C16.8322 68.6594 25.6525 70.6113 35.4054 70.6113C45.1584 70.6113 53.9785 68.6594 60.3527 65.5127C66.7394 62.3597 70.6113 58.0417 70.6114 53.333Z" stroke="white" stroke-width="0.399824"/>
<path id="Ellipse 10" d="M70.6114 26.8896C70.6113 25.7653 69.7071 24.6378 67.9269 23.5723C66.1591 22.5142 63.5876 21.5549 60.3927 20.7461C54.0057 19.1291 45.1709 18.126 35.4054 18.126C25.6401 18.126 16.8059 19.1292 10.4191 20.7461C7.22417 21.5549 4.65265 22.5142 2.88489 23.5723C1.1046 24.6379 0.200512 25.7653 0.200317 26.8897C0.200317 28.0141 1.1046 29.1414 2.88489 30.207C4.65266 31.2651 7.22412 32.2253 10.4191 33.0342C16.8059 34.6511 25.6401 35.6533 35.4054 35.6533C45.1709 35.6533 54.0057 34.6511 60.3927 33.0342C63.5876 32.2253 66.1591 31.2651 67.9269 30.207C69.7071 29.1414 70.6114 28.0141 70.6114 26.8896Z" stroke="white" stroke-width="0.399824"/>
<path id="Ellipse 11" d="M70.6114 12.1016C70.6114 11.7877 70.4185 11.4461 69.9669 11.083C69.5182 10.7222 68.8443 10.3647 67.9572 10.0195C66.1846 9.32989 63.6076 8.70502 60.4093 8.17871C54.0158 7.12661 45.175 6.47461 35.4054 6.47461C25.6359 6.47463 16.7959 7.12663 10.4025 8.17871C7.20414 8.70502 4.62723 9.32989 2.85461 10.0195C1.96742 10.3647 1.29362 10.7222 0.844848 11.083C0.393283 11.4461 0.200317 11.7877 0.200317 12.1016C0.20036 12.4154 0.393333 12.757 0.844848 13.1201C1.29357 13.4809 1.96762 13.8375 2.85461 14.1826C4.62724 14.8723 7.20412 15.4981 10.4025 16.0244C16.7959 17.0765 25.6359 17.7275 35.4054 17.7275C45.175 17.7275 54.0158 17.0765 60.4093 16.0244C63.6076 15.4981 66.1846 14.8723 67.9572 14.1826C68.8441 13.8375 69.5182 13.4809 69.9669 13.1201C70.4184 12.757 70.6114 12.4154 70.6114 12.1016Z" stroke="white" stroke-width="0.399824"/>
<path id="Ellipse 12" d="M70.6115 3.13672C70.6113 3.11036 70.5965 3.05347 70.4972 2.9668C70.3985 2.8808 70.2399 2.78682 70.0128 2.68848C69.5598 2.49234 68.88 2.29812 67.9884 2.11133C66.2083 1.73841 63.6248 1.40179 60.4239 1.11816C54.0243 0.551105 45.1785 0.200196 35.4054 0.200197C25.6325 0.200207 16.7874 0.551117 10.3878 1.11817C7.18694 1.40179 4.60348 1.73842 2.82336 2.11133C1.93179 2.29811 1.25193 2.49236 0.79895 2.68848C0.571909 2.78679 0.413235 2.88082 0.314575 2.9668C0.215238 3.05347 0.200491 3.11036 0.200317 3.13672C0.200317 3.16287 0.214641 3.22043 0.314575 3.30762C0.413237 3.3936 0.571924 3.48763 0.79895 3.58594C1.25193 3.78206 1.9318 3.97631 2.82336 4.16309C4.60348 4.536 7.18695 4.87263 10.3878 5.15625C16.7874 5.7233 25.6325 6.07421 35.4054 6.07422C45.1785 6.07422 54.0243 5.72331 60.424 5.15625C63.6248 4.87262 66.2083 4.536 67.9884 4.16309C68.88 3.9763 69.5598 3.78207 70.0128 3.58594C70.2399 3.4876 70.3985 3.39361 70.4972 3.30762C70.5971 3.22042 70.6115 3.16287 70.6115 3.13672Z" stroke="white" stroke-width="0.399824"/>
</g>
</g>
</g>
</g>
</g>
</g>
</svg>
