<svg preserveAspectRatio="none" width="100%" height="100%" overflow="visible" style="display: block;" viewBox="0 0 401 883" fill="none" xmlns="http://www.w3.org/2000/svg">
<g id="Group 85" opacity="0.2">
<ellipse id="Ellipse 7" cx="88.1202" cy="194.66" rx="88.1202" ry="194.66" transform="matrix(-9.68881e-08 -1 -1 1.97205e-08 395.537 216.704)" fill="url(#paint0_linear_0_4)"/>
<ellipse id="Ellipse 13" cx="131.731" cy="194.66" rx="131.731" ry="194.66" transform="matrix(-9.68881e-08 -1 -1 1.97205e-08 395.537 480.165)" fill="url(#paint1_linear_0_4)"/>
<ellipse id="Ellipse 14" cx="201.418" cy="194.66" rx="201.418" ry="194.66" transform="matrix(-9.68881e-08 -1 -1 1.97205e-08 395.537 883)" fill="url(#paint2_linear_0_4)"/>
<ellipse id="Ellipse 12" cx="20.2317" cy="200.5" rx="20.2317" ry="200.5" transform="matrix(-9.68881e-08 -1 -1 1.97205e-08 401 40.4633)" fill="url(#paint3_linear_0_4)"/>
</g>
<defs>
<linearGradient id="paint0_linear_0_4" x1="88.1202" y1="0" x2="88.1202" y2="389.32" gradientUnits="userSpaceOnUse">
<stop stop-color="#FFC932"/>
<stop offset="1" stop-color="white"/>
</linearGradient>
<linearGradient id="paint1_linear_0_4" x1="131.731" y1="0" x2="131.731" y2="389.32" gradientUnits="userSpaceOnUse">
<stop stop-color="#FFC932"/>
<stop offset="1" stop-color="white"/>
</linearGradient>
<linearGradient id="paint2_linear_0_4" x1="201.418" y1="0" x2="201.418" y2="389.32" gradientUnits="userSpaceOnUse">
<stop stop-color="#FFC932"/>
<stop offset="1" stop-color="white"/>
</linearGradient>
<linearGradient id="paint3_linear_0_4" x1="20.2317" y1="0" x2="20.2317" y2="401" gradientUnits="userSpaceOnUse">
<stop stop-color="#FFC932"/>
<stop offset="1" stop-color="white"/>
</linearGradient>
</defs>
</svg>
