<svg preserveAspectRatio="none" width="100%" height="100%" overflow="visible" style="display: block;" viewBox="0 0 1102.7 800" fill="none" xmlns="http://www.w3.org/2000/svg">
<path id="Subtract" d="M868.29 0C870.376 0 871.974 1.8376 871.712 3.90724C867.251 39.0672 868.552 116.15 922.867 180.501C977.37 245.074 1061.88 258.364 1098.96 256.016C1100.97 255.888 1102.7 257.463 1102.7 259.481V540.519C1102.7 542.537 1100.97 544.112 1098.96 543.984C1061.88 541.636 977.37 554.926 922.867 619.499C868.552 683.85 867.251 760.933 871.712 796.093C871.974 798.162 870.376 800 868.29 800H234.413C232.327 800 230.729 798.162 230.991 796.093C235.452 760.933 234.151 683.85 179.835 619.499C125.332 554.926 40.8231 541.636 3.74632 543.984C1.73235 544.112 0 542.537 0 540.519V259.481C0 257.463 1.73235 255.888 3.74631 256.016C40.8231 258.364 125.332 245.074 179.835 180.501C234.151 116.15 235.452 39.0672 230.991 3.90723C230.729 1.83759 232.327 0 234.413 0H868.29Z" fill="var(--fill-0, #D9D9D9)"/>
</svg>
