<svg width="883" height="401" viewBox="0 0 883 401" fill="none" xmlns="http://www.w3.org/2000/svg">
<g opacity="0.2">
<ellipse cx="88.1202" cy="194.66" rx="88.1202" ry="194.66" transform="matrix(1 -1.406e-07 -6.34319e-08 -1 666.297 395.537)" fill="url(#paint0_linear_1221_323)"/>
<ellipse cx="131.731" cy="194.66" rx="131.731" ry="194.66" transform="matrix(1 -1.406e-07 -6.34319e-08 -1 402.836 395.537)" fill="url(#paint1_linear_1221_323)"/>
<ellipse cx="201.418" cy="194.66" rx="201.418" ry="194.66" transform="matrix(1 -1.406e-07 -6.34319e-08 -1 0.000488281 395.537)" fill="url(#paint2_linear_1221_323)"/>
<ellipse cx="20.2317" cy="200.5" rx="20.2317" ry="200.5" transform="matrix(1 -1.406e-07 -6.34319e-08 -1 842.538 401)" fill="url(#paint3_linear_1221_323)"/>
</g>
<defs>
<linearGradient id="paint0_linear_1221_323" x1="88.1202" y1="0" x2="88.1202" y2="389.32" gradientUnits="userSpaceOnUse">
<stop stop-color="#FFC932"/>
<stop offset="1" stop-color="white"/>
</linearGradient>
<linearGradient id="paint1_linear_1221_323" x1="131.731" y1="0" x2="131.731" y2="389.32" gradientUnits="userSpaceOnUse">
<stop stop-color="#FFC932"/>
<stop offset="1" stop-color="white"/>
</linearGradient>
<linearGradient id="paint2_linear_1221_323" x1="201.418" y1="0" x2="201.418" y2="389.32" gradientUnits="userSpaceOnUse">
<stop stop-color="#FFC932"/>
<stop offset="1" stop-color="white"/>
</linearGradient>
<linearGradient id="paint3_linear_1221_323" x1="20.2317" y1="0" x2="20.2317" y2="401" gradientUnits="userSpaceOnUse">
<stop stop-color="#FFC932"/>
<stop offset="1" stop-color="white"/>
</linearGradient>
</defs>
</svg>
