<svg preserveAspectRatio="none" width="100%" height="100%" overflow="visible" style="display: block;" viewBox="0 0 1102.7 800" fill="none" xmlns="http://www.w3.org/2000/svg">
<path id="Subtract" d="M866.088 5.40527C861.862 42.2815 864.162 119.329 918.736 183.987C973.746 249.16 1058.21 263.345 1097.3 261.519V538.48C1058.21 536.654 973.746 550.84 918.736 616.013C864.162 680.671 861.862 757.718 866.088 794.595H236.614C240.84 757.718 238.541 680.671 183.966 616.013C128.956 550.84 44.4944 536.654 5.40527 538.48V261.519C44.4944 263.346 128.956 249.16 183.966 183.987C238.541 119.329 240.84 42.2815 236.614 5.40527H866.088Z" stroke="url(#paint0_linear_0_9)" stroke-width="10.8108"/>
<defs>
<linearGradient id="paint0_linear_0_9" x1="551.351" y1="0" x2="551.351" y2="800" gradientUnits="userSpaceOnUse">
<stop stop-color="#B3902F"/>
<stop offset="1" stop-color="#725300"/>
</linearGradient>
</defs>
</svg>
