<svg preserveAspectRatio="none" overflow="visible" style="display: block;" width="1440" height="1181" viewBox="0 0 1440 1181" fill="none" xmlns="http://www.w3.org/2000/svg">
<path id="Vector" opacity="0.25" d="M634.019 598.441V312.467C551.337 318.834 485.772 391.837 481.344 472.158C480.749 482.953 483.204 492.358 483.316 502.165C483.986 580.364 482.907 658.599 482.907 736.799C439.482 776.978 395.425 816.754 351.256 856.274C340.465 865.898 329.785 878.303 318.101 887.122C316.278 888.476 315.831 890.525 312.706 889.757V598.477C224.554 636.753 167.733 726.187 161.928 820.047C157.761 887.927 165.798 959.21 160.998 1027.42C150.728 1036.68 141.463 1047.25 131.527 1056.62C92.94 1092.99 41.5893 1130.61 7.57888 1169.55C4.26714 1173.35 -1.57492 1172.91 0.397237 1181H311.85C320.892 1181 351.851 1168.74 361.005 1164.02C402.458 1142.72 437.584 1098.56 445.064 1052.49C445.622 1049.12 448.822 1034.48 444.692 1034.48H187.045C199.065 1021.78 212.795 1010.99 225.67 999.206C273.486 955.661 320.669 911.749 368.745 867.984C371.163 866.886 373.768 866.886 376.336 866.703C465.492 859.824 596.101 885.439 674.653 845.845C719.454 823.268 761.726 776.795 770.433 727.321C767.94 726.26 765.075 729.077 764.144 729.077H522.685C557.737 693.253 595.766 660.063 633.87 627.459C688.272 622.665 746.246 634.558 798.713 618.311C840.612 605.32 881.879 573.96 904.168 536.672C909.787 527.267 917.266 513.801 917.601 503.116H770.396C795.587 478.233 821.635 453.972 848.724 431.138C884.818 438.676 919.945 451.52 955.965 459.205C1013.23 471.427 1068.86 448.446 1085.49 390.154C1086.54 386.421 1090.78 367.722 1088.25 366.222C1031.43 365.673 974.012 362.636 917.638 368.93L999.204 292.926C1085.01 285.974 1175.66 296.439 1261.46 291.316C1343.85 286.413 1423.03 223.034 1440 142.969H1135.73L964.3 298.306V0H955.295C953.025 2.45173 950.309 2.45173 948.113 0H944.541C945.434 4.20819 942.569 3.84226 939.704 4.86686C862.678 31.909 814.341 88.4817 813.597 170.303C812.779 259.334 814.341 348.438 813.113 437.468C752.311 489.54 695.007 546.515 633.982 598.477L634.019 598.441Z" fill="white"/>
</svg>
