<svg preserveAspectRatio="none" width="100%" height="100%" overflow="visible" style="display: block;" viewBox="0 0 369 267.757" fill="none" xmlns="http://www.w3.org/2000/svg">
<path id="Subtract" d="M288.102 0C290.092 0 291.616 1.76768 291.443 3.75037C290.34 16.3802 291.816 40.2618 308.821 60.413C325.993 80.7617 352.067 85.8946 365.413 85.7692C367.338 85.7511 369 87.2573 369 89.1825V178.574C369 180.5 367.338 182.006 365.413 181.988C352.067 181.862 325.993 186.995 308.821 207.344C291.816 227.495 290.34 251.377 291.443 264.006C291.616 265.989 290.092 267.757 288.102 267.757H80.8979C78.9077 267.757 77.3841 265.989 77.5573 264.006C78.6602 251.377 77.1842 227.495 60.1787 207.344C43.0066 186.995 16.9332 181.862 3.5874 181.988C1.66227 182.006 0 180.5 0 178.574V89.1825C0 87.2573 1.66228 85.7511 3.58741 85.7692C16.9332 85.8946 43.0066 80.7617 60.1787 60.413C77.1842 40.2618 78.6602 16.3802 77.5573 3.75037C77.3841 1.76767 78.9077 0 80.8979 0H288.102Z" fill="#D9D9D9"/>
</svg>
