<svg preserveAspectRatio="none" width="100%" height="100%" overflow="visible" style="display: block;" viewBox="0 0 96.8266 399.02" fill="none" xmlns="http://www.w3.org/2000/svg">
<g id="Group 85" opacity="0.2">
<ellipse id="Ellipse 7" cx="39.8207" cy="47.0032" rx="39.8207" ry="47.0032" transform="matrix(-5.17711e-08 -1 -1 3.69064e-08 95.5082 97.9253)" fill="url(#paint0_linear_0_4)"/>
<ellipse id="Ellipse 13" cx="59.5278" cy="47.0032" rx="59.5278" ry="47.0032" transform="matrix(-5.17711e-08 -1 -1 3.69064e-08 95.5082 216.982)" fill="url(#paint1_linear_0_4)"/>
<ellipse id="Ellipse 14" cx="91.0187" cy="47.0032" rx="91.0187" ry="47.0032" transform="matrix(-5.17711e-08 -1 -1 3.69064e-08 95.5082 399.02)" fill="url(#paint2_linear_0_4)"/>
<ellipse id="Ellipse 12" cx="9.1425" cy="48.4133" rx="9.1425" ry="48.4133" transform="matrix(-5.17711e-08 -1 -1 3.69064e-08 96.8266 18.2852)" fill="url(#paint3_linear_0_4)"/>
</g>
<defs>
<linearGradient id="paint0_linear_0_4" x1="39.8207" y1="0" x2="39.8207" y2="94.0064" gradientUnits="userSpaceOnUse">
<stop stop-color="#B3902F"/>
<stop offset="1" stop-color="white"/>
</linearGradient>
<linearGradient id="paint1_linear_0_4" x1="59.5278" y1="0" x2="59.5278" y2="94.0064" gradientUnits="userSpaceOnUse">
<stop stop-color="#B3902F"/>
<stop offset="1" stop-color="white"/>
</linearGradient>
<linearGradient id="paint2_linear_0_4" x1="91.0187" y1="0" x2="91.0187" y2="94.0064" gradientUnits="userSpaceOnUse">
<stop stop-color="#B3902F"/>
<stop offset="1" stop-color="white"/>
</linearGradient>
<linearGradient id="paint3_linear_0_4" x1="9.1425" y1="0" x2="9.1425" y2="96.8266" gradientUnits="userSpaceOnUse">
<stop stop-color="#B3902F"/>
<stop offset="1" stop-color="white"/>
</linearGradient>
</defs>
</svg>
