<svg preserveAspectRatio="none" width="100%" height="100%" overflow="visible" style="display: block;" viewBox="0 0 379 379" fill="none" xmlns="http://www.w3.org/2000/svg">
<path id="Vector 7" fill-rule="evenodd" clip-rule="evenodd" d="M14.006 264.308C6.18149 263.031 0 256.492 0 248.564V131.327C0 123.042 6.75149 116.434 14.9388 115.171C37.9094 111.625 62.9799 99.6236 88.0505 75.0495C105.871 57.5816 112.62 33.7612 114.485 16.2947C115.417 7.55879 122.392 0 131.178 0H245.323C253.607 0 260.208 6.74744 261.346 14.9532C264.271 36.0488 273.597 56.9338 290.949 78.802C308.334 100.711 341.997 110.94 364.994 114.692C372.819 115.969 379 122.508 379 130.436V247.673C379 255.958 372.249 262.566 364.061 263.829C341.091 267.375 316.02 279.376 290.949 303.95C273.129 321.418 266.38 345.239 264.515 362.705C263.583 371.441 256.608 379 247.822 379H133.677C125.393 379 118.792 372.253 117.654 364.047C114.729 342.951 105.403 322.066 88.0505 300.198C70.6661 278.289 37.0027 268.06 14.006 264.308Z" fill="#B3902F"/>
</svg>
