<svg preserveAspectRatio="none" width="100%" height="100%" overflow="visible" style="display: block;" viewBox="0 0 479 373.938" fill="none" xmlns="http://www.w3.org/2000/svg">
<g id="Group 98">
<path id="Vector 9" d="M2.83104 190.161C28.4545 197.668 76.0989 242.207 83.9722 369.463C84.1254 371.939 86.1738 373.938 88.6543 373.938H302.775V0H88.6543C86.1738 0 84.1256 1.99609 83.9725 4.47186C76.0997 131.844 28.4485 180.91 2.82592 188.745C2.21552 188.931 2.21849 189.982 2.83104 190.161Z" fill="#EBD28C"/>
<path id="Vector 12" d="M473.395 191.09C447.253 200.894 402.625 246.67 395.028 369.463C394.875 371.939 392.826 373.938 390.346 373.938H176.225V0H390.346C392.826 0 394.874 1.99609 395.027 4.47186C402.626 127.401 447.275 177.392 473.415 187.773C474.601 188.244 474.59 190.642 473.395 191.09Z" fill="#EBD28C"/>
</g>
</svg>
