<svg preserveAspectRatio="none" width="100%" height="100%" overflow="visible" style="display: block;" viewBox="0 0 367.999 71.9041" fill="none" xmlns="http://www.w3.org/2000/svg">
<g transform="matrix(0,-1,-1,0,367.999,71.9041)">
<g id="Group 81" opacity="0.2">
<ellipse id="Ellipse 7" cx="67.6089" cy="35.9521" rx="67.6089" ry="35.9521" transform="matrix(-2.32442e-08 -1 -1 8.22006e-08 71.9041 367.999)" fill="url(#paint0_linear_0_6)"/>
<ellipse id="Ellipse 8" cx="48.7811" cy="35.9521" rx="48.7811" ry="35.9521" transform="matrix(-2.32442e-08 -1 -1 8.22006e-08 71.9041 232.78)" fill="url(#paint1_linear_0_6)"/>
<ellipse id="Ellipse 9" cx="33.3766" cy="35.9521" rx="33.3766" ry="35.9521" transform="matrix(-2.32442e-08 -1 -1 8.22006e-08 71.9041 135.218)" fill="url(#paint2_linear_0_6)"/>
<ellipse id="Ellipse 10" cx="17.1162" cy="35.9521" rx="17.1162" ry="35.9521" transform="matrix(-2.32442e-08 -1 -1 8.22006e-08 71.9041 68.4637)" fill="url(#paint3_linear_0_6)"/>
<ellipse id="Ellipse 11" cx="11.1255" cy="35.9521" rx="11.1255" ry="35.9521" transform="matrix(-2.32442e-08 -1 -1 8.22006e-08 71.9041 34.2313)" fill="url(#paint4_linear_0_6)"/>
<ellipse id="Ellipse 12" cx="5.99067" cy="35.9521" rx="5.99067" ry="35.9521" transform="matrix(-2.32442e-08 -1 -1 8.22006e-08 71.9041 11.9813)" fill="url(#paint5_linear_0_6)"/>
</g>
<defs>
<linearGradient id="paint0_linear_0_6" x1="67.6089" y1="0" x2="67.6089" y2="71.9041" gradientUnits="userSpaceOnUse">
<stop stop-color="#FFC932"/>
<stop offset="1" stop-color="#FFFDF8"/>
</linearGradient>
<linearGradient id="paint1_linear_0_6" x1="48.7811" y1="0" x2="48.7811" y2="71.9041" gradientUnits="userSpaceOnUse">
<stop stop-color="#FFC932"/>
<stop offset="1" stop-color="#FFFDF8"/>
</linearGradient>
<linearGradient id="paint2_linear_0_6" x1="33.3766" y1="0" x2="33.3766" y2="71.9041" gradientUnits="userSpaceOnUse">
<stop stop-color="#FFC932"/>
<stop offset="1" stop-color="#FFFDF8"/>
</linearGradient>
<linearGradient id="paint3_linear_0_6" x1="17.1162" y1="0" x2="17.1162" y2="71.9041" gradientUnits="userSpaceOnUse">
<stop stop-color="#FFC932"/>
<stop offset="1" stop-color="#FFFDF8"/>
</linearGradient>
<linearGradient id="paint4_linear_0_6" x1="11.1255" y1="0" x2="11.1255" y2="71.9041" gradientUnits="userSpaceOnUse">
<stop stop-color="#FFC932"/>
<stop offset="1" stop-color="#FFFDF8"/>
</linearGradient>
<linearGradient id="paint5_linear_0_6" x1="5.99067" y1="0" x2="5.99067" y2="71.9041" gradientUnits="userSpaceOnUse">
<stop stop-color="#FFC932"/>
<stop offset="1" stop-color="#FFFDF8"/>
</linearGradient>
</defs>
</g>
</svg>
