<svg preserveAspectRatio="none" width="100%" height="100%" overflow="visible" style="display: block;" viewBox="0 0 366.568 218.693" fill="none" xmlns="http://www.w3.org/2000/svg">
<g id="Group 99">
<path id="Vector 9" d="M6.92539 112.189C30.9654 118.631 69.707 144.919 77.6628 212.206C78.0949 215.86 81.1489 218.693 84.8287 218.693H281.536V7.62939e-05H84.8287C81.1489 7.62939e-05 78.0947 2.83228 77.6637 6.48668C69.7082 73.9317 30.9503 102.497 6.91054 109.357C5.90822 109.643 5.91859 111.919 6.92539 112.189Z" fill="#1F3A58"/>
<path id="Vector 12" d="M359.643 112.189C335.603 118.631 296.861 144.919 288.906 212.206C288.473 215.86 285.419 218.693 281.74 218.693H85.0322V7.62939e-05H281.74C285.419 7.62939e-05 288.474 2.83228 288.905 6.48668C296.86 73.9317 335.618 102.497 359.658 109.357C360.66 109.643 360.65 111.919 359.643 112.189Z" fill="#1F3A58"/>
</g>
</svg>
