<svg preserveAspectRatio="none" width="100%" height="100%" overflow="visible" style="display: block;" viewBox="0 0 297.798 268" fill="none" xmlns="http://www.w3.org/2000/svg">
<g id="Frame 6" opacity="0.18">
<path id="Vector" d="M135.45 135.802V70.907C118.796 72.3519 105.589 88.9181 104.697 107.145C104.577 109.595 105.072 111.729 105.094 113.954C105.229 131.7 105.012 149.454 105.012 167.199C96.2648 176.317 87.3904 185.343 78.4935 194.311C76.3199 196.495 74.1687 199.31 71.8152 201.311C71.4479 201.619 71.358 202.084 70.7284 201.909V135.81C52.9721 144.496 41.5268 164.791 40.3575 186.09C39.518 201.494 41.137 217.67 40.1701 233.149C38.1014 235.249 36.2351 237.649 34.2339 239.775C26.4613 248.029 16.1178 256.566 9.26709 265.401C8.60001 266.264 7.42325 266.165 7.8205 268H70.556C72.3773 268 78.6134 265.218 80.4573 264.147C88.807 259.314 95.8825 249.291 97.3891 238.837C97.5015 238.073 98.1461 234.751 97.3141 234.751H45.4168C47.8378 231.87 50.6036 229.42 53.1969 226.746C62.8284 216.865 72.3324 206.9 82.0163 196.968C82.5035 196.719 83.0281 196.719 83.5453 196.678C101.504 195.117 127.812 200.929 143.635 191.945C152.659 186.821 161.174 176.275 162.928 165.048C162.426 164.807 161.848 165.447 161.661 165.447H113.024C120.085 157.317 127.745 149.786 135.42 142.387C146.378 141.299 158.056 143.998 168.624 140.311C177.064 137.363 185.376 130.247 189.866 121.785C190.998 119.651 192.504 116.595 192.572 114.17H162.92C167.995 108.524 173.241 103.018 178.698 97.8365C185.968 99.5471 193.044 102.462 200.299 104.206C211.835 106.979 223.04 101.764 226.39 88.5362C226.6 87.6892 227.455 83.4459 226.945 83.1054C215.5 82.9809 203.934 82.2916 192.579 83.7199L209.009 66.4727C226.293 64.895 244.551 67.2699 261.836 66.1073C278.43 64.9946 294.38 50.6123 297.798 32.4433H236.509L201.978 67.6934V0H200.164C199.707 0.556361 199.16 0.556361 198.718 0H197.998C198.178 0.954948 197.601 0.871909 197.024 1.10442C181.509 7.241 171.772 20.0788 171.622 38.6463C171.457 58.8497 171.772 79.0697 171.525 99.2731C159.278 111.09 147.735 124.019 135.443 135.81L135.45 135.802Z" fill="white"/>
</g>
</svg>
