<svg preserveAspectRatio="none" width="100%" height="100%" overflow="visible" style="display: block;" viewBox="0 0 337 350.748" fill="none" xmlns="http://www.w3.org/2000/svg">
<g id="Group" opacity="0.05">
<path id="Vector" d="M37.5487 197.265C35.0017 185.855 33.6895 174.149 33.6895 162.274C33.6895 145.582 36.2366 129.186 41.2536 113.635C46.1162 98.5483 53.1786 84.5184 62.2477 71.9254C80.3861 46.7392 105.895 28.5257 134.145 20.6656L129.938 2.62109C98.0999 11.4954 69.3487 31.9909 48.8949 60.3887C38.6679 74.5877 30.718 90.4347 25.2379 107.423C19.5648 125.002 16.709 143.469 16.709 162.274C16.709 179.093 19.0245 195.701 23.5784 211.59L37.5487 197.265Z" fill="#6B9ED6"/>
<path id="Vector_2" d="M333.13 159.148L330.891 156.612L300.982 188.349L324.871 214.845L336.95 201.787L325.103 188.645L332.821 180.446C338.262 174.657 338.417 165.106 333.13 159.106V159.148Z" fill="#6B9ED6"/>
<path id="Vector_3" d="M324.753 214.717L315.568 224.859C315.568 224.859 315.568 224.859 315.53 224.817L303.605 238.044C317.189 252.708 315.607 260.103 312.327 265.385C304.685 277.64 292.259 276.88 291.68 276.837H291.757L291.68 277.852V276.837L253.242 275.696C218.123 275.696 213.376 257.145 212.797 255.455L209.594 242.566L199.56 250.891C184.2 263.653 167.104 258.075 161.663 255.75C157.032 249.242 151.783 244.129 147.229 240.368L161.045 226.592L170.655 237.495C177.177 244.89 187.944 245.101 194.659 237.959L173.588 214.041L189.256 198.405C200.486 187.164 207.008 171.36 207.201 154.71L208.321 67.8258L246.913 28.2294L242.59 23.2006C238.538 18.4677 231.785 18.2564 227.501 22.6513L26.4743 228.958C12.0408 243.791 3.82063 264.498 3.82063 286.134V324.632C1.31214 332.915 0 341.662 0 350.494V350.706H36.7784L105.588 281.951L114.735 292.896C117.629 296.361 117.475 301.686 114.387 304.939L71.0868 350.706H95.5542L125.733 318.8C129.284 315.039 132.024 310.306 133.143 305.024C135.034 295.981 132.796 286.895 127.277 280.303L118.169 269.4L134.417 253.173C141.981 258.835 154.06 270.33 156.839 287.571C158.305 296.615 157.032 306.503 153.095 316.899C149.043 327.59 142.174 338.915 132.564 350.706H154.523C170.539 327.294 176.945 304.982 173.549 284.19C173.163 281.782 172.661 279.5 172.044 277.26C180.65 278.147 191.186 277.26 201.76 271.302C207.587 279.838 240.584 300.249 272.615 298.77L220.747 350.748H245.909L263.585 333.042L279.755 350.748H303.798L276.127 320.491L302.486 294.079C309.934 292.051 319.312 287.233 326.374 275.908C331.816 267.16 333.051 257.356 329.963 247.51C329.114 244.805 327.918 242.101 326.413 239.354L336.871 227.775L324.792 214.675L324.753 214.717ZM38.0905 242.566L154.214 123.396V143.849C154.214 149.174 152.208 154.372 148.696 158.09L22.9623 291.248C22.2291 292.008 21.5344 292.811 20.8398 293.614V286.177C20.8398 269.653 27.0917 253.849 38.0905 242.566ZM17.2121 345.128C18.4085 329.872 24.6604 315.335 34.7715 304.644L160.505 171.486C167.297 164.302 171.195 154.203 171.195 143.849V105.943L191.108 85.49L190.221 154.456C190.066 165.908 185.551 176.938 177.794 184.671L17.1735 345.128H17.2121Z" fill="#6B9ED6"/>
<path id="Vector_4" d="M268.37 146.215C276.05 146.215 290.329 125.847 290.329 125.847H242.475C242.475 125.847 253.28 146.215 268.37 146.215Z" fill="#6B9ED6"/>
<path id="Vector_5" d="M226.495 120.734L248.801 99.8578C248.801 99.8578 251.425 96.6884 260.301 96.6884H290.751L274.581 78.4326H257.832C251.58 78.4326 245.443 80.3343 240.156 84.0108C231.28 90.1805 220.899 101.759 226.495 120.691V120.734Z" fill="#6B9ED6"/>
<path id="Vector_6" d="M117.9 79.5309V41.5403C108.021 42.3855 100.225 52.105 99.6847 62.7542C99.6075 64.191 99.9163 65.4587 99.9163 66.7265C99.9934 77.1221 99.8777 87.5178 99.8777 97.9134C94.7063 103.238 89.4578 108.52 84.1706 113.803C82.8971 115.07 81.6236 116.719 80.1957 117.902C79.9641 118.071 79.9255 118.367 79.5396 118.24V79.5309C69.0039 84.6019 62.2503 96.4766 61.5556 108.985C61.0539 117.986 62.0187 127.495 61.4399 136.538C60.2049 137.763 59.1243 139.158 57.928 140.426C53.3355 145.243 47.1994 150.272 43.1472 155.427C42.7613 155.935 42.0666 155.892 42.2981 156.949H79.4624C80.543 156.949 84.2478 155.301 85.3284 154.709C90.2682 151.878 94.4748 146.004 95.3624 139.876C95.4396 139.411 95.8255 137.468 95.3238 137.468H64.6044C66.0323 135.777 67.6918 134.34 69.1969 132.777C74.9085 126.987 80.543 121.156 86.2546 115.324C86.5248 115.197 86.8335 115.197 87.1808 115.155C97.8323 114.225 113.385 117.648 122.763 112.366C128.089 109.366 133.144 103.196 134.186 96.6034C133.877 96.4766 133.53 96.8569 133.453 96.8569H104.663C108.831 92.0817 113.385 87.6868 117.939 83.3764C124.422 82.7425 131.33 84.3061 137.621 82.1509C142.638 80.4183 147.539 76.277 150.202 71.2904C150.858 70.0227 151.746 68.2478 151.823 66.811H134.263C137.273 63.5148 140.361 60.3032 143.603 57.2605C147.925 58.2747 152.093 59.9651 156.415 60.9793C163.246 62.5851 169.884 59.5425 171.852 51.8092C171.968 51.3021 172.47 48.8511 172.161 48.6398C165.369 48.5552 158.538 48.1749 151.784 48.9778L161.509 38.878C171.736 37.9483 182.581 39.3428 192.808 38.6667C202.649 38.0328 212.104 29.5811 214.11 18.9742H177.795L157.341 39.5964V0H156.261C155.991 0.33807 155.682 0.33807 155.412 0H154.987C155.103 0.549363 154.756 0.507104 154.408 0.633881C145.223 4.22587 139.435 11.7479 139.357 22.6084C139.242 34.4408 139.435 46.2733 139.319 58.1057C132.064 65.0361 125.233 72.6004 117.939 79.4886L117.9 79.5309Z" fill="#6B9ED6"/>
</g>
</svg>
