<svg preserveAspectRatio="none" width="100%" height="100%" overflow="visible" style="display: block;" viewBox="0 0 152.783 56.139" fill="none" xmlns="http://www.w3.org/2000/svg">
<g id="Group 69" opacity="0.4">
<circle id="Ellipse 7" cx="28.0695" cy="28.0695" r="27.911" stroke="white" stroke-width="0.316978"/>
<path id="Ellipse 8" d="M76.3923 0.158207C81.9211 0.158304 86.9411 3.2646 90.5847 8.31446C94.228 13.3641 96.4861 20.348 96.4861 28.0693C96.4861 35.7909 94.2282 42.7755 90.5847 47.8252C86.9411 52.875 81.9211 55.9804 76.3923 55.9805C70.8636 55.9805 65.8436 52.875 62.1999 47.8252C58.5565 42.7755 56.2976 35.7909 56.2976 28.0693C56.2976 20.3479 58.5566 13.3641 62.1999 8.31446C65.8436 3.26452 70.8635 0.158207 76.3923 0.158207Z" stroke="white" stroke-width="0.316978"/>
<path id="Ellipse 9" d="M110.501 0.158205C114.234 0.158388 117.658 3.22865 120.157 8.29199C122.652 13.3454 124.199 20.3375 124.199 28.0693C124.199 35.8015 122.652 42.7942 120.157 47.8477C117.658 52.911 114.234 55.9803 110.501 55.9805C106.768 55.9805 103.345 52.911 100.845 47.8477C98.3502 42.7942 96.8019 35.8015 96.8019 28.0693C96.802 20.3373 98.3503 13.3454 100.845 8.29199C103.345 3.2285 106.768 0.158205 110.501 0.158205Z" stroke="white" stroke-width="0.316978"/>
<path id="Ellipse 10" d="M131.465 0.158204C132.357 0.158335 133.251 0.875733 134.095 2.28711C134.934 3.68861 135.695 5.72776 136.337 8.26074C137.618 13.3242 138.413 20.3276 138.413 28.0693C138.413 35.8113 137.618 42.8154 136.337 47.8789C135.695 50.4117 134.934 52.4501 134.095 53.8516C133.251 55.263 132.357 55.9803 131.465 55.9805C130.574 55.9805 129.68 55.2631 128.836 53.8516C127.997 52.4501 127.236 50.4118 126.594 47.8789C125.312 42.8154 124.517 35.8113 124.517 28.0693C124.517 20.3276 125.313 13.3242 126.594 8.26074C127.236 5.72776 127.997 3.68861 128.836 2.28711C129.68 0.875747 130.574 0.158204 131.465 0.158204Z" stroke="white" stroke-width="0.316978"/>
<path id="Ellipse 11" d="M143.19 0.158204C143.439 0.158249 143.71 0.311977 143.998 0.669922C144.284 1.02571 144.567 1.56044 144.841 2.26367C145.387 3.66897 145.882 5.71172 146.3 8.24707C147.134 13.3158 147.65 20.3241 147.65 28.0693C147.65 35.8145 147.134 42.8229 146.3 47.8916C145.882 50.4272 145.387 52.4707 144.841 53.876C144.567 54.5794 144.284 55.114 143.998 55.4697C143.71 55.8276 143.439 55.9804 143.19 55.9805C142.941 55.9805 142.67 55.8276 142.383 55.4697C142.097 55.114 141.813 54.5793 141.54 53.876C140.993 52.4707 140.497 50.4272 140.08 47.8916C139.246 42.8229 138.729 35.8145 138.729 28.0693C138.729 20.3241 139.246 13.3158 140.08 8.24707C140.497 5.71164 140.993 3.66899 141.54 2.26367C141.813 1.56037 142.097 1.02571 142.383 0.669922C142.67 0.311925 142.941 0.158204 143.19 0.158204Z" stroke="white" stroke-width="0.316978"/>
<path id="Ellipse 12" d="M150.296 0.158203C150.317 0.158252 150.362 0.170003 150.431 0.249023C150.499 0.327157 150.574 0.452846 150.652 0.632812C150.807 0.991907 150.961 1.53144 151.109 2.23828C151.404 3.64954 151.672 5.69768 151.897 8.23535C152.346 13.3089 152.624 20.3214 152.624 28.0693C152.624 35.8172 152.346 42.8297 151.897 47.9033C151.672 50.4409 151.404 52.4891 151.109 53.9004C150.961 54.6073 150.807 55.1467 150.652 55.5059C150.574 55.6859 150.499 55.8115 150.431 55.8896C150.362 55.9687 150.317 55.9804 150.296 55.9805C150.275 55.9805 150.231 55.9689 150.161 55.8896C150.093 55.8115 150.019 55.6859 149.941 55.5059C149.785 55.1467 149.631 54.6073 149.483 53.9004C149.187 52.4891 148.92 50.4408 148.696 47.9033C148.246 42.8297 147.967 35.8172 147.967 28.0693C147.967 20.3214 148.246 13.3089 148.696 8.23535C148.92 5.6977 149.187 3.64954 149.483 2.23828C149.631 1.53138 149.785 0.991928 149.941 0.632812C150.019 0.452898 150.093 0.327143 150.161 0.249023C150.231 0.169954 150.276 0.158203 150.296 0.158203Z" stroke="white" stroke-width="0.316978"/>
</g>
</svg>
