<svg preserveAspectRatio="none" width="100%" height="100%" overflow="visible" style="display: block;" viewBox="0 0 152.782 56.139" fill="none" xmlns="http://www.w3.org/2000/svg">
<g id="Group 69" opacity="0.4">
<circle id="Ellipse 7" cx="28.0695" cy="28.0695" r="27.911" stroke="white" stroke-width="0.316978"/>
<path id="Ellipse 8" d="M76.3914 0.158207C81.9202 0.158304 86.9402 3.2646 90.5838 8.31446C94.2271 13.3641 96.4851 20.348 96.4852 28.0693C96.4852 35.7909 94.2273 42.7755 90.5838 47.8252C86.9402 52.875 81.9202 55.9804 76.3914 55.9805C70.8627 55.9805 65.8426 52.875 62.199 47.8252C58.5556 42.7755 56.2967 35.7909 56.2967 28.0693C56.2967 20.3479 58.5557 13.3641 62.199 8.31446C65.8427 3.26452 70.8626 0.158207 76.3914 0.158207Z" stroke="white" stroke-width="0.316978"/>
<path id="Ellipse 9" d="M110.501 0.158205C114.234 0.158388 117.658 3.22865 120.157 8.29199C122.652 13.3454 124.199 20.3375 124.199 28.0693C124.199 35.8015 122.652 42.7942 120.157 47.8477C117.658 52.911 114.234 55.9803 110.501 55.9805C106.768 55.9805 103.345 52.911 100.845 47.8477C98.3502 42.7942 96.8019 35.8015 96.8019 28.0693C96.802 20.3373 98.3503 13.3454 100.845 8.29199C103.345 3.2285 106.768 0.158205 110.501 0.158205Z" stroke="white" stroke-width="0.316978"/>
<path id="Ellipse 10" d="M131.465 0.158204C132.356 0.158335 133.25 0.875733 134.094 2.28711C134.933 3.68861 135.694 5.72776 136.336 8.26074C137.617 13.3242 138.412 20.3276 138.412 28.0693C138.412 35.8113 137.618 42.8154 136.336 47.8789C135.694 50.4117 134.933 52.4501 134.094 53.8516C133.25 55.263 132.356 55.9803 131.465 55.9805C130.573 55.9805 129.68 55.2631 128.835 53.8516C127.996 52.4501 127.235 50.4118 126.593 47.8789C125.312 42.8154 124.516 35.8113 124.516 28.0693C124.516 20.3276 125.312 13.3242 126.593 8.26074C127.235 5.72776 127.996 3.68861 128.835 2.28711C129.68 0.875747 130.573 0.158204 131.465 0.158204Z" stroke="white" stroke-width="0.316978"/>
<path id="Ellipse 11" d="M143.189 0.158204C143.438 0.158249 143.709 0.311977 143.997 0.669922C144.283 1.02571 144.566 1.56044 144.84 2.26367C145.386 3.66897 145.881 5.71172 146.299 8.24707C147.133 13.3158 147.649 20.3241 147.649 28.0693C147.649 35.8145 147.133 42.8229 146.299 47.8916C145.881 50.4272 145.386 52.4707 144.84 53.876C144.566 54.5794 144.283 55.114 143.997 55.4697C143.709 55.8276 143.438 55.9804 143.189 55.9805C142.941 55.9805 142.67 55.8276 142.382 55.4697C142.096 55.114 141.813 54.5793 141.539 53.876C140.992 52.4707 140.496 50.4272 140.079 47.8916C139.245 42.8229 138.728 35.8145 138.728 28.0693C138.728 20.3241 139.245 13.3158 140.079 8.24707C140.496 5.71164 140.992 3.66899 141.539 2.26367C141.813 1.56037 142.096 1.02571 142.382 0.669922C142.67 0.311925 142.941 0.158204 143.189 0.158204Z" stroke="white" stroke-width="0.316978"/>
<path id="Ellipse 12" d="M150.295 0.158203C150.316 0.158252 150.361 0.170003 150.43 0.249023C150.498 0.327157 150.573 0.452846 150.651 0.632812C150.806 0.991907 150.96 1.53144 151.108 2.23828C151.403 3.64954 151.671 5.69768 151.896 8.23535C152.345 13.3089 152.623 20.3214 152.623 28.0693C152.623 35.8172 152.345 42.8297 151.896 47.9033C151.671 50.4409 151.403 52.4891 151.108 53.9004C150.96 54.6073 150.806 55.1467 150.651 55.5059C150.573 55.6859 150.498 55.8115 150.43 55.8896C150.361 55.9687 150.316 55.9804 150.295 55.9805C150.275 55.9805 150.23 55.9689 150.161 55.8896C150.092 55.8115 150.018 55.6859 149.94 55.5059C149.784 55.1467 149.63 54.6073 149.482 53.9004C149.186 52.4891 148.92 50.4408 148.695 47.9033C148.245 42.8297 147.966 35.8172 147.966 28.0693C147.966 20.3214 148.245 13.3089 148.695 8.23535C148.92 5.6977 149.186 3.64954 149.482 2.23828C149.63 1.53138 149.784 0.991928 149.94 0.632812C150.018 0.452898 150.092 0.327143 150.161 0.249023C150.23 0.169954 150.275 0.158203 150.295 0.158203Z" stroke="white" stroke-width="0.316978"/>
</g>
</svg>
