<svg preserveAspectRatio="none" width="100%" height="100%" overflow="visible" style="display: block;" viewBox="0 0 243.839 142.206" fill="none" xmlns="http://www.w3.org/2000/svg">
<g id="Group 73">
<circle id="Ellipse 7" cx="47.1459" cy="93.9955" r="46.76" stroke="white" stroke-opacity="0.2" stroke-width="0.771643"/>
<path id="Ellipse 8" d="M117.661 0.385742C126.899 0.385742 135.298 5.57481 141.401 14.0342C147.505 22.4931 151.292 34.1987 151.292 47.1455C151.292 60.0924 147.505 71.7978 141.401 80.2568C135.298 88.7164 126.899 93.9062 117.661 93.9062C108.423 93.9062 100.025 88.7164 93.9209 80.2568C87.8176 71.7978 84.0303 60.0924 84.0303 47.1455C84.0303 34.1987 87.8176 22.4931 93.9209 14.0342C100.025 5.5748 108.423 0.385755 117.661 0.385742Z" stroke="white" stroke-opacity="0.2" stroke-width="0.771643"/>
<path id="Ellipse 9" d="M174.952 17.4209C181.152 17.4209 186.871 22.5222 191.063 31.0146C195.244 39.4826 197.841 51.2081 197.841 64.1807C197.841 77.1534 195.244 88.8796 191.063 97.3477C186.871 105.84 181.152 110.941 174.952 110.941C168.753 110.941 163.033 105.84 158.841 97.3477C154.66 88.8796 152.063 77.1534 152.063 64.1807C152.064 51.2081 154.66 39.4826 158.841 31.0146C163.033 22.5222 168.753 17.421 174.952 17.4209Z" stroke="white" stroke-opacity="0.2" stroke-width="0.771643"/>
<path id="Ellipse 10" d="M209.096 48.2998C210.525 48.2998 211.996 49.4532 213.411 51.8174C214.811 54.157 216.085 57.5684 217.161 61.8174C219.311 70.31 220.645 82.0631 220.646 95.0596C220.646 108.056 219.311 119.81 217.161 128.303C216.085 132.552 214.811 135.963 213.411 138.303C211.996 140.667 210.525 141.82 209.096 141.82C207.666 141.82 206.196 140.667 204.781 138.303C203.381 135.963 202.106 132.552 201.03 128.303C198.88 119.81 197.546 108.056 197.546 95.0596C197.546 82.0631 198.88 70.31 201.03 61.8174C202.106 57.5682 203.381 54.1571 204.781 51.8174C206.196 49.4533 207.666 48.2999 209.096 48.2998Z" stroke="white" stroke-opacity="0.2" stroke-width="0.771643"/>
<path id="Ellipse 11" d="M227.727 17.4209C228.092 17.4209 228.516 17.6451 228.99 18.2344C229.46 18.8182 229.929 19.7035 230.387 20.8799C231.301 23.2289 232.132 26.6506 232.832 30.9062C234.232 39.4115 235.1 51.1761 235.1 64.1807C235.1 77.1851 234.232 88.9498 232.832 97.4551C232.132 101.711 231.301 105.133 230.387 107.482C229.929 108.658 229.46 109.543 228.99 110.127C228.516 110.716 228.092 110.941 227.727 110.941C227.362 110.941 226.938 110.716 226.464 110.127C225.994 109.543 225.524 108.659 225.066 107.482C224.153 105.133 223.322 101.711 222.622 97.4551C221.222 88.9498 220.354 77.1851 220.354 64.1807C220.355 51.1761 221.222 39.4115 222.622 30.9062C223.322 26.6506 224.153 23.2289 225.066 20.8799C225.524 19.7034 225.994 18.8183 226.464 18.2344C226.938 17.6454 227.362 17.421 227.727 17.4209Z" stroke="white" stroke-opacity="0.2" stroke-width="0.771643"/>
<path id="Ellipse 12" d="M239.662 17.4209C239.648 17.4209 239.693 17.4119 239.798 17.5322C239.901 17.6503 240.021 17.8489 240.149 18.1465C240.406 18.7385 240.662 19.6345 240.91 20.8193C241.405 23.1828 241.854 26.6172 242.231 30.8779C242.986 39.3951 243.453 51.1695 243.453 64.1807C243.453 77.192 242.986 88.9672 242.231 97.4844C241.854 101.745 241.405 105.18 240.91 107.543C240.662 108.728 240.406 109.624 240.149 110.216C240.021 110.513 239.901 110.712 239.798 110.83C239.693 110.95 239.648 110.941 239.662 110.941C239.676 110.942 239.63 110.95 239.525 110.83C239.422 110.712 239.303 110.513 239.174 110.216C238.917 109.624 238.661 108.728 238.413 107.543C237.918 105.18 237.469 101.745 237.092 97.4844C236.337 88.9672 235.87 77.192 235.87 64.1807C235.87 51.1695 236.337 39.3951 237.092 30.8779C237.469 26.6173 237.918 23.1828 238.413 20.8193C238.661 19.6346 238.918 18.7385 239.174 18.1465C239.303 17.8489 239.422 17.6503 239.525 17.5322C239.63 17.4124 239.676 17.4208 239.662 17.4209Z" stroke="white" stroke-opacity="0.2" stroke-width="0.771643"/>
</g>
</svg>
