<svg preserveAspectRatio="none" width="100%" height="100%" overflow="visible" style="display: block;" viewBox="0 0 243.84 142.206" fill="none" xmlns="http://www.w3.org/2000/svg">
<g id="Group 73">
<circle id="Ellipse 7" cx="47.1459" cy="93.9955" r="46.76" stroke="white" stroke-opacity="0.2" stroke-width="0.771643"/>
<path id="Ellipse 8" d="M117.663 0.385742C126.901 0.385742 135.3 5.57481 141.404 14.0342C147.507 22.4931 151.294 34.1987 151.294 47.1455C151.294 60.0924 147.507 71.7978 141.404 80.2568C135.3 88.7164 126.902 93.9062 117.663 93.9062C108.425 93.9062 100.027 88.7164 93.9231 80.2568C87.8198 71.7978 84.0325 60.0924 84.0325 47.1455C84.0325 34.1987 87.8198 22.4931 93.9231 14.0342C100.027 5.5748 108.425 0.385755 117.663 0.385742Z" stroke="white" stroke-opacity="0.2" stroke-width="0.771643"/>
<path id="Ellipse 9" d="M174.952 17.4228C181.152 17.4228 186.871 22.5241 191.064 31.0166C195.244 39.4846 197.841 51.21 197.841 64.1826C197.841 77.1554 195.244 88.8815 191.064 97.3496C186.871 105.842 181.152 110.943 174.952 110.943C168.753 110.943 163.034 105.842 158.841 97.3496C154.661 88.8815 152.064 77.1554 152.064 64.1826C152.064 51.21 154.661 39.4846 158.841 31.0166C163.034 22.5241 168.753 17.4229 174.952 17.4228Z" stroke="white" stroke-opacity="0.2" stroke-width="0.771643"/>
<path id="Ellipse 10" d="M209.098 48.2998C210.528 48.2998 211.998 49.4532 213.413 51.8174C214.814 54.157 216.088 57.5684 217.163 61.8174C219.313 70.31 220.648 82.0631 220.648 95.0596C220.648 108.056 219.313 119.81 217.163 128.303C216.088 132.552 214.814 135.963 213.413 138.303C211.998 140.667 210.528 141.82 209.098 141.82C207.668 141.82 206.198 140.667 204.783 138.303C203.383 135.963 202.108 132.552 201.032 128.303C198.882 119.81 197.548 108.056 197.548 95.0596C197.548 82.0631 198.882 70.31 201.032 61.8174C202.108 57.5682 203.383 54.1571 204.783 51.8174C206.198 49.4533 207.668 48.2999 209.098 48.2998Z" stroke="white" stroke-opacity="0.2" stroke-width="0.771643"/>
<path id="Ellipse 11" d="M227.727 17.4228C228.092 17.4228 228.517 17.6471 228.99 18.2363C229.46 18.8202 229.929 19.7055 230.387 20.8818C231.301 23.2308 232.132 26.6526 232.832 30.9082C234.232 39.4134 235.1 51.1781 235.1 64.1826C235.1 77.1871 234.232 88.9517 232.832 97.457C232.132 101.713 231.301 105.135 230.387 107.484C229.929 108.66 229.46 109.545 228.99 110.129C228.517 110.718 228.092 110.943 227.727 110.943C227.362 110.943 226.938 110.718 226.464 110.129C225.995 109.545 225.524 108.661 225.067 107.484C224.153 105.135 223.323 101.713 222.622 97.457C221.223 88.9517 220.355 77.1871 220.355 64.1826C220.355 51.1781 221.223 39.4134 222.622 30.9082C223.323 26.6526 224.153 23.2308 225.067 20.8818C225.524 19.7053 225.995 18.8202 226.464 18.2363C226.938 17.6473 227.362 17.423 227.727 17.4228Z" stroke="white" stroke-opacity="0.2" stroke-width="0.771643"/>
<path id="Ellipse 12" d="M239.662 17.4228C239.648 17.4228 239.693 17.4138 239.798 17.5342C239.901 17.6522 240.021 17.8509 240.15 18.1484C240.406 18.7404 240.662 19.6365 240.91 20.8213C241.406 23.1848 241.854 26.6192 242.232 30.8799C242.986 39.397 243.453 51.1714 243.453 64.1826C243.453 77.1939 242.986 88.9691 242.232 97.4863C241.854 101.747 241.406 105.181 240.91 107.545C240.662 108.73 240.406 109.626 240.15 110.218C240.021 110.515 239.901 110.714 239.798 110.832C239.693 110.952 239.648 110.943 239.662 110.943C239.676 110.943 239.63 110.952 239.526 110.832C239.423 110.714 239.303 110.515 239.174 110.218C238.918 109.626 238.662 108.73 238.413 107.545C237.918 105.181 237.47 101.747 237.092 97.4863C236.337 88.9691 235.87 77.1939 235.87 64.1826C235.87 51.1714 236.337 39.397 237.092 30.8799C237.47 26.6193 237.918 23.1848 238.413 20.8213C238.662 19.6366 238.918 18.7404 239.174 18.1484C239.303 17.8509 239.423 17.6522 239.526 17.5342C239.63 17.4144 239.676 17.4227 239.662 17.4228Z" stroke="white" stroke-opacity="0.2" stroke-width="0.771643"/>
</g>
</svg>
