<svg preserveAspectRatio="none" width="100%" height="100%" overflow="visible" style="display: block;" viewBox="0 0 136.096 370.387" fill="none" xmlns="http://www.w3.org/2000/svg">
<g id="Group 76" opacity="0.3">
<circle id="Ellipse 7" cx="68.048" cy="68.048" r="67.6622" transform="matrix(-4.37114e-08 -1 -1 4.37114e-08 136.096 370.387)" stroke="#B3902F" stroke-width="0.771643"/>
<path id="Ellipse 8" d="M135.71 185.194C135.71 171.791 128.182 159.622 115.94 150.789C103.698 141.956 86.7671 136.481 68.0482 136.481C49.3294 136.481 32.3982 141.956 20.1566 150.789C7.91452 159.622 0.386124 171.791 0.386124 185.194C0.386235 198.597 7.91461 210.765 20.1566 219.598C32.3982 228.431 49.3293 233.906 68.0482 233.906C86.7671 233.906 103.698 228.431 115.94 219.598C128.182 210.765 135.71 198.597 135.71 185.194Z" stroke="#B3902F" stroke-width="0.771643"/>
<path id="Ellipse 9" d="M135.71 102.501C135.71 93.4517 128.269 85.1531 115.995 79.0933C103.744 73.0456 86.7929 69.2936 68.0482 69.2935C49.3035 69.2935 32.3525 73.0456 20.1019 79.0933C7.827 85.1531 0.386337 93.4517 0.38611 102.501C0.38611 111.55 7.82682 119.849 20.1019 125.909C32.3525 131.957 49.3036 135.709 68.0482 135.709C86.7929 135.709 103.744 131.957 115.995 125.909C128.27 119.849 135.71 111.55 135.71 102.501Z" stroke="#B3902F" stroke-width="0.771643"/>
<path id="Ellipse 10" d="M135.71 51.6812C135.71 49.5209 133.972 47.3553 130.55 45.3072C127.153 43.2737 122.211 41.4282 116.071 39.8736C103.795 36.766 86.8168 34.8394 68.0482 34.8394C49.2798 34.8394 32.301 36.766 20.0258 39.8736C13.8852 41.4282 8.94271 43.2737 5.54529 45.3072C2.12382 47.3552 0.386211 49.521 0.386111 51.6812C0.386111 53.8415 2.12354 56.0081 5.54529 58.0562C8.94271 60.0897 13.8852 61.9343 20.0258 63.4888C32.301 66.5965 49.2797 68.523 68.0482 68.523C86.8168 68.523 103.795 66.5965 116.071 63.4888C122.211 61.9343 127.153 60.0897 130.55 58.0562C133.972 56.008 135.71 53.8416 135.71 51.6812Z" stroke="#B3902F" stroke-width="0.771643"/>
<path id="Ellipse 11" d="M135.71 23.2554C135.71 22.6531 135.34 21.997 134.472 21.2994C133.61 20.6059 132.314 19.9199 130.609 19.2564C127.202 17.931 122.25 16.7299 116.103 15.7183C103.815 13.6963 86.8248 12.4439 68.0482 12.4439C49.2716 12.4439 32.2814 13.6963 19.9935 15.7183C13.8467 16.7298 8.8944 17.9311 5.48767 19.2564C3.78251 19.9198 2.48673 20.606 1.62439 21.2994C0.756892 21.997 0.386301 22.6531 0.386111 23.2554C0.386111 23.8579 0.75667 24.5147 1.62439 25.2125C2.48673 25.9059 3.78253 26.592 5.48767 27.2554C8.8944 28.5808 13.8467 29.782 19.9935 30.7935C32.2814 32.8156 49.2716 34.0679 68.0482 34.0679C86.8248 34.0679 103.815 32.8156 116.103 30.7935C122.25 29.782 127.202 28.5808 130.609 27.2554C132.314 26.592 133.61 25.9059 134.472 25.2125C135.34 24.5147 135.71 23.8579 135.71 23.2554Z" stroke="#B3902F" stroke-width="0.771643"/>
<path id="Ellipse 12" d="M135.71 6.02985C135.71 5.98027 135.683 5.87101 135.492 5.70368C135.302 5.53843 134.997 5.35766 134.56 5.16852C133.689 4.79164 132.383 4.41909 130.669 4.06012C127.248 3.34342 122.283 2.69508 116.131 2.14997C103.832 1.06012 86.8314 0.386302 68.0482 0.386298C49.2651 0.386299 32.2649 1.06014 19.9652 2.14997C13.8135 2.69506 8.8483 3.34346 5.42713 4.06013C3.71343 4.41913 2.40597 4.79161 1.53553 5.16853C1.09887 5.35763 0.794218 5.53847 0.604861 5.70368C0.412966 5.87111 0.386111 5.98026 0.386111 6.02986C0.386213 6.07956 0.413512 6.18804 0.604861 6.35505C0.794195 6.52025 1.09895 6.70113 1.53553 6.89021C2.40597 7.26712 3.71343 7.6396 5.42713 7.99861C8.84831 8.71529 13.8134 9.36367 19.9652 9.90876C32.2649 10.9986 49.2651 11.6734 68.0482 11.6734C86.8315 11.6734 103.832 10.9986 116.131 9.90876C122.283 9.36364 127.248 8.71531 130.669 7.9986C132.383 7.63961 133.689 7.2671 134.56 6.8902C134.997 6.70106 135.302 6.52029 135.492 6.35505C135.683 6.18813 135.71 6.07954 135.71 6.02985Z" stroke="#B3902F" stroke-width="0.771643"/>
</g>
</svg>
