<svg preserveAspectRatio="none" width="100%" height="100%" overflow="visible" style="display: block;" viewBox="0 0 243.837 142.206" fill="none" xmlns="http://www.w3.org/2000/svg">
<g id="Group 73">
<circle id="Ellipse 7" cx="47.1459" cy="93.9955" r="46.76" stroke="white" stroke-opacity="0.2" stroke-width="0.771643"/>
<path id="Ellipse 8" d="M117.657 0.385742C126.895 0.385742 135.294 5.57481 141.397 14.0342C147.501 22.4931 151.288 34.1987 151.288 47.1455C151.288 60.0924 147.501 71.7978 141.397 80.2568C135.294 88.7164 126.895 93.9062 117.657 93.9062C108.419 93.9062 100.021 88.7164 93.917 80.2568C87.8137 71.7978 84.0264 60.0924 84.0264 47.1455C84.0264 34.1987 87.8137 22.4931 93.917 14.0342C100.021 5.5748 108.419 0.385755 117.657 0.385742Z" stroke="white" stroke-opacity="0.2" stroke-width="0.771643"/>
<path id="Ellipse 9" d="M174.952 17.4209C181.152 17.4209 186.871 22.5222 191.063 31.0146C195.244 39.4826 197.841 51.2081 197.841 64.1807C197.841 77.1534 195.244 88.8796 191.063 97.3477C186.871 105.84 181.152 110.941 174.952 110.941C168.753 110.941 163.033 105.84 158.841 97.3477C154.66 88.8796 152.063 77.1534 152.063 64.1807C152.064 51.2081 154.66 39.4826 158.841 31.0146C163.033 22.5222 168.753 17.421 174.952 17.4209Z" stroke="white" stroke-opacity="0.2" stroke-width="0.771643"/>
<path id="Ellipse 10" d="M209.096 48.2998C210.525 48.2998 211.996 49.4532 213.411 51.8174C214.811 54.157 216.085 57.5684 217.161 61.8174C219.311 70.31 220.645 82.0631 220.646 95.0596C220.646 108.056 219.311 119.81 217.161 128.303C216.085 132.552 214.811 135.963 213.411 138.303C211.996 140.667 210.525 141.82 209.096 141.82C207.666 141.82 206.196 140.667 204.781 138.303C203.381 135.963 202.106 132.552 201.03 128.303C198.88 119.81 197.546 108.056 197.546 95.0596C197.546 82.0631 198.88 70.31 201.03 61.8174C202.106 57.5682 203.381 54.1571 204.781 51.8174C206.196 49.4533 207.666 48.2999 209.096 48.2998Z" stroke="white" stroke-opacity="0.2" stroke-width="0.771643"/>
<path id="Ellipse 11" d="M227.724 17.4207C228.089 17.4207 228.514 17.6449 228.988 18.2341C229.458 18.818 229.927 19.7033 230.385 20.8796C231.298 23.2286 232.13 26.6504 232.83 30.906C234.23 39.4113 235.097 51.1759 235.097 64.1804C235.097 77.1849 234.229 88.9495 232.83 97.4548C232.13 101.711 231.299 105.133 230.385 107.482C229.927 108.658 229.458 109.543 228.988 110.127C228.514 110.716 228.089 110.941 227.724 110.941C227.36 110.941 226.935 110.716 226.462 110.127C225.992 109.543 225.522 108.658 225.064 107.482C224.15 105.133 223.32 101.711 222.62 97.4548C221.22 88.9495 220.352 77.1849 220.352 64.1804C220.352 51.1759 221.22 39.4113 222.62 30.906C223.32 26.6504 224.15 23.2286 225.064 20.8796C225.522 19.7032 225.992 18.818 226.462 18.2341C226.935 17.6452 227.36 17.4208 227.724 17.4207Z" stroke="white" stroke-opacity="0.2" stroke-width="0.771643"/>
<path id="Ellipse 12" d="M239.66 17.4207C239.646 17.4207 239.691 17.4117 239.796 17.532C239.899 17.65 240.019 17.8487 240.147 18.1462C240.404 18.7383 240.66 19.6343 240.908 20.8191C241.403 23.1826 241.852 26.617 242.229 30.8777C242.984 39.3948 243.451 51.1692 243.451 64.1804C243.451 77.1918 242.984 88.9669 242.229 97.4841C241.852 101.745 241.403 105.179 240.908 107.543C240.66 108.727 240.404 109.624 240.147 110.216C240.019 110.513 239.899 110.712 239.796 110.83C239.691 110.95 239.646 110.941 239.66 110.941C239.674 110.941 239.628 110.95 239.523 110.83C239.42 110.712 239.301 110.513 239.172 110.216C238.916 109.624 238.659 108.728 238.411 107.543C237.916 105.179 237.467 101.745 237.09 97.4841C236.335 88.9669 235.868 77.1918 235.868 64.1804C235.868 51.1693 236.335 39.3948 237.09 30.8777C237.467 26.6171 237.916 23.1826 238.411 20.8191C238.659 19.6344 238.916 18.7383 239.172 18.1462C239.301 17.8487 239.42 17.65 239.523 17.532C239.628 17.4122 239.674 17.4206 239.66 17.4207Z" stroke="white" stroke-opacity="0.2" stroke-width="0.771643"/>
</g>
</svg>
