<svg preserveAspectRatio="none" width="100%" height="100%" overflow="visible" style="display: block;" viewBox="0 0 231.001 84.8792" fill="none" xmlns="http://www.w3.org/2000/svg">
<g id="Group 69" opacity="0.1">
<circle id="Ellipse 7" cx="42.4396" cy="42.4396" r="41.9396" stroke="white"/>
<path id="Ellipse 8" d="M115.502 0.500012C123.757 0.500057 131.275 5.13617 136.749 12.7227C142.222 20.3085 145.623 30.8135 145.623 42.4395C145.623 54.0654 142.222 64.5704 136.749 72.1563C131.275 79.7428 123.757 84.3789 115.502 84.3789C107.247 84.3789 99.7287 79.7428 94.2549 72.1563C88.7816 64.5704 85.3809 54.0655 85.3809 42.4395C85.3809 30.8135 88.7816 20.3085 94.2549 12.7227C99.7287 5.13616 107.247 0.500012 115.502 0.500012Z" stroke="white"/>
<path id="Ellipse 9" d="M167.074 0.500007C172.565 0.500007 177.674 5.02223 181.44 12.6514C185.191 20.2489 187.525 30.7801 187.525 42.4395C187.525 54.0989 185.191 64.63 181.44 72.2275C177.674 79.8568 172.565 84.3789 167.074 84.3789C161.583 84.3789 156.474 79.8568 152.708 72.2275C148.957 64.63 146.623 54.0989 146.623 42.4395C146.623 30.7801 148.957 20.2489 152.708 12.6514C156.474 5.02223 161.584 0.500016 167.074 0.500007Z" stroke="white"/>
<path id="Ellipse 10" d="M198.77 0.500003C199.97 0.500003 201.254 1.47227 202.522 3.5918C203.772 5.67969 204.915 8.73434 205.882 12.5527C207.813 20.1822 209.014 30.7491 209.014 42.4395C209.014 54.1299 207.813 64.6967 205.882 72.3262C204.915 76.1447 203.772 79.1992 202.522 81.2871C201.254 83.4068 199.97 84.3789 198.77 84.3789C197.569 84.3789 196.285 83.4067 195.017 81.2871C193.767 79.1992 192.624 76.1447 191.657 72.3262C189.726 64.6967 188.525 54.1299 188.525 42.4395C188.525 30.7491 189.726 20.1822 191.657 12.5527C192.624 8.73433 193.767 5.67969 195.017 3.5918C196.285 1.47227 197.569 0.500036 198.77 0.500003Z" stroke="white"/>
<path id="Ellipse 11" d="M216.495 0.500001C216.756 0.500001 217.099 0.660651 217.514 1.17578C217.922 1.68395 218.339 2.46426 218.748 3.5166C219.565 5.61662 220.311 8.68494 220.94 12.5117C222.199 20.1575 222.979 30.7388 222.979 42.4395C222.979 54.1403 222.199 64.7223 220.94 72.3682C220.311 76.1946 219.565 79.2624 218.748 81.3623C218.339 82.4149 217.922 83.1959 217.514 83.7041C217.099 84.2192 216.756 84.3789 216.495 84.3789C216.234 84.3788 215.892 84.2188 215.478 83.7041C215.069 83.1959 214.653 82.4149 214.243 81.3623C213.426 79.2624 212.68 76.1946 212.051 72.3682C210.793 64.7223 210.012 54.1403 210.012 42.4395C210.012 30.7388 210.793 20.1575 212.051 12.5117C212.681 8.68488 213.426 5.61663 214.243 3.5166C214.653 2.46415 215.069 1.68394 215.478 1.17578C215.892 0.66087 216.234 0.500137 216.495 0.500001Z" stroke="white"/>
<path id="Ellipse 12" d="M227.249 0.547852C227.327 0.637125 227.427 0.799522 227.54 1.06055C227.765 1.57917 227.992 2.37421 228.215 3.4375C228.659 5.55626 229.063 8.64124 229.402 12.4746C230.081 20.1358 230.501 30.7302 230.501 42.4395C230.501 54.1489 230.081 64.744 229.402 72.4053C229.063 76.2384 228.659 79.3227 228.215 81.4414C227.992 82.5048 227.765 83.2997 227.54 83.8184C227.427 84.0794 227.327 84.2417 227.249 84.3311C227.247 84.3336 227.243 84.3355 227.241 84.3379C227.239 84.3355 227.236 84.3337 227.233 84.3311C227.156 84.2418 227.055 84.0795 226.942 83.8184C226.718 83.2997 226.489 82.5048 226.267 81.4414C225.823 79.3227 225.42 76.2383 225.08 72.4053C224.401 64.744 223.98 54.1489 223.98 42.4395C223.98 30.7301 224.401 20.1358 225.08 12.4746C225.42 8.64124 225.823 5.55626 226.267 3.4375C226.489 2.37417 226.718 1.57918 226.942 1.06055C227.055 0.799457 227.156 0.637063 227.233 0.547852C227.236 0.544968 227.239 0.542662 227.241 0.540039C227.244 0.542605 227.247 0.545037 227.249 0.547852Z" stroke="white"/>
</g>
</svg>
