<svg preserveAspectRatio="none" width="100%" height="100%" overflow="visible" style="display: block;" viewBox="0 0 230.999 84.8792" fill="none" xmlns="http://www.w3.org/2000/svg">
<g id="Group 69" opacity="0.1">
<circle id="Ellipse 7" cx="42.4396" cy="42.4396" r="41.9396" stroke="white"/>
<path id="Ellipse 8" d="M115.502 0.500012C123.757 0.500057 131.275 5.13617 136.749 12.7227C142.222 20.3085 145.623 30.8135 145.623 42.4395C145.623 54.0654 142.222 64.5704 136.749 72.1563C131.275 79.7428 123.757 84.3789 115.502 84.3789C107.247 84.3789 99.7287 79.7428 94.2549 72.1563C88.7816 64.5704 85.3809 54.0655 85.3809 42.4395C85.3809 30.8135 88.7816 20.3085 94.2549 12.7227C99.7287 5.13616 107.247 0.500012 115.502 0.500012Z" stroke="white"/>
<path id="Ellipse 9" d="M167.072 0.500007C172.563 0.500007 177.672 5.02223 181.438 12.6514C185.189 20.2489 187.523 30.7801 187.523 42.4395C187.523 54.0989 185.189 64.63 181.438 72.2275C177.672 79.8568 172.563 84.3789 167.072 84.3789C161.582 84.3789 156.472 79.8568 152.706 72.2275C148.955 64.63 146.621 54.0989 146.621 42.4395C146.621 30.7801 148.955 20.2489 152.706 12.6514C156.472 5.02223 161.582 0.500016 167.072 0.500007Z" stroke="white"/>
<path id="Ellipse 10" d="M198.77 0.500003C199.97 0.500003 201.254 1.47227 202.522 3.5918C203.772 5.67969 204.915 8.73434 205.882 12.5527C207.813 20.1822 209.014 30.7491 209.014 42.4395C209.014 54.1299 207.813 64.6967 205.882 72.3262C204.915 76.1447 203.772 79.1992 202.522 81.2871C201.254 83.4068 199.97 84.3789 198.77 84.3789C197.569 84.3789 196.285 83.4067 195.017 81.2871C193.767 79.1992 192.624 76.1447 191.657 72.3262C189.726 64.6967 188.525 54.1299 188.525 42.4395C188.525 30.7491 189.726 20.1822 191.657 12.5527C192.624 8.73433 193.767 5.67969 195.017 3.5918C196.285 1.47227 197.569 0.500036 198.77 0.500003Z" stroke="white"/>
<path id="Ellipse 11" d="M216.495 0.500001C216.756 0.500001 217.099 0.660651 217.514 1.17578C217.922 1.68395 218.339 2.46426 218.748 3.5166C219.565 5.61662 220.311 8.68494 220.94 12.5117C222.199 20.1575 222.979 30.7388 222.979 42.4395C222.979 54.1403 222.199 64.7223 220.94 72.3682C220.311 76.1946 219.565 79.2624 218.748 81.3623C218.339 82.4149 217.922 83.1959 217.514 83.7041C217.099 84.2192 216.756 84.3789 216.495 84.3789C216.234 84.3788 215.892 84.2188 215.478 83.7041C215.069 83.1959 214.653 82.4149 214.243 81.3623C213.426 79.2624 212.68 76.1946 212.051 72.3682C210.793 64.7223 210.012 54.1403 210.012 42.4395C210.012 30.7388 210.793 20.1575 212.051 12.5117C212.681 8.68488 213.426 5.61663 214.243 3.5166C214.653 2.46415 215.069 1.68394 215.478 1.17578C215.892 0.66087 216.234 0.500137 216.495 0.500001Z" stroke="white"/>
<path id="Ellipse 12" d="M227.247 0.547852C227.325 0.637125 227.425 0.799522 227.538 1.06055C227.763 1.57917 227.99 2.37421 228.213 3.4375C228.657 5.55626 229.061 8.64124 229.4 12.4746C230.079 20.1358 230.499 30.7302 230.499 42.4395C230.499 54.1489 230.079 64.744 229.4 72.4053C229.061 76.2384 228.657 79.3227 228.213 81.4414C227.99 82.5048 227.763 83.2997 227.538 83.8184C227.425 84.0794 227.325 84.2417 227.247 84.3311C227.245 84.3336 227.241 84.3355 227.239 84.3379C227.237 84.3355 227.234 84.3337 227.231 84.3311C227.154 84.2418 227.054 84.0795 226.94 83.8184C226.716 83.2997 226.487 82.5048 226.265 81.4414C225.821 79.3227 225.418 76.2383 225.078 72.4053C224.399 64.744 223.979 54.1489 223.979 42.4395C223.979 30.7301 224.399 20.1358 225.078 12.4746C225.418 8.64124 225.821 5.55626 226.265 3.4375C226.487 2.37417 226.716 1.57918 226.94 1.06055C227.054 0.799457 227.154 0.637063 227.231 0.547852C227.234 0.544968 227.237 0.542662 227.239 0.540039C227.242 0.542605 227.245 0.545037 227.247 0.547852Z" stroke="white"/>
</g>
</svg>
