<svg preserveAspectRatio="none" width="100%" height="100%" overflow="visible" style="display: block;" viewBox="0 0 301.181 1918" fill="none" xmlns="http://www.w3.org/2000/svg">
<g id="Group 85" opacity="0.2">
<ellipse id="Ellipse 7" cx="196.973" cy="150.59" rx="196.973" ry="150.59" transform="matrix(-3.35646e-08 -1 -1 5.69256e-08 301.181 428.369)" fill="url(#paint0_linear_0_14)"/>
<ellipse id="Ellipse 13" cx="294.503" cy="150.59" rx="294.503" ry="150.59" transform="matrix(-3.35646e-08 -1 -1 5.69256e-08 301.181 1017.37)" fill="url(#paint1_linear_0_14)"/>
<ellipse id="Ellipse 14" cx="450.041" cy="150.59" rx="450.041" ry="150.59" transform="matrix(-3.35646e-08 -1 -1 5.69256e-08 301.181 1918)" fill="url(#paint2_linear_0_14)"/>
<ellipse id="Ellipse 12" cx="17.2112" cy="150.59" rx="17.2112" ry="150.59" transform="matrix(-3.35646e-08 -1 -1 5.69256e-08 301.181 34.4224)" fill="url(#paint3_linear_0_14)"/>
</g>
<defs>
<linearGradient id="paint0_linear_0_14" x1="196.973" y1="0" x2="196.973" y2="301.181" gradientUnits="userSpaceOnUse">
<stop stop-color="#2E5382"/>
<stop offset="1" stop-color="#FFFDF8"/>
</linearGradient>
<linearGradient id="paint1_linear_0_14" x1="294.503" y1="0" x2="294.503" y2="301.181" gradientUnits="userSpaceOnUse">
<stop stop-color="#2E5382"/>
<stop offset="1" stop-color="#FFFDF8"/>
</linearGradient>
<linearGradient id="paint2_linear_0_14" x1="450.041" y1="0" x2="450.041" y2="301.181" gradientUnits="userSpaceOnUse">
<stop stop-color="#2E5382"/>
<stop offset="1" stop-color="#FFFDF8"/>
</linearGradient>
<linearGradient id="paint3_linear_0_14" x1="17.2112" y1="0" x2="17.2112" y2="301.181" gradientUnits="userSpaceOnUse">
<stop stop-color="#2E5382"/>
<stop offset="1" stop-color="#FFFDF8"/>
</linearGradient>
</defs>
</svg>
