<svg preserveAspectRatio="none" width="100%" height="100%" overflow="visible" style="display: block;" viewBox="0 0 540 180.517" fill="none" xmlns="http://www.w3.org/2000/svg">
<g id="Group" opacity="0.04">
<path id="Vector" d="M60.1707 101.524C56.0893 95.6522 53.9868 89.6277 53.9868 83.5162C53.9868 74.9254 58.0682 66.4868 66.1073 58.4832C73.899 50.7188 85.2156 43.4981 99.7478 37.017C128.812 24.0546 169.688 14.6808 214.954 10.6355L208.214 1.34865C157.196 5.91593 111.126 16.4642 78.3514 31.0795C61.9641 38.3871 49.2252 46.543 40.444 55.2861C31.3537 64.3337 26.7776 73.838 26.7776 83.5162C26.7776 92.1723 30.4879 100.72 37.7849 108.897L60.1707 101.524Z" fill="#FFF9E8"/>
<path id="Vector_2" d="M533.798 81.9072L530.211 80.6022L482.286 96.9357L520.564 110.572L539.92 103.852L520.935 97.0879L533.303 92.8686C542.022 89.889 542.27 84.9738 533.798 81.8854V81.9072Z" fill="#FFF9E8"/>
<path id="Vector_3" d="M520.377 110.507L505.659 115.727C505.659 115.727 505.659 115.727 505.597 115.705L486.489 122.512C508.256 130.059 505.721 133.865 500.464 136.584C488.22 142.891 468.308 142.5 467.38 142.478H467.504L467.38 143V142.478L405.788 141.891C349.515 141.891 341.909 132.343 340.981 131.473L335.848 124.839L319.77 129.124C295.158 135.692 267.764 132.821 259.044 131.625C251.624 128.276 243.213 125.644 235.916 123.709L258.055 116.618L273.453 122.23C283.904 126.036 301.157 126.144 311.917 122.469L278.153 110.159L303.259 102.112C321.254 96.3266 331.705 88.1925 332.014 79.6234L333.808 34.9075L395.647 14.5287L388.721 11.9406C382.228 9.5047 371.406 9.39596 364.542 11.6579L42.4217 117.836C19.2938 125.47 6.12209 136.127 6.12209 147.263V167.076C2.10254 171.339 0 175.841 0 180.386V180.495H58.9327L169.192 145.11L183.848 150.742C188.486 152.526 188.238 155.266 183.291 156.941L113.908 180.495H153.114L201.472 164.075C207.161 162.139 211.552 159.703 213.345 156.984C216.375 152.33 212.789 147.654 203.946 144.261L189.351 138.65L215.386 130.298C227.506 133.213 246.862 139.129 251.314 148.002C253.664 152.656 251.624 157.746 245.316 163.096C238.823 168.598 227.815 174.427 212.417 180.495H247.604C273.267 168.446 283.533 156.963 278.091 146.262C277.472 145.023 276.668 143.848 275.679 142.695C289.469 143.152 306.351 142.695 323.295 139.629C332.633 144.022 385.505 154.527 436.832 153.766L353.72 180.517H394.039L422.361 171.404L448.272 180.517H486.798L442.459 164.945L484.695 151.351C496.63 150.308 511.657 147.828 522.974 141.999C531.693 137.497 533.672 132.452 528.725 127.384C527.364 125.992 525.447 124.6 523.036 123.187L539.794 117.227L520.438 110.485L520.377 110.507ZM61.0352 124.839L247.109 63.5074V74.0339C247.109 76.7743 243.894 79.4494 238.266 81.3633L36.7943 149.894C35.6194 150.286 34.5063 150.699 33.3932 151.112V147.284C33.3932 138.781 43.4111 130.646 61.0352 124.839ZM27.5803 177.624C29.4973 169.773 39.5152 162.291 55.7171 156.789L257.189 88.2577C268.073 84.5604 274.319 79.3624 274.319 74.0339V54.5251L306.227 43.9986L304.805 79.4929C304.558 85.3868 297.323 91.0633 284.893 95.0434L27.5184 177.624H27.5803Z" fill="#FFF9E8"/>
<path id="Vector_4" d="M430.03 75.2518C442.336 75.2518 465.216 64.7688 465.216 64.7688H388.536C388.536 64.7688 405.851 75.2518 430.03 75.2518Z" fill="#FFF9E8"/>
<path id="Vector_5" d="M362.932 62.1366L398.675 51.3927C398.675 51.3927 402.881 49.7615 417.104 49.7615H465.895L439.984 40.3659H413.146C403.128 40.3659 393.295 41.3446 384.823 43.2368C370.6 46.4121 353.966 52.3714 362.932 62.1149V62.1366Z" fill="#FFF9E8"/>
<path id="Vector_6" d="M188.92 40.9318V21.3795C173.089 21.8144 160.597 26.8167 159.731 32.2974C159.608 33.0369 160.103 33.6894 160.103 34.3418C160.226 39.6921 160.041 45.0423 160.041 50.3926C151.754 53.133 143.344 55.8516 134.872 58.5702C132.831 59.2227 130.791 60.0709 128.503 60.6798C128.132 60.7668 128.07 60.9191 127.451 60.8538V40.9318C110.569 43.5417 99.7475 49.6531 98.6344 56.0908C97.8305 60.7233 99.3765 65.6169 98.4489 70.2711C96.4701 70.9019 94.7385 71.6196 92.8215 72.272C85.4627 74.7514 75.6303 77.3396 69.1372 79.9929C68.5188 80.2539 67.4057 80.2322 67.7767 80.7759H127.328C129.059 80.7759 134.996 79.9277 136.727 79.6232C144.643 78.166 151.383 75.1429 152.806 71.9893C152.929 71.7501 153.548 70.7496 152.744 70.7496H103.52C105.808 69.8797 108.467 69.1402 110.879 68.3355C120.031 65.3559 129.059 62.3545 138.211 59.3532C138.644 59.2879 139.139 59.2879 139.696 59.2662C156.763 58.7877 181.684 60.5494 196.711 57.8307C205.245 56.2866 213.346 53.1112 215.016 49.7184C214.521 49.6531 213.964 49.8489 213.841 49.8489H167.709C174.387 47.3912 181.684 45.1293 188.981 42.9109C199.37 42.5847 210.44 43.3894 220.519 42.2802C228.558 41.3885 236.412 39.2571 240.679 36.6907C241.73 36.0383 243.152 35.1248 243.276 34.3853H215.139C219.963 32.6889 224.91 31.036 230.104 29.4701C237.03 29.9921 243.709 30.862 250.635 31.384C261.581 32.2105 272.217 30.6445 275.371 26.6645C275.556 26.4035 276.36 25.142 275.865 25.0333C264.982 24.9898 254.036 24.7941 243.214 25.2073L258.798 20.0093C275.185 19.5308 292.562 20.2485 308.949 19.9005C324.718 19.5743 339.869 15.2245 343.085 9.76552H284.894L252.119 20.379V0.000234237H250.388C249.955 0.174226 249.46 0.174226 249.027 0.000234237H248.347C248.532 0.282971 247.976 0.261222 247.419 0.326469C232.702 2.17513 223.426 6.04645 223.302 11.6359C223.117 17.7256 223.426 23.8154 223.24 29.9051C211.615 33.4719 200.669 37.365 188.981 40.91L188.92 40.9318Z" fill="#FFF9E8"/>
</g>
</svg>
