<svg preserveAspectRatio="none" width="100%" height="100%" overflow="visible" style="display: block;" viewBox="0 0 301.181 1438.43" fill="none" xmlns="http://www.w3.org/2000/svg">
<g id="Group 85" opacity="0.2">
<ellipse id="Ellipse 7" cx="147.722" cy="150.59" rx="147.722" ry="150.59" transform="matrix(-4.47551e-08 -1 -1 4.2692e-08 301.181 321.26)" fill="url(#paint0_linear_0_229)"/>
<ellipse id="Ellipse 13" cx="220.866" cy="150.59" rx="220.866" ry="150.59" transform="matrix(-4.47551e-08 -1 -1 4.2692e-08 301.181 762.991)" fill="url(#paint1_linear_0_229)"/>
<ellipse id="Ellipse 14" cx="337.514" cy="150.59" rx="337.514" ry="150.59" transform="matrix(-4.47551e-08 -1 -1 4.2692e-08 301.181 1438.43)" fill="url(#paint2_linear_0_229)"/>
<ellipse id="Ellipse 12" cx="12.9077" cy="150.59" rx="12.9077" ry="150.59" transform="matrix(-4.47551e-08 -1 -1 4.2692e-08 301.181 25.8155)" fill="url(#paint3_linear_0_229)"/>
</g>
<defs>
<linearGradient id="paint0_linear_0_229" x1="147.722" y1="0" x2="147.722" y2="301.181" gradientUnits="userSpaceOnUse">
<stop stop-color="#2E5382"/>
<stop offset="1" stop-color="#FFFDF8"/>
</linearGradient>
<linearGradient id="paint1_linear_0_229" x1="220.866" y1="0" x2="220.866" y2="301.181" gradientUnits="userSpaceOnUse">
<stop stop-color="#2E5382"/>
<stop offset="1" stop-color="#FFFDF8"/>
</linearGradient>
<linearGradient id="paint2_linear_0_229" x1="337.514" y1="0" x2="337.514" y2="301.181" gradientUnits="userSpaceOnUse">
<stop stop-color="#2E5382"/>
<stop offset="1" stop-color="#FFFDF8"/>
</linearGradient>
<linearGradient id="paint3_linear_0_229" x1="12.9077" y1="0" x2="12.9077" y2="301.181" gradientUnits="userSpaceOnUse">
<stop stop-color="#2E5382"/>
<stop offset="1" stop-color="#FFFDF8"/>
</linearGradient>
</defs>
</svg>
