<svg preserveAspectRatio="none" width="100%" height="100%" overflow="visible" style="display: block;" viewBox="0 0 735 703.428" fill="none" xmlns="http://www.w3.org/2000/svg">
<g id="Group" opacity="0.03">
<path id="Vector" d="M81.899 395.614C76.3438 372.731 73.482 349.256 73.482 325.441C73.482 291.965 79.0372 259.081 89.9793 227.893C100.585 197.638 115.988 169.5 135.768 144.245C175.328 93.7337 230.964 57.2064 292.576 41.4429L283.402 5.25452C213.962 23.0521 151.255 64.1559 106.645 121.108C84.34 149.584 67.001 181.365 55.0489 215.435C42.6759 250.691 36.4473 287.727 36.4473 325.441C36.4473 359.171 41.4975 392.478 51.4295 424.344L81.899 395.614Z" fill="var(--fill-0, #427BBA)"/>
<path id="Vector_2" d="M726.558 319.171L721.676 314.086L656.444 377.733L708.546 430.871L734.891 404.684L709.051 378.326L725.885 361.885C737.753 350.274 738.089 331.12 726.558 319.086V319.171Z" fill="var(--fill-0, #427BBA)"/>
<path id="Vector_3" d="M708.29 430.617L688.258 450.957C688.258 450.957 688.258 450.957 688.174 450.872L662.165 477.399C691.793 506.807 688.342 521.638 681.188 532.232C664.522 556.81 637.419 555.284 636.157 555.199H636.325L636.157 557.233V555.199L552.323 552.911C475.729 552.911 465.376 515.706 464.113 512.316L457.127 486.467L435.243 503.163C401.743 528.757 364.456 517.57 352.588 512.909C342.488 499.858 331.04 489.603 321.108 482.06L351.241 454.431L372.2 476.297C386.424 491.128 409.908 491.552 424.553 477.229L378.596 429.261L412.77 397.903C437.263 375.359 451.488 343.663 451.909 310.271L454.349 136.025L538.519 56.6138L529.092 46.5285C520.255 37.0365 505.525 36.6127 496.182 45.4268L57.7406 459.177C26.2611 488.925 8.33284 530.452 8.33284 573.844V651.052C2.86179 667.663 0 685.206 0 702.919V703.343H80.214L230.289 565.454L250.237 587.404C256.55 594.354 256.213 605.033 249.48 611.558L155.041 703.343H208.405L274.226 639.356C281.969 631.814 287.945 622.322 290.386 611.728C294.511 593.591 289.629 575.37 277.593 562.149L257.728 540.283L293.164 507.739C309.661 519.096 336.007 542.148 342.067 576.726C345.265 594.863 342.488 614.694 333.902 635.543C325.064 656.984 310.082 679.697 289.124 703.343H337.017C371.947 656.391 385.919 611.643 378.512 569.946C377.671 565.115 376.576 560.539 375.23 556.047C394 557.827 416.978 556.047 440.041 544.097C452.75 561.217 524.716 602.151 594.577 599.185L481.452 703.428H536.331L574.881 667.917L610.148 703.428H662.586L602.236 642.746L659.724 589.777C675.969 585.709 696.422 576.048 711.825 553.335C723.693 535.792 726.387 516.13 719.653 496.383C717.801 490.959 715.192 485.535 711.91 480.026L734.72 456.804L708.374 430.532L708.29 430.617ZM83.0757 486.467L336.343 247.471V288.49C336.343 299.169 331.966 309.593 324.307 317.051L50.0811 584.099C48.4819 585.625 46.9669 587.235 45.4518 588.845V573.929C45.4518 540.792 59.0873 509.095 83.0757 486.467ZM37.5398 692.156C40.1491 661.561 53.7846 632.407 75.8371 610.965L350.063 343.917C364.877 329.51 373.378 309.254 373.378 288.49V212.469L416.81 171.45L414.874 309.763C414.537 332.73 404.689 354.85 387.771 370.359L37.4556 692.156H37.5398Z" fill="var(--fill-0, #427BBA)"/>
<path id="Vector_4" d="M585.318 293.236C602.068 293.236 633.211 252.387 633.211 252.387H528.84C528.84 252.387 552.408 293.236 585.318 293.236Z" fill="var(--fill-0, #427BBA)"/>
<path id="Vector_5" d="M493.992 242.131L542.642 200.264C542.642 200.264 548.365 193.908 567.725 193.908H634.135L598.867 157.296H562.338C548.702 157.296 535.319 161.11 523.788 168.483C504.429 180.856 481.787 204.078 493.992 242.046V242.131Z" fill="var(--fill-0, #427BBA)"/>
<path id="Vector_6" d="M257.141 159.5V83.3095C235.593 85.0045 218.591 104.497 217.412 125.854C217.244 128.736 217.917 131.278 217.917 133.821C218.086 154.669 217.833 175.518 217.833 196.366C206.555 207.045 195.107 217.639 183.576 228.232C180.799 230.775 178.021 234.08 174.907 236.453C174.402 236.792 174.317 237.385 173.476 237.131V159.5C150.497 169.67 135.768 193.485 134.253 218.571C133.158 236.623 135.263 255.691 134 273.828C131.307 276.286 128.95 279.082 126.341 281.625C116.324 291.287 102.941 301.372 94.1035 311.711C93.2618 312.728 91.7467 312.644 92.2517 314.762H173.307C175.664 314.762 183.744 311.457 186.101 310.271C196.875 304.592 206.05 292.812 207.985 280.523C208.154 279.591 208.995 275.692 207.901 275.692H140.902C144.016 272.302 147.636 269.421 150.918 266.285C163.375 254.674 175.664 242.979 188.121 231.283C188.711 231.029 189.384 231.029 190.141 230.944C213.372 229.08 247.293 235.945 267.746 225.351C279.362 219.334 290.388 206.96 292.66 193.739C291.987 193.485 291.229 194.248 291.061 194.248H228.27C237.361 184.671 247.293 175.857 257.225 167.212C271.365 165.941 286.432 169.077 300.151 164.754C311.094 161.28 321.783 152.974 327.591 142.974C329.022 140.431 330.958 136.872 331.126 133.99H292.829C299.394 127.38 306.128 120.939 313.198 114.837C322.625 116.871 331.715 120.261 341.142 122.295C356.04 125.515 370.518 119.413 374.81 103.904C375.063 102.887 376.157 97.9713 375.484 97.5475C360.67 97.378 345.772 96.6153 331.042 98.2255L352.253 77.9702C374.558 76.1057 398.21 78.9025 420.515 77.5465C441.978 76.2752 462.6 59.3252 466.976 38.0528H387.772L343.162 79.411V0H340.806C340.216 0.678002 339.543 0.678002 338.954 0H338.028C338.28 1.10175 337.523 1.017 336.765 1.27125C316.733 8.47502 304.108 23.5606 303.939 45.3414C303.687 69.0714 304.108 92.8015 303.855 116.532C288.031 130.431 273.133 145.601 257.225 159.415L257.141 159.5Z" fill="var(--fill-0, #427BBA)"/>
</g>
</svg>
