<svg preserveAspectRatio="none" width="100%" height="100%" overflow="visible" style="display: block;" viewBox="0 0 384 315" fill="none" xmlns="http://www.w3.org/2000/svg">
<g id="Frame 6">
<path id="Vector" d="M169.072 159.618V83.3422C147.023 85.0404 129.539 104.512 128.358 125.936C128.2 128.815 128.855 131.323 128.884 133.939C129.063 154.796 128.775 175.664 128.775 196.521C117.195 207.238 105.447 217.847 93.6682 228.388C90.7906 230.955 87.9427 234.264 84.827 236.616C84.3407 236.977 84.2217 237.524 83.3882 237.319V159.628C59.881 169.837 44.7289 193.691 43.1809 218.726C42.0695 236.831 44.2129 255.844 42.9328 274.037C40.1941 276.506 37.7233 279.327 35.0739 281.825C24.784 291.527 11.0905 301.56 2.02103 311.945C1.1379 312.96 -0.41998 312.843 0.10593 315H83.1599C85.5712 315 93.827 311.73 96.268 310.471C107.322 304.791 116.689 293.01 118.684 280.722C118.832 279.824 119.686 275.92 118.584 275.92H49.8788C53.0839 272.534 56.7454 269.654 60.1787 266.511C72.9295 254.897 85.5116 243.185 98.3319 231.511C98.9769 231.219 99.6715 231.219 100.356 231.17C124.131 229.335 158.96 236.167 179.907 225.607C191.855 219.585 203.127 207.189 205.449 193.993C204.784 193.71 204.02 194.462 203.772 194.462H139.383C148.73 184.907 158.871 176.054 169.032 167.358C183.539 166.079 198.999 169.251 212.99 164.918C224.163 161.453 235.168 153.088 241.111 143.143C242.61 140.634 244.604 137.043 244.694 134.193H205.439C212.157 127.556 219.103 121.085 226.326 114.994C235.952 117.005 245.319 120.431 254.924 122.48C270.195 125.74 285.03 119.611 289.465 104.063C289.743 103.067 290.874 98.08 290.2 97.6799C275.047 97.5335 259.736 96.7234 244.703 98.4021L266.454 78.1302C289.336 76.2758 313.508 79.0672 336.39 77.7008C358.359 76.3929 379.475 59.4883 384 38.133H302.861L257.147 79.565V0H254.745C254.14 0.653932 253.416 0.653932 252.83 0H251.878C252.116 1.12242 251.352 1.02482 250.588 1.2981C230.047 8.51088 217.158 23.6001 216.959 45.4239C216.741 69.1704 217.158 92.9364 216.83 116.683C200.616 130.572 185.335 145.768 169.062 159.628L169.072 159.618Z" fill="var(--fill-0, white)"/>
</g>
</svg>
