<svg preserveAspectRatio="none" width="100%" height="100%" overflow="visible" style="display: block;" viewBox="0 0 281.001 764.751" fill="none" xmlns="http://www.w3.org/2000/svg">
<g id="Group 86" opacity="0.2">
<circle id="Ellipse 7" cx="140.5" cy="140.5" r="140.5" transform="matrix(-4.37114e-08 -1 -1 4.37114e-08 281.001 764.751)" fill="var(--fill-0, #FFF9E8)"/>
<ellipse id="Ellipse 8" cx="101.374" cy="140.5" rx="101.374" ry="140.5" transform="matrix(-4.37114e-08 -1 -1 4.37114e-08 281 483.747)" fill="var(--fill-0, #FFF9E8)"/>
<ellipse id="Ellipse 9" cx="69.3609" cy="140.5" rx="69.3609" ry="140.5" transform="matrix(-4.37114e-08 -1 -1 4.37114e-08 281 281.004)" fill="var(--fill-0, #FFF9E8)"/>
<ellipse id="Ellipse 10" cx="35.5697" cy="140.5" rx="35.5697" ry="140.5" transform="matrix(-4.37114e-08 -1 -1 4.37114e-08 281 142.279)" fill="var(--fill-0, #FFF9E8)"/>
<ellipse id="Ellipse 11" cx="23.1203" cy="140.5" rx="23.1203" ry="140.5" transform="matrix(-4.37114e-08 -1 -1 4.37114e-08 281 71.1403)" fill="var(--fill-0, #FFF9E8)"/>
<ellipse id="Ellipse 12" cx="12.4494" cy="140.5" rx="12.4494" ry="140.5" transform="matrix(-4.37114e-08 -1 -1 4.37114e-08 281 24.8988)" fill="var(--fill-0, #FFF9E8)"/>
</g>
</svg>
