<svg preserveAspectRatio="none" width="100%" height="100%" overflow="visible" style="display: block;" viewBox="0 0 188 22.3221" fill="none" xmlns="http://www.w3.org/2000/svg">
<g id="Group">
<path id="Vector" d="M8.80947 22.3037C7.82141 22.3037 6.83334 22.1655 5.84528 21.8893C4.85721 21.613 3.94302 21.171 3.11194 20.5632C2.28086 19.9554 1.57906 19.1635 1.025 18.1873C0.470947 17.2112 0.129279 16.0325 0 14.6604H3.96149C4.14618 15.7102 4.50631 16.5113 5.03266 17.0823C5.55902 17.644 6.16848 18.04 6.87028 18.2702C7.57208 18.5004 8.24618 18.611 8.91105 18.611C9.67749 18.611 10.3516 18.4912 10.9333 18.2426C11.5151 17.994 11.9861 17.6532 12.3277 17.2296C12.6694 16.7968 12.8356 16.318 12.8356 15.7839C12.8356 15.1853 12.6694 14.6512 12.337 14.1815C12.0045 13.7119 11.275 13.3712 10.1392 13.1686L6.64866 12.5239C4.81104 12.174 3.38897 11.4465 2.38244 10.3507C1.3759 9.25483 0.868019 7.94718 0.868019 6.44615C0.868019 5.09246 1.20969 3.93215 1.89302 2.97444C2.57635 2.01673 3.49054 1.28923 4.64483 0.773541C5.79911 0.25785 7.07343 0 8.47704 0C9.88064 0 11.2565 0.24864 12.4201 0.736705C13.5836 1.23398 14.5347 1.99831 15.2642 3.02969C15.9937 4.07028 16.437 5.40556 16.5755 7.05393H12.5586C12.4108 6.13305 12.1338 5.42397 11.7275 4.94512C11.312 4.46626 10.8318 4.12554 10.2777 3.94136C9.72366 3.75719 9.16037 3.6651 8.60632 3.6651C8.0892 3.6651 7.53514 3.74797 6.95339 3.91373C6.3624 4.07949 5.87298 4.35575 5.46667 4.74252C5.06037 5.12929 4.86645 5.68182 4.86645 6.37248C4.86645 6.94343 5.07884 7.45912 5.50361 7.91035C5.92839 8.36158 6.64866 8.68389 7.68289 8.86806L10.8964 9.45742C12.734 9.78894 14.1838 10.4243 15.255 11.3821C16.3261 12.3398 16.8617 13.7579 16.8617 15.6549C16.8617 16.7231 16.6309 17.6717 16.1692 18.4912C15.7075 19.3108 15.0888 20.0107 14.3131 20.5724C13.5374 21.1342 12.6786 21.567 11.7367 21.8709C10.7856 22.1655 9.816 22.3221 8.82794 22.3221L8.80947 22.3037Z" fill="var(--fill-0, #233A58)"/>
<path id="Vector_2" d="M23.6858 21.9353V3.84006H17.3788V0.359135H34.2868V3.84006H28.0075V21.9353H23.6766H23.6858Z" fill="var(--fill-0, #233A58)"/>
<path id="Vector_3" d="M36.3552 21.9353V0.349932H45.5341C47.2886 0.349932 48.7291 0.64461 49.8834 1.22476C51.0284 1.81412 51.878 2.61529 52.4505 3.62826C53.0138 4.65043 53.3001 5.79232 53.3001 7.06313C53.3001 8.04847 53.0877 8.96014 52.6537 9.78893C52.2197 10.6177 51.6471 11.336 50.9176 11.9346C51.7025 12.4687 52.3028 13.1593 52.7275 13.9973C53.1523 14.8446 53.3832 15.8023 53.4201 16.8981L53.6694 21.9261H49.4309L49.0892 16.8981C49.0523 16.1798 48.9046 15.5905 48.6737 15.1208C48.4336 14.6604 48.0735 14.3104 47.5748 14.0894C47.0762 13.8592 46.4113 13.7487 45.5618 13.7487H40.6768V21.9169H36.346L36.3552 21.9353ZM40.6861 10.277H45.2663C46.5406 10.277 47.4733 9.99152 48.0458 9.41137C48.6183 8.84042 48.9138 8.05768 48.9138 7.07234C48.9138 6.087 48.6275 5.27663 48.0458 4.71489C47.4733 4.15316 46.5406 3.86769 45.2663 3.86769H40.6861V10.277Z" fill="var(--fill-0, #233A58)"/>
<path id="Vector_4" d="M54.7498 21.9353L62.6359 0.349932H67.5485L75.4623 21.9353H70.8821L64.2057 2.69817H65.9695L59.2931 21.9353H54.7498ZM58.3974 17.0915L59.5424 13.7303H70.6697L71.8147 17.0915H58.3974Z" fill="var(--fill-0, #233A58)"/>
<path id="Vector_5" d="M79.7931 21.9353V3.84006H73.4861V0.359135H90.394V3.84006H84.1147V21.9353H79.7839H79.7931Z" fill="var(--fill-0, #233A58)"/>
<path id="Vector_6" d="M92.4717 21.9353V0.349932H106.785V3.83085H96.8026V9.29166H105.861V12.6529H96.8026V18.4452H106.785V21.9261H92.4717V21.9353Z" fill="var(--fill-0, #233A58)"/>
<path id="Vector_7" d="M107.745 21.9353L115.631 0.349932H120.544L128.458 21.9353H123.877L117.201 2.69817H118.965L112.288 21.9353H107.745ZM111.393 17.0915L112.538 13.7303H123.665L124.81 17.0915H111.393Z" fill="var(--fill-0, #B28F2F)"/>
<path id="Vector_8" d="M137.553 22.3037C135.947 22.3037 134.497 21.9814 133.195 21.3459C131.893 20.7105 130.858 19.7436 130.083 18.4452C129.307 17.1468 128.919 15.526 128.919 13.5737V0.349932H133.25V13.6106C133.25 15.1761 133.638 16.3456 134.414 17.1375C135.189 17.9295 136.261 18.3255 137.646 18.3255C139.031 18.3255 140.102 17.9295 140.878 17.1375C141.653 16.3456 142.032 15.1669 142.032 13.6106V0.349932H146.363V13.5737C146.363 15.526 145.966 17.1468 145.172 18.4452C144.377 19.7436 143.315 20.7105 141.977 21.3459C140.638 21.9814 139.16 22.3037 137.553 22.3037Z" fill="var(--fill-0, #B28F2F)"/>
<path id="Vector_9" d="M148.893 21.9353V0.349932H158.072C159.826 0.349932 161.267 0.64461 162.421 1.22476C163.566 1.81412 164.416 2.61529 164.988 3.62826C165.552 4.65043 165.838 5.79232 165.838 7.06313C165.838 8.04847 165.625 8.96014 165.191 9.78893C164.757 10.6177 164.185 11.336 163.455 11.9346C164.24 12.4687 164.841 13.1593 165.265 13.9973C165.69 14.8446 165.921 15.8023 165.958 16.8981L166.207 21.9261H161.969L161.627 16.8981C161.59 16.1798 161.442 15.5905 161.211 15.1208C160.971 14.6604 160.611 14.3104 160.113 14.0894C159.614 13.8592 158.949 13.7487 158.1 13.7487H153.215V21.9169H148.884L148.893 21.9353ZM153.224 10.277H157.804C159.078 10.277 160.011 9.99152 160.584 9.41137C161.156 8.84042 161.452 8.05768 161.452 7.07234C161.452 6.087 161.165 5.27663 160.584 4.71489C160.011 4.15316 159.078 3.86769 157.804 3.86769H153.224V10.277Z" fill="var(--fill-0, #B28F2F)"/>
<path id="Vector_10" d="M167.288 21.9353L175.174 0.349932H180.086L188 21.9353H183.42L176.743 2.69817H178.507L171.831 21.9353H167.288ZM170.935 17.0915L172.08 13.7303H183.207L184.352 17.0915H170.935Z" fill="var(--fill-0, #B28F2F)"/>
</g>
</svg>
