<svg preserveAspectRatio="none" width="100%" height="100%" overflow="visible" style="display: block;" viewBox="0 0 187.566 6.86054" fill="none" xmlns="http://www.w3.org/2000/svg">
<g id="Group">
<path id="Vector" d="M0 6.74082V0.138126H2.3455C2.87185 0.138126 3.29663 0.221004 3.63829 0.395971C3.97996 0.570938 4.22928 0.801161 4.3955 1.10505C4.56172 1.39973 4.64483 1.74967 4.64483 2.12723C4.64483 2.47716 4.56172 2.80867 4.3955 3.10335C4.22928 3.39804 3.97996 3.64667 3.63829 3.82164C3.29663 3.99661 2.86262 4.0887 2.33626 4.0887H1.03424V6.73162H0V6.74082ZM1.04347 3.2507H2.29009C2.7518 3.2507 3.09347 3.1494 3.29663 2.94681C3.49978 2.74421 3.60136 2.46795 3.60136 2.12723C3.60136 1.7865 3.49978 1.49182 3.29663 1.28922C3.09347 1.08663 2.76104 0.985332 2.29009 0.985332H1.04347V3.2507Z" fill="var(--fill-0, #233A58)"/>
<path id="Vector_2" d="M5.56825 6.74082V0.138126H8.26465C8.791 0.138126 9.22501 0.230222 9.55744 0.405189C9.89911 0.580155 10.1484 0.819574 10.3147 1.11425C10.4809 1.40894 10.564 1.74966 10.564 2.13643C10.564 2.45874 10.4901 2.75342 10.3516 3.02048C10.2131 3.28753 10.0099 3.50855 9.74213 3.68351C10.0192 3.84006 10.2223 4.05186 10.3608 4.32812C10.4993 4.60439 10.5732 4.90828 10.5824 5.26742L10.6563 6.74082H9.64979L9.55744 5.31347C9.54821 5.03721 9.4928 4.80698 9.4097 4.63202C9.32659 4.45705 9.18807 4.32813 9.00339 4.24525C8.8187 4.16237 8.56938 4.12553 8.24618 4.12553H6.61172V6.74082H5.56825ZM6.61172 3.28753H8.20001C8.65249 3.28753 8.98492 3.17703 9.19731 2.96523C9.40046 2.75343 9.51127 2.47715 9.51127 2.13643C9.51127 1.77729 9.4097 1.50103 9.20654 1.28922C9.00339 1.08663 8.66172 0.985332 8.20001 0.985332H6.62095V3.28753H6.61172Z" fill="var(--fill-0, #233A58)"/>
<path id="Vector_3" d="M11.589 6.74082V0.138126H15.809V0.976129H12.6324V2.98364H15.5228V3.81243H12.6324V5.89361H15.809V6.73162H11.589V6.74082Z" fill="var(--fill-0, #233A58)"/>
<path id="Vector_4" d="M18.9764 6.85134C18.6532 6.85134 18.3392 6.80529 18.0437 6.72241C17.7482 6.63953 17.4712 6.5014 17.2219 6.31722C16.9725 6.13305 16.7786 5.90282 16.6124 5.61735C16.4462 5.33188 16.3631 5.00037 16.3261 4.60439H17.305C17.3511 4.9267 17.4527 5.19374 17.6189 5.38713C17.7852 5.58972 17.9883 5.72786 18.2284 5.81074C18.4685 5.89362 18.7178 5.93966 18.9856 5.93966C19.2534 5.93966 19.4935 5.90282 19.7059 5.81994C19.9183 5.73706 20.0937 5.62656 20.2138 5.4608C20.3338 5.29504 20.3984 5.10166 20.3984 4.86224C20.3984 4.64122 20.3338 4.44784 20.2138 4.28208C20.0937 4.11632 19.8444 3.99661 19.4843 3.93215L18.2561 3.70193C17.7482 3.60985 17.3511 3.39804 17.0464 3.07573C16.7417 2.75342 16.5939 2.37586 16.5939 1.93384C16.5939 1.52865 16.7047 1.17873 16.9079 0.893253C17.1203 0.607781 17.3973 0.386769 17.7482 0.23022C18.0991 0.0736702 18.4777 0 18.8933 0C19.3088 0 19.7151 0.0736702 20.066 0.23022C20.4077 0.37756 20.6939 0.607776 20.9063 0.902457C21.128 1.19714 21.2572 1.58391 21.3034 2.04435H20.2969C20.2599 1.75888 20.1768 1.53786 20.0383 1.3629C19.8998 1.18793 19.7428 1.06822 19.5489 0.99455C19.355 0.92088 19.1426 0.884035 18.9025 0.884035C18.6901 0.884035 18.4777 0.920871 18.2653 0.985332C18.0529 1.04979 17.8867 1.1603 17.7575 1.30765C17.6282 1.45499 17.5635 1.64837 17.5635 1.8878C17.5635 2.10881 17.6466 2.30219 17.8129 2.45874C17.9791 2.61529 18.2192 2.7258 18.5331 2.78106L19.6782 2.99285C20.223 3.09415 20.6478 3.28753 20.9525 3.59142C21.248 3.8861 21.3957 4.29129 21.3957 4.81619C21.3957 5.1477 21.3311 5.44238 21.1926 5.69102C21.0541 5.93966 20.8694 6.14226 20.6293 6.31722C20.3892 6.49219 20.1399 6.61191 19.8536 6.69479C19.5674 6.77767 19.2719 6.82371 18.9671 6.82371L18.9764 6.85134Z" fill="var(--fill-0, #233A58)"/>
<path id="Vector_5" d="M22.3284 6.74082V0.138126H26.5485V0.976129H23.3719V2.98364H26.2622V3.81243H23.3719V5.89361H26.5485V6.73162H22.3284V6.74082Z" fill="var(--fill-0, #233A58)"/>
<path id="Vector_6" d="M27.4811 6.74082V0.138126H28.5246L31.8027 5.05561V0.138126H32.8462V6.74082H31.8027L28.5246 1.83254V6.74082H27.4811Z" fill="var(--fill-0, #233A58)"/>
<path id="Vector_7" d="M36.9185 6.85134C36.2629 6.85134 35.6996 6.7132 35.2194 6.41852C34.7392 6.13305 34.3699 5.73707 34.1205 5.22138C33.862 4.70569 33.7419 4.11632 33.7419 3.44408C33.7419 2.77183 33.8712 2.17328 34.1205 1.65758C34.3791 1.14189 34.7485 0.745911 35.2194 0.460439C35.6996 0.174967 36.2629 0.0276252 36.9185 0.0276252C37.7034 0.0276252 38.3406 0.221005 38.83 0.598565C39.3194 0.976125 39.6334 1.51024 39.7719 2.2009H38.6176C38.5345 1.81413 38.3498 1.51945 38.0636 1.29844C37.7773 1.07743 37.3895 0.966925 36.9093 0.966925C36.4753 0.966925 36.0967 1.06821 35.7827 1.2616C35.4687 1.45498 35.2194 1.74967 35.0532 2.11802C34.8777 2.49558 34.7946 2.9376 34.7946 3.45329C34.7946 3.96898 34.8777 4.41101 35.0532 4.77936C35.2286 5.14771 35.4687 5.43318 35.7827 5.63577C36.0967 5.83836 36.4753 5.93966 36.9093 5.93966C37.3895 5.93966 37.7681 5.82915 38.0543 5.61735C38.3406 5.40555 38.5253 5.10167 38.6269 4.70569H39.7811C39.6519 5.38714 39.3379 5.92124 38.8392 6.2988C38.3406 6.67636 37.7034 6.86054 36.9278 6.86054L36.9185 6.85134Z" fill="var(--fill-0, #233A58)"/>
<path id="Vector_8" d="M40.6307 6.74082V0.138126H44.8507V0.976129H41.6742V2.98364H44.5645V3.81243H41.6742V5.89361H44.8507V6.73162H40.6307V6.74082Z" fill="var(--fill-0, #233A58)"/>
<path id="Vector_9" d="M48.6645 6.74082V0.138126H51.2316C51.6933 0.138126 52.0719 0.211801 52.3859 0.359142C52.6998 0.506482 52.9307 0.699861 53.0877 0.957707C53.2447 1.21555 53.3278 1.50102 53.3278 1.83254C53.3278 2.16405 53.2539 2.44953 53.1061 2.67054C52.9584 2.89155 52.7737 3.06652 52.5336 3.18623C52.2935 3.30594 52.0442 3.37961 51.7764 3.41645L51.9149 3.31515C52.2104 3.31515 52.4782 3.39803 52.7091 3.54537C52.9492 3.69271 53.1338 3.8861 53.2724 4.13473C53.4109 4.38337 53.4847 4.65043 53.4847 4.94511C53.4847 5.28584 53.4016 5.58973 53.2354 5.86599C53.0692 6.14225 52.8199 6.35405 52.5059 6.5106C52.1827 6.66715 51.7949 6.75004 51.3239 6.75004H48.6737L48.6645 6.74082ZM49.7079 2.95601H51.0931C51.4625 2.95601 51.7487 2.86393 51.9519 2.68896C52.155 2.514 52.2566 2.27456 52.2566 1.96146C52.2566 1.64836 52.155 1.41814 51.9611 1.24318C51.7672 1.059 51.4717 0.976129 51.0746 0.976129H49.7079V2.95601ZM49.7079 5.88441H51.1854C51.5733 5.88441 51.878 5.79232 52.0996 5.60814C52.312 5.42397 52.4228 5.16612 52.4228 4.82539C52.4228 4.48467 52.312 4.22682 52.0904 4.03344C51.8688 3.84005 51.5548 3.73876 51.1577 3.73876H49.7079V5.87519V5.88441Z" fill="var(--fill-0, #233A58)"/>
<path id="Vector_10" d="M55.9041 6.74082V4.32812L53.6694 0.138126H54.8422L56.6059 3.63747H56.2735L58.0095 0.138126H59.173L56.9384 4.32812V6.74082H55.8949H55.9041Z" fill="var(--fill-0, #233A58)"/>
<path id="Vector_11" d="M62.9314 6.74082V0.138126H65.0922C65.8679 0.138126 66.505 0.27626 67.0037 0.543315C67.5023 0.810369 67.8809 1.19714 68.121 1.68521C68.3611 2.18248 68.4812 2.76263 68.4812 3.44407C68.4812 4.12552 68.3611 4.68726 68.121 5.18453C67.8809 5.68181 67.5116 6.05937 67.0037 6.32643C66.505 6.59348 65.8679 6.73162 65.0922 6.73162H62.9314V6.74082ZM63.9749 5.85678H65.0553C65.6462 5.85678 66.1172 5.75548 66.4681 5.5621C66.819 5.36871 67.0591 5.09246 67.2161 4.73331C67.3638 4.37417 67.4469 3.94135 67.4469 3.44407C67.4469 2.9468 67.3731 2.50479 67.2161 2.14565C67.0683 1.7773 66.819 1.50103 66.4681 1.30765C66.1172 1.11426 65.6555 1.01296 65.0553 1.01296H63.9749V5.85678Z" fill="var(--fill-0, #233A58)"/>
<path id="Vector_12" d="M69.3769 6.74082V0.138126H73.5969V0.976129H70.4204V2.98364H73.3107V3.81243H70.4204V5.89361H73.5969V6.73162H69.3769V6.74082Z" fill="var(--fill-0, #233A58)"/>
<path id="Vector_13" d="M76.7643 6.85134C76.4411 6.85134 76.1271 6.80529 75.8316 6.72241C75.5361 6.63953 75.2591 6.5014 75.0098 6.31722C74.7605 6.13305 74.5665 5.90282 74.4003 5.61735C74.2341 5.33188 74.151 5.00037 74.1141 4.60439H75.0929C75.1391 4.9267 75.2406 5.19374 75.4068 5.38713C75.5731 5.58972 75.7762 5.72786 76.0163 5.81074C76.2564 5.89362 76.5057 5.93966 76.7735 5.93966C77.0413 5.93966 77.2814 5.90282 77.4938 5.81994C77.7062 5.73706 77.8816 5.62656 78.0017 5.4608C78.1217 5.29504 78.1864 5.10166 78.1864 4.86224C78.1864 4.64122 78.1217 4.44784 78.0017 4.28208C77.8816 4.11632 77.6323 3.99661 77.2722 3.93215L76.044 3.70193C75.5361 3.60985 75.1391 3.39804 74.8343 3.07573C74.5296 2.75342 74.3818 2.37586 74.3818 1.93384C74.3818 1.52865 74.4927 1.17873 74.6958 0.893253C74.9082 0.607781 75.1852 0.386769 75.5361 0.23022C75.887 0.0736702 76.2656 0 76.6812 0C77.0967 0 77.503 0.0736702 77.8539 0.23022C78.1956 0.37756 78.4818 0.607776 78.6942 0.902457C78.9159 1.19714 79.0451 1.58391 79.0913 2.04435H78.0848C78.0478 1.75888 77.9647 1.53786 77.8262 1.3629C77.6877 1.18793 77.5307 1.06822 77.3368 0.99455C77.1429 0.92088 76.9305 0.884035 76.6904 0.884035C76.478 0.884035 76.2656 0.920871 76.0532 0.985332C75.8409 1.04979 75.6746 1.1603 75.5454 1.30765C75.4161 1.45499 75.3514 1.64837 75.3514 1.8878C75.3514 2.10881 75.4345 2.30219 75.6008 2.45874C75.767 2.61529 76.0071 2.7258 76.321 2.78106L77.4661 2.99285C78.0109 3.09415 78.4357 3.28753 78.7404 3.59142C79.0359 3.8861 79.1837 4.29129 79.1837 4.81619C79.1837 5.1477 79.119 5.44238 78.9805 5.69102C78.842 5.93966 78.6573 6.14226 78.4172 6.31722C78.1771 6.49219 77.9278 6.61191 77.6415 6.69479C77.3553 6.77767 77.0598 6.82371 76.755 6.82371L76.7643 6.85134Z" fill="var(--fill-0, #233A58)"/>
<path id="Vector_14" d="M80.1717 6.74082V0.138126H81.2152V6.74082H80.1717Z" fill="var(--fill-0, #233A58)"/>
<path id="Vector_15" d="M85.4629 6.85134C84.7519 6.85134 84.1517 6.7132 83.653 6.42773C83.1544 6.14225 82.7665 5.74628 82.508 5.2398C82.2402 4.73332 82.1109 4.15315 82.1109 3.49012C82.1109 2.82709 82.2402 2.20089 82.508 1.67599C82.7758 1.15109 83.1544 0.745902 83.6346 0.451221C84.124 0.15654 84.7057 0.00920372 85.3706 0.00920372C86.137 0.00920372 86.7742 0.193376 87.2821 0.552518C87.79 0.911661 88.1132 1.42736 88.2517 2.07198H87.0697C86.9774 1.73125 86.7834 1.45498 86.4972 1.2616C86.2017 1.05901 85.8323 0.966925 85.3706 0.966925C84.9089 0.966925 84.521 1.06821 84.1886 1.2708C83.8562 1.4734 83.6069 1.76808 83.4314 2.13643C83.256 2.51399 83.1636 2.96522 83.1636 3.49012C83.1636 4.01502 83.256 4.42942 83.4406 4.78856C83.6253 5.14771 83.8839 5.42397 84.2348 5.62657C84.5857 5.82916 84.9828 5.92124 85.4629 5.92124C86.0632 5.92124 86.5341 5.74627 86.885 5.40555C87.2359 5.06483 87.4114 4.57676 87.4298 3.95056H85.4906V3.1402H88.4733V3.573C88.4733 4.28207 88.344 4.88066 88.0947 5.36872C87.8361 5.85679 87.4852 6.22513 87.042 6.47377C86.5988 6.72241 86.0816 6.84212 85.4906 6.84212L85.4629 6.85134Z" fill="var(--fill-0, #233A58)"/>
<path id="Vector_16" d="M89.3136 6.74082V0.138126H90.3571L93.6352 5.05561V0.138126H94.6787V6.74082H93.6352L90.3571 1.83254V6.74082H89.3136Z" fill="var(--fill-0, #233A58)"/>
<path id="Vector_17" d="M95.6575 6.74082V5.4608H96.9965V6.74082H95.6575Z" fill="var(--fill-0, #233A58)"/>
<path id="Vector_18" d="M100.856 6.74082V0.138126H103.202C103.728 0.138126 104.153 0.221004 104.495 0.395971C104.836 0.570938 105.086 0.801161 105.252 1.10505C105.418 1.39973 105.501 1.74967 105.501 2.12723C105.501 2.47716 105.418 2.80867 105.252 3.10335C105.086 3.39804 104.836 3.64667 104.495 3.82164C104.153 3.99661 103.719 4.0887 103.193 4.0887H101.891V6.73162H100.847L100.856 6.74082ZM101.891 3.2507H103.137C103.599 3.2507 103.941 3.1494 104.144 2.94681C104.347 2.74421 104.449 2.46795 104.449 2.12723C104.449 1.7865 104.347 1.49182 104.144 1.28922C103.941 1.08663 103.608 0.985332 103.137 0.985332H101.891V3.2507Z" fill="var(--fill-0, #233A58)"/>
<path id="Vector_19" d="M109.333 6.85134C108.678 6.85134 108.105 6.70399 107.616 6.41852C107.126 6.13305 106.739 5.72786 106.462 5.22138C106.185 4.70569 106.046 4.11632 106.046 3.44408C106.046 2.77183 106.185 2.18248 106.462 1.66679C106.739 1.1511 107.117 0.755115 107.616 0.469643C108.115 0.184171 108.687 0.0368289 109.343 0.0368289C109.998 0.0368289 110.58 0.184171 111.07 0.469643C111.559 0.755115 111.947 1.1603 112.215 1.66679C112.492 2.18248 112.63 2.77183 112.63 3.44408C112.63 4.11632 112.492 4.70569 112.215 5.22138C111.938 5.73707 111.559 6.13305 111.07 6.41852C110.58 6.70399 109.998 6.85134 109.343 6.85134H109.333ZM109.343 5.93046C109.786 5.93046 110.183 5.82915 110.515 5.63577C110.848 5.43318 111.106 5.14771 111.291 4.77936C111.476 4.4018 111.568 3.95977 111.568 3.44408C111.568 2.92838 111.476 2.48637 111.291 2.11802C111.106 1.74967 110.848 1.46419 110.515 1.2616C110.183 1.06821 109.795 0.966925 109.343 0.966925C108.89 0.966925 108.502 1.06821 108.17 1.2616C107.828 1.45498 107.57 1.74046 107.385 2.11802C107.2 2.48637 107.108 2.92838 107.108 3.44408C107.108 3.95977 107.2 4.4018 107.385 4.77936C107.57 5.15692 107.828 5.44239 108.17 5.63577C108.502 5.82915 108.899 5.93046 109.343 5.93046Z" fill="var(--fill-0, #233A58)"/>
<path id="Vector_20" d="M114.597 6.74082L112.815 0.138126H113.923L115.363 6.15146H115.059L116.712 0.138126H117.857L119.473 6.16068H119.168L120.608 0.138126H121.726L119.907 6.74082H118.688L117.146 1.22477H117.377L115.797 6.74082H114.597Z" fill="var(--fill-0, #233A58)"/>
<path id="Vector_21" d="M122.585 6.74082V0.138126H126.805V0.976129H123.628V2.98364H126.518V3.81243H123.628V5.89361H126.805V6.73162H122.585V6.74082Z" fill="var(--fill-0, #233A58)"/>
<path id="Vector_22" d="M127.719 6.74082V0.138126H130.415C130.942 0.138126 131.376 0.230222 131.708 0.405189C132.05 0.580155 132.299 0.819574 132.465 1.11425C132.631 1.40894 132.715 1.74966 132.715 2.13643C132.715 2.45874 132.641 2.75342 132.502 3.02048C132.364 3.28753 132.161 3.50855 131.893 3.68351C132.17 3.84006 132.373 4.05186 132.511 4.32812C132.65 4.60439 132.724 4.90828 132.733 5.26742L132.807 6.74082H131.8L131.708 5.31347C131.699 5.03721 131.643 4.80698 131.56 4.63202C131.477 4.45705 131.339 4.32813 131.154 4.24525C130.969 4.16237 130.72 4.12553 130.397 4.12553H128.762V6.74082H127.719ZM128.762 3.28753H130.351C130.803 3.28753 131.136 3.17703 131.348 2.96523C131.551 2.75343 131.662 2.47715 131.662 2.13643C131.662 1.77729 131.56 1.50103 131.357 1.28922C131.154 1.08663 130.812 0.985332 130.351 0.985332H128.772V3.28753H128.762Z" fill="var(--fill-0, #233A58)"/>
<path id="Vector_23" d="M136.676 6.74082V0.138126H139.243C139.705 0.138126 140.083 0.211801 140.397 0.359142C140.711 0.506482 140.942 0.699861 141.099 0.957707C141.256 1.21555 141.339 1.50102 141.339 1.83254C141.339 2.16405 141.265 2.44953 141.118 2.67054C140.97 2.89155 140.785 3.06652 140.545 3.18623C140.305 3.30594 140.056 3.37961 139.788 3.41645L139.927 3.31515C140.222 3.31515 140.49 3.39803 140.721 3.54537C140.961 3.69271 141.145 3.8861 141.284 4.13473C141.422 4.38337 141.496 4.65043 141.496 4.94511C141.496 5.28584 141.413 5.58973 141.247 5.86599C141.081 6.14225 140.831 6.35405 140.518 6.5106C140.194 6.66715 139.806 6.75004 139.336 6.75004H136.685L136.676 6.74082ZM137.72 2.95601H139.105C139.474 2.95601 139.76 2.86393 139.963 2.68896C140.167 2.514 140.268 2.27456 140.268 1.96146C140.268 1.64836 140.167 1.41814 139.973 1.24318C139.779 1.059 139.483 0.976129 139.086 0.976129H137.72V2.95601ZM137.72 5.88441H139.197C139.585 5.88441 139.89 5.79232 140.111 5.60814C140.324 5.42397 140.434 5.16612 140.434 4.82539C140.434 4.48467 140.324 4.22682 140.102 4.03344C139.88 3.84005 139.566 3.73876 139.169 3.73876H137.72V5.87519V5.88441Z" fill="var(--fill-0, #233A58)"/>
<path id="Vector_24" d="M143.916 6.74082V4.32812L141.681 0.138126H142.854L144.618 3.63747H144.285L146.021 0.138126H147.185L144.95 4.32812V6.74082H143.906H143.916Z" fill="var(--fill-0, #233A58)"/>
<path id="Vector_25" d="M150.943 6.74082V0.138126H153.104C153.879 0.138126 154.517 0.27626 155.015 0.543315C155.514 0.810369 155.893 1.19714 156.133 1.68521C156.373 2.18248 156.493 2.76263 156.493 3.44407C156.493 4.12552 156.373 4.68726 156.133 5.18453C155.893 5.68181 155.523 6.05937 155.015 6.32643C154.517 6.59348 153.879 6.73162 153.104 6.73162H150.943V6.74082ZM151.986 5.85678H153.067C153.658 5.85678 154.129 5.75548 154.48 5.5621C154.831 5.36871 155.071 5.09246 155.228 4.73331C155.375 4.37417 155.459 3.94135 155.459 3.44407C155.459 2.9468 155.385 2.50479 155.228 2.14565C155.08 1.7773 154.831 1.50103 154.48 1.30765C154.129 1.11426 153.667 1.01296 153.067 1.01296H151.986V5.85678Z" fill="var(--fill-0, #233A58)"/>
<path id="Vector_26" d="M157.379 6.74082V0.138126H161.599V0.976129H158.423V2.98364H161.313V3.81243H158.423V5.89361H161.599V6.73162H157.379V6.74082Z" fill="var(--fill-0, #233A58)"/>
<path id="Vector_27" d="M162.523 6.74082V0.138126H166.706V0.976129H163.566V3.01128H166.17V3.84006H163.566V6.73162H162.523V6.74082Z" fill="var(--fill-0, #233A58)"/>
<path id="Vector_28" d="M166.42 6.74082L168.839 0.138126H169.993L172.413 6.74082H171.314L169.19 0.736705H169.633L167.509 6.74082H166.42ZM167.528 5.1477L167.823 4.31892H171L171.295 5.1477H167.528Z" fill="var(--fill-0, #233A58)"/>
<path id="Vector_29" d="M175.368 6.85134C174.897 6.85134 174.463 6.75925 174.084 6.57507C173.705 6.39089 173.401 6.10541 173.17 5.71865C172.939 5.33188 172.828 4.84381 172.828 4.25445V0.147344H173.872V4.27287C173.872 4.83461 174.01 5.25821 174.287 5.52527C174.564 5.79232 174.934 5.93046 175.386 5.93046C175.838 5.93046 176.226 5.80153 176.494 5.52527C176.762 5.25821 176.9 4.84382 176.9 4.27287V0.147344H177.944V4.25445C177.944 4.84381 177.833 5.33188 177.602 5.71865C177.371 6.10541 177.057 6.39089 176.67 6.57507C176.273 6.75925 175.848 6.85134 175.377 6.85134H175.368Z" fill="var(--fill-0, #233A58)"/>
<path id="Vector_30" d="M178.95 6.74082V0.138126H179.994V5.92124H182.995V6.74082H178.96H178.95Z" fill="var(--fill-0, #233A58)"/>
<path id="Vector_31" d="M184.574 6.74082V0.976129H182.616V0.138126H187.566V0.976129H185.618V6.74082H184.574Z" fill="var(--fill-0, #233A58)"/>
</g>
</svg>
