<svg width="188" height="125" viewBox="0 0 188 125" fill="none" xmlns="http://www.w3.org/2000/svg">
<g clip-path="url(#clip0_1136_5055)">
<path d="M62.3219 42.986C61.7125 40.4996 61.3985 37.9488 61.3985 35.3611C61.3985 31.7236 62.008 28.1506 63.2084 24.7618C64.3719 21.4742 66.0618 18.4169 68.2319 15.6727C72.572 10.1843 78.6758 6.2153 85.4353 4.50246L84.4287 0.570312C76.8105 2.50416 69.931 6.97042 65.0368 13.1587C62.5897 16.2529 60.6875 19.7062 59.3762 23.4081C58.0188 27.2389 57.3354 31.2632 57.3354 35.3611C57.3354 39.0262 57.8895 42.6452 58.9791 46.1077L62.3219 42.986Z" fill="#233A58"/>
<path d="M133.047 34.6795L132.511 34.127L125.355 41.0427L131.071 46.8167L133.961 43.9711L131.126 41.1072L132.973 39.3207C134.275 38.0591 134.312 35.9779 133.047 34.6703V34.6795Z" fill="#233A58"/>
<path d="M131.043 46.7893L128.845 48.9994C128.845 48.9994 128.845 48.9994 128.836 48.9902L125.983 51.8726C129.233 55.068 128.855 56.6795 128.07 57.8306C126.241 60.5012 123.268 60.3354 123.129 60.3262H123.148L123.129 60.5472V60.3262L113.932 60.0776C105.529 60.0776 104.393 56.0349 104.255 55.6666L103.488 52.8579L101.087 54.672C97.412 57.4531 93.3212 56.2375 92.0192 55.731C90.9111 54.3129 89.6552 53.1986 88.5656 52.379L91.8714 49.377L94.1708 51.7528C95.7313 53.3644 98.3077 53.4104 99.9144 51.8541L94.8726 46.642L98.6217 43.2347C101.309 40.7852 102.869 37.3411 102.916 33.7128L103.183 14.7796L112.418 6.15095L111.383 5.05511C110.414 4.02373 108.798 3.97768 107.773 4.9354L59.6716 49.8927C56.218 53.1249 54.2511 57.6372 54.2511 62.3521V70.7413C53.6509 72.5463 53.3369 74.4525 53.3369 76.3771V76.4232H62.1372L78.6018 61.4405L80.7903 63.8256C81.4829 64.5807 81.446 65.741 80.7072 66.4501L70.3464 76.4232H76.2009L83.4221 69.4705C84.2716 68.651 84.9273 67.6196 85.1951 66.4685C85.6475 64.4978 85.112 62.5179 83.7915 61.0813L81.6122 58.7055L85.4998 55.1693C87.3097 56.4033 90.2 58.9081 90.8649 62.6652C91.2158 64.6359 90.9111 66.7908 89.9692 69.0561C88.9996 71.386 87.3559 73.8539 85.0565 76.4232H90.3108C94.143 71.3215 95.6759 66.4593 94.8633 61.9285C94.771 61.4036 94.6509 60.9064 94.5032 60.4183C96.5624 60.6117 99.0834 60.4183 101.614 59.1199C103.008 60.98 110.903 65.4279 118.568 65.1056L106.157 76.4324H112.178L116.407 72.5739L120.276 76.4324H126.029L119.408 69.8389L125.715 64.0834C127.497 63.6414 129.741 62.5916 131.431 60.1236C132.733 58.2174 133.028 56.081 132.29 53.9353C132.087 53.346 131.8 52.7566 131.44 52.158L133.943 49.6348L131.052 46.7801L131.043 46.7893ZM62.4511 52.8579L90.237 26.8891V31.3462C90.237 32.5065 89.7568 33.6392 88.9165 34.4495L58.8313 63.4664C58.6558 63.6322 58.4896 63.8071 58.3234 63.9821V62.3614C58.3234 58.7607 59.8194 55.3166 62.4511 52.8579ZM57.4554 75.2076C57.7417 71.8832 59.2376 68.7154 61.657 66.3856L91.7421 37.3687C93.3674 35.8032 94.3 33.6023 94.3 31.3462V23.0859L99.0649 18.6289L98.8525 33.6576C98.8156 36.1532 97.7352 38.5567 95.8791 40.2419L57.4462 75.2076H57.4554Z" fill="#233A58"/>
<path d="M117.552 31.8625C119.39 31.8625 122.806 27.4238 122.806 27.4238H111.356C111.356 27.4238 113.941 31.8625 117.552 31.8625Z" fill="#233A58"/>
<path d="M107.533 26.3098L112.87 21.7606C112.87 21.7606 113.498 21.07 115.622 21.07H122.908L119.039 17.0918H115.031C113.535 17.0918 112.067 17.5062 110.802 18.3074C108.678 19.6518 106.194 22.175 107.533 26.3006V26.3098Z" fill="#233A58"/>
<path d="M81.5475 17.3309V9.05223C79.1835 9.23641 77.3182 11.3544 77.1889 13.675C77.1704 13.9881 77.2443 14.2644 77.2443 14.5407C77.2628 16.806 77.2351 19.0714 77.2351 21.3367C75.9977 22.4971 74.7418 23.6481 73.4767 24.7992C73.172 25.0755 72.8673 25.4347 72.5256 25.6925C72.4702 25.7293 72.461 25.7938 72.3686 25.7662V17.3309C69.8477 18.436 68.2317 21.0236 68.0655 23.7494C67.9454 25.7109 68.1763 27.7829 68.0378 29.7536C67.7423 30.0206 67.4837 30.3245 67.1975 30.6008C66.0986 31.6506 64.6303 32.7464 63.6607 33.8699C63.5684 33.9804 63.4022 33.9712 63.4576 34.2014H72.3502C72.6087 34.2014 73.4952 33.8423 73.7538 33.7133C74.9358 33.0964 75.9423 31.8163 76.1547 30.4811C76.1731 30.3798 76.2655 29.9562 76.1454 29.9562H68.795C69.1366 29.5878 69.5337 29.2747 69.8939 28.934C71.2605 27.6724 72.6087 26.4016 73.9754 25.1308C74.04 25.1031 74.1139 25.1031 74.197 25.0939C76.7457 24.8913 80.4671 25.6372 82.711 24.4861C83.9853 23.8323 85.195 22.4878 85.4443 21.0513C85.3704 21.0236 85.2873 21.1065 85.2689 21.1065H78.3801C79.3774 20.0659 80.4671 19.1082 81.5567 18.1689C83.1081 18.0308 84.761 18.3715 86.2662 17.9019C87.4666 17.5243 88.6394 16.6219 89.2765 15.5352C89.4335 15.259 89.6459 14.8722 89.6644 14.5591H85.4628C86.1831 13.8408 86.9218 13.1409 87.6975 12.4779C88.7317 12.6989 89.729 13.0673 90.7632 13.2883C92.3977 13.6382 93.986 12.9752 94.4569 11.29C94.4847 11.1795 94.6047 10.6454 94.5308 10.5993C92.9056 10.5809 91.2711 10.498 89.6551 10.673L91.9822 8.47208C94.4292 8.26949 97.0241 8.57337 99.4711 8.42603C101.826 8.2879 104.088 6.44615 104.568 4.13474H95.879L90.9849 8.62863V0H90.7263C90.6617 0.0736702 90.5878 0.0736702 90.5232 0H90.4216C90.4493 0.119714 90.3662 0.110505 90.2831 0.138132C88.0853 0.920878 86.7002 2.56004 86.6817 4.9267C86.654 7.50516 86.7002 10.0836 86.6725 12.6621C84.9364 14.1723 83.302 15.8207 81.5567 17.3217L81.5475 17.3309Z" fill="#B28F2F"/>
<path d="M8.80947 110.892C7.82141 110.892 6.83334 110.753 5.84528 110.477C4.85721 110.201 3.94302 109.759 3.11194 109.151C2.28086 108.543 1.57906 107.751 1.025 106.775C0.470947 105.799 0.129279 104.62 0 103.248H3.96149C4.14618 104.298 4.50631 105.099 5.03266 105.67C5.55902 106.232 6.16848 106.628 6.87028 106.858C7.57208 107.088 8.24618 107.199 8.91105 107.199C9.67749 107.199 10.3516 107.079 10.9333 106.83C11.5151 106.582 11.9861 106.241 12.3277 105.818C12.6694 105.385 12.8356 104.906 12.8356 104.372C12.8356 103.773 12.6694 103.239 12.337 102.769C12.0045 102.3 11.275 101.959 10.1392 101.756L6.64866 101.112C4.81104 100.762 3.38897 100.034 2.38244 98.9386C1.3759 97.8427 0.868019 96.5351 0.868019 95.034C0.868019 93.6803 1.20969 92.52 1.89302 91.5623C2.57635 90.6046 3.49055 89.8771 4.64483 89.3614C5.79911 88.8457 7.07343 88.5879 8.47704 88.5879C9.88064 88.5879 11.2565 88.8365 12.4201 89.3246C13.5836 89.8219 14.5347 90.5862 15.2642 91.6176C15.9937 92.6582 16.437 93.9934 16.5755 95.6418H12.5586C12.4108 94.7209 12.1338 94.0119 11.7275 93.533C11.312 93.0542 10.8318 92.7134 10.2777 92.5293C9.72366 92.3451 9.16037 92.253 8.60632 92.253C8.0892 92.253 7.53514 92.3359 6.95339 92.5016C6.3624 92.6674 5.87298 92.9436 5.46667 93.3304C5.06037 93.7172 4.86645 94.2697 4.86645 94.9604C4.86645 95.5313 5.07884 96.047 5.50361 96.4982C5.92839 96.9495 6.64866 97.2718 7.68289 97.456L10.8964 98.0453C12.734 98.3768 14.1838 99.0122 15.255 99.9699C16.3261 100.928 16.8617 102.346 16.8617 104.243C16.8617 105.311 16.6309 106.26 16.1692 107.079C15.7075 107.899 15.0888 108.599 14.3131 109.16C13.5374 109.722 12.6786 110.155 11.7367 110.459C10.7856 110.753 9.816 110.91 8.82794 110.91L8.80947 110.892Z" fill="#233A58"/>
<path d="M23.6859 110.523V92.4282H17.3789V88.9473H34.2868V92.4282H28.0075V110.523H23.6767H23.6859Z" fill="#233A58"/>
<path d="M36.3552 110.523V88.9375H45.534C47.2885 88.9375 48.7291 89.2322 49.8834 89.8123C51.0284 90.4017 51.8779 91.2029 52.4505 92.2158C53.0138 93.238 53.3 94.3799 53.3 95.6507C53.3 96.636 53.0876 97.5477 52.6536 98.3765C52.2196 99.2053 51.6471 99.9236 50.9176 100.522C51.7025 101.056 52.3027 101.747 52.7275 102.585C53.1523 103.432 53.3831 104.39 53.4201 105.486L53.6694 110.514H49.4309L49.0892 105.486C49.0523 104.767 48.9045 104.178 48.6737 103.708C48.4336 103.248 48.0734 102.898 47.5748 102.677C47.0761 102.447 46.4113 102.336 45.5617 102.336H40.6768V110.504H36.3459L36.3552 110.523ZM40.686 98.8646H45.2662C46.5406 98.8646 47.4732 98.5791 48.0457 97.9989C48.6183 97.428 48.9138 96.6452 48.9138 95.6599C48.9138 94.6746 48.6275 93.8642 48.0457 93.3025C47.4732 92.7407 46.5406 92.4553 45.2662 92.4553H40.686V98.8646Z" fill="#233A58"/>
<path d="M54.7498 110.523L62.6358 88.9375H67.5484L75.4622 110.523H70.882L64.2056 91.2857H65.9694L59.293 110.523H54.7498ZM58.3973 105.679L59.5423 102.318H70.6696L71.8146 105.679H58.3973Z" fill="#233A58"/>
<path d="M79.7931 110.523V92.4282H73.4861V88.9473H90.394V92.4282H84.1147V110.523H79.7838H79.7931Z" fill="#233A58"/>
<path d="M92.4717 110.523V88.9375H106.785V92.4184H96.8025V97.8792H105.861V101.24H96.8025V107.033H106.785V110.514H92.4717V110.523Z" fill="#233A58"/>
<path d="M107.745 110.523L115.631 88.9375H120.544L128.458 110.523H123.877L117.201 91.2857H118.965L112.288 110.523H107.745ZM111.393 105.679L112.538 102.318H123.665L124.81 105.679H111.393Z" fill="#B28F2F"/>
<path d="M137.553 110.891C135.947 110.891 134.497 110.569 133.195 109.934C131.893 109.298 130.859 108.331 130.083 107.033C129.307 105.734 128.919 104.114 128.919 102.161V88.9375H133.25V102.198C133.25 103.764 133.638 104.933 134.414 105.725C135.189 106.517 136.261 106.913 137.646 106.913C139.031 106.913 140.102 106.517 140.878 105.725C141.653 104.933 142.032 103.754 142.032 102.198V88.9375H146.363V102.161C146.363 104.114 145.966 105.734 145.172 107.033C144.378 108.331 143.316 109.298 141.977 109.934C140.638 110.569 139.16 110.891 137.553 110.891Z" fill="#B28F2F"/>
<path d="M148.893 110.523V88.9375H158.072C159.826 88.9375 161.267 89.2322 162.421 89.8123C163.566 90.4017 164.416 91.2029 164.988 92.2158C165.552 93.238 165.838 94.3799 165.838 95.6507C165.838 96.636 165.625 97.5477 165.191 98.3765C164.757 99.2053 164.185 99.9236 163.455 100.522C164.24 101.056 164.841 101.747 165.265 102.585C165.69 103.432 165.921 104.39 165.958 105.486L166.207 110.514H161.969L161.627 105.486C161.59 104.767 161.442 104.178 161.212 103.708C160.971 103.248 160.611 102.898 160.113 102.677C159.614 102.447 158.949 102.336 158.1 102.336H153.215V110.504H148.884L148.893 110.523ZM153.224 98.8646H157.804C159.078 98.8646 160.011 98.5791 160.584 97.9989C161.156 97.428 161.452 96.6452 161.452 95.6599C161.452 94.6746 161.165 93.8642 160.584 93.3025C160.011 92.7407 159.078 92.4553 157.804 92.4553H153.224V98.8646Z" fill="#B28F2F"/>
<path d="M167.288 110.523L175.174 88.9375H180.086L188 110.523H183.42L176.743 91.2857H178.507L171.831 110.523H167.288ZM170.935 105.679L172.08 102.318H183.207L184.352 105.679H170.935Z" fill="#B28F2F"/>
<path d="M0 124.89V118.287H2.3455C2.87185 118.287 3.29663 118.37 3.63829 118.545C3.97996 118.72 4.22928 118.95 4.3955 119.254C4.56172 119.549 4.64483 119.899 4.64483 120.276C4.64483 120.626 4.56172 120.958 4.3955 121.252C4.22928 121.547 3.97996 121.796 3.63829 121.971C3.29663 122.146 2.86262 122.238 2.33626 122.238H1.03424V124.881H0V124.89ZM1.04347 121.4H2.29009C2.75181 121.4 3.09347 121.298 3.29663 121.096C3.49978 120.893 3.60136 120.617 3.60136 120.276C3.60136 119.935 3.49978 119.641 3.29663 119.438C3.09347 119.236 2.76104 119.134 2.29009 119.134H1.04347V121.4Z" fill="#233A58"/>
<path d="M5.56836 124.89V118.287H8.26476C8.79111 118.287 9.22512 118.379 9.55755 118.554C9.89922 118.729 10.1485 118.969 10.3148 119.263C10.481 119.558 10.5641 119.899 10.5641 120.285C10.5641 120.608 10.4902 120.902 10.3517 121.169C10.2132 121.437 10.01 121.658 9.74224 121.832C10.0193 121.989 10.2224 122.201 10.3609 122.477C10.4994 122.753 10.5733 123.057 10.5826 123.416L10.6564 124.89H9.6499L9.55755 123.462C9.54832 123.186 9.49291 122.956 9.4098 122.781C9.3267 122.606 9.18818 122.477 9.0035 122.394C8.81881 122.311 8.56949 122.275 8.24629 122.275H6.61183V124.89H5.56836ZM6.61183 121.437H8.20012C8.6526 121.437 8.98503 121.326 9.19742 121.114C9.40057 120.902 9.51138 120.626 9.51138 120.285C9.51138 119.926 9.40981 119.65 9.20665 119.438C9.0035 119.236 8.66183 119.134 8.20012 119.134H6.62106V121.437H6.61183Z" fill="#233A58"/>
<path d="M11.5889 124.89V118.287H15.8089V119.125H12.6323V121.133H15.5227V121.961H12.6323V124.043H15.8089V124.881H11.5889V124.89Z" fill="#233A58"/>
<path d="M18.9764 125C18.6532 125 18.3392 124.954 18.0437 124.871C17.7482 124.788 17.4712 124.65 17.2219 124.466C16.9726 124.281 16.7786 124.051 16.6124 123.766C16.4462 123.48 16.3631 123.149 16.3262 122.753H17.305C17.3512 123.075 17.4527 123.342 17.619 123.536C17.7852 123.738 17.9883 123.876 18.2284 123.959C18.4685 124.042 18.7178 124.088 18.9856 124.088C19.2534 124.088 19.4935 124.051 19.7059 123.968C19.9183 123.886 20.0937 123.775 20.2138 123.609C20.3338 123.443 20.3985 123.25 20.3985 123.011C20.3985 122.79 20.3338 122.596 20.2138 122.431C20.0937 122.265 19.8444 122.145 19.4843 122.081L18.2561 121.85C17.7482 121.758 17.3512 121.546 17.0464 121.224C16.7417 120.902 16.594 120.524 16.594 120.082C16.594 119.677 16.7048 119.327 16.9079 119.042C17.1203 118.756 17.3973 118.535 17.7482 118.379C18.0991 118.222 18.4777 118.148 18.8933 118.148C19.3088 118.148 19.7151 118.222 20.066 118.379C20.4077 118.526 20.694 118.756 20.9064 119.051C21.128 119.346 21.2573 119.732 21.3034 120.193H20.2969C20.26 119.907 20.1769 119.686 20.0383 119.511C19.8998 119.336 19.7428 119.217 19.5489 119.143C19.355 119.069 19.1426 119.032 18.9025 119.032C18.6901 119.032 18.4778 119.069 18.2654 119.134C18.053 119.198 17.8868 119.309 17.7575 119.456C17.6282 119.603 17.5636 119.797 17.5636 120.036C17.5636 120.257 17.6467 120.451 17.8129 120.607C17.9791 120.764 18.2192 120.874 18.5332 120.929L19.6782 121.141C20.223 121.243 20.6478 121.436 20.9525 121.74C21.248 122.035 21.3958 122.44 21.3958 122.965C21.3958 123.296 21.3311 123.591 21.1926 123.839C21.0541 124.088 20.8694 124.291 20.6293 124.466C20.3892 124.641 20.1399 124.76 19.8537 124.843C19.5674 124.926 19.2719 124.972 18.9672 124.972L18.9764 125Z" fill="#233A58"/>
<path d="M22.3284 124.89V118.287H26.5484V119.125H23.3718V121.133H26.2622V121.961H23.3718V124.043H26.5484V124.881H22.3284V124.89Z" fill="#233A58"/>
<path d="M27.4812 124.89V118.287H28.5247L31.8028 123.205V118.287H32.8463V124.89H31.8028L28.5247 119.982V124.89H27.4812Z" fill="#233A58"/>
<path d="M36.9185 124.999C36.2629 124.999 35.6996 124.861 35.2194 124.567C34.7392 124.281 34.3699 123.885 34.1205 123.37C33.862 122.854 33.7419 122.264 33.7419 121.592C33.7419 120.92 33.8712 120.321 34.1205 119.806C34.3791 119.29 34.7485 118.894 35.2194 118.609C35.6996 118.323 36.2629 118.176 36.9185 118.176C37.7034 118.176 38.3406 118.369 38.83 118.747C39.3194 119.124 39.6334 119.658 39.7719 120.349H38.6176C38.5345 119.962 38.3498 119.668 38.0636 119.447C37.7773 119.226 37.3895 119.115 36.9093 119.115C36.4753 119.115 36.0967 119.216 35.7827 119.41C35.4687 119.603 35.2194 119.898 35.0532 120.266C34.8778 120.644 34.7946 121.086 34.7946 121.601C34.7946 122.117 34.8778 122.559 35.0532 122.928C35.2287 123.296 35.4687 123.581 35.7827 123.784C36.0967 123.987 36.4753 124.088 36.9093 124.088C37.3895 124.088 37.7681 123.977 38.0543 123.766C38.3406 123.554 38.5253 123.25 38.6269 122.854H39.7811C39.6519 123.535 39.3379 124.069 38.8392 124.447C38.3406 124.825 37.7034 125.009 36.9278 125.009L36.9185 124.999Z" fill="#233A58"/>
<path d="M40.6306 124.89V118.287H44.8507V119.125H41.6741V121.133H44.5644V121.961H41.6741V124.043H44.8507V124.881H40.6306V124.89Z" fill="#233A58"/>
<path d="M48.6646 124.89V118.287H51.2317C51.6934 118.287 52.072 118.361 52.386 118.508C52.6999 118.655 52.9308 118.849 53.0878 119.107C53.2447 119.365 53.3278 119.65 53.3278 119.982C53.3278 120.313 53.254 120.599 53.1062 120.82C52.9585 121.041 52.7738 121.215 52.5337 121.335C52.2936 121.455 52.0443 121.529 51.7765 121.565L51.915 121.464C52.2105 121.464 52.4783 121.547 52.7092 121.694C52.9492 121.842 53.1339 122.035 53.2724 122.284C53.411 122.532 53.4848 122.799 53.4848 123.094C53.4848 123.435 53.4017 123.739 53.2355 124.015C53.0693 124.291 52.82 124.503 52.506 124.66C52.1828 124.816 51.795 124.899 51.324 124.899H48.6738L48.6646 124.89ZM49.708 121.105H51.0932C51.4625 121.105 51.7488 121.013 51.9519 120.838C52.1551 120.663 52.2567 120.424 52.2567 120.11C52.2567 119.797 52.1551 119.567 51.9612 119.392C51.7673 119.208 51.4718 119.125 51.0747 119.125H49.708V121.105ZM49.708 124.033H51.1855C51.5733 124.033 51.8781 123.941 52.0997 123.757C52.3121 123.573 52.4229 123.315 52.4229 122.974C52.4229 122.634 52.3121 122.376 52.0905 122.182C51.8688 121.989 51.5549 121.888 51.1578 121.888H49.708V124.024V124.033Z" fill="#233A58"/>
<path d="M55.9041 124.89V122.477L53.6694 118.287H54.8422L56.6059 121.786H56.2735L58.0095 118.287H59.173L56.9384 122.477V124.89H55.8949H55.9041Z" fill="#233A58"/>
<path d="M62.9314 124.89V118.287H65.0922C65.8679 118.287 66.505 118.425 67.0037 118.692C67.5023 118.959 67.8809 119.346 68.121 119.834C68.3611 120.331 68.4812 120.912 68.4812 121.593C68.4812 122.275 68.3611 122.836 68.121 123.334C67.8809 123.831 67.5116 124.208 67.0037 124.475C66.505 124.742 65.8679 124.881 65.0922 124.881H62.9314V124.89ZM63.9749 124.006H65.0553C65.6463 124.006 66.1172 123.904 66.4681 123.711C66.819 123.518 67.0591 123.241 67.2161 122.882C67.3638 122.523 67.4469 122.09 67.4469 121.593C67.4469 121.096 67.3731 120.654 67.2161 120.295C67.0683 119.926 66.819 119.65 66.4681 119.457C66.1172 119.263 65.6555 119.162 65.0553 119.162H63.9749V124.006Z" fill="#233A58"/>
<path d="M69.377 124.89V118.287H73.597V119.125H70.4204V121.133H73.3107V121.961H70.4204V124.043H73.597V124.881H69.377V124.89Z" fill="#233A58"/>
<path d="M76.7642 125C76.441 125 76.1271 124.954 75.8316 124.871C75.5361 124.788 75.2591 124.65 75.0097 124.466C74.7604 124.281 74.5665 124.051 74.4003 123.766C74.2341 123.48 74.151 123.149 74.114 122.753H75.0928C75.139 123.075 75.2406 123.342 75.4068 123.536C75.573 123.738 75.7762 123.876 76.0163 123.959C76.2564 124.042 76.5057 124.088 76.7735 124.088C77.0413 124.088 77.2814 124.051 77.4937 123.968C77.7061 123.886 77.8816 123.775 78.0016 123.609C78.1217 123.443 78.1863 123.25 78.1863 123.011C78.1863 122.79 78.1217 122.596 78.0016 122.431C77.8816 122.265 77.6323 122.145 77.2721 122.081L76.044 121.85C75.5361 121.758 75.139 121.546 74.8343 121.224C74.5296 120.902 74.3818 120.524 74.3818 120.082C74.3818 119.677 74.4926 119.327 74.6958 119.042C74.9082 118.756 75.1852 118.535 75.5361 118.379C75.887 118.222 76.2656 118.148 76.6811 118.148C77.0967 118.148 77.503 118.222 77.8539 118.379C78.1955 118.526 78.4818 118.756 78.6942 119.051C78.9158 119.346 79.0451 119.732 79.0913 120.193H78.0847C78.0478 119.907 77.9647 119.686 77.8262 119.511C77.6877 119.336 77.5307 119.217 77.3368 119.143C77.1428 119.069 76.9305 119.032 76.6904 119.032C76.478 119.032 76.2656 119.069 76.0532 119.134C75.8408 119.198 75.6746 119.309 75.5453 119.456C75.416 119.603 75.3514 119.797 75.3514 120.036C75.3514 120.257 75.4345 120.451 75.6007 120.607C75.7669 120.764 76.007 120.874 76.321 120.929L77.466 121.141C78.0109 121.243 78.4356 121.436 78.7404 121.74C79.0359 122.035 79.1836 122.44 79.1836 122.965C79.1836 123.296 79.119 123.591 78.9805 123.839C78.8419 124.088 78.6573 124.291 78.4172 124.466C78.1771 124.641 77.9278 124.76 77.6415 124.843C77.3552 124.926 77.0597 124.972 76.755 124.972L76.7642 125Z" fill="#233A58"/>
<path d="M80.1716 124.89V118.287H81.2151V124.89H80.1716Z" fill="#233A58"/>
<path d="M85.4629 125C84.7518 125 84.1516 124.862 83.653 124.577C83.1543 124.291 82.7665 123.895 82.5079 123.389C82.2401 122.882 82.1108 122.302 82.1108 121.639C82.1108 120.976 82.2401 120.35 82.5079 119.825C82.7757 119.3 83.1543 118.895 83.6345 118.6C84.1239 118.306 84.7057 118.158 85.3705 118.158C86.137 118.158 86.7741 118.342 87.282 118.702C87.7899 119.061 88.1131 119.576 88.2516 120.221H87.0696C86.9773 119.88 86.7834 119.604 86.4971 119.411C86.2016 119.208 85.8322 119.116 85.3705 119.116C84.9088 119.116 84.521 119.217 84.1885 119.42C83.8561 119.622 83.6068 119.917 83.4313 120.285C83.2559 120.663 83.1635 121.114 83.1635 121.639C83.1635 122.164 83.2559 122.578 83.4406 122.938C83.6253 123.297 83.8838 123.573 84.2347 123.776C84.5856 123.978 84.9827 124.07 85.4629 124.07C86.0631 124.07 86.534 123.895 86.8849 123.555C87.2358 123.214 87.4113 122.726 87.4298 122.1H85.4906V121.289H88.4732V121.722C88.4732 122.431 88.344 123.03 88.0946 123.518C87.8361 124.006 87.4852 124.374 87.0419 124.623C86.5987 124.871 86.0816 124.991 85.4906 124.991L85.4629 125Z" fill="#233A58"/>
<path d="M89.3137 124.89V118.287H90.3572L93.6353 123.205V118.287H94.6788V124.89H93.6353L90.3572 119.982V124.89H89.3137Z" fill="#233A58"/>
<path d="M95.6575 124.889V123.609H96.9964V124.889H95.6575Z" fill="#233A58"/>
<path d="M100.856 124.89V118.287H103.202C103.728 118.287 104.153 118.37 104.495 118.545C104.836 118.72 105.086 118.95 105.252 119.254C105.418 119.549 105.501 119.899 105.501 120.276C105.501 120.626 105.418 120.958 105.252 121.252C105.086 121.547 104.836 121.796 104.495 121.971C104.153 122.146 103.719 122.238 103.193 122.238H101.891V124.881H100.847L100.856 124.89ZM101.891 121.4H103.137C103.599 121.4 103.941 121.298 104.144 121.096C104.347 120.893 104.449 120.617 104.449 120.276C104.449 119.935 104.347 119.641 104.144 119.438C103.941 119.236 103.608 119.134 103.137 119.134H101.891V121.4Z" fill="#233A58"/>
<path d="M109.334 125C108.678 125 108.105 124.853 107.616 124.567C107.127 124.282 106.739 123.877 106.462 123.37C106.185 122.854 106.046 122.265 106.046 121.593C106.046 120.921 106.185 120.331 106.462 119.816C106.739 119.3 107.117 118.904 107.616 118.618C108.115 118.333 108.687 118.186 109.343 118.186C109.998 118.186 110.58 118.333 111.07 118.618C111.559 118.904 111.947 119.309 112.215 119.816C112.492 120.331 112.63 120.921 112.63 121.593C112.63 122.265 112.492 122.854 112.215 123.37C111.938 123.886 111.559 124.282 111.07 124.567C110.58 124.853 109.998 125 109.343 125H109.334ZM109.343 124.079C109.786 124.079 110.183 123.978 110.516 123.784C110.848 123.582 111.107 123.296 111.291 122.928C111.476 122.551 111.568 122.108 111.568 121.593C111.568 121.077 111.476 120.635 111.291 120.267C111.107 119.898 110.848 119.613 110.516 119.41C110.183 119.217 109.795 119.116 109.343 119.116C108.89 119.116 108.502 119.217 108.17 119.41C107.828 119.604 107.57 119.889 107.385 120.267C107.2 120.635 107.108 121.077 107.108 121.593C107.108 122.108 107.2 122.551 107.385 122.928C107.57 123.306 107.828 123.591 108.17 123.784C108.502 123.978 108.9 124.079 109.343 124.079Z" fill="#233A58"/>
<path d="M114.597 124.89L112.815 118.287H113.923L115.363 124.3H115.059L116.712 118.287H117.857L119.473 124.31H119.168L120.608 118.287H121.726L119.907 124.89H118.688L117.146 119.374H117.376L115.797 124.89H114.597Z" fill="#233A58"/>
<path d="M122.585 124.89V118.287H126.805V119.125H123.628V121.133H126.519V121.961H123.628V124.043H126.805V124.881H122.585V124.89Z" fill="#233A58"/>
<path d="M127.719 124.89V118.287H130.415C130.941 118.287 131.376 118.379 131.708 118.554C132.05 118.729 132.299 118.969 132.465 119.263C132.631 119.558 132.714 119.899 132.714 120.285C132.714 120.608 132.641 120.902 132.502 121.169C132.364 121.437 132.16 121.658 131.893 121.832C132.17 121.989 132.373 122.201 132.511 122.477C132.65 122.753 132.724 123.057 132.733 123.416L132.807 124.89H131.8L131.708 123.462C131.699 123.186 131.643 122.956 131.56 122.781C131.477 122.606 131.339 122.477 131.154 122.394C130.969 122.311 130.72 122.275 130.397 122.275H128.762V124.89H127.719ZM128.762 121.437H130.351C130.803 121.437 131.135 121.326 131.348 121.114C131.551 120.902 131.662 120.626 131.662 120.285C131.662 119.926 131.56 119.65 131.357 119.438C131.154 119.236 130.812 119.134 130.351 119.134H128.771V121.437H128.762Z" fill="#233A58"/>
<path d="M136.676 124.89V118.287H139.243C139.705 118.287 140.083 118.361 140.397 118.508C140.711 118.655 140.942 118.849 141.099 119.107C141.256 119.365 141.339 119.65 141.339 119.982C141.339 120.313 141.265 120.599 141.118 120.82C140.97 121.041 140.785 121.215 140.545 121.335C140.305 121.455 140.056 121.529 139.788 121.565L139.926 121.464C140.222 121.464 140.49 121.547 140.721 121.694C140.961 121.842 141.145 122.035 141.284 122.284C141.422 122.532 141.496 122.799 141.496 123.094C141.496 123.435 141.413 123.739 141.247 124.015C141.081 124.291 140.831 124.503 140.517 124.66C140.194 124.816 139.806 124.899 139.335 124.899H136.685L136.676 124.89ZM137.719 121.105H139.105C139.474 121.105 139.76 121.013 139.963 120.838C140.167 120.663 140.268 120.424 140.268 120.11C140.268 119.797 140.167 119.567 139.973 119.392C139.779 119.208 139.483 119.125 139.086 119.125H137.719V121.105ZM137.719 124.033H139.197C139.585 124.033 139.89 123.941 140.111 123.757C140.324 123.573 140.434 123.315 140.434 122.974C140.434 122.634 140.324 122.376 140.102 122.182C139.88 121.989 139.566 121.888 139.169 121.888H137.719V124.024V124.033Z" fill="#233A58"/>
<path d="M143.916 124.89V122.477L141.681 118.287H142.854L144.618 121.786H144.285L146.021 118.287H147.185L144.95 122.477V124.89H143.907H143.916Z" fill="#233A58"/>
<path d="M150.943 124.89V118.287H153.104C153.879 118.287 154.517 118.425 155.015 118.692C155.514 118.959 155.892 119.346 156.133 119.834C156.373 120.331 156.493 120.912 156.493 121.593C156.493 122.275 156.373 122.836 156.133 123.334C155.892 123.831 155.523 124.208 155.015 124.475C154.517 124.742 153.879 124.881 153.104 124.881H150.943V124.89ZM151.986 124.006H153.067C153.658 124.006 154.129 123.904 154.48 123.711C154.83 123.518 155.071 123.241 155.228 122.882C155.375 122.523 155.458 122.09 155.458 121.593C155.458 121.096 155.385 120.654 155.228 120.295C155.08 119.926 154.83 119.65 154.48 119.457C154.129 119.263 153.667 119.162 153.067 119.162H151.986V124.006Z" fill="#233A58"/>
<path d="M157.379 124.89V118.287H161.599V119.125H158.423V121.133H161.313V121.961H158.423V124.043H161.599V124.881H157.379V124.89Z" fill="#233A58"/>
<path d="M162.523 124.89V118.287H166.706V119.125H163.566V121.16H166.17V121.989H163.566V124.881H162.523V124.89Z" fill="#233A58"/>
<path d="M166.42 124.89L168.839 118.287H169.993L172.413 124.89H171.314L169.19 118.886H169.633L167.509 124.89H166.42ZM167.528 123.297L167.823 122.468H171L171.295 123.297H167.528Z" fill="#233A58"/>
<path d="M175.368 124.999C174.897 124.999 174.463 124.907 174.084 124.723C173.705 124.538 173.401 124.253 173.17 123.866C172.939 123.479 172.828 122.991 172.828 122.402V118.295H173.872V122.42C173.872 122.982 174.01 123.406 174.287 123.673C174.564 123.94 174.934 124.078 175.386 124.078C175.838 124.078 176.226 123.949 176.494 123.673C176.762 123.406 176.9 122.991 176.9 122.42V118.295H177.944V122.402C177.944 122.991 177.833 123.479 177.602 123.866C177.371 124.253 177.057 124.538 176.67 124.723C176.273 124.907 175.848 124.999 175.377 124.999H175.368Z" fill="#233A58"/>
<path d="M178.95 124.89V118.287H179.994V124.07H182.995V124.89H178.96H178.95Z" fill="#233A58"/>
<path d="M184.574 124.89V119.125H182.616V118.287H187.566V119.125H185.618V124.89H184.574Z" fill="#233A58"/>
</g>
<defs>
<clipPath id="clip0_1136_5055">
<rect width="188" height="125" fill="white"/>
</clipPath>
</defs>
</svg>
