<svg preserveAspectRatio="none" width="100%" height="100%" overflow="visible" style="display: block;" viewBox="0 0 50 50" fill="none" xmlns="http://www.w3.org/2000/svg">
<g id="Frame 96">
<path id="Subtract" d="M25 0C38.8071 0 50 11.1929 50 25C50 38.8071 38.8071 50 25 50C11.1929 50 0 38.8071 0 25C0 11.1929 11.1929 0 25 0ZM20.4707 15.0293C19.6423 15.0293 18.9708 15.7009 18.9707 16.5293C18.9707 17.3577 19.6423 18.0293 20.4707 18.0293H30.3496L15.9395 32.4395C15.3537 33.0252 15.3537 33.9748 15.9395 34.5605C16.5252 35.1463 17.4748 35.1463 18.0605 34.5605L32.4707 20.1504V30.0293C32.4707 30.8577 33.1423 31.5293 33.9707 31.5293C34.7991 31.5292 35.4707 30.8577 35.4707 30.0293V16.5293C35.4706 15.701 34.799 15.0294 33.9707 15.0293H20.4707Z" fill="var(--fill-0, #233A58)"/>
</g>
</svg>
