<svg width="1219" height="218" viewBox="0 0 1219 218" fill="none" xmlns="http://www.w3.org/2000/svg">
<rect width="223.102" height="192.715" rx="3.19859" fill="url(#paint0_linear_1222_337)"/>
<path d="M25.2144 42.6738H22.0126L18.3534 28.3489H21.6592C23.0106 34.9188 23.6135 37.8503 23.7799 39.4305H23.8007C24.3412 36.79 25.7342 31.8002 26.5658 28.3489H29.3518C30.1003 31.0933 31.5349 36.6445 32.013 39.2849H32.0338C32.512 36.1247 33.905 30.5735 34.4248 28.3489H37.4187L33.5516 42.6738H30.329C29.5805 39.4928 28.3123 34.8565 27.8133 32.4031H27.7925C27.2727 34.9604 25.9837 39.7839 25.2144 42.6738ZM47.653 37.9335H40.5425C40.5425 39.2849 41.2286 40.5947 42.7047 40.5947C43.9522 40.5947 44.3056 40.0958 44.5967 39.4512H47.5698C47.1956 40.7611 46.0105 42.9233 42.6424 42.9233C39.0871 42.9233 37.5486 40.2829 37.5486 37.4553C37.5486 34.0664 39.2743 31.6547 42.7463 31.6547C46.4263 31.6547 47.6946 34.3367 47.6946 37.0187C47.6946 37.3929 47.6946 37.6216 47.653 37.9335ZM40.6049 36.1039H44.7007C44.6799 34.8565 44.1809 33.7961 42.7255 33.7961C41.3118 33.7961 40.7296 34.7733 40.6049 36.1039ZM52.6987 42.6738H49.7048V27.4965H52.6987V42.6738ZM58.3633 42.6738H55.3695V27.4965H58.3633V42.6738ZM61.055 42.6738V34.6278C61.055 33.713 61.055 32.715 61.0342 31.9042H63.9241C63.9865 32.1952 64.028 32.9437 64.0488 33.2764C64.4023 32.611 65.2755 31.6547 67.1675 31.6547C69.3297 31.6547 70.7227 33.1308 70.7227 35.8336V42.6738H67.7496V36.1663C67.7496 34.9396 67.3546 34.0664 66.024 34.0664C64.7557 34.0664 64.0488 34.7733 64.0488 36.6861V42.6738H61.055ZM82.8391 37.9335H75.7286C75.7286 39.2849 76.4147 40.5947 77.8908 40.5947C79.1383 40.5947 79.4917 40.0958 79.7828 39.4512H82.7559C82.3817 40.7611 81.1966 42.9233 77.8285 42.9233C74.2732 42.9233 72.7347 40.2829 72.7347 37.4553C72.7347 34.0664 74.4604 31.6547 77.9324 31.6547C81.6124 31.6547 82.8807 34.3367 82.8807 37.0187C82.8807 37.3929 82.8807 37.6216 82.8391 37.9335ZM75.791 36.1039H79.8868C79.866 34.8565 79.367 33.7961 77.9116 33.7961C76.4979 33.7961 75.9157 34.7733 75.791 36.1039ZM84.2241 39.4305H87.1556C87.3843 40.3037 88.0912 40.7819 89.1931 40.7819C90.295 40.7819 90.6901 40.3868 90.6901 39.7215C90.6901 39.0354 90.2327 38.7651 88.6941 38.3909C85.1805 37.5177 84.6191 36.4366 84.6191 34.9188C84.6191 33.3387 85.721 31.6547 88.9644 31.6547C92.2286 31.6547 93.3513 33.4427 93.4345 34.898H90.6069C90.5029 34.503 90.2327 33.7545 88.8397 33.7545C87.8625 33.7545 87.5298 34.1912 87.5298 34.6693C87.5298 35.2099 87.8625 35.4594 89.6089 35.8752C93.2058 36.7069 93.7255 37.9335 93.7255 39.5136C93.7255 41.3016 92.3533 42.9233 89.0892 42.9233C85.8042 42.9233 84.4736 41.3432 84.2241 39.4305ZM94.9444 39.4305H97.8759C98.1046 40.3037 98.8115 40.7819 99.9134 40.7819C101.015 40.7819 101.41 40.3868 101.41 39.7215C101.41 39.0354 100.953 38.7651 99.4144 38.3909C95.9008 37.5177 95.3394 36.4366 95.3394 34.9188C95.3394 33.3387 96.4413 31.6547 99.6847 31.6547C102.949 31.6547 104.072 33.4427 104.155 34.898H101.327C101.223 34.503 100.953 33.7545 99.56 33.7545C98.5828 33.7545 98.2501 34.1912 98.2501 34.6693C98.2501 35.2099 98.5828 35.4594 100.329 35.8752C103.926 36.7069 104.446 37.9335 104.446 39.5136C104.446 41.3016 103.074 42.9233 99.8095 42.9233C96.5245 42.9233 95.1939 41.3432 94.9444 39.4305ZM106.347 36.0208H112.127V38.6196H106.347V36.0208ZM28.7489 63.2454H31.8675C31.3062 65.9274 29.2894 67.8817 25.6926 67.8817C21.1394 67.8817 18.998 64.6592 18.998 60.5841C18.998 56.6547 21.2226 53.141 25.8382 53.141C29.6637 53.141 31.5141 55.3656 31.8675 57.7774H28.7697C28.4578 56.6547 27.6885 55.5528 25.7342 55.5528C23.1769 55.5528 22.1998 57.8605 22.1998 60.4802C22.1998 62.8919 23.0522 65.4492 25.8174 65.4492C27.8549 65.4492 28.4786 64.0978 28.7489 63.2454ZM43.511 62.9335H36.4006C36.4006 64.2849 37.0867 65.5947 38.5628 65.5947C39.8103 65.5947 40.1637 65.0958 40.4548 64.4512H43.4279C43.0536 65.7611 41.8686 67.9233 38.5004 67.9233C34.9452 67.9233 33.4067 65.2829 33.4067 62.4553C33.4067 59.0664 35.1323 56.6547 38.6044 56.6547C42.2844 56.6547 43.5526 59.3367 43.5526 62.0187C43.5526 62.3929 43.5526 62.6216 43.511 62.9335ZM36.4629 61.1039H40.5587C40.5379 59.8565 40.039 58.7961 38.5836 58.7961C37.1698 58.7961 36.5877 59.7733 36.4629 61.1039ZM45.6445 67.6738V59.6278C45.6445 58.713 45.6445 57.715 45.6237 56.9042H48.5137C48.5761 57.1952 48.6176 57.9437 48.6384 58.2764C48.9919 57.611 49.8651 56.6547 51.7571 56.6547C53.9193 56.6547 55.3123 58.1308 55.3123 60.8336V67.6738H52.3392V61.1663C52.3392 59.9396 51.9442 59.0664 50.6136 59.0664C49.3453 59.0664 48.6384 59.7733 48.6384 61.6861V67.6738H45.6445ZM56.7054 59.1496V56.9042H58.3687V53.9934H61.3418V56.9042H63.4625V59.1496H61.3418V64.472C61.3418 65.2829 61.5913 65.5947 62.4853 65.5947C62.6516 65.5947 62.9427 65.5947 63.1506 65.574V67.6115C62.5685 67.8194 61.7576 67.8194 61.1547 67.8194C59.0548 67.8194 58.3687 66.6967 58.3687 64.8047V59.1496H56.7054ZM65.1964 67.6738V59.8357C65.1964 58.7545 65.1964 57.819 65.1756 56.9042H68.1071C68.1487 57.1537 68.1903 58.214 68.1903 58.7961C68.6685 57.5695 69.812 56.6755 71.6416 56.6547V59.503C69.4793 59.4406 68.1903 60.0228 68.1903 62.9751V67.6738H65.1964ZM73.2975 67.6738V56.9042H76.2914V67.6738H73.2975ZM76.2914 55.1577H73.2975V52.4965H76.2914V55.1577ZM85.3658 64.2018H88.2765C87.9231 65.9898 86.6548 67.9233 83.453 67.9233C80.1057 67.9233 78.3801 65.6155 78.3801 62.3722C78.3801 59.1912 80.3136 56.6547 83.5986 56.6547C87.2162 56.6547 88.2349 59.2743 88.2765 60.4802H85.3866C85.1995 59.607 84.7005 59.004 83.5362 59.004C82.164 59.004 81.3948 60.1891 81.3948 62.2682C81.3948 64.576 82.2264 65.6155 83.5154 65.6155C84.555 65.6155 85.0955 65.0126 85.3658 64.2018ZM19.7049 92.6738V78.3489H22.8027V90.1373H29.9547L29.6013 92.6738H19.7049ZM41.1152 87.9335H34.0047C34.0047 89.2849 34.6908 90.5947 36.167 90.5947C37.4144 90.5947 37.7679 90.0958 38.059 89.4512H41.0321C40.6578 90.7611 39.4727 92.9233 36.1046 92.9233C32.5494 92.9233 31.0109 90.2829 31.0109 87.4553C31.0109 84.0664 32.7365 81.6547 36.2086 81.6547C39.8886 81.6547 41.1568 84.3367 41.1568 87.0187C41.1568 87.3929 41.1568 87.6216 41.1152 87.9335ZM34.0671 86.1039H38.1629C38.1421 84.8565 37.6431 83.7961 36.1878 83.7961C34.774 83.7961 34.1919 84.7733 34.0671 86.1039ZM52.1071 85.3762V89.8879C52.1071 90.9274 52.1902 92.4243 52.2526 92.6738H49.4043C49.3211 92.4659 49.2587 91.8838 49.2587 91.6135C48.8637 92.2164 48.136 92.9233 46.2233 92.9233C43.6244 92.9233 42.5433 91.2185 42.5433 89.5552C42.5433 87.1019 44.4976 85.9584 47.6578 85.9584H49.1964V85.3139C49.1964 84.5446 48.9261 83.7961 47.5331 83.7961C46.2856 83.7961 45.9946 84.3159 45.8698 85.106H43.0423C43.1878 83.1932 44.3729 81.6547 47.6578 81.6547C50.527 81.6755 52.1071 82.7982 52.1071 85.3762ZM49.1964 88.0583V87.7672H47.9905C46.1817 87.7672 45.5164 88.3285 45.5164 89.3681C45.5164 90.1373 45.9946 90.8027 47.0757 90.8027C48.9677 90.8027 49.1964 89.472 49.1964 88.0583ZM61.6223 77.4965H64.5954V89.7215C64.5954 90.6987 64.5954 91.6967 64.6162 92.6738H61.7679C61.7055 92.3412 61.6431 91.8006 61.6223 91.5511C61.1025 92.4035 60.167 92.9233 58.5661 92.9233C55.8425 92.9233 54.1168 90.7403 54.1168 87.3722C54.1168 84.0664 55.9464 81.6547 59.0027 81.6547C60.562 81.6547 61.3936 82.216 61.6223 82.6942V77.4965ZM57.1731 87.3098C57.1731 89.4097 57.9839 90.5324 59.4601 90.5324C61.4976 90.5324 61.7471 88.8275 61.7471 87.289C61.7471 85.4386 61.4768 84.0456 59.5224 84.0456C57.9631 84.0456 57.1731 85.2723 57.1731 87.3098ZM76.7074 87.9335H69.5969C69.5969 89.2849 70.283 90.5947 71.7592 90.5947C73.0066 90.5947 73.3601 90.0958 73.6511 89.4512H76.6242C76.25 90.7611 75.0649 92.9233 71.6968 92.9233C68.1416 92.9233 66.603 90.2829 66.603 87.4553C66.603 84.0664 68.3287 81.6547 71.8007 81.6547C75.4807 81.6547 76.749 84.3367 76.749 87.0187C76.749 87.3929 76.749 87.6216 76.7074 87.9335ZM69.6593 86.1039H73.7551C73.7343 84.8565 73.2353 83.7961 71.78 83.7961C70.3662 83.7961 69.784 84.7733 69.6593 86.1039ZM78.8201 92.6738V84.8357C78.8201 83.7545 78.8201 82.819 78.7993 81.9042H81.7308C81.7724 82.1537 81.814 83.214 81.814 83.7961C82.2922 82.5695 83.4357 81.6755 85.2653 81.6547V84.503C83.103 84.4406 81.814 85.0228 81.814 87.9751V92.6738H78.8201ZM86.2748 89.4305H89.2063C89.435 90.3037 90.1419 90.7819 91.2438 90.7819C92.3457 90.7819 92.7407 90.3868 92.7407 89.7215C92.7407 89.0354 92.2833 88.7651 90.7448 88.3909C87.2311 87.5177 86.6698 86.4366 86.6698 84.9188C86.6698 83.3387 87.7717 81.6547 91.0151 81.6547C94.2792 81.6547 95.4019 83.4427 95.4851 84.898H92.6576C92.5536 84.503 92.2833 83.7545 90.8903 83.7545C89.9132 83.7545 89.5805 84.1912 89.5805 84.6693C89.5805 85.2099 89.9132 85.4594 91.6596 85.8752C95.2564 86.7069 95.7762 87.9335 95.7762 89.5136C95.7762 91.3016 94.404 92.9233 91.1398 92.9233C87.8549 92.9233 86.5242 91.3432 86.2748 89.4305ZM97.6212 77.4965H100.615V83.1932C101.072 82.4863 101.946 81.6547 103.692 81.6547C105.688 81.6547 107.289 82.8605 107.289 85.7713V92.6738H104.337V86.2079C104.337 84.8149 103.838 84.0664 102.59 84.0664C100.927 84.0664 100.615 85.3139 100.615 86.9563V92.6738H97.6212V77.4965ZM109.966 92.6738V81.9042H112.96V92.6738H109.966ZM112.96 80.1577H109.966V77.4965H112.96V80.1577ZM118.604 96.7904H115.63V84.503C115.63 83.6298 115.63 82.7774 115.61 81.9042H118.5C118.541 82.1952 118.604 82.8605 118.604 83.2556C119.061 82.4655 120.017 81.6547 121.722 81.6547C124.155 81.6547 126.005 83.6922 126.005 87.0187C126.005 90.8234 123.926 92.9233 121.327 92.9233C119.809 92.9233 119.019 92.3412 118.604 91.7174V96.7904ZM122.99 87.1435C122.99 85.1683 122.2 84.0456 120.766 84.0456C119.082 84.0456 118.479 85.1475 118.479 87.3098C118.479 89.3681 119.04 90.5532 120.641 90.5532C122.221 90.5532 122.99 89.3265 122.99 87.1435Z" fill="white"/>
<path d="M49.3441 167.691C49.6564 167.379 49.6564 166.873 49.3441 166.561L44.2552 161.472C43.9429 161.159 43.4366 161.159 43.1243 161.472C42.812 161.784 42.812 162.29 43.1243 162.602L47.6478 167.126L43.1243 171.649C42.812 171.962 42.812 172.468 43.1243 172.78C43.4366 173.093 43.9429 173.093 44.2552 172.78L49.3441 167.691ZM28.7875 167.126V167.926H48.7787V167.126V166.326H28.7875V167.126Z" fill="white"/>
<g opacity="0.4">
<circle cx="35.4058" cy="35.4058" r="35.2059" transform="matrix(-4.37114e-08 -1 -1 4.37114e-08 222.745 192.715)" stroke="white" stroke-width="0.399824"/>
<path d="M222.545 96.3574C222.545 89.3835 218.627 83.052 212.258 78.4561C205.888 73.8603 197.078 71.0117 187.339 71.0117C177.599 71.0118 168.79 73.8604 162.421 78.4561C156.051 83.052 152.134 89.3835 152.134 96.3574C152.134 103.331 156.051 109.663 162.421 114.259C168.79 118.854 177.599 121.703 187.339 121.703C197.078 121.703 205.888 118.855 212.258 114.259C218.627 109.663 222.545 103.331 222.545 96.3574Z" stroke="white" stroke-width="0.399824"/>
<path d="M222.545 53.333C222.545 48.6242 218.673 44.3054 212.286 41.1523C205.912 38.0057 197.092 36.0537 187.339 36.0537C177.586 36.0538 168.765 38.0056 162.391 41.1523C156.005 44.3054 152.134 48.6243 152.134 53.333C152.134 58.0416 156.005 62.3598 162.391 65.5127C168.765 68.6594 177.586 70.6113 187.339 70.6113C197.092 70.6113 205.912 68.6594 212.286 65.5127C218.673 62.3597 222.545 58.0417 222.545 53.333Z" stroke="white" stroke-width="0.399824"/>
<path d="M222.545 26.8896C222.544 25.7653 221.64 24.6378 219.86 23.5723C218.092 22.5142 215.521 21.5549 212.326 20.7461C205.939 19.1291 197.104 18.126 187.339 18.126C177.573 18.126 168.739 19.1292 162.352 20.7461C159.157 21.5549 156.586 22.5142 154.818 23.5723C153.038 24.6379 152.134 25.7653 152.134 26.8897C152.134 28.0141 153.038 29.1414 154.818 30.207C156.586 31.2651 159.157 32.2253 162.352 33.0342C168.739 34.6511 177.573 35.6533 187.339 35.6533C197.104 35.6533 205.939 34.6511 212.326 33.0342C215.521 32.2253 218.092 31.2651 219.86 30.207C221.64 29.1414 222.545 28.0141 222.545 26.8896Z" stroke="white" stroke-width="0.399824"/>
<path d="M222.545 12.1016C222.545 11.7877 222.352 11.4461 221.9 11.083C221.451 10.7222 220.778 10.3647 219.89 10.0195C218.118 9.32989 215.541 8.70502 212.343 8.17871C205.949 7.12661 197.108 6.47461 187.339 6.47461C177.569 6.47463 168.729 7.12663 162.336 8.17871C159.137 8.70502 156.56 9.32989 154.788 10.0195C153.901 10.3647 153.227 10.7222 152.778 11.083C152.327 11.4461 152.134 11.7877 152.134 12.1016C152.134 12.4154 152.327 12.757 152.778 13.1201C153.227 13.4809 153.901 13.8375 154.788 14.1826C156.56 14.8723 159.137 15.4981 162.336 16.0244C168.729 17.0765 177.569 17.7275 187.339 17.7275C197.108 17.7275 205.949 17.0765 212.343 16.0244C215.541 15.4981 218.118 14.8723 219.89 14.1826C220.777 13.8375 221.451 13.4809 221.9 13.1201C222.352 12.757 222.545 12.4154 222.545 12.1016Z" stroke="white" stroke-width="0.399824"/>
<path d="M222.545 3.13672C222.545 3.11036 222.53 3.05347 222.43 2.9668C222.332 2.8808 222.173 2.78682 221.946 2.68848C221.493 2.49234 220.813 2.29812 219.922 2.11133C218.142 1.73841 215.558 1.40179 212.357 1.11816C205.958 0.551105 197.112 0.200196 187.339 0.200197C177.566 0.200207 168.721 0.551117 162.321 1.11817C159.12 1.40179 156.537 1.73842 154.757 2.11133C153.865 2.29811 153.185 2.49236 152.732 2.68848C152.505 2.78679 152.346 2.88082 152.248 2.9668C152.148 3.05347 152.134 3.11036 152.134 3.13672C152.134 3.16287 152.148 3.22043 152.248 3.30762C152.346 3.3936 152.505 3.48763 152.732 3.58594C153.185 3.78206 153.865 3.97631 154.757 4.16309C156.537 4.536 159.12 4.87263 162.321 5.15625C168.721 5.7233 177.566 6.07421 187.339 6.07422C197.112 6.07422 205.958 5.72331 212.357 5.15625C215.558 4.87262 218.142 4.536 219.922 4.16309C220.813 3.9763 221.493 3.78207 221.946 3.58594C222.173 3.4876 222.332 3.39361 222.43 3.30762C222.53 3.22042 222.545 3.16287 222.545 3.13672Z" stroke="white" stroke-width="0.399824"/>
</g>
<rect x="239.214" width="222.302" height="192.715" rx="3.19859" fill="url(#paint1_linear_1222_337)"/>
<path d="M257.901 38.3891H261.019C261.352 39.8237 262.371 40.4682 264.034 40.4682C265.697 40.4682 266.404 39.8029 266.404 38.7633C266.404 37.5783 265.718 37.0793 263.265 36.5179C259.356 35.6031 258.4 34.1686 258.4 32.235C258.4 29.7401 260.271 28.0561 263.66 28.0561C267.464 28.0561 268.982 30.0936 269.19 32.1934H266.072C265.905 31.2994 265.427 30.343 263.577 30.343C262.308 30.343 261.56 30.8628 261.56 31.8816C261.56 32.8795 262.163 33.2954 264.491 33.8151C268.65 34.8131 269.564 36.3516 269.564 38.3891C269.564 40.988 267.589 42.7968 263.805 42.7968C260.167 42.7968 258.233 41.0088 257.901 38.3891ZM270.459 34.0646V31.8192H272.123V28.9085H275.096V31.8192H277.216V34.0646H275.096V39.3871C275.096 40.1979 275.345 40.5098 276.239 40.5098C276.406 40.5098 276.697 40.5098 276.905 40.489V42.5265C276.322 42.7344 275.512 42.7344 274.909 42.7344C272.809 42.7344 272.123 41.6117 272.123 39.7197V34.0646H270.459ZM278.95 42.5889V34.7507C278.95 33.6696 278.95 32.734 278.93 31.8192H281.861C281.903 32.0687 281.944 33.129 281.944 33.7112C282.422 32.4845 283.566 31.5905 285.395 31.5697V34.4181C283.233 34.3557 281.944 34.9378 281.944 37.8901V42.5889H278.95ZM295.728 35.2913V39.8029C295.728 40.8424 295.811 42.3394 295.873 42.5889H293.025C292.942 42.381 292.879 41.7988 292.879 41.5285C292.484 42.1315 291.757 42.8384 289.844 42.8384C287.245 42.8384 286.164 41.1335 286.164 39.4702C286.164 37.0169 288.118 35.8734 291.278 35.8734H292.817V35.2289C292.817 34.4596 292.547 33.7112 291.154 33.7112C289.906 33.7112 289.615 34.2309 289.49 35.021H286.663C286.808 33.1082 287.993 31.5697 291.278 31.5697C294.147 31.5905 295.728 32.7132 295.728 35.2913ZM292.817 37.9733V37.6822H291.611C289.802 37.6822 289.137 38.2436 289.137 39.2831C289.137 40.0524 289.615 40.7177 290.696 40.7177C292.588 40.7177 292.817 39.3871 292.817 37.9733ZM297.159 34.0646V31.8192H298.822V28.9085H301.795V31.8192H303.916V34.0646H301.795V39.3871C301.795 40.1979 302.044 40.5098 302.938 40.5098C303.105 40.5098 303.396 40.5098 303.604 40.489V42.5265C303.022 42.7344 302.211 42.7344 301.608 42.7344C299.508 42.7344 298.822 41.6117 298.822 39.7197V34.0646H297.159ZM315.029 37.8486H307.918C307.918 39.2 308.604 40.5098 310.08 40.5098C311.328 40.5098 311.681 40.0108 311.972 39.3663H314.945C314.571 40.6761 313.386 42.8384 310.018 42.8384C306.463 42.8384 304.924 40.1979 304.924 37.3704C304.924 33.9814 306.65 31.5697 310.122 31.5697C313.802 31.5697 315.07 34.2517 315.07 36.9338C315.07 37.308 315.07 37.5367 315.029 37.8486ZM307.981 36.019H312.076C312.056 34.7715 311.557 33.7112 310.101 33.7112C308.687 33.7112 308.105 34.6883 307.981 36.019ZM327.056 34.917V41.279C327.056 44.7303 325.787 46.9134 321.712 46.9134C317.783 46.9134 317.014 44.7303 316.91 43.5037H319.945C320.153 44.2521 320.694 44.7511 321.837 44.7511C323.771 44.7511 324.145 43.566 324.145 41.4662V40.9464C323.584 41.882 322.69 42.4641 321.109 42.4641C318.282 42.4641 316.66 40.1355 316.66 37.2456C316.66 33.8775 318.677 31.5697 321.359 31.5697C323.209 31.5697 323.979 32.4429 324.145 32.9419C324.166 32.6508 324.249 32.0063 324.27 31.8192H327.076C327.076 32.7964 327.056 33.8775 327.056 34.917ZM319.716 37.1209C319.716 38.9713 320.652 40.0524 321.962 40.0524C323.75 40.0524 324.228 38.8257 324.228 37.0169C324.228 35.2081 323.916 33.9607 322.024 33.9607C320.735 33.9607 319.716 34.9586 319.716 37.1209ZM329.689 42.5889V31.8192H332.683V42.5889H329.689ZM332.683 30.0728H329.689V27.4115H332.683V30.0728ZM341.757 39.1168H344.668C344.315 40.9048 343.046 42.8384 339.844 42.8384C336.497 42.8384 334.772 40.5306 334.772 37.2872C334.772 34.1062 336.705 31.5697 339.99 31.5697C343.608 31.5697 344.626 34.1894 344.668 35.3952H341.778C341.591 34.522 341.092 33.9191 339.928 33.9191C338.555 33.9191 337.786 35.1042 337.786 37.1832C337.786 39.491 338.618 40.5306 339.907 40.5306C340.946 40.5306 341.487 39.9276 341.757 39.1168ZM270.937 67.5889V62.204C270.937 59.7715 270.978 57.0271 271.041 55.4054H270.937C270.271 58.3369 268.837 63.098 267.464 67.5889H264.824C263.764 63.6594 262.288 58.233 261.664 55.3638H261.56C261.685 57.0479 261.747 60.0002 261.747 62.4535V67.5889H258.919V53.264H263.535C264.658 57.0063 265.905 61.7051 266.342 63.8257H266.363C266.716 61.9545 268.275 56.9232 269.481 53.264H273.93V67.5889H270.937ZM285.515 60.2913V64.8029C285.515 65.8424 285.598 67.3394 285.66 67.5889H282.812C282.729 67.381 282.667 66.7988 282.667 66.5285C282.271 67.1315 281.544 67.8384 279.631 67.8384C277.032 67.8384 275.951 66.1335 275.951 64.4702C275.951 62.0169 277.905 60.8734 281.066 60.8734H282.604V60.2289C282.604 59.4596 282.334 58.7112 280.941 58.7112C279.693 58.7112 279.402 59.2309 279.278 60.021H276.45C276.596 58.1082 277.781 56.5697 281.066 56.5697C283.935 56.5905 285.515 57.7132 285.515 60.2913ZM282.604 62.9733V62.6822H281.398C279.589 62.6822 278.924 63.2436 278.924 64.2831C278.924 65.0524 279.402 65.7177 280.483 65.7177C282.375 65.7177 282.604 64.3871 282.604 62.9733ZM288.188 67.5889V59.7507C288.188 58.6696 288.188 57.734 288.168 56.8192H291.099C291.141 57.0687 291.182 58.129 291.182 58.7112C291.661 57.4845 292.804 56.5905 294.634 56.5697V59.4181C292.471 59.3557 291.182 59.9378 291.182 62.8901V67.5889H288.188ZM299.283 52.4115V61.3724C300.074 60.2913 301.487 58.628 302.984 56.8192H306.394L302.652 60.8942L306.747 67.5889H303.379L300.656 62.807L299.283 64.1376V67.5889H296.29V52.4115H299.283ZM317.079 62.8486H309.969C309.969 64.2 310.655 65.5098 312.131 65.5098C313.379 65.5098 313.732 65.0108 314.023 64.3663H316.996C316.622 65.6761 315.437 67.8384 312.069 67.8384C308.513 67.8384 306.975 65.1979 306.975 62.3704C306.975 58.9814 308.701 56.5697 312.173 56.5697C315.853 56.5697 317.121 59.2517 317.121 61.9338C317.121 62.308 317.121 62.5367 317.079 62.8486ZM310.031 61.019H314.127C314.106 59.7715 313.607 58.7112 312.152 58.7112C310.738 58.7112 310.156 59.6883 310.031 61.019ZM318.092 59.0646V56.8192H319.755V53.9085H322.728V56.8192H324.849V59.0646H322.728V64.3871C322.728 65.1979 322.977 65.5098 323.871 65.5098C324.038 65.5098 324.329 65.5098 324.537 65.489V67.5265C323.955 67.7344 323.144 67.7344 322.541 67.7344C320.441 67.7344 319.755 66.6117 319.755 64.7197V59.0646H318.092ZM326.501 67.5889V56.8192H329.495V67.5889H326.501ZM329.495 55.0728H326.501V52.4115H329.495V55.0728ZM332.187 67.5889V59.5428C332.187 58.628 332.187 57.63 332.166 56.8192H335.056C335.118 57.1103 335.16 57.8587 335.181 58.1914C335.534 57.5261 336.407 56.5697 338.299 56.5697C340.462 56.5697 341.855 58.0459 341.855 60.7487V67.5889H338.881V61.0813C338.881 59.8547 338.486 58.9814 337.156 58.9814C335.888 58.9814 335.181 59.6883 335.181 61.6011V67.5889H332.187ZM354.283 59.917V66.279C354.283 69.7303 353.015 71.9134 348.94 71.9134C345.01 71.9134 344.241 69.7303 344.137 68.5037H347.172C347.38 69.2521 347.921 69.7511 349.064 69.7511C350.998 69.7511 351.372 68.566 351.372 66.4662V65.9464C350.811 66.882 349.917 67.4641 348.337 67.4641C345.509 67.4641 343.887 65.1355 343.887 62.2456C343.887 58.8775 345.904 56.5697 348.586 56.5697C350.436 56.5697 351.206 57.4429 351.372 57.9419C351.393 57.6508 351.476 57.0063 351.497 56.8192H354.304C354.304 57.7964 354.283 58.8775 354.283 59.917ZM346.944 62.1209C346.944 63.9713 347.879 65.0524 349.189 65.0524C350.977 65.0524 351.455 63.8257 351.455 62.0169C351.455 60.2081 351.143 58.9607 349.251 58.9607C347.962 58.9607 346.944 59.9586 346.944 62.1209ZM361.951 67.5889V56.8192H364.945V67.5889H361.951ZM364.945 55.0728H361.951V52.4115H364.945V55.0728ZM367.637 67.5889V59.5428C367.637 58.628 367.637 57.63 367.616 56.8192H370.506C370.568 57.1103 370.61 57.8587 370.631 58.1914C370.984 57.5261 371.857 56.5697 373.749 56.5697C375.912 56.5697 377.305 58.0459 377.305 60.7487V67.5889H374.331V61.0813C374.331 59.8547 373.936 58.9814 372.606 58.9814C371.338 58.9814 370.631 59.6883 370.631 61.6011V67.5889H367.637ZM258.919 92.5889V78.264H262.017V83.8359H267.797V78.264H270.895V92.5889H267.797V86.3932H262.017V92.5889H258.919ZM273.692 92.5889V81.8192H276.686V92.5889H273.692ZM276.686 80.0728H273.692V77.4115H276.686V80.0728ZM289.149 84.917V91.279C289.149 94.7303 287.881 96.9134 283.806 96.9134C279.876 96.9134 279.107 94.7303 279.003 93.5037H282.038C282.246 94.2521 282.787 94.7511 283.93 94.7511C285.864 94.7511 286.238 93.566 286.238 91.4662V90.9464C285.677 91.882 284.783 92.4641 283.203 92.4641C280.375 92.4641 278.753 90.1355 278.753 87.2456C278.753 83.8775 280.77 81.5697 283.452 81.5697C285.303 81.5697 286.072 82.4429 286.238 82.9419C286.259 82.6508 286.342 82.0063 286.363 81.8192H289.17C289.17 82.7964 289.149 83.8775 289.149 84.917ZM281.81 87.1209C281.81 88.9713 282.745 90.0524 284.055 90.0524C285.843 90.0524 286.321 88.8257 286.321 87.0169C286.321 85.2081 286.009 83.9607 284.117 83.9607C282.828 83.9607 281.81 84.9586 281.81 87.1209ZM291.782 77.4115H294.776V83.1082C295.233 82.4013 296.107 81.5697 297.853 81.5697C299.849 81.5697 301.45 82.7756 301.45 85.6863V92.5889H298.498V86.1229C298.498 84.7299 297.999 83.9814 296.751 83.9814C295.088 83.9814 294.776 85.2289 294.776 86.8714V92.5889H291.782V77.4115ZM313.607 87.8486H306.497C306.497 89.2 307.183 90.5098 308.659 90.5098C309.907 90.5098 310.26 90.0108 310.551 89.3663H313.524C313.15 90.6761 311.965 92.8384 308.597 92.8384C305.042 92.8384 303.503 90.1979 303.503 87.3704C303.503 83.9814 305.229 81.5697 308.701 81.5697C312.381 81.5697 313.649 84.2517 313.649 86.9338C313.649 87.308 313.649 87.5367 313.607 87.8486ZM306.559 86.019H310.655C310.634 84.7715 310.135 83.7112 308.68 83.7112C307.266 83.7112 306.684 84.6883 306.559 86.019ZM315.72 92.5889V84.7507C315.72 83.6696 315.72 82.734 315.699 81.8192H318.631C318.672 82.0687 318.714 83.129 318.714 83.7112C319.192 82.4845 320.336 81.5905 322.165 81.5697V84.4181C320.003 84.3557 318.714 84.9378 318.714 87.8901V92.5889H315.72ZM339.188 83.8567V86.414H332.327V90.0524H339.895L339.52 92.5889H329.312V78.264H339.479V80.8004H332.327V83.8567H339.188ZM348.692 77.4115H351.666V89.6366C351.666 90.6137 351.666 91.6117 351.686 92.5889H348.838C348.776 92.2562 348.713 91.7157 348.692 91.4662C348.173 92.3186 347.237 92.8384 345.636 92.8384C342.913 92.8384 341.187 90.6553 341.187 87.2872C341.187 83.9814 343.017 81.5697 346.073 81.5697C347.632 81.5697 348.464 82.1311 348.692 82.6093V77.4115ZM344.243 87.2248C344.243 89.3247 345.054 90.4474 346.53 90.4474C348.568 90.4474 348.817 88.7426 348.817 87.204C348.817 85.3536 348.547 83.9607 346.593 83.9607C345.033 83.9607 344.243 85.1873 344.243 87.2248ZM363.778 81.8192V89.4702C363.778 90.489 363.778 91.6325 363.798 92.5889H360.888C360.846 92.2978 360.825 91.7157 360.804 91.3414C360.16 92.4225 359.224 92.8384 357.831 92.8384C355.648 92.8384 354.255 91.5077 354.255 88.8465V81.8192H357.228V88.2436C357.228 89.4287 357.603 90.4058 358.892 90.4058C360.243 90.4058 360.804 89.6781 360.804 87.5575V81.8192H363.778ZM372.944 89.1168H375.854C375.501 90.9048 374.233 92.8384 371.031 92.8384C367.683 92.8384 365.958 90.5306 365.958 87.2872C365.958 84.1062 367.891 81.5697 371.176 81.5697C374.794 81.5697 375.813 84.1894 375.854 85.3952H372.964C372.777 84.522 372.278 83.9191 371.114 83.9191C369.742 83.9191 368.972 85.1042 368.972 87.1832C368.972 89.491 369.804 90.5306 371.093 90.5306C372.133 90.5306 372.673 89.9276 372.944 89.1168ZM386.688 85.2913V89.8029C386.688 90.8424 386.771 92.3394 386.833 92.5889H383.985C383.902 92.381 383.839 91.7988 383.839 91.5285C383.444 92.1315 382.717 92.8384 380.804 92.8384C378.205 92.8384 377.124 91.1335 377.124 89.4702C377.124 87.0169 379.078 85.8734 382.238 85.8734H383.777V85.2289C383.777 84.4596 383.507 83.7112 382.114 83.7112C380.866 83.7112 380.575 84.2309 380.45 85.021H377.623C377.768 83.1082 378.953 81.5697 382.238 81.5697C385.107 81.5905 386.688 82.7132 386.688 85.2913ZM383.777 87.9733V87.6822H382.571C380.762 87.6822 380.097 88.2436 380.097 89.2831C380.097 90.0524 380.575 90.7177 381.656 90.7177C383.548 90.7177 383.777 89.3871 383.777 87.9733ZM388.119 84.0646V81.8192H389.782V78.9085H392.755V81.8192H394.876V84.0646H392.755V89.3871C392.755 90.1979 393.004 90.5098 393.898 90.5098C394.065 90.5098 394.356 90.5098 394.564 90.489V92.5265C393.982 92.7344 393.171 92.7344 392.568 92.7344C390.468 92.7344 389.782 91.6117 389.782 89.7197V84.0646H388.119ZM396.528 92.5889V81.8192H399.522V92.5889H396.528ZM399.522 80.0728H396.528V77.4115H399.522V80.0728ZM406.996 81.5697C410.156 81.5697 412.214 83.8151 412.214 87.1832C412.214 90.4474 410.26 92.8384 406.85 92.8384C403.524 92.8384 401.569 90.4474 401.569 87.2456C401.569 83.9191 403.586 81.5697 406.996 81.5697ZM406.871 83.9191C405.499 83.9191 404.584 84.9378 404.584 87.204C404.584 89.2831 405.478 90.5098 406.913 90.5098C408.389 90.5098 409.2 89.2831 409.2 87.2248C409.2 84.9794 408.368 83.9191 406.871 83.9191ZM414.274 92.5889V84.5428C414.274 83.628 414.274 82.63 414.253 81.8192H417.143C417.206 82.1103 417.247 82.8587 417.268 83.1914C417.621 82.5261 418.495 81.5697 420.387 81.5697C422.549 81.5697 423.942 83.0459 423.942 85.7487V92.5889H420.969V86.0813C420.969 84.8547 420.574 83.9814 419.243 83.9814C417.975 83.9814 417.268 84.6883 417.268 86.6011V92.5889H414.274Z" fill="white"/>
<path d="M286.959 167.691C287.271 167.379 287.271 166.873 286.959 166.561L281.87 161.472C281.558 161.159 281.051 161.159 280.739 161.472C280.427 161.784 280.427 162.29 280.739 162.602L285.263 167.126L280.739 171.649C280.427 171.962 280.427 172.468 280.739 172.78C281.051 173.093 281.558 173.093 281.87 172.78L286.959 167.691ZM266.402 167.126V167.926H286.393V167.126V166.326H266.402V167.126Z" fill="white"/>
<path opacity="0.4" fill-rule="evenodd" clip-rule="evenodd" d="M359.577 179.216V131.047C368.228 131.047 378.114 127.342 388.001 117.461C395.91 109.556 397.063 97.6992 396.652 92.7588H443.613C443.613 101.404 446.579 109.803 453.499 118.696C460.42 127.589 475.332 130.635 481.923 131.047V179.216C473.272 179.216 463.386 182.921 453.499 192.802C445.59 200.707 444.437 212.564 444.849 217.504H397.887C397.887 208.858 394.921 200.46 388.001 191.567C381.08 182.674 366.168 179.628 359.577 179.216Z" stroke="#FFF9E8" stroke-width="0.399824"/>
<rect x="477.63" width="222.302" height="192.715" rx="3.19859" fill="url(#paint2_linear_1222_337)"/>
<path d="M497.334 28.3489H500.432V42.6738H497.334V28.3489ZM503.194 42.6738V34.6278C503.194 33.713 503.194 32.715 503.173 31.9042H506.063C506.125 32.1952 506.167 32.9437 506.188 33.2764C506.541 32.611 507.414 31.6547 509.306 31.6547C511.469 31.6547 512.862 33.1308 512.862 35.8336V42.6738H509.889V36.1663C509.889 34.9396 509.494 34.0664 508.163 34.0664C506.895 34.0664 506.188 34.7733 506.188 36.6861V42.6738H503.194ZM514.255 34.1496V31.9042H515.918V28.9934H518.891V31.9042H521.012V34.1496H518.891V39.472C518.891 40.2829 519.141 40.5947 520.035 40.5947C520.201 40.5947 520.492 40.5947 520.7 40.574V42.6115C520.118 42.8194 519.307 42.8194 518.704 42.8194C516.604 42.8194 515.918 41.6967 515.918 39.8047V34.1496H514.255ZM532.125 37.9335H525.014C525.014 39.2849 525.701 40.5947 527.177 40.5947C528.424 40.5947 528.778 40.0958 529.069 39.4512H532.042C531.668 40.7611 530.482 42.9233 527.114 42.9233C523.559 42.9233 522.021 40.2829 522.021 37.4553C522.021 34.0664 523.746 31.6547 527.218 31.6547C530.898 31.6547 532.166 34.3367 532.166 37.0187C532.166 37.3929 532.166 37.6216 532.125 37.9335ZM525.077 36.1039H529.173C529.152 34.8565 528.653 33.7961 527.197 33.7961C525.784 33.7961 525.202 34.7733 525.077 36.1039ZM544.152 35.002V41.364C544.152 44.8153 542.884 46.9983 538.809 46.9983C534.879 46.9983 534.11 44.8153 534.006 43.5886H537.041C537.249 44.3371 537.79 44.8361 538.933 44.8361C540.867 44.8361 541.241 43.651 541.241 41.5511V41.0313C540.68 41.9669 539.786 42.5491 538.206 42.5491C535.378 42.5491 533.757 40.2205 533.757 37.3306C533.757 33.9625 535.773 31.6547 538.455 31.6547C540.306 31.6547 541.075 32.5279 541.241 33.0269C541.262 32.7358 541.345 32.0913 541.366 31.9042H544.173C544.173 32.8813 544.152 33.9625 544.152 35.002ZM536.813 37.2058C536.813 39.0562 537.748 40.1373 539.058 40.1373C540.846 40.1373 541.324 38.9107 541.324 37.1019C541.324 35.2931 541.013 34.0456 539.121 34.0456C537.832 34.0456 536.813 35.0436 536.813 37.2058ZM546.785 42.6738V34.8357C546.785 33.7545 546.785 32.819 546.764 31.9042H549.696C549.738 32.1537 549.779 33.214 549.779 33.7961C550.257 32.5695 551.401 31.6755 553.23 31.6547V34.503C551.068 34.4406 549.779 35.0228 549.779 37.9751V42.6738H546.785ZM563.562 35.3762V39.8879C563.562 40.9274 563.646 42.4243 563.708 42.6738H560.86C560.777 42.4659 560.714 41.8838 560.714 41.6135C560.319 42.2164 559.591 42.9233 557.679 42.9233C555.08 42.9233 553.999 41.2185 553.999 39.5552C553.999 37.1019 555.953 35.9584 559.113 35.9584H560.652V35.3139C560.652 34.5446 560.381 33.7961 558.988 33.7961C557.741 33.7961 557.45 34.3159 557.325 35.106H554.498C554.643 33.1932 555.828 31.6547 559.113 31.6547C561.982 31.6755 563.562 32.7982 563.562 35.3762ZM560.652 38.0583V37.7672H559.446C557.637 37.7672 556.972 38.3285 556.972 39.3681C556.972 40.1373 557.45 40.8027 558.531 40.8027C560.423 40.8027 560.652 39.472 560.652 38.0583ZM564.993 34.1496V31.9042H566.657V28.9934H569.63V31.9042H571.751V34.1496H569.63V39.472C569.63 40.2829 569.879 40.5947 570.773 40.5947C570.94 40.5947 571.231 40.5947 571.439 40.574V42.6115C570.857 42.8194 570.046 42.8194 569.443 42.8194C567.343 42.8194 566.657 41.6967 566.657 39.8047V34.1496H564.993ZM582.864 37.9335H575.753C575.753 39.2849 576.439 40.5947 577.915 40.5947C579.163 40.5947 579.516 40.0958 579.807 39.4512H582.78C582.406 40.7611 581.221 42.9233 577.853 42.9233C574.298 42.9233 572.759 40.2829 572.759 37.4553C572.759 34.0664 574.485 31.6547 577.957 31.6547C581.637 31.6547 582.905 34.3367 582.905 37.0187C582.905 37.3929 582.905 37.6216 582.864 37.9335ZM575.815 36.1039H579.911C579.89 34.8565 579.391 33.7961 577.936 33.7961C576.522 33.7961 575.94 34.7733 575.815 36.1039ZM592.001 27.4965H594.974V39.7215C594.974 40.6987 594.974 41.6967 594.995 42.6738H592.146C592.084 42.3412 592.021 41.8006 592.001 41.5511C591.481 42.4035 590.545 42.9233 588.944 42.9233C586.221 42.9233 584.495 40.7403 584.495 37.3722C584.495 34.0664 586.325 31.6547 589.381 31.6547C590.94 31.6547 591.772 32.216 592.001 32.6942V27.4965ZM587.551 37.3098C587.551 39.4097 588.362 40.5324 589.838 40.5324C591.876 40.5324 592.125 38.8275 592.125 37.289C592.125 35.4386 591.855 34.0456 589.901 34.0456C588.341 34.0456 587.551 35.2723 587.551 37.3098ZM509.352 67.6738V62.289C509.352 59.8565 509.393 57.1121 509.456 55.4904H509.352C508.686 58.4219 507.252 63.183 505.88 67.6738H503.239C502.179 63.7444 500.703 58.3179 500.079 55.4488H499.975C500.1 57.1329 500.162 60.0852 500.162 62.5385V67.6738H497.334V53.3489H501.95C503.073 57.0913 504.32 61.79 504.757 63.9107H504.778C505.131 62.0395 506.69 57.0081 507.896 53.3489H512.345V67.6738H509.352ZM523.93 60.3762V64.8879C523.93 65.9274 524.013 67.4243 524.075 67.6738H521.227C521.144 67.4659 521.082 66.8838 521.082 66.6135C520.687 67.2164 519.959 67.9233 518.046 67.9233C515.447 67.9233 514.366 66.2185 514.366 64.5552C514.366 62.1019 516.32 60.9584 519.481 60.9584H521.019V60.3139C521.019 59.5446 520.749 58.7961 519.356 58.7961C518.108 58.7961 517.817 59.3159 517.693 60.106H514.865C515.011 58.1932 516.196 56.6547 519.481 56.6547C522.35 56.6755 523.93 57.7982 523.93 60.3762ZM521.019 63.0583V62.7672H519.813C518.005 62.7672 517.339 63.3285 517.339 64.3681C517.339 65.1373 517.817 65.8027 518.899 65.8027C520.79 65.8027 521.019 64.472 521.019 63.0583ZM526.603 67.6738V59.8357C526.603 58.7545 526.603 57.819 526.583 56.9042H529.514C529.556 57.1537 529.597 58.214 529.597 58.7961C530.076 57.5695 531.219 56.6755 533.049 56.6547V59.503C530.886 59.4406 529.597 60.0228 529.597 62.9751V67.6738H526.603ZM537.698 52.4965V61.4574C538.489 60.3762 539.902 58.713 541.399 56.9042H544.809L541.067 60.9792L545.162 67.6738H541.794L539.071 62.8919L537.698 64.2225V67.6738H534.705V52.4965H537.698ZM555.494 62.9335H548.384C548.384 64.2849 549.07 65.5947 550.546 65.5947C551.794 65.5947 552.147 65.0958 552.438 64.4512H555.411C555.037 65.7611 553.852 67.9233 550.484 67.9233C546.928 67.9233 545.39 65.2829 545.39 62.4553C545.39 59.0664 547.116 56.6547 550.588 56.6547C554.268 56.6547 555.536 59.3367 555.536 62.0187C555.536 62.3929 555.536 62.6216 555.494 62.9335ZM548.446 61.1039H552.542C552.521 59.8565 552.022 58.7961 550.567 58.7961C549.153 58.7961 548.571 59.7733 548.446 61.1039ZM556.507 59.1496V56.9042H558.17V53.9934H561.143V56.9042H563.264V59.1496H561.143V64.472C561.143 65.2829 561.392 65.5947 562.286 65.5947C562.453 65.5947 562.744 65.5947 562.952 65.574V67.6115C562.37 67.8194 561.559 67.8194 560.956 67.8194C558.856 67.8194 558.17 66.6967 558.17 64.8047V59.1496H556.507ZM564.916 67.6738V56.9042H567.91V67.6738H564.916ZM567.91 55.1577H564.916V52.4965H567.91V55.1577ZM570.602 67.6738V59.6278C570.602 58.713 570.602 57.715 570.581 56.9042H573.471C573.533 57.1952 573.575 57.9437 573.596 58.2764C573.949 57.611 574.822 56.6547 576.714 56.6547C578.877 56.6547 580.27 58.1308 580.27 60.8336V67.6738H577.296V61.1663C577.296 59.9396 576.901 59.0664 575.571 59.0664C574.303 59.0664 573.596 59.7733 573.596 61.6861V67.6738H570.602ZM592.698 60.002V66.364C592.698 69.8153 591.43 71.9983 587.355 71.9983C583.425 71.9983 582.656 69.8153 582.552 68.5886H585.587C585.795 69.3371 586.336 69.8361 587.479 69.8361C589.413 69.8361 589.787 68.651 589.787 66.5511V66.0313C589.226 66.9669 588.332 67.5491 586.752 67.5491C583.924 67.5491 582.302 65.2205 582.302 62.3306C582.302 58.9625 584.319 56.6547 587.001 56.6547C588.851 56.6547 589.621 57.5279 589.787 58.0269C589.808 57.7358 589.891 57.0913 589.912 56.9042H592.719C592.719 57.8813 592.698 58.9625 592.698 60.002ZM585.359 62.2058C585.359 64.0562 586.294 65.1373 587.604 65.1373C589.392 65.1373 589.87 63.9107 589.87 62.1019C589.87 60.2931 589.558 59.0456 587.666 59.0456C586.377 59.0456 585.359 60.0436 585.359 62.2058ZM599.722 63.4741H602.84C603.173 64.9086 604.192 65.5532 605.855 65.5532C607.518 65.5532 608.225 64.8879 608.225 63.8483C608.225 62.6632 607.539 62.1642 605.086 61.6029C601.177 60.6881 600.221 59.2535 600.221 57.32C600.221 54.8251 602.092 53.141 605.481 53.141C609.286 53.141 610.803 55.1785 611.011 57.2784H607.893C607.726 56.3844 607.248 55.428 605.398 55.428C604.13 55.428 603.381 55.9478 603.381 56.9665C603.381 57.9645 603.984 58.3803 606.313 58.9001C610.471 59.898 611.386 61.4366 611.386 63.4741C611.386 66.0729 609.41 67.8817 605.626 67.8817C601.988 67.8817 600.055 66.0937 599.722 63.4741ZM612.281 59.1496V56.9042H613.944V53.9934H616.917V56.9042H619.038V59.1496H616.917V64.472C616.917 65.2829 617.166 65.5947 618.06 65.5947C618.227 65.5947 618.518 65.5947 618.726 65.574V67.6115C618.144 67.8194 617.333 67.8194 616.73 67.8194C614.63 67.8194 613.944 66.6967 613.944 64.8047V59.1496H612.281ZM620.771 67.6738V59.8357C620.771 58.7545 620.771 57.819 620.751 56.9042H623.682C623.724 57.1537 623.765 58.214 623.765 58.7961C624.244 57.5695 625.387 56.6755 627.217 56.6547V59.503C625.054 59.4406 623.765 60.0228 623.765 62.9751V67.6738H620.771ZM637.549 60.3762V64.8879C637.549 65.9274 637.632 67.4243 637.694 67.6738H634.846C634.763 67.4659 634.7 66.8838 634.7 66.6135C634.305 67.2164 633.578 67.9233 631.665 67.9233C629.066 67.9233 627.985 66.2185 627.985 64.5552C627.985 62.1019 629.939 60.9584 633.099 60.9584H634.638V60.3139C634.638 59.5446 634.368 58.7961 632.975 58.7961C631.727 58.7961 631.436 59.3159 631.311 60.106H628.484C628.629 58.1932 629.815 56.6547 633.099 56.6547C635.969 56.6755 637.549 57.7982 637.549 60.3762ZM634.638 63.0583V62.7672H633.432C631.623 62.7672 630.958 63.3285 630.958 64.3681C630.958 65.1373 631.436 65.8027 632.517 65.8027C634.409 65.8027 634.638 64.472 634.638 63.0583ZM638.98 59.1496V56.9042H640.643V53.9934H643.616V56.9042H645.737V59.1496H643.616V64.472C643.616 65.2829 643.866 65.5947 644.76 65.5947C644.926 65.5947 645.217 65.5947 645.425 65.574V67.6115C644.843 67.8194 644.032 67.8194 643.429 67.8194C641.329 67.8194 640.643 66.6967 640.643 64.8047V59.1496H638.98ZM656.85 62.9335H649.739C649.739 64.2849 650.425 65.5947 651.902 65.5947C653.149 65.5947 653.502 65.0958 653.794 64.4512H656.767C656.392 65.7611 655.207 67.9233 651.839 67.9233C648.284 67.9233 646.745 65.2829 646.745 62.4553C646.745 59.0664 648.471 56.6547 651.943 56.6547C655.623 56.6547 656.891 59.3367 656.891 62.0187C656.891 62.3929 656.891 62.6216 656.85 62.9335ZM649.802 61.1039H653.897C653.877 59.8565 653.378 58.7961 651.922 58.7961C650.509 58.7961 649.926 59.7733 649.802 61.1039ZM668.877 60.002V66.364C668.877 69.8153 667.609 71.9983 663.534 71.9983C659.604 71.9983 658.835 69.8153 658.731 68.5886H661.766C661.974 69.3371 662.515 69.8361 663.658 69.8361C665.592 69.8361 665.966 68.651 665.966 66.5511V66.0313C665.405 66.9669 664.511 67.5491 662.931 67.5491C660.103 67.5491 658.481 65.2205 658.481 62.3306C658.481 58.9625 660.498 56.6547 663.18 56.6547C665.031 56.6547 665.8 57.5279 665.966 58.0269C665.987 57.7358 666.07 57.0913 666.091 56.9042H668.898C668.898 57.8813 668.877 58.9625 668.877 60.002ZM661.538 62.2058C661.538 64.0562 662.473 65.1373 663.783 65.1373C665.571 65.1373 666.049 63.9107 666.049 62.1019C666.049 60.2931 665.737 59.0456 663.845 59.0456C662.556 59.0456 661.538 60.0436 661.538 62.2058ZM670.283 56.9042H673.485C674.587 60.6257 675.564 63.9315 675.731 64.9294H675.751C675.98 63.8483 676.625 61.4366 677.893 56.9042H680.866L677.248 67.9857C676.23 71.0835 675.356 71.9983 672.778 71.9983C672.508 71.9983 671.905 71.9775 671.385 71.9152V69.5242C671.593 69.545 671.905 69.5658 672.155 69.5658C673.257 69.5658 673.797 69.1916 674.213 68.0065L670.283 56.9042ZM496.96 92.6738V84.6901C496.96 83.7545 496.96 82.8397 496.939 81.9042H499.788C499.829 82.1744 499.892 82.7774 499.913 83.1932C500.453 82.4031 501.326 81.6547 502.906 81.6547C504.445 81.6547 505.297 82.4655 505.672 83.2971C506.316 82.4239 507.231 81.6547 508.998 81.6547C510.869 81.6547 512.408 82.819 512.408 85.6049V92.6738H509.497V85.9792C509.497 85.002 509.144 84.0456 507.917 84.0456C506.67 84.0456 506.171 84.8773 506.171 86.5197V92.6738H503.239V86.0831C503.239 84.9812 502.969 84.0664 501.701 84.0664C500.495 84.0664 499.913 84.8149 499.913 86.6653V92.6738H496.96ZM523.889 85.3762V89.8879C523.889 90.9274 523.972 92.4243 524.035 92.6738H521.186C521.103 92.4659 521.041 91.8838 521.041 91.6135C520.646 92.2164 519.918 92.9233 518.005 92.9233C515.407 92.9233 514.325 91.2185 514.325 89.5552C514.325 87.1019 516.28 85.9584 519.44 85.9584H520.979V85.3139C520.979 84.5446 520.708 83.7961 519.315 83.7961C518.068 83.7961 517.777 84.3159 517.652 85.106H514.824C514.97 83.1932 516.155 81.6547 519.44 81.6547C522.309 81.6755 523.889 82.7982 523.889 85.3762ZM520.979 88.0583V87.7672H519.773C517.964 87.7672 517.299 88.3285 517.299 89.3681C517.299 90.1373 517.777 90.8027 518.858 90.8027C520.75 90.8027 520.979 89.472 520.979 88.0583ZM525.652 89.4305H528.584C528.813 90.3037 529.52 90.7819 530.621 90.7819C531.723 90.7819 532.118 90.3868 532.118 89.7215C532.118 89.0354 531.661 88.7651 530.122 88.3909C526.609 87.5177 526.047 86.4366 526.047 84.9188C526.047 83.3387 527.149 81.6547 530.393 81.6547C533.657 81.6547 534.78 83.4427 534.863 84.898H532.035C531.931 84.503 531.661 83.7545 530.268 83.7545C529.291 83.7545 528.958 84.1912 528.958 84.6693C528.958 85.2099 529.291 85.4594 531.037 85.8752C534.634 86.7069 535.154 87.9335 535.154 89.5136C535.154 91.3016 533.782 92.9233 530.518 92.9233C527.233 92.9233 525.902 91.3432 525.652 89.4305ZM535.939 84.1496V81.9042H537.602V78.9934H540.575V81.9042H542.696V84.1496H540.575V89.472C540.575 90.2829 540.825 90.5947 541.719 90.5947C541.885 90.5947 542.176 90.5947 542.384 90.574V92.6115C541.802 92.8194 540.991 92.8194 540.388 92.8194C538.288 92.8194 537.602 91.6967 537.602 89.8047V84.1496H535.939ZM553.809 87.9335H546.699C546.699 89.2849 547.385 90.5947 548.861 90.5947C550.108 90.5947 550.462 90.0958 550.753 89.4512H553.726C553.352 90.7611 552.167 92.9233 548.799 92.9233C545.243 92.9233 543.705 90.2829 543.705 87.4553C543.705 84.0664 545.43 81.6547 548.902 81.6547C552.582 81.6547 553.851 84.3367 553.851 87.0187C553.851 87.3929 553.851 87.6216 553.809 87.9335ZM546.761 86.1039H550.857C550.836 84.8565 550.337 83.7961 548.882 83.7961C547.468 83.7961 546.886 84.7733 546.761 86.1039ZM555.922 92.6738V84.8357C555.922 83.7545 555.922 82.819 555.901 81.9042H558.833C558.874 82.1537 558.916 83.214 558.916 83.7961C559.394 82.5695 560.537 81.6755 562.367 81.6547V84.503C560.205 84.4406 558.916 85.0228 558.916 87.9751V92.6738H555.922ZM570.325 89.2018H573.236C572.882 90.9898 571.614 92.9233 568.412 92.9233C565.065 92.9233 563.339 90.6155 563.339 87.3722C563.339 84.1912 565.273 81.6547 568.558 81.6547C572.175 81.6547 573.194 84.2743 573.236 85.4802H570.346C570.159 84.607 569.66 84.004 568.495 84.004C567.123 84.004 566.354 85.1891 566.354 87.2682C566.354 89.576 567.186 90.6155 568.475 90.6155C569.514 90.6155 570.055 90.0126 570.325 89.2018ZM578.123 92.6738H575.129V77.4965H578.123V92.6738ZM589.653 85.3762V89.8879C589.653 90.9274 589.736 92.4243 589.798 92.6738H586.95C586.867 92.4659 586.804 91.8838 586.804 91.6135C586.409 92.2164 585.682 92.9233 583.769 92.9233C581.17 92.9233 580.089 91.2185 580.089 89.5552C580.089 87.1019 582.043 85.9584 585.203 85.9584H586.742V85.3139C586.742 84.5446 586.472 83.7961 585.079 83.7961C583.831 83.7961 583.54 84.3159 583.415 85.106H580.588C580.733 83.1932 581.918 81.6547 585.203 81.6547C588.072 81.6755 589.653 82.7982 589.653 85.3762ZM586.742 88.0583V87.7672H585.536C583.727 87.7672 583.062 88.3285 583.062 89.3681C583.062 90.1373 583.54 90.8027 584.621 90.8027C586.513 90.8027 586.742 89.472 586.742 88.0583ZM591.416 89.4305H594.347C594.576 90.3037 595.283 90.7819 596.385 90.7819C597.487 90.7819 597.882 90.3868 597.882 89.7215C597.882 89.0354 597.424 88.7651 595.886 88.3909C592.372 87.5177 591.811 86.4366 591.811 84.9188C591.811 83.3387 592.913 81.6547 596.156 81.6547C599.42 81.6547 600.543 83.4427 600.626 84.898H597.799C597.695 84.503 597.424 83.7545 596.031 83.7545C595.054 83.7545 594.721 84.1912 594.721 84.6693C594.721 85.2099 595.054 85.4594 596.801 85.8752C600.397 86.7069 600.917 87.9335 600.917 89.5136C600.917 91.3016 599.545 92.9233 596.281 92.9233C592.996 92.9233 591.665 91.3432 591.416 89.4305ZM602.136 89.4305H605.068C605.296 90.3037 606.003 90.7819 607.105 90.7819C608.207 90.7819 608.602 90.3868 608.602 89.7215C608.602 89.0354 608.145 88.7651 606.606 88.3909C603.092 87.5177 602.531 86.4366 602.531 84.9188C602.531 83.3387 603.633 81.6547 606.876 81.6547C610.141 81.6547 611.263 83.4427 611.346 84.898H608.519C608.415 84.503 608.145 83.7545 606.752 83.7545C605.774 83.7545 605.442 84.1912 605.442 84.6693C605.442 85.2099 605.774 85.4594 607.521 85.8752C611.118 86.7069 611.637 87.9335 611.637 89.5136C611.637 91.3016 610.265 92.9233 607.001 92.9233C603.716 92.9233 602.386 91.3432 602.136 89.4305Z" fill="white"/>
<path d="M522.975 167.691C523.288 167.379 523.288 166.873 522.975 166.561L517.886 161.472C517.574 161.159 517.068 161.159 516.756 161.472C516.443 161.784 516.443 162.29 516.756 162.602L521.279 167.126L516.756 171.649C516.443 171.962 516.443 172.468 516.756 172.78C517.068 173.093 517.574 173.093 517.886 172.78L522.975 167.691ZM502.419 167.126V167.926H522.41V167.126V166.326H502.419V167.126Z" fill="white"/>
<g opacity="0.4">
<circle cx="35.4058" cy="35.4058" r="35.2059" transform="matrix(-4.37114e-08 -1 -1 4.37114e-08 700.745 192.715)" stroke="white" stroke-width="0.399824"/>
<path d="M700.545 96.3574C700.545 89.3835 696.627 83.052 690.258 78.4561C683.888 73.8603 675.078 71.0117 665.339 71.0117C655.599 71.0118 646.79 73.8604 640.421 78.4561C634.051 83.052 630.134 89.3835 630.134 96.3574C630.134 103.331 634.051 109.663 640.421 114.259C646.79 118.854 655.599 121.703 665.339 121.703C675.078 121.703 683.888 118.855 690.258 114.259C696.627 109.663 700.545 103.331 700.545 96.3574Z" stroke="white" stroke-width="0.399824"/>
<path d="M700.545 53.333C700.545 48.6242 696.673 44.3054 690.286 41.1523C683.912 38.0057 675.092 36.0537 665.339 36.0537C655.586 36.0538 646.766 38.0056 640.391 41.1523C634.005 44.3054 630.134 48.6243 630.134 53.333C630.134 58.0416 634.005 62.3598 640.391 65.5127C646.766 68.6594 655.586 70.6113 665.339 70.6113C675.092 70.6113 683.912 68.6594 690.286 65.5127C696.673 62.3597 700.545 58.0417 700.545 53.333Z" stroke="white" stroke-width="0.399824"/>
<path d="M700.545 26.8896C700.545 25.7653 699.64 24.6378 697.86 23.5723C696.092 22.5142 693.521 21.5549 690.326 20.7461C683.939 19.1291 675.104 18.126 665.339 18.126C655.573 18.126 646.739 19.1292 640.352 20.7461C637.158 21.5549 634.586 22.5142 632.818 23.5723C631.038 24.6379 630.134 25.7653 630.134 26.8897C630.134 28.0141 631.038 29.1414 632.818 30.207C634.586 31.2651 637.157 32.2253 640.352 33.0342C646.739 34.6511 655.573 35.6533 665.339 35.6533C675.104 35.6533 683.939 34.6511 690.326 33.0342C693.521 32.2253 696.092 31.2651 697.86 30.207C699.64 29.1414 700.545 28.0141 700.545 26.8896Z" stroke="white" stroke-width="0.399824"/>
<path d="M700.545 12.1016C700.545 11.7877 700.352 11.4461 699.9 11.083C699.452 10.7222 698.778 10.3647 697.891 10.0195C696.118 9.32989 693.541 8.70502 690.343 8.17871C683.949 7.12661 675.108 6.47461 665.339 6.47461C655.569 6.47463 646.729 7.12663 640.336 8.17871C637.137 8.70502 634.561 9.32989 632.788 10.0195C631.901 10.3647 631.227 10.7222 630.778 11.083C630.327 11.4461 630.134 11.7877 630.134 12.1016C630.134 12.4154 630.327 12.757 630.778 13.1201C631.227 13.4809 631.901 13.8375 632.788 14.1826C634.561 14.8723 637.137 15.4981 640.336 16.0244C646.729 17.0765 655.569 17.7275 665.339 17.7275C675.108 17.7275 683.949 17.0765 690.343 16.0244C693.541 15.4981 696.118 14.8723 697.891 14.1826C698.777 13.8375 699.452 13.4809 699.9 13.1201C700.352 12.757 700.545 12.4154 700.545 12.1016Z" stroke="white" stroke-width="0.399824"/>
<path d="M700.545 3.13672C700.545 3.11036 700.53 3.05347 700.431 2.9668C700.332 2.8808 700.173 2.78682 699.946 2.68848C699.493 2.49234 698.813 2.29812 697.922 2.11133C696.142 1.73841 693.558 1.40179 690.357 1.11816C683.958 0.551105 675.112 0.200196 665.339 0.200197C655.566 0.200207 646.721 0.551117 640.321 1.11817C637.12 1.40179 634.537 1.73842 632.757 2.11133C631.865 2.29811 631.185 2.49236 630.732 2.68848C630.505 2.78679 630.347 2.88082 630.248 2.9668C630.149 3.05347 630.134 3.11036 630.134 3.13672C630.134 3.16287 630.148 3.22043 630.248 3.30762C630.347 3.3936 630.505 3.48763 630.732 3.58594C631.185 3.78206 631.865 3.97631 632.757 4.16309C634.537 4.536 637.12 4.87263 640.321 5.15625C646.721 5.7233 655.566 6.07421 665.339 6.07422C675.112 6.07422 683.958 5.72331 690.357 5.15625C693.558 4.87262 696.142 4.536 697.922 4.16309C698.813 3.9763 699.493 3.78207 699.946 3.58594C700.173 3.4876 700.332 3.39361 700.431 3.30762C700.53 3.22042 700.545 3.16287 700.545 3.13672Z" stroke="white" stroke-width="0.399824"/>
</g>
<rect x="716.164" width="222.302" height="192.715" rx="3.19859" fill="url(#paint3_linear_1222_337)"/>
<path d="M735.868 42.5889V28.264H741.565C745.723 28.264 748.468 31.0084 748.468 35.2497C748.468 39.4287 745.806 42.5889 741.42 42.5889H735.868ZM738.966 30.7589V40.094H741.295C744.039 40.094 745.266 38.0357 745.266 35.2497C745.266 32.9003 744.122 30.7589 741.316 30.7589H738.966ZM750.803 42.5889V31.8192H753.797V42.5889H750.803ZM753.797 30.0728H750.803V27.4115H753.797V30.0728ZM766.26 34.917V41.279C766.26 44.7303 764.992 46.9134 760.917 46.9134C756.988 46.9134 756.218 44.7303 756.114 43.5037H759.15C759.358 44.2521 759.898 44.7511 761.042 44.7511C762.975 44.7511 763.35 43.566 763.35 41.4662V40.9464C762.788 41.882 761.894 42.4641 760.314 42.4641C757.487 42.4641 755.865 40.1355 755.865 37.2456C755.865 33.8775 757.882 31.5697 760.564 31.5697C762.414 31.5697 763.183 32.4429 763.35 32.9419C763.37 32.6508 763.454 32.0063 763.474 31.8192H766.281C766.281 32.7964 766.26 33.8775 766.26 34.917ZM758.921 37.1209C758.921 38.9713 759.857 40.0524 761.167 40.0524C762.955 40.0524 763.433 38.8257 763.433 37.0169C763.433 35.2081 763.121 33.9607 761.229 33.9607C759.94 33.9607 758.921 34.9586 758.921 37.1209ZM768.894 42.5889V31.8192H771.887V42.5889H768.894ZM771.887 30.0728H768.894V27.4115H771.887V30.0728ZM773.519 34.0646V31.8192H775.182V28.9085H778.155V31.8192H780.276V34.0646H778.155V39.3871C778.155 40.1979 778.405 40.5098 779.299 40.5098C779.465 40.5098 779.756 40.5098 779.964 40.489V42.5265C779.382 42.7344 778.571 42.7344 777.968 42.7344C775.868 42.7344 775.182 41.6117 775.182 39.7197V34.0646H773.519ZM790.929 35.2913V39.8029C790.929 40.8424 791.013 42.3394 791.075 42.5889H788.227C788.143 42.381 788.081 41.7988 788.081 41.5285C787.686 42.1315 786.958 42.8384 785.046 42.8384C782.447 42.8384 781.366 41.1335 781.366 39.4702C781.366 37.0169 783.32 35.8734 786.48 35.8734H788.019V35.2289C788.019 34.4596 787.748 33.7112 786.355 33.7112C785.108 33.7112 784.817 34.2309 784.692 35.021H781.865C782.01 33.1082 783.195 31.5697 786.48 31.5697C789.349 31.5905 790.929 32.7132 790.929 35.2913ZM788.019 37.9733V37.6822H786.813C785.004 37.6822 784.339 38.2436 784.339 39.2831C784.339 40.0524 784.817 40.7177 785.898 40.7177C787.79 40.7177 788.019 39.3871 788.019 37.9733ZM796.597 42.5889H793.603V27.4115H796.597V42.5889ZM816.694 42.5889V37.204C816.694 34.7715 816.736 32.0271 816.798 30.4054H816.694C816.029 33.3369 814.594 38.098 813.222 42.5889H810.582C809.522 38.6594 808.045 33.233 807.422 30.3638H807.318C807.442 32.0479 807.505 35.0002 807.505 37.4535V42.5889H804.677V28.264H809.293C810.416 32.0063 811.663 36.7051 812.1 38.8257H812.12C812.474 36.9545 814.033 31.9232 815.239 28.264H819.688V42.5889H816.694ZM831.273 35.2913V39.8029C831.273 40.8424 831.356 42.3394 831.418 42.5889H828.57C828.487 42.381 828.424 41.7988 828.424 41.5285C828.029 42.1315 827.302 42.8384 825.389 42.8384C822.79 42.8384 821.709 41.1335 821.709 39.4702C821.709 37.0169 823.663 35.8734 826.823 35.8734H828.362V35.2289C828.362 34.4596 828.092 33.7112 826.699 33.7112C825.451 33.7112 825.16 34.2309 825.035 35.021H822.208C822.353 33.1082 823.538 31.5697 826.823 31.5697C829.693 31.5905 831.273 32.7132 831.273 35.2913ZM828.362 37.9733V37.6822H827.156C825.347 37.6822 824.682 38.2436 824.682 39.2831C824.682 40.0524 825.16 40.7177 826.241 40.7177C828.133 40.7177 828.362 39.3871 828.362 37.9733ZM833.946 42.5889V34.7507C833.946 33.6696 833.946 32.734 833.925 31.8192H836.857C836.899 32.0687 836.94 33.129 836.94 33.7112C837.418 32.4845 838.562 31.5905 840.391 31.5697V34.4181C838.229 34.3557 836.94 34.9378 836.94 37.8901V42.5889H833.946ZM845.041 27.4115V36.3724C845.831 35.2913 847.245 33.628 848.742 31.8192H852.152L848.409 35.8942L852.505 42.5889H849.137L846.413 37.807L845.041 39.1376V42.5889H842.047V27.4115H845.041ZM862.837 37.8486H855.727C855.727 39.2 856.413 40.5098 857.889 40.5098C859.136 40.5098 859.49 40.0108 859.781 39.3663H862.754C862.38 40.6761 861.195 42.8384 857.826 42.8384C854.271 42.8384 852.733 40.1979 852.733 37.3704C852.733 33.9814 854.458 31.5697 857.93 31.5697C861.61 31.5697 862.879 34.2517 862.879 36.9338C862.879 37.308 862.879 37.5367 862.837 37.8486ZM855.789 36.019H859.885C859.864 34.7715 859.365 33.7112 857.91 33.7112C856.496 33.7112 855.914 34.6883 855.789 36.019ZM863.849 34.0646V31.8192H865.513V28.9085H868.486V31.8192H870.606V34.0646H868.486V39.3871C868.486 40.1979 868.735 40.5098 869.629 40.5098C869.796 40.5098 870.087 40.5098 870.295 40.489V42.5265C869.712 42.7344 868.902 42.7344 868.299 42.7344C866.199 42.7344 865.513 41.6117 865.513 39.7197V34.0646H863.849ZM872.259 42.5889V31.8192H875.253V42.5889H872.259ZM875.253 30.0728H872.259V27.4115H875.253V30.0728ZM877.945 42.5889V34.5428C877.945 33.628 877.945 32.63 877.924 31.8192H880.814C880.876 32.1103 880.918 32.8587 880.938 33.1914C881.292 32.5261 882.165 31.5697 884.057 31.5697C886.219 31.5697 887.612 33.0459 887.612 35.7487V42.5889H884.639V36.0813C884.639 34.8547 884.244 33.9814 882.914 33.9814C881.645 33.9814 880.938 34.6883 880.938 36.6011V42.5889H877.945ZM900.041 34.917V41.279C900.041 44.7303 898.772 46.9134 894.697 46.9134C890.768 46.9134 889.999 44.7303 889.895 43.5037H892.93C893.138 44.2521 893.679 44.7511 894.822 44.7511C896.756 44.7511 897.13 43.566 897.13 41.4662V40.9464C896.568 41.882 895.674 42.4641 894.094 42.4641C891.267 42.4641 889.645 40.1355 889.645 37.2456C889.645 33.8775 891.662 31.5697 894.344 31.5697C896.194 31.5697 896.963 32.4429 897.13 32.9419C897.151 32.6508 897.234 32.0063 897.255 31.8192H900.061C900.061 32.7964 900.041 33.8775 900.041 34.917ZM892.701 37.1209C892.701 38.9713 893.637 40.0524 894.947 40.0524C896.735 40.0524 897.213 38.8257 897.213 37.0169C897.213 35.2081 896.901 33.9607 895.009 33.9607C893.72 33.9607 892.701 34.9586 892.701 37.1209ZM734.517 56.8192H737.656C738.634 61.1437 739.153 63.597 739.361 64.9484H739.403C739.632 63.7426 739.943 62.0585 741.253 56.8192H744.018C745.224 62.1209 745.599 63.6802 745.744 64.8237H745.765C745.994 63.7218 746.326 62.1209 747.574 56.8192H750.526L747.324 67.5889H744.143C743.249 63.5139 742.75 61.3516 742.501 59.9378H742.48C742.314 61.2892 741.731 63.7218 740.775 67.5889H737.573L734.517 56.8192ZM752.204 67.5889V56.8192H755.198V67.5889H752.204ZM755.198 55.0728H752.204V52.4115H755.198V55.0728ZM756.829 59.0646V56.8192H758.492V53.9085H761.466V56.8192H763.586V59.0646H761.466V64.3871C761.466 65.1979 761.715 65.5098 762.609 65.5098C762.775 65.5098 763.066 65.5098 763.274 65.489V67.5265C762.692 67.7344 761.881 67.7344 761.278 67.7344C759.179 67.7344 758.492 66.6117 758.492 64.7197V59.0646H756.829ZM765.28 52.4115H768.273V58.1082C768.731 57.4013 769.604 56.5697 771.35 56.5697C773.346 56.5697 774.947 57.7756 774.947 60.6863V67.5889H771.995V61.1229C771.995 59.7299 771.496 58.9814 770.249 58.9814C768.585 58.9814 768.273 60.2289 768.273 61.8714V67.5889H765.28V52.4115ZM783.034 67.5889V53.264H788.959C792.015 53.264 794.074 54.9688 794.074 57.6924C794.074 60.811 791.724 62.2456 788.897 62.2456H786.131V67.5889H783.034ZM786.131 55.7173V59.7715H788.502C789.936 59.7715 790.955 59.2101 790.955 57.7548C790.955 56.2786 789.874 55.7173 788.564 55.7173H786.131ZM805.479 56.8192V64.4702C805.479 65.489 805.479 66.6325 805.5 67.5889H802.59C802.548 67.2978 802.527 66.7157 802.506 66.3414C801.862 67.4225 800.926 67.8384 799.533 67.8384C797.35 67.8384 795.957 66.5077 795.957 63.8465V56.8192H798.93V63.2436C798.93 64.4287 799.305 65.4058 800.594 65.4058C801.945 65.4058 802.506 64.6781 802.506 62.5575V56.8192H805.479ZM808.161 67.5889V59.7507C808.161 58.6696 808.161 57.734 808.14 56.8192H811.071C811.113 57.0687 811.155 58.129 811.155 58.7112C811.633 57.4845 812.776 56.5905 814.606 56.5697V59.4181C812.444 59.3557 811.155 59.9378 811.155 62.8901V67.5889H808.161ZM819.154 71.7055H816.181V59.4181C816.181 58.5448 816.181 57.6924 816.16 56.8192H819.05C819.091 57.1103 819.154 57.7756 819.154 58.1706C819.611 57.3806 820.567 56.5697 822.272 56.5697C824.705 56.5697 826.555 58.6072 826.555 61.9338C826.555 65.7385 824.476 67.8384 821.877 67.8384C820.36 67.8384 819.57 67.2562 819.154 66.6325V71.7055ZM823.541 62.0585C823.541 60.0834 822.751 58.9607 821.316 58.9607C819.632 58.9607 819.029 60.0626 819.029 62.2248C819.029 64.2831 819.59 65.4682 821.191 65.4682C822.771 65.4682 823.541 64.2415 823.541 62.0585ZM833.531 56.5697C836.691 56.5697 838.749 58.8151 838.749 62.1832C838.749 65.4474 836.795 67.8384 833.385 67.8384C830.059 67.8384 828.104 65.4474 828.104 62.2456C828.104 58.9191 830.121 56.5697 833.531 56.5697ZM833.406 58.9191C832.034 58.9191 831.119 59.9378 831.119 62.204C831.119 64.2831 832.013 65.5098 833.448 65.5098C834.924 65.5098 835.735 64.2831 835.735 62.2248C835.735 59.9794 834.903 58.9191 833.406 58.9191ZM840.142 64.3455H843.074C843.302 65.2187 844.009 65.6969 845.111 65.6969C846.213 65.6969 846.608 65.3019 846.608 64.6366C846.608 63.9505 846.151 63.6802 844.612 63.3059C841.098 62.4327 840.537 61.3516 840.537 59.8339C840.537 58.2538 841.639 56.5697 844.882 56.5697C848.147 56.5697 849.269 58.3577 849.352 59.8131H846.525C846.421 59.4181 846.151 58.6696 844.758 58.6696C843.78 58.6696 843.448 59.1062 843.448 59.5844C843.448 60.1249 843.78 60.3744 845.527 60.7903C849.124 61.6219 849.643 62.8486 849.643 64.4287C849.643 66.2167 848.271 67.8384 845.007 67.8384C841.722 67.8384 840.392 66.2583 840.142 64.3455ZM861.152 62.8486H854.041C854.041 64.2 854.728 65.5098 856.204 65.5098C857.451 65.5098 857.805 65.0108 858.096 64.3663H861.069C860.694 65.6761 859.509 67.8384 856.141 67.8384C852.586 67.8384 851.048 65.1979 851.048 62.3704C851.048 58.9814 852.773 56.5697 856.245 56.5697C859.925 56.5697 861.193 59.2517 861.193 61.9338C861.193 62.308 861.193 62.5367 861.152 62.8486ZM854.104 61.019H858.2C858.179 59.7715 857.68 58.7112 856.224 58.7112C854.811 58.7112 854.229 59.6883 854.104 61.019Z" fill="white"/>
<path d="M761.51 167.691C761.822 167.379 761.822 166.873 761.51 166.561L756.421 161.472C756.108 161.159 755.602 161.159 755.29 161.472C754.978 161.784 754.978 162.29 755.29 162.602L759.813 167.126L755.29 171.649C754.978 171.962 754.978 172.468 755.29 172.78C755.602 173.093 756.108 173.093 756.421 172.78L761.51 167.691ZM740.953 167.126V167.926H760.944V167.126V166.326H740.953V167.126Z" fill="white"/>
<path opacity="0.4" fill-rule="evenodd" clip-rule="evenodd" d="M836.111 179.216V131.047C844.762 131.047 854.648 127.342 864.535 117.461C872.444 109.556 873.597 97.6992 873.185 92.7588H920.147C920.147 101.404 923.113 109.803 930.033 118.696C936.954 127.589 951.866 130.635 958.457 131.047V179.216C949.806 179.216 939.92 182.921 930.033 192.802C922.124 200.707 920.971 212.564 921.382 217.504H874.421C874.421 208.858 871.455 200.46 864.535 191.567C857.614 182.674 842.702 179.628 836.111 179.216Z" stroke="#FFF9E8" stroke-width="0.399824"/>
<rect x="954.698" width="222.302" height="192.715" rx="3.19859" fill="url(#paint4_linear_1222_337)"/>
<path d="M986.42 42.5889V37.204C986.42 34.7715 986.461 32.0271 986.524 30.4054H986.42C985.754 33.3369 984.32 38.098 982.948 42.5889H980.307C979.247 38.6594 977.771 33.233 977.147 30.3638H977.043C977.168 32.0479 977.23 35.0002 977.23 37.4535V42.5889H974.403V28.264H979.018C980.141 32.0063 981.388 36.7051 981.825 38.8257H981.846C982.199 36.9545 983.758 31.9232 984.964 28.264H989.414V42.5889H986.42ZM1001 35.2913V39.8029C1001 40.8424 1001.08 42.3394 1001.14 42.5889H998.295C998.212 42.381 998.15 41.7988 998.15 41.5285C997.755 42.1315 997.027 42.8384 995.114 42.8384C992.515 42.8384 991.434 41.1335 991.434 39.4702C991.434 37.0169 993.389 35.8734 996.549 35.8734H998.087V35.2289C998.087 34.4596 997.817 33.7112 996.424 33.7112C995.177 33.7112 994.886 34.2309 994.761 35.021H991.933C992.079 33.1082 993.264 31.5697 996.549 31.5697C999.418 31.5905 1001 32.7132 1001 35.2913ZM998.087 37.9733V37.6822H996.881C995.073 37.6822 994.407 38.2436 994.407 39.2831C994.407 40.0524 994.886 40.7177 995.967 40.7177C997.859 40.7177 998.087 39.3871 998.087 37.9733ZM1003.67 42.5889V34.7507C1003.67 33.6696 1003.67 32.734 1003.65 31.8192H1006.58C1006.62 32.0687 1006.67 33.129 1006.67 33.7112C1007.14 32.4845 1008.29 31.5905 1010.12 31.5697V34.4181C1007.95 34.3557 1006.67 34.9378 1006.67 37.8901V42.5889H1003.67ZM1014.77 27.4115V36.3724C1015.56 35.2913 1016.97 33.628 1018.47 31.8192H1021.88L1018.13 35.8942L1022.23 42.5889H1018.86L1016.14 37.807L1014.77 39.1376V42.5889H1011.77V27.4115H1014.77ZM1032.56 37.8486H1025.45C1025.45 39.2 1026.14 40.5098 1027.61 40.5098C1028.86 40.5098 1029.22 40.0108 1029.51 39.3663H1032.48C1032.11 40.6761 1030.92 42.8384 1027.55 42.8384C1024 42.8384 1022.46 40.1979 1022.46 37.3704C1022.46 33.9814 1024.18 31.5697 1027.66 31.5697C1031.34 31.5697 1032.6 34.2517 1032.6 36.9338C1032.6 37.308 1032.6 37.5367 1032.56 37.8486ZM1025.51 36.019H1029.61C1029.59 34.7715 1029.09 33.7112 1027.64 33.7112C1026.22 33.7112 1025.64 34.6883 1025.51 36.019ZM1033.57 34.0646V31.8192H1035.24V28.9085H1038.21V31.8192H1040.33V34.0646H1038.21V39.3871C1038.21 40.1979 1038.46 40.5098 1039.35 40.5098C1039.52 40.5098 1039.81 40.5098 1040.02 40.489V42.5265C1039.44 42.7344 1038.63 42.7344 1038.02 42.7344C1035.92 42.7344 1035.24 41.6117 1035.24 39.7197V34.0646H1033.57ZM1041.98 42.5889V31.8192H1044.98V42.5889H1041.98ZM1044.98 30.0728H1041.98V27.4115H1044.98V30.0728ZM1047.67 42.5889V34.5428C1047.67 33.628 1047.67 32.63 1047.65 31.8192H1050.54C1050.6 32.1103 1050.64 32.8587 1050.66 33.1914C1051.02 32.5261 1051.89 31.5697 1053.78 31.5697C1055.94 31.5697 1057.34 33.0459 1057.34 35.7487V42.5889H1054.36V36.0813C1054.36 34.8547 1053.97 33.9814 1052.64 33.9814C1051.37 33.9814 1050.66 34.6883 1050.66 36.6011V42.5889H1047.67ZM1069.77 34.917V41.279C1069.77 44.7303 1068.5 46.9134 1064.42 46.9134C1060.49 46.9134 1059.72 44.7303 1059.62 43.5037H1062.66C1062.86 44.2521 1063.4 44.7511 1064.55 44.7511C1066.48 44.7511 1066.86 43.566 1066.86 41.4662V40.9464C1066.29 41.882 1065.4 42.4641 1063.82 42.4641C1060.99 42.4641 1059.37 40.1355 1059.37 37.2456C1059.37 33.8775 1061.39 31.5697 1064.07 31.5697C1065.92 31.5697 1066.69 32.4429 1066.86 32.9419C1066.88 32.6508 1066.96 32.0063 1066.98 31.8192H1069.79C1069.79 32.7964 1069.77 33.8775 1069.77 34.917ZM1062.43 37.1209C1062.43 38.9713 1063.36 40.0524 1064.67 40.0524C1066.46 40.0524 1066.94 38.8257 1066.94 37.0169C1066.94 35.2081 1066.63 33.9607 1064.73 33.9607C1063.45 33.9607 1062.43 34.9586 1062.43 37.1209ZM1077.43 42.5889V31.8192H1080.43V42.5889H1077.43ZM1080.43 30.0728H1077.43V27.4115H1080.43V30.0728ZM1083.12 42.5889V34.5428C1083.12 33.628 1083.12 32.63 1083.1 31.8192H1085.99C1086.05 32.1103 1086.09 32.8587 1086.11 33.1914C1086.47 32.5261 1087.34 31.5697 1089.23 31.5697C1091.39 31.5697 1092.79 33.0459 1092.79 35.7487V42.5889H1089.81V36.0813C1089.81 34.8547 1089.42 33.9814 1088.09 33.9814C1086.82 33.9814 1086.11 34.6883 1086.11 36.6011V42.5889H1083.12ZM1099.42 34.0646V31.8192H1101.08V28.9085H1104.06V31.8192H1106.18V34.0646H1104.06V39.3871C1104.06 40.1979 1104.31 40.5098 1105.2 40.5098C1105.37 40.5098 1105.66 40.5098 1105.86 40.489V42.5265C1105.28 42.7344 1104.47 42.7344 1103.87 42.7344C1101.77 42.7344 1101.08 41.6117 1101.08 39.7197V34.0646H1099.42ZM1107.87 27.4115H1110.86V33.1082C1111.32 32.4013 1112.19 31.5697 1113.94 31.5697C1115.94 31.5697 1117.54 32.7756 1117.54 35.6863V42.5889H1114.59V36.1229C1114.59 34.7299 1114.09 33.9814 1112.84 33.9814C1111.18 33.9814 1110.86 35.2289 1110.86 36.8714V42.5889H1107.87V27.4115ZM1129.69 37.8486H1122.58C1122.58 39.2 1123.27 40.5098 1124.75 40.5098C1125.99 40.5098 1126.35 40.0108 1126.64 39.3663H1129.61C1129.24 40.6761 1128.05 42.8384 1124.68 42.8384C1121.13 42.8384 1119.59 40.1979 1119.59 37.3704C1119.59 33.9814 1121.32 31.5697 1124.79 31.5697C1128.47 31.5697 1129.74 34.2517 1129.74 36.9338C1129.74 37.308 1129.74 37.5367 1129.69 37.8486ZM1122.65 36.019H1126.74C1126.72 34.7715 1126.22 33.7112 1124.77 33.7112C1123.35 33.7112 1122.77 34.6883 1122.65 36.019ZM982.324 64.2831H977.085L975.983 67.5889H972.926L977.792 53.264H981.679L986.773 67.5889H983.509L982.324 64.2831ZM977.75 61.7466H981.659C980.64 58.7112 979.995 56.7776 979.642 55.4886H979.621C979.268 56.9024 978.561 59.1478 977.75 61.7466ZM998.135 59.917V66.279C998.135 69.7303 996.867 71.9134 992.792 71.9134C988.862 71.9134 988.093 69.7303 987.989 68.5037H991.024C991.232 69.2521 991.773 69.7511 992.916 69.7511C994.85 69.7511 995.224 68.566 995.224 66.4662V65.9464C994.663 66.882 993.769 67.4641 992.189 67.4641C989.361 67.4641 987.739 65.1355 987.739 62.2456C987.739 58.8775 989.756 56.5697 992.438 56.5697C994.289 56.5697 995.058 57.4429 995.224 57.9419C995.245 57.6508 995.328 57.0063 995.349 56.8192H998.156C998.156 57.7964 998.135 58.8775 998.135 59.917ZM990.796 62.1209C990.796 63.9713 991.731 65.0524 993.041 65.0524C994.829 65.0524 995.307 63.8257 995.307 62.0169C995.307 60.2081 994.995 58.9607 993.103 58.9607C991.814 58.9607 990.796 59.9586 990.796 62.1209ZM1010.33 62.8486H1003.22C1003.22 64.2 1003.91 65.5098 1005.38 65.5098C1006.63 65.5098 1006.98 65.0108 1007.27 64.3663H1010.25C1009.87 65.6761 1008.69 67.8384 1005.32 67.8384C1001.76 67.8384 1000.23 65.1979 1000.23 62.3704C1000.23 58.9814 1001.95 56.5697 1005.42 56.5697C1009.1 56.5697 1010.37 59.2517 1010.37 61.9338C1010.37 62.308 1010.37 62.5367 1010.33 62.8486ZM1003.28 61.019H1007.38C1007.36 59.7715 1006.86 58.7112 1005.4 58.7112C1003.99 58.7112 1003.41 59.6883 1003.28 61.019ZM1022.22 56.5697C1025.38 56.5697 1027.44 58.8151 1027.44 62.1832C1027.44 65.4474 1025.48 67.8384 1022.07 67.8384C1018.75 67.8384 1016.79 65.4474 1016.79 62.2456C1016.79 58.9191 1018.81 56.5697 1022.22 56.5697ZM1022.1 58.9191C1020.72 58.9191 1019.81 59.9378 1019.81 62.204C1019.81 64.2831 1020.7 65.5098 1022.14 65.5098C1023.61 65.5098 1024.42 64.2831 1024.42 62.2248C1024.42 59.9794 1023.59 58.9191 1022.1 58.9191ZM1032.93 67.5889H1029.95V59.0646H1028.37V56.8192H1029.95V55.8836C1029.95 53.659 1031.06 52.2036 1033.38 52.2036C1033.86 52.2036 1034.49 52.2452 1034.76 52.3284V54.6777C1034.59 54.6569 1034.36 54.6362 1034.13 54.6362C1033.26 54.6362 1032.93 54.948 1032.93 56.1123V56.8192H1034.8V59.0646H1032.93V67.5889ZM1041.79 67.5889V53.264H1047.49C1051.65 53.264 1054.39 56.0084 1054.39 60.2497C1054.39 64.4287 1051.73 67.5889 1047.34 67.5889H1041.79ZM1044.89 55.7589V65.094H1047.22C1049.96 65.094 1051.19 63.0357 1051.19 60.2497C1051.19 57.9003 1050.04 55.7589 1047.24 55.7589H1044.89ZM1056.72 67.5889V56.8192H1059.72V67.5889H1056.72ZM1059.72 55.0728H1056.72V52.4115H1059.72V55.0728ZM1072.18 59.917V66.279C1072.18 69.7303 1070.91 71.9134 1066.84 71.9134C1062.91 71.9134 1062.14 69.7303 1062.04 68.5037H1065.07C1065.28 69.2521 1065.82 69.7511 1066.96 69.7511C1068.9 69.7511 1069.27 68.566 1069.27 66.4662V65.9464C1068.71 66.882 1067.82 67.4641 1066.24 67.4641C1063.41 67.4641 1061.79 65.1355 1061.79 62.2456C1061.79 58.8775 1063.8 56.5697 1066.49 56.5697C1068.34 56.5697 1069.1 57.4429 1069.27 57.9419C1069.29 57.6508 1069.38 57.0063 1069.4 56.8192H1072.2C1072.2 57.7964 1072.18 58.8775 1072.18 59.917ZM1064.84 62.1209C1064.84 63.9713 1065.78 65.0524 1067.09 65.0524C1068.88 65.0524 1069.35 63.8257 1069.35 62.0169C1069.35 60.2081 1069.04 58.9607 1067.15 58.9607C1065.86 58.9607 1064.84 59.9586 1064.84 62.1209ZM1074.82 67.5889V56.8192H1077.81V67.5889H1074.82ZM1077.81 55.0728H1074.82V52.4115H1077.81V55.0728ZM1079.44 59.0646V56.8192H1081.1V53.9085H1084.08V56.8192H1086.2V59.0646H1084.08V64.3871C1084.08 65.1979 1084.33 65.5098 1085.22 65.5098C1085.39 65.5098 1085.68 65.5098 1085.89 65.489V67.5265C1085.3 67.7344 1084.49 67.7344 1083.89 67.7344C1081.79 67.7344 1081.1 66.6117 1081.1 64.7197V59.0646H1079.44ZM1096.85 60.2913V64.8029C1096.85 65.8424 1096.93 67.3394 1097 67.5889H1094.15C1094.07 67.381 1094 66.7988 1094 66.5285C1093.61 67.1315 1092.88 67.8384 1090.97 67.8384C1088.37 67.8384 1087.29 66.1335 1087.29 64.4702C1087.29 62.0169 1089.24 60.8734 1092.4 60.8734H1093.94V60.2289C1093.94 59.4596 1093.67 58.7112 1092.28 58.7112C1091.03 58.7112 1090.74 59.2309 1090.61 60.021H1087.79C1087.93 58.1082 1089.12 56.5697 1092.4 56.5697C1095.27 56.5905 1096.85 57.7132 1096.85 60.2913ZM1093.94 62.9733V62.6822H1092.73C1090.93 62.6822 1090.26 63.2436 1090.26 64.2831C1090.26 65.0524 1090.74 65.7177 1091.82 65.7177C1093.71 65.7177 1093.94 64.3871 1093.94 62.9733ZM1102.52 67.5889H1099.52V52.4115H1102.52V67.5889ZM977.272 92.5889V80.8004H972.906V78.264H984.715V80.8004H980.37V92.5889H977.272ZM985.053 92.5889V84.7507C985.053 83.6696 985.053 82.734 985.032 81.8192H987.964C988.006 82.0687 988.047 83.129 988.047 83.7112C988.525 82.4845 989.669 81.5905 991.498 81.5697V84.4181C989.336 84.3557 988.047 84.9378 988.047 87.8901V92.5889H985.053ZM1001.83 85.2913V89.8029C1001.83 90.8424 1001.91 92.3394 1001.98 92.5889H999.128C999.044 92.381 998.982 91.7988 998.982 91.5285C998.587 92.1315 997.859 92.8384 995.947 92.8384C993.348 92.8384 992.267 91.1335 992.267 89.4702C992.267 87.0169 994.221 85.8734 997.381 85.8734H998.92V85.2289C998.92 84.4596 998.649 83.7112 997.256 83.7112C996.009 83.7112 995.718 84.2309 995.593 85.021H992.766C992.911 83.1082 994.096 81.5697 997.381 81.5697C1000.25 81.5905 1001.83 82.7132 1001.83 85.2913ZM998.92 87.9733V87.6822H997.714C995.905 87.6822 995.24 88.2436 995.24 89.2831C995.24 90.0524 995.718 90.7177 996.799 90.7177C998.691 90.7177 998.92 89.3871 998.92 87.9733ZM1004.52 92.5889V84.5428C1004.52 83.628 1004.52 82.63 1004.5 81.8192H1007.39C1007.46 82.1103 1007.5 82.8587 1007.52 83.1914C1007.87 82.5261 1008.75 81.5697 1010.64 81.5697C1012.8 81.5697 1014.19 83.0459 1014.19 85.7487V92.5889H1011.22V86.0813C1011.22 84.8547 1010.82 83.9814 1009.49 83.9814C1008.23 83.9814 1007.52 84.6883 1007.52 86.6011V92.5889H1004.52ZM1015.92 89.3455H1018.85C1019.08 90.2187 1019.78 90.6969 1020.89 90.6969C1021.99 90.6969 1022.38 90.3019 1022.38 89.6366C1022.38 88.9505 1021.93 88.6802 1020.39 88.3059C1016.87 87.4327 1016.31 86.3516 1016.31 84.8339C1016.31 83.2538 1017.41 81.5697 1020.66 81.5697C1023.92 81.5697 1025.05 83.3577 1025.13 84.8131H1022.3C1022.2 84.4181 1021.93 83.6696 1020.53 83.6696C1019.56 83.6696 1019.22 84.1062 1019.22 84.5844C1019.22 85.1249 1019.56 85.3744 1021.3 85.7903C1024.9 86.6219 1025.42 87.8486 1025.42 89.4287C1025.42 91.2167 1024.05 92.8384 1020.78 92.8384C1017.5 92.8384 1016.17 91.2583 1015.92 89.3455ZM1030.82 92.5889H1027.84V84.0646H1026.26V81.8192H1027.84V80.8836C1027.84 78.659 1028.94 77.2036 1031.27 77.2036C1031.75 77.2036 1032.38 77.2452 1032.65 77.3284V79.6777C1032.48 79.6569 1032.25 79.6362 1032.02 79.6362C1031.15 79.6362 1030.82 79.948 1030.82 81.1123V81.8192H1032.69V84.0646H1030.82V92.5889ZM1038.87 81.5697C1042.03 81.5697 1044.09 83.8151 1044.09 87.1832C1044.09 90.4474 1042.13 92.8384 1038.72 92.8384C1035.4 92.8384 1033.44 90.4474 1033.44 87.2456C1033.44 83.9191 1035.46 81.5697 1038.87 81.5697ZM1038.74 83.9191C1037.37 83.9191 1036.46 84.9378 1036.46 87.204C1036.46 89.2831 1037.35 90.5098 1038.79 90.5098C1040.26 90.5098 1041.07 89.2831 1041.07 87.2248C1041.07 84.9794 1040.24 83.9191 1038.74 83.9191ZM1046.13 92.5889V84.7507C1046.13 83.6696 1046.13 82.734 1046.11 81.8192H1049.04C1049.08 82.0687 1049.12 83.129 1049.12 83.7112C1049.6 82.4845 1050.74 81.5905 1052.57 81.5697V84.4181C1050.41 84.3557 1049.12 84.9378 1049.12 87.8901V92.5889H1046.13ZM1054.15 92.5889V84.6052C1054.15 83.6696 1054.15 82.7548 1054.13 81.8192H1056.97C1057.02 82.0895 1057.08 82.6924 1057.1 83.1082C1057.64 82.3182 1058.51 81.5697 1060.09 81.5697C1061.63 81.5697 1062.48 82.3806 1062.86 83.2122C1063.5 82.339 1064.42 81.5697 1066.18 81.5697C1068.06 81.5697 1069.59 82.734 1069.59 85.52V92.5889H1066.68V85.8942C1066.68 84.917 1066.33 83.9607 1065.1 83.9607C1063.86 83.9607 1063.36 84.7923 1063.36 86.4348V92.5889H1060.43V85.9982C1060.43 84.8962 1060.15 83.9814 1058.89 83.9814C1057.68 83.9814 1057.1 84.7299 1057.1 86.5803V92.5889H1054.15ZM1081.08 85.2913V89.8029C1081.08 90.8424 1081.16 92.3394 1081.22 92.5889H1078.37C1078.29 92.381 1078.23 91.7988 1078.23 91.5285C1077.83 92.1315 1077.1 92.8384 1075.19 92.8384C1072.59 92.8384 1071.51 91.1335 1071.51 89.4702C1071.51 87.0169 1073.47 85.8734 1076.63 85.8734H1078.16V85.2289C1078.16 84.4596 1077.89 83.7112 1076.5 83.7112C1075.25 83.7112 1074.96 84.2309 1074.84 85.021H1072.01C1072.16 83.1082 1073.34 81.5697 1076.63 81.5697C1079.5 81.5905 1081.08 82.7132 1081.08 85.2913ZM1078.16 87.9733V87.6822H1076.96C1075.15 87.6822 1074.48 88.2436 1074.48 89.2831C1074.48 90.0524 1074.96 90.7177 1076.04 90.7177C1077.94 90.7177 1078.16 89.3871 1078.16 87.9733ZM1082.51 84.0646V81.8192H1084.17V78.9085H1087.14V81.8192H1089.26V84.0646H1087.14V89.3871C1087.14 90.1979 1087.39 90.5098 1088.29 90.5098C1088.45 90.5098 1088.74 90.5098 1088.95 90.489V92.5265C1088.37 92.7344 1087.56 92.7344 1086.96 92.7344C1084.86 92.7344 1084.17 91.6117 1084.17 89.7197V84.0646H1082.51ZM1090.92 92.5889V81.8192H1093.91V92.5889H1090.92ZM1093.91 80.0728H1090.92V77.4115H1093.91V80.0728ZM1101.38 81.5697C1104.54 81.5697 1106.6 83.8151 1106.6 87.1832C1106.6 90.4474 1104.65 92.8384 1101.24 92.8384C1097.91 92.8384 1095.96 90.4474 1095.96 87.2456C1095.96 83.9191 1097.97 81.5697 1101.38 81.5697ZM1101.26 83.9191C1099.89 83.9191 1098.97 84.9378 1098.97 87.204C1098.97 89.2831 1099.87 90.5098 1101.3 90.5098C1102.78 90.5098 1103.59 89.2831 1103.59 87.2248C1103.59 84.9794 1102.76 83.9191 1101.26 83.9191ZM1108.66 92.5889V84.5428C1108.66 83.628 1108.66 82.63 1108.64 81.8192H1111.53C1111.59 82.1103 1111.63 82.8587 1111.66 83.1914C1112.01 82.5261 1112.88 81.5697 1114.77 81.5697C1116.94 81.5697 1118.33 83.0459 1118.33 85.7487V92.5889H1115.36V86.0813C1115.36 84.8547 1114.96 83.9814 1113.63 83.9814C1112.36 83.9814 1111.66 84.6883 1111.66 86.6011V92.5889H1108.66Z" fill="white"/>
<path d="M1004.04 167.691C1004.35 167.379 1004.35 166.873 1004.04 166.561L998.953 161.472C998.641 161.159 998.134 161.159 997.822 161.472C997.51 161.784 997.51 162.29 997.822 162.602L1002.35 167.126L997.822 171.649C997.51 171.962 997.51 172.468 997.822 172.78C998.134 173.093 998.641 173.093 998.953 172.78L1004.04 167.691ZM983.485 167.126V167.926H1003.48V167.126V166.326H983.485V167.126Z" fill="white"/>
<path opacity="0.4" fill-rule="evenodd" clip-rule="evenodd" d="M1071.83 192.715C1068.33 162.844 1043.38 153.18 1031.34 152.082C1043.38 150.984 1068.33 140.222 1071.83 110.351H1176.88C1178.7 123.895 1189.57 152.082 1218.46 152.082C1189.57 152.082 1178.7 179.171 1176.88 192.715H1071.83Z" stroke="#FFF9E8" stroke-width="0.399824"/>
<defs>
<linearGradient id="paint0_linear_1222_337" x1="111.551" y1="0" x2="111.551" y2="192.715" gradientUnits="userSpaceOnUse">
<stop stop-color="#1F3A58"/>
<stop offset="1" stop-color="#437DBE"/>
</linearGradient>
<linearGradient id="paint1_linear_1222_337" x1="350.366" y1="0" x2="350.366" y2="192.715" gradientUnits="userSpaceOnUse">
<stop stop-color="#1F3A58"/>
<stop offset="1" stop-color="#437DBE"/>
</linearGradient>
<linearGradient id="paint2_linear_1222_337" x1="588.781" y1="0" x2="588.781" y2="192.715" gradientUnits="userSpaceOnUse">
<stop stop-color="#1F3A58"/>
<stop offset="1" stop-color="#437DBE"/>
</linearGradient>
<linearGradient id="paint3_linear_1222_337" x1="827.315" y1="0" x2="827.315" y2="192.715" gradientUnits="userSpaceOnUse">
<stop stop-color="#1F3A58"/>
<stop offset="1" stop-color="#437DBE"/>
</linearGradient>
<linearGradient id="paint4_linear_1222_337" x1="1065.85" y1="0" x2="1065.85" y2="192.715" gradientUnits="userSpaceOnUse">
<stop stop-color="#1F3A58"/>
<stop offset="1" stop-color="#437DBE"/>
</linearGradient>
</defs>
</svg>
