<svg width="177" height="30" viewBox="0 0 177 30" fill="none" xmlns="http://www.w3.org/2000/svg">
<path d="M3.44128 16.509C3.20783 15.5541 3.08757 14.5744 3.08757 13.5806C3.08757 12.1836 3.32102 10.8113 3.78084 9.50978C4.22652 8.24717 4.8738 7.07297 5.70502 6.01902C7.36746 3.91111 9.70547 2.38678 12.2946 1.72894L11.9091 0.21875C8.99098 0.961467 6.35585 2.67679 4.48119 5.05348C3.54386 6.24183 2.81522 7.56811 2.31295 8.98988C1.793 10.4612 1.53125 12.0067 1.53125 13.5806C1.53125 14.9882 1.74348 16.3781 2.16085 17.708L3.44128 16.509Z" fill="white"/>
<path d="M30.5323 13.3177L30.3272 13.1055L27.5859 15.7616L29.7754 17.9791L30.8825 16.8863L29.7966 15.7863L30.504 15.1002C31.0028 14.6157 31.0169 13.8164 30.5323 13.3141V13.3177Z" fill="white"/>
<path d="M29.7647 17.9674L28.9228 18.8162C28.9228 18.8162 28.9228 18.8162 28.9193 18.8127L27.8263 19.9197C29.0714 21.1469 28.9264 21.7659 28.6257 22.208C27.9254 23.2336 26.7864 23.17 26.7334 23.1664H26.7404L26.7334 23.2513V23.1664L23.2104 23.0709C19.9917 23.0709 19.5566 21.5183 19.5035 21.3768L19.21 20.2981L18.2903 20.9949C16.8826 22.063 15.3156 21.5961 14.8169 21.4016C14.3924 20.8569 13.9114 20.429 13.494 20.1142L14.7603 18.9612L15.641 19.8737C16.2388 20.4926 17.2257 20.5103 17.8411 19.9126L15.9099 17.9108L17.3459 16.6022C18.3752 15.6614 18.973 14.3387 18.9907 12.9452L19.0932 5.67367L22.6303 2.35974L22.2342 1.93887C21.8628 1.54275 21.2438 1.52507 20.8512 1.89289L2.42645 19.1593C1.10358 20.4007 0.350173 22.1337 0.350173 23.9445V27.1665C0.120262 27.8597 0 28.5918 0 29.331V29.3487H3.37085L9.67749 23.5944L10.5158 24.5104C10.7811 24.8004 10.7669 25.246 10.484 25.5184L6.51533 29.3487H8.75785L11.5239 26.6784C11.8493 26.3636 12.1004 25.9675 12.203 25.5254C12.3763 24.7686 12.1711 24.0082 11.6653 23.4564L10.8306 22.544L12.3197 21.1858C13.013 21.6598 14.1201 22.6218 14.3748 24.0648C14.5092 24.8216 14.3924 25.6492 14.0317 26.5193C13.6603 27.4141 13.0307 28.3619 12.1499 29.3487H14.1625C15.6304 27.3893 16.2176 25.5219 15.9063 23.7818C15.8709 23.5802 15.825 23.3892 15.7684 23.2018C16.5571 23.2761 17.5228 23.2018 18.4919 22.7031C19.026 23.4175 22.0502 25.1258 24.986 25.002L20.2322 29.3522H22.5384L24.1584 27.8703L25.6404 29.3522H27.844L25.3079 26.8199L27.7238 24.6094C28.4064 24.4397 29.2659 24.0365 29.9132 23.0886C30.4119 22.3565 30.5251 21.536 30.2422 20.7119C30.1643 20.4856 30.0547 20.2592 29.9167 20.0293L30.8753 19.0603L29.7682 17.9639L29.7647 17.9674ZM3.49111 20.2981L14.1342 10.3245V12.0363C14.1342 12.4819 13.9503 12.9169 13.6284 13.2282L2.10457 24.3725C2.03737 24.4361 1.9737 24.5033 1.91003 24.5705V23.948C1.91003 22.5652 2.48304 21.2424 3.49111 20.2981ZM1.57755 28.8818C1.6872 27.605 2.2602 26.3884 3.18692 25.4936L14.7108 14.3493C15.3333 13.7481 15.6906 12.9028 15.6906 12.0363V8.86382L17.5157 7.15203L17.4343 12.924C17.4202 13.8825 17.0064 14.8056 16.2954 15.4528L1.57401 28.8818H1.57755Z" fill="white"/>
<path d="M24.597 12.236C25.3009 12.236 26.6096 10.5312 26.6096 10.5312H22.2236C22.2236 10.5312 23.214 12.236 24.597 12.236Z" fill="white"/>
<path d="M20.7591 10.1028L22.8036 8.35563C22.8036 8.35563 23.0441 8.09037 23.8576 8.09037H26.6484L25.1664 6.5625H23.6313C23.0582 6.5625 22.4958 6.72165 22.0113 7.02935C21.1977 7.54572 20.2463 8.51478 20.7591 10.0992V10.1028Z" fill="white"/>
<path d="M10.8055 6.65616V3.47662C9.89997 3.54736 9.18548 4.36081 9.13596 5.25207C9.12889 5.37232 9.15719 5.47842 9.15719 5.58452C9.16426 6.45456 9.15365 7.3246 9.15365 8.19464C8.67968 8.64027 8.19863 9.08237 7.71405 9.52446C7.59733 9.63056 7.4806 9.7685 7.34973 9.86752C7.32851 9.88167 7.32497 9.90643 7.2896 9.89582V6.65616C6.32397 7.08057 5.70498 8.07439 5.64131 9.12127C5.59533 9.8746 5.68376 10.6704 5.6307 11.4272C5.51752 11.5298 5.41848 11.6465 5.30883 11.7526C4.88791 12.1558 4.32552 12.5767 3.95412 13.0082C3.91875 13.0506 3.85508 13.0471 3.8763 13.1355H7.28252C7.38156 13.1355 7.72113 12.9975 7.82016 12.948C8.27291 12.7111 8.65846 12.2195 8.73981 11.7066C8.74688 11.6677 8.78225 11.505 8.73627 11.505H5.92074C6.05162 11.3636 6.20371 11.2433 6.34166 11.1125C6.86515 10.6279 7.38156 10.1399 7.90505 9.65178C7.92981 9.64117 7.95811 9.64117 7.98994 9.63764C8.96618 9.55983 10.3916 9.8463 11.2511 9.40421C11.7393 9.1531 12.2026 8.63674 12.2981 8.085C12.2698 8.07439 12.238 8.10622 12.2309 8.10622H9.59225C9.97425 7.70657 10.3916 7.33875 10.809 6.978C11.4032 6.92495 12.0364 7.05581 12.6129 6.87544C13.0727 6.73043 13.522 6.38383 13.766 5.96649C13.8261 5.86039 13.9075 5.71185 13.9146 5.5916H12.3052C12.5811 5.31573 12.8641 5.04694 13.1612 4.79229C13.5573 4.87717 13.9393 5.01864 14.3355 5.10353C14.9616 5.23792 15.5699 4.98328 15.7503 4.33605C15.7609 4.29361 15.8069 4.08848 15.7786 4.0708C15.1561 4.06372 14.53 4.03189 13.911 4.09909L14.8024 3.25381C15.7397 3.176 16.7336 3.29271 17.671 3.23612C18.5729 3.18307 19.4395 2.47572 19.6234 1.588H16.295L14.4204 3.31393V0H14.3213C14.2966 0.028294 14.2683 0.028294 14.2435 0H14.2046C14.2152 0.0459777 14.1834 0.042441 14.1516 0.0530512C13.3097 0.353675 12.7792 0.983216 12.7721 1.89216C12.7615 2.88245 12.7792 3.87274 12.7686 4.86303C12.1036 5.44305 11.4775 6.07613 10.809 6.65262L10.8055 6.65616Z" fill="white"/>
<path d="M47.4501 17.4355C46.7357 17.4355 46.0214 17.3354 45.307 17.1352C44.5927 16.9349 43.9318 16.6145 43.3309 16.1739C42.7301 15.7333 42.2227 15.1592 41.8221 14.4516C41.4215 13.744 41.1745 12.8896 41.0811 11.8949H43.9451C44.0786 12.6559 44.339 13.2367 44.7195 13.6506C45.1001 14.0578 45.5407 14.3448 46.0481 14.5117C46.5555 14.6786 47.0428 14.7587 47.5235 14.7587C48.0776 14.7587 48.565 14.6719 48.9856 14.4917C49.4062 14.3114 49.7467 14.0644 49.9937 13.7574C50.2407 13.4436 50.3609 13.0965 50.3609 12.7093C50.3609 12.2754 50.2407 11.8882 50.0003 11.5478C49.76 11.2073 49.2326 10.9604 48.4114 10.8135L45.8879 10.3462C44.5593 10.0925 43.5312 9.56518 42.8035 8.7708C42.0758 7.97642 41.7086 7.0285 41.7086 5.9404C41.7086 4.95911 41.9556 4.118 42.4497 3.42375C42.9437 2.72951 43.6046 2.20215 44.4391 1.82832C45.2737 1.45449 46.195 1.26758 47.2097 1.26758C48.2245 1.26758 49.2192 1.44782 50.0604 1.80162C50.9016 2.16209 51.5893 2.71615 52.1167 3.46381C52.6441 4.21813 52.9645 5.18608 53.0647 6.38098H50.1606C50.0538 5.71344 49.8535 5.19943 49.5597 4.8523C49.2593 4.50518 48.9121 4.25819 48.5116 4.12468C48.111 3.99117 47.7038 3.92441 47.3032 3.92441C46.9293 3.92441 46.5288 3.98449 46.1082 4.10465C45.6809 4.22481 45.3271 4.42507 45.0333 4.70544C44.7396 4.98581 44.5994 5.38634 44.5994 5.887C44.5994 6.30088 44.7529 6.67471 45.06 7.0018C45.3671 7.3289 45.8879 7.56254 46.6356 7.69605L48.9589 8.12328C50.2874 8.3636 51.3356 8.8242 52.11 9.51845C52.8844 10.2127 53.2716 11.2407 53.2716 12.6159C53.2716 13.3902 53.1047 14.0778 52.7709 14.6719C52.4371 15.266 51.9898 15.7734 51.429 16.1806C50.8682 16.5878 50.2474 16.9015 49.5664 17.1218C48.8788 17.3354 48.1778 17.4489 47.4634 17.4489L47.4501 17.4355Z" fill="white"/>
<path d="M58.2053 17.168V4.05067H53.6455V1.52734H65.8695V4.05067H61.3297V17.168H58.1986H58.2053Z" fill="white"/>
<path d="M67.3651 17.1688V1.52148H74.0011C75.2696 1.52148 76.3111 1.7351 77.1456 2.15565C77.9734 2.58288 78.5876 3.16365 79.0015 3.89795C79.4088 4.63892 79.6158 5.46668 79.6158 6.3879C79.6158 7.10217 79.4622 7.76304 79.1484 8.36383C78.8346 8.96462 78.4207 9.48531 77.8933 9.91922C78.4608 10.3064 78.8947 10.8071 79.2018 11.4145C79.5089 12.0287 79.6758 12.7229 79.7025 13.5173L79.8828 17.1621H76.8185L76.5714 13.5173C76.5447 12.9966 76.4379 12.5694 76.271 12.2289C76.0974 11.8952 75.8371 11.6415 75.4766 11.4813C75.116 11.3144 74.6354 11.2343 74.0212 11.2343H70.4895V17.1554H67.3584L67.3651 17.1688ZM70.4962 8.71763H73.8075C74.7288 8.71763 75.4031 8.51069 75.817 8.09014C76.231 7.67626 76.4446 7.10884 76.4446 6.39457C76.4446 5.68029 76.2376 5.09286 75.817 4.68565C75.4031 4.27845 74.7288 4.07151 73.8075 4.07151H70.4962V8.71763Z" fill="white"/>
<path d="M80.6641 17.1688L86.3655 1.52148H89.9172L95.6386 17.1688H92.3272L87.5004 3.22372H88.7755L83.9487 17.1688H80.6641ZM83.3011 13.6575L84.129 11.2209H92.1737L93.0015 13.6575H83.3011Z" fill="white"/>
<path d="M98.7688 17.168V4.05067H94.209V1.52734H106.433V4.05067H101.893V17.168H98.7621H98.7688Z" fill="white"/>
<path d="M107.936 17.1688V1.52148H118.284V4.04481H111.067V8.00336H117.616V10.4399H111.067V14.6388H118.284V17.1621H107.936V17.1688Z" fill="white"/>
<path d="M118.978 17.1688L124.679 1.52148H128.231L133.952 17.1688H130.641L125.814 3.22372H127.089L122.262 17.1688H118.978ZM121.615 13.6575L122.442 11.2209H130.487L131.315 13.6575H121.615Z" fill="white"/>
<path d="M140.528 17.4358C139.367 17.4358 138.319 17.2021 137.377 16.7415C136.436 16.2809 135.688 15.58 135.127 14.6388C134.567 13.6975 134.286 12.5226 134.286 11.1074V1.52148H137.417V11.1342C137.417 12.269 137.698 13.1168 138.258 13.6908C138.819 14.2649 139.594 14.552 140.595 14.552C141.596 14.552 142.371 14.2649 142.932 13.6908C143.492 13.1168 143.766 12.2623 143.766 11.1342V1.52148H146.897V11.1074C146.897 12.5226 146.61 13.6975 146.036 14.6388C145.462 15.58 144.694 16.2809 143.726 16.7415C142.758 17.2021 141.69 17.4358 140.528 17.4358Z" fill="white"/>
<path d="M148.726 17.1688V1.52148H155.362C156.631 1.52148 157.672 1.7351 158.507 2.15565C159.335 2.58288 159.949 3.16365 160.363 3.89795C160.77 4.63892 160.977 5.46668 160.977 6.3879C160.977 7.10217 160.824 7.76304 160.51 8.36383C160.196 8.96462 159.782 9.48531 159.255 9.91922C159.822 10.3064 160.256 10.8071 160.563 11.4145C160.87 12.0287 161.037 12.7229 161.064 13.5173L161.244 17.1621H158.18L157.933 13.5173C157.906 12.9966 157.799 12.5694 157.632 12.2289C157.459 11.8952 157.198 11.6415 156.838 11.4813C156.477 11.3144 155.997 11.2343 155.383 11.2343H151.851V17.1554H148.72L148.726 17.1688ZM151.858 8.71763H155.169C156.09 8.71763 156.764 8.51069 157.178 8.09014C157.592 7.67626 157.806 7.10884 157.806 6.39457C157.806 5.68029 157.599 5.09286 157.178 4.68565C156.764 4.27845 156.09 4.07151 155.169 4.07151H151.858V8.71763Z" fill="white"/>
<path d="M162.025 17.1688L167.727 1.52148H171.278L177 17.1688H173.689L168.862 3.22372H170.137L165.31 17.1688H162.025ZM164.662 13.6575L165.49 11.2209H173.535L174.363 13.6575H164.662Z" fill="white"/>
<path d="M41.0811 27.9992V23.2129H42.7768C43.1573 23.2129 43.4644 23.273 43.7114 23.3998C43.9585 23.5266 44.1387 23.6935 44.2589 23.9138C44.3791 24.1274 44.4391 24.3811 44.4391 24.6548C44.4391 24.9085 44.3791 25.1488 44.2589 25.3624C44.1387 25.576 43.9585 25.7562 43.7114 25.8831C43.4644 26.0099 43.1507 26.0767 42.7701 26.0767H41.8288V27.9925H41.0811V27.9992ZM41.8355 25.4692H42.7367C43.0705 25.4692 43.3176 25.3958 43.4644 25.2489C43.6113 25.102 43.6847 24.9018 43.6847 24.6548C43.6847 24.4078 43.6113 24.1942 43.4644 24.0473C43.3176 23.9005 43.0772 23.827 42.7367 23.827H41.8355V25.4692Z" fill="white"/>
<path d="M45.1064 27.9992V23.2129H47.0559C47.4364 23.2129 47.7502 23.2797 47.9905 23.4065C48.2375 23.5333 48.4178 23.7069 48.538 23.9205C48.6581 24.1341 48.7182 24.3811 48.7182 24.6615C48.7182 24.8951 48.6648 25.1087 48.5647 25.3023C48.4645 25.4959 48.3177 25.6561 48.1241 25.7829C48.3243 25.8964 48.4712 26.05 48.5714 26.2502C48.6715 26.4505 48.7249 26.6708 48.7316 26.9311L48.785 27.9992H48.0573L47.9905 26.9645C47.9839 26.7642 47.9438 26.5974 47.8837 26.4705C47.8236 26.3437 47.7235 26.2502 47.59 26.1902C47.4564 26.1301 47.2762 26.1034 47.0425 26.1034H45.8608V27.9992H45.1064ZM45.8608 25.4959H47.0091C47.3363 25.4959 47.5766 25.4158 47.7302 25.2623C47.877 25.1087 47.9571 24.9085 47.9571 24.6615C47.9571 24.4011 47.8837 24.2009 47.7368 24.0473C47.59 23.9005 47.3429 23.827 47.0091 23.827H45.8675V25.4959H45.8608Z" fill="white"/>
<path d="M49.459 27.9992V23.2129H52.51V23.8204H50.2134V25.2756H52.303V25.8764H50.2134V27.3851H52.51V27.9925H49.459V27.9992Z" fill="white"/>
<path d="M54.7998 28.0779C54.5662 28.0779 54.3392 28.0445 54.1255 27.9844C53.9119 27.9243 53.7116 27.8242 53.5314 27.6907C53.3511 27.5572 53.2109 27.3903 53.0907 27.1834C52.9706 26.9764 52.9105 26.7361 52.8838 26.4491H53.5915C53.6248 26.6827 53.6983 26.8763 53.8184 27.0165C53.9386 27.1633 54.0855 27.2635 54.2591 27.3235C54.4326 27.3836 54.6129 27.417 54.8065 27.417C55.0001 27.417 55.1737 27.3903 55.3272 27.3302C55.4808 27.2701 55.6076 27.19 55.6944 27.0699C55.7812 26.9497 55.828 26.8095 55.828 26.636C55.828 26.4758 55.7812 26.3356 55.6944 26.2154C55.6076 26.0953 55.4274 26.0085 55.167 25.9618L54.2791 25.7949C53.9119 25.7281 53.6248 25.5746 53.4045 25.3409C53.1842 25.1073 53.0774 24.8336 53.0774 24.5132C53.0774 24.2194 53.1575 23.9658 53.3044 23.7588C53.4579 23.5519 53.6582 23.3917 53.9119 23.2782C54.1656 23.1647 54.4393 23.1113 54.7397 23.1113C55.0402 23.1113 55.3339 23.1647 55.5876 23.2782C55.8346 23.385 56.0416 23.5519 56.1951 23.7655C56.3554 23.9791 56.4488 24.2595 56.4822 24.5933H55.7545C55.7278 24.3863 55.6677 24.2261 55.5676 24.0993C55.4674 23.9725 55.354 23.8857 55.2138 23.8323C55.0736 23.7789 54.92 23.7522 54.7464 23.7522C54.5929 23.7522 54.4393 23.7789 54.2858 23.8256C54.1322 23.8723 54.0121 23.9524 53.9186 24.0592C53.8251 24.166 53.7784 24.3062 53.7784 24.4798C53.7784 24.64 53.8385 24.7802 53.9586 24.8937C54.0788 25.0072 54.2524 25.0873 54.4794 25.1273L55.3072 25.2809C55.7011 25.3543 56.0082 25.4945 56.2285 25.7148C56.4422 25.9284 56.549 26.2221 56.549 26.6026C56.549 26.8429 56.5022 27.0565 56.4021 27.2368C56.302 27.417 56.1684 27.5639 55.9949 27.6907C55.8213 27.8175 55.641 27.9043 55.4341 27.9644C55.2271 28.0245 55.0135 28.0578 54.7932 28.0578L54.7998 28.0779Z" fill="white"/>
<path d="M57.2236 27.9992V23.2129H60.2746V23.8204H57.978V25.2756H60.0677V25.8764H57.978V27.3851H60.2746V27.9925H57.2236V27.9992Z" fill="white"/>
<path d="M60.9492 27.9992V23.2129H61.7036L64.0736 26.7776V23.2129H64.828V27.9992H64.0736L61.7036 24.4412V27.9992H60.9492Z" fill="white"/>
<path d="M67.7722 28.0774C67.2982 28.0774 66.8909 27.9772 66.5438 27.7636C66.1966 27.5567 65.9296 27.2696 65.7493 26.8958C65.5624 26.522 65.4756 26.0948 65.4756 25.6075C65.4756 25.1201 65.5691 24.6862 65.7493 24.3124C65.9362 23.9386 66.2033 23.6515 66.5438 23.4446C66.8909 23.2377 67.2982 23.1309 67.7722 23.1309C68.3396 23.1309 68.8003 23.271 69.1541 23.5447C69.508 23.8184 69.7349 24.2056 69.8351 24.7063H69.0006C68.9405 24.4259 68.807 24.2123 68.6 24.0521C68.393 23.8919 68.1127 23.8118 67.7655 23.8118C67.4517 23.8118 67.178 23.8852 66.951 24.0254C66.724 24.1656 66.5438 24.3792 66.4236 24.6462C66.2967 24.9199 66.2367 25.2403 66.2367 25.6141C66.2367 25.988 66.2967 26.3084 66.4236 26.5754C66.5504 26.8424 66.724 27.0494 66.951 27.1962C67.178 27.3431 67.4517 27.4165 67.7655 27.4165C68.1127 27.4165 68.3864 27.3364 68.5933 27.1829C68.8003 27.0293 68.9338 26.809 69.0073 26.522H69.8418C69.7483 27.016 69.5213 27.4032 69.1608 27.6768C68.8003 27.9505 68.3396 28.0841 67.7788 28.0841L67.7722 28.0774Z" fill="white"/>
<path d="M70.4561 27.9992V23.2129H73.507V23.8204H71.2105V25.2756H73.3001V25.8764H71.2105V27.3851H73.507V27.9925H70.4561V27.9992Z" fill="white"/>
<path d="M76.2637 27.9992V23.2129H78.1196C78.4534 23.2129 78.7272 23.2663 78.9541 23.3731C79.1811 23.4799 79.348 23.6201 79.4615 23.807C79.575 23.9939 79.6351 24.2009 79.6351 24.4412C79.6351 24.6815 79.5817 24.8884 79.4749 25.0486C79.3681 25.2089 79.2345 25.3357 79.061 25.4225C78.8874 25.5092 78.7071 25.5627 78.5135 25.5894L78.6137 25.5159C78.8273 25.5159 79.0209 25.576 79.1878 25.6828C79.3614 25.7896 79.4949 25.9298 79.5951 26.11C79.6952 26.2903 79.7486 26.4839 79.7486 26.6975C79.7486 26.9445 79.6885 27.1648 79.5684 27.365C79.4482 27.5653 79.2679 27.7188 79.0409 27.8323C78.8073 27.9458 78.5269 28.0059 78.1864 28.0059H76.2703L76.2637 27.9992ZM77.0181 25.2556H78.0195C78.2865 25.2556 78.4935 25.1888 78.6404 25.062C78.7872 24.9352 78.8607 24.7616 78.8607 24.5346C78.8607 24.3077 78.7872 24.1408 78.647 24.0139C78.5068 23.8804 78.2932 23.8204 78.0061 23.8204H77.0181V25.2556ZM77.0181 27.3784H78.0863C78.3666 27.3784 78.587 27.3116 78.7472 27.1781C78.9007 27.0446 78.9809 26.8577 78.9809 26.6107C78.9809 26.3637 78.9007 26.1768 78.7405 26.0366C78.5803 25.8964 78.3533 25.823 78.0662 25.823H77.0181V27.3717V27.3784Z" fill="white"/>
<path d="M81.4984 27.9992V26.2502L79.8828 23.2129H80.7307L82.0058 25.7496H81.7655L83.0206 23.2129H83.8618L82.2462 26.2502V27.9992H81.4918H81.4984Z" fill="white"/>
<path d="M86.5791 27.9992V23.2129H88.1413C88.7021 23.2129 89.1628 23.313 89.5233 23.5066C89.8838 23.7002 90.1575 23.9806 90.3311 24.3344C90.5047 24.6948 90.5914 25.1154 90.5914 25.6094C90.5914 26.1034 90.5047 26.5106 90.3311 26.871C90.1575 27.2315 89.8905 27.5052 89.5233 27.6988C89.1628 27.8924 88.7021 27.9925 88.1413 27.9925H86.5791V27.9992ZM87.3335 27.3584H88.1146C88.5419 27.3584 88.8824 27.2849 89.1361 27.1447C89.3897 27.0046 89.5633 26.8043 89.6768 26.5439C89.7836 26.2836 89.8437 25.9699 89.8437 25.6094C89.8437 25.2489 89.7903 24.9285 89.6768 24.6681C89.57 24.4011 89.3897 24.2009 89.1361 24.0607C88.8824 23.9205 88.5486 23.8471 88.1146 23.8471H87.3335V27.3584Z" fill="white"/>
<path d="M91.2383 27.9992V23.2129H94.2893V23.8204H91.9927V25.2756H94.0823V25.8764H91.9927V27.3851H94.2893V27.9925H91.2383V27.9992Z" fill="white"/>
<path d="M96.5791 28.0779C96.3455 28.0779 96.1185 28.0445 95.9048 27.9844C95.6912 27.9243 95.4909 27.8242 95.3107 27.6907C95.1304 27.5572 94.9902 27.3903 94.87 27.1834C94.7499 26.9764 94.6898 26.7361 94.6631 26.4491H95.3708C95.4041 26.6827 95.4776 26.8763 95.5977 27.0165C95.7179 27.1633 95.8648 27.2635 96.0384 27.3235C96.2119 27.3836 96.3922 27.417 96.5858 27.417C96.7794 27.417 96.953 27.3903 97.1065 27.3302C97.2601 27.2701 97.3869 27.19 97.4737 27.0699C97.5605 26.9497 97.6073 26.8095 97.6073 26.636C97.6073 26.4758 97.5605 26.3356 97.4737 26.2154C97.3869 26.0953 97.2067 26.0085 96.9463 25.9618L96.0584 25.7949C95.6912 25.7281 95.4041 25.5746 95.1838 25.3409C94.9635 25.1073 94.8567 24.8336 94.8567 24.5132C94.8567 24.2194 94.9368 23.9658 95.0837 23.7588C95.2372 23.5519 95.4375 23.3917 95.6912 23.2782C95.9449 23.1647 96.2186 23.1113 96.519 23.1113C96.8195 23.1113 97.1132 23.1647 97.3669 23.2782C97.6139 23.385 97.8209 23.5519 97.9744 23.7655C98.1347 23.9791 98.2281 24.2595 98.2615 24.5933H97.5338C97.5071 24.3863 97.447 24.2261 97.3469 24.0993C97.2467 23.9725 97.1332 23.8857 96.9931 23.8323C96.8529 23.7789 96.6993 23.7522 96.5257 23.7522C96.3722 23.7522 96.2186 23.7789 96.0651 23.8256C95.9115 23.8723 95.7913 23.9524 95.6979 24.0592C95.6044 24.166 95.5577 24.3062 95.5577 24.4798C95.5577 24.64 95.6178 24.7802 95.7379 24.8937C95.8581 25.0072 96.0317 25.0873 96.2587 25.1273L97.0865 25.2809C97.4804 25.3543 97.7875 25.4945 98.0078 25.7148C98.2215 25.9284 98.3283 26.2221 98.3283 26.6026C98.3283 26.8429 98.2815 27.0565 98.1814 27.2368C98.0813 27.417 97.9477 27.5639 97.7742 27.6907C97.6006 27.8175 97.4203 27.9043 97.2134 27.9644C97.0064 28.0245 96.7928 28.0578 96.5725 28.0578L96.5791 28.0779Z" fill="white"/>
<path d="M99.043 27.9992V23.2129H99.7974V27.9992H99.043Z" fill="white"/>
<path d="M102.869 28.079C102.355 28.079 101.921 27.9789 101.56 27.7719C101.2 27.565 100.919 27.278 100.732 26.9108C100.539 26.5437 100.445 26.1231 100.445 25.6425C100.445 25.1618 100.539 24.7079 100.732 24.3274C100.926 23.9469 101.2 23.6532 101.547 23.4396C101.901 23.2259 102.321 23.1191 102.802 23.1191C103.356 23.1191 103.817 23.2526 104.184 23.513C104.551 23.7733 104.785 24.1472 104.885 24.6144H104.03C103.964 24.3675 103.823 24.1672 103.616 24.027C103.403 23.8801 103.136 23.8134 102.802 23.8134C102.468 23.8134 102.188 23.8868 101.947 24.0337C101.707 24.1805 101.527 24.3942 101.4 24.6612C101.273 24.9349 101.206 25.262 101.206 25.6425C101.206 26.023 101.273 26.3234 101.407 26.5837C101.54 26.8441 101.727 27.0443 101.981 27.1912C102.235 27.338 102.522 27.4048 102.869 27.4048C103.303 27.4048 103.643 27.278 103.897 27.031C104.151 26.784 104.277 26.4302 104.291 25.9762H102.889V25.3888H105.045V25.7025C105.045 26.2166 104.952 26.6505 104.771 27.0043C104.585 27.3581 104.331 27.6251 104.01 27.8053C103.69 27.9856 103.316 28.0723 102.889 28.0723L102.869 28.079Z" fill="white"/>
<path d="M105.652 27.9992V23.2129H106.407L108.777 26.7776V23.2129H109.531V27.9992H108.777L106.407 24.4412V27.9992H105.652Z" fill="white"/>
<path d="M110.239 28.0002V27.0723H111.207V28.0002H110.239Z" fill="white"/>
<path d="M113.998 27.9992V23.2129H115.694C116.074 23.2129 116.381 23.273 116.628 23.3998C116.875 23.5266 117.056 23.6935 117.176 23.9138C117.296 24.1274 117.356 24.3811 117.356 24.6548C117.356 24.9085 117.296 25.1488 117.176 25.3624C117.056 25.576 116.875 25.7562 116.628 25.8831C116.381 26.0099 116.067 26.0767 115.687 26.0767H114.746V27.9925H113.991L113.998 27.9992ZM114.746 25.4692H115.647C115.981 25.4692 116.228 25.3958 116.375 25.2489C116.521 25.102 116.595 24.9018 116.595 24.6548C116.595 24.4078 116.521 24.1942 116.375 24.0473C116.228 23.9005 115.987 23.827 115.647 23.827H114.746V25.4692Z" fill="white"/>
<path d="M120.126 28.0785C119.652 28.0785 119.238 27.9717 118.884 27.7648C118.53 27.5578 118.25 27.2641 118.049 26.897C117.849 26.5231 117.749 26.0959 117.749 25.6086C117.749 25.1213 117.849 24.6941 118.049 24.3202C118.25 23.9464 118.523 23.6594 118.884 23.4524C119.244 23.2455 119.658 23.1387 120.132 23.1387C120.606 23.1387 121.027 23.2455 121.381 23.4524C121.735 23.6594 122.015 23.9531 122.209 24.3202C122.409 24.6941 122.509 25.1213 122.509 25.6086C122.509 26.0959 122.409 26.5231 122.209 26.897C122.008 27.2708 121.735 27.5578 121.381 27.7648C121.027 27.9717 120.606 28.0785 120.132 28.0785H120.126ZM120.132 27.411C120.453 27.411 120.74 27.3375 120.98 27.1974C121.221 27.0505 121.408 26.8436 121.541 26.5765C121.675 26.3028 121.741 25.9824 121.741 25.6086C121.741 25.2348 121.675 24.9144 121.541 24.6473C121.408 24.3803 121.221 24.1734 120.98 24.0265C120.74 23.8863 120.46 23.8129 120.132 23.8129C119.805 23.8129 119.525 23.8863 119.285 24.0265C119.038 24.1667 118.851 24.3736 118.717 24.6473C118.584 24.9144 118.517 25.2348 118.517 25.6086C118.517 25.9824 118.584 26.3028 118.717 26.5765C118.851 26.8502 119.038 27.0572 119.285 27.1974C119.525 27.3375 119.812 27.411 120.132 27.411Z" fill="white"/>
<path d="M123.932 27.9992L122.644 23.2129H123.445L124.486 27.572H124.266L125.461 23.2129H126.289L127.457 27.5786H127.237L128.278 23.2129H129.086L127.771 27.9992H126.89L125.775 24.0006H125.942L124.8 27.9992H123.932Z" fill="white"/>
<path d="M129.706 27.9992V23.2129H132.757V23.8204H130.46V25.2756H132.55V25.8764H130.46V27.3851H132.757V27.9925H129.706V27.9992Z" fill="white"/>
<path d="M133.418 27.9992V23.2129H135.367C135.748 23.2129 136.062 23.2797 136.302 23.4065C136.549 23.5333 136.729 23.7069 136.849 23.9205C136.97 24.1341 137.03 24.3811 137.03 24.6615C137.03 24.8951 136.976 25.1087 136.876 25.3023C136.776 25.4959 136.629 25.6561 136.436 25.7829C136.636 25.8964 136.783 26.05 136.883 26.2502C136.983 26.4505 137.036 26.6708 137.043 26.9311L137.097 27.9992H136.369L136.302 26.9645C136.295 26.7642 136.255 26.5974 136.195 26.4705C136.135 26.3437 136.035 26.2502 135.901 26.1902C135.768 26.1301 135.588 26.1034 135.354 26.1034H134.172V27.9992H133.418ZM134.172 25.4959H135.321C135.648 25.4959 135.888 25.4158 136.042 25.2623C136.189 25.1087 136.269 24.9085 136.269 24.6615C136.269 24.4011 136.195 24.2009 136.048 24.0473C135.901 23.9005 135.654 23.827 135.321 23.827H134.179V25.4959H134.172Z" fill="white"/>
<path d="M139.895 27.9992V23.2129H141.75C142.084 23.2129 142.358 23.2663 142.585 23.3731C142.812 23.4799 142.979 23.6201 143.092 23.807C143.206 23.9939 143.266 24.2009 143.266 24.4412C143.266 24.6815 143.213 24.8884 143.106 25.0486C142.999 25.2089 142.865 25.3357 142.692 25.4225C142.518 25.5092 142.338 25.5627 142.144 25.5894L142.245 25.5159C142.458 25.5159 142.652 25.576 142.819 25.6828C142.992 25.7896 143.126 25.9298 143.226 26.11C143.326 26.2903 143.379 26.4839 143.379 26.6975C143.379 26.9445 143.319 27.1648 143.199 27.365C143.079 27.5653 142.899 27.7188 142.672 27.8323C142.438 27.9458 142.158 28.0059 141.817 28.0059H139.901L139.895 27.9992ZM140.649 25.2556H141.65C141.917 25.2556 142.124 25.1888 142.271 25.062C142.418 24.9352 142.492 24.7616 142.492 24.5346C142.492 24.3077 142.418 24.1408 142.278 24.0139C142.138 23.8804 141.924 23.8204 141.637 23.8204H140.649V25.2556ZM140.649 27.3784H141.717C141.998 27.3784 142.218 27.3116 142.378 27.1781C142.532 27.0446 142.612 26.8577 142.612 26.6107C142.612 26.3637 142.532 26.1768 142.371 26.0366C142.211 25.8964 141.984 25.823 141.697 25.823H140.649V27.3717V27.3784Z" fill="white"/>
<path d="M145.128 27.9992V26.2502L143.513 23.2129H144.361L145.636 25.7496H145.395L146.65 23.2129H147.492L145.876 26.2502V27.9992H145.122H145.128Z" fill="white"/>
<path d="M150.209 27.9992V23.2129H151.771C152.332 23.2129 152.793 23.313 153.153 23.5066C153.514 23.7002 153.787 23.9806 153.961 24.3344C154.135 24.6948 154.221 25.1154 154.221 25.6094C154.221 26.1034 154.135 26.5106 153.961 26.871C153.787 27.2315 153.52 27.5052 153.153 27.6988C152.793 27.8924 152.332 27.9925 151.771 27.9925H150.209V27.9992ZM150.963 27.3584H151.744C152.172 27.3584 152.512 27.2849 152.766 27.1447C153.02 27.0046 153.193 26.8043 153.307 26.5439C153.414 26.2836 153.474 25.9699 153.474 25.6094C153.474 25.2489 153.42 24.9285 153.307 24.6681C153.2 24.4011 153.02 24.2009 152.766 24.0607C152.512 23.9205 152.178 23.8471 151.744 23.8471H150.963V27.3584Z" fill="white"/>
<path d="M154.862 27.9992V23.2129H157.913V23.8204H155.617V25.2756H157.706V25.8764H155.617V27.3851H157.913V27.9925H154.862V27.9992Z" fill="white"/>
<path d="M158.581 27.9992V23.2129H161.605V23.8204H159.335V25.2956H161.218V25.8964H159.335V27.9925H158.581V27.9992Z" fill="white"/>
<path d="M161.397 27.9992L163.147 23.2129H163.981L165.73 27.9992H164.936L163.4 23.6468H163.721L162.185 27.9992H161.397ZM162.199 26.8443L162.412 26.2436H164.709L164.922 26.8443H162.199Z" fill="white"/>
<path d="M167.867 28.0785C167.527 28.0785 167.213 28.0117 166.939 27.8782C166.665 27.7447 166.445 27.5378 166.278 27.2574C166.111 26.977 166.031 26.6232 166.031 26.196V23.2188H166.786V26.2094C166.786 26.6166 166.886 26.9236 167.086 27.1172C167.286 27.3108 167.553 27.4109 167.881 27.4109C168.208 27.4109 168.488 27.3175 168.682 27.1172C168.875 26.9236 168.975 26.6232 168.975 26.2094V23.2188H169.73V26.196C169.73 26.6232 169.65 26.977 169.483 27.2574C169.316 27.5378 169.089 27.7447 168.809 27.8782C168.521 28.0117 168.214 28.0785 167.874 28.0785H167.867Z" fill="white"/>
<path d="M170.457 27.9992V23.2129H171.211V27.4051H173.381V27.9992H170.464H170.457Z" fill="white"/>
<path d="M174.523 27.9992V23.8204H173.107V23.2129H176.686V23.8204H175.277V27.9992H174.523Z" fill="white"/>
</svg>
