<svg width="120" height="80" viewBox="0 0 120 80" fill="none" xmlns="http://www.w3.org/2000/svg">
<g clip-path="url(#clip0_1141_8999)">
<path d="M39.78 27.5112C39.391 25.92 39.1906 24.2874 39.1906 22.6313C39.1906 20.3034 39.5796 18.0166 40.3459 15.8478C41.0885 13.7438 42.1672 11.7871 43.5523 10.0308C46.3226 6.51817 50.2187 3.97802 54.5332 2.88181L53.8907 0.365234C49.028 1.60289 44.6369 4.4613 41.5129 8.42181C39.951 10.4021 38.7368 12.6122 37.8998 14.9814C37.0333 17.4332 36.5972 20.0087 36.5972 22.6313C36.5972 24.977 36.9508 27.2932 37.6463 29.5092L39.78 27.5112Z" fill="white"/>
<path d="M84.9237 22.1954L84.5818 21.8418L80.0138 26.2679L83.6623 29.9632L85.5072 28.1421L83.6977 26.3092L84.8765 25.1658C85.7076 24.3584 85.7312 23.0264 84.9237 22.1895V22.1954Z" fill="white"/>
<path d="M83.6446 29.9452L82.2418 31.3596C82.2418 31.3596 82.2418 31.3596 82.2359 31.3537L80.4146 33.1984C82.4893 35.2435 82.2477 36.2749 81.7467 37.0116C80.5796 38.7208 78.6817 38.6147 78.5933 38.6088H78.6051L78.5933 38.7502V38.6088L72.7227 38.4496C67.3589 38.4496 66.6339 35.8624 66.5455 35.6266L66.0563 33.8291L64.5238 34.9901C62.1779 36.77 59.5668 35.992 58.7357 35.6679C58.0284 34.7602 57.2268 34.0471 56.5313 33.5226L58.6414 31.6013L60.1091 33.1218C61.1052 34.1532 62.7497 34.1827 63.7753 33.1866L60.557 29.8509L62.9501 27.6702C64.6653 26.1025 65.6614 23.8983 65.6909 21.5762L65.8618 9.45893L71.756 3.93661L71.0959 3.23527C70.477 2.57518 69.4455 2.54572 68.7912 3.15865L38.0883 31.9313C35.8839 34 34.6284 36.8878 34.6284 39.9054V45.2745C34.2453 46.4296 34.0449 47.6496 34.0449 48.8814V48.9108H39.6621L50.1715 39.3219L51.5684 40.8484C52.0104 41.3316 51.9869 42.0742 51.5153 42.528L44.902 48.9108H48.639L53.2482 44.4611C53.7905 43.9366 54.209 43.2765 54.3799 42.5398C54.6687 41.2786 54.3269 40.0115 53.484 39.0921L52.093 37.5715L54.5744 35.3083C55.7297 36.0981 57.5746 37.7012 57.9989 40.1058C58.2229 41.367 58.0284 42.7461 57.4272 44.1959C56.8083 45.687 55.7592 47.2665 54.2915 48.9108H57.6453C60.0914 45.6458 61.0698 42.5339 60.5511 39.6343C60.4922 39.2983 60.4156 38.9801 60.3213 38.6677C61.6357 38.7915 63.2448 38.6677 64.8598 37.8367C65.7498 39.0272 70.7894 41.8738 75.6815 41.6676L67.7597 48.9167H71.6028L74.3023 46.4473L76.772 48.9167H80.4441L76.2179 44.6969L80.2437 41.0134C81.3812 40.7305 82.8135 40.0586 83.8922 38.4791C84.7232 37.2591 84.9119 35.8918 84.4403 34.5186C84.3106 34.1414 84.1279 33.7642 83.8981 33.3811L85.4954 31.7663L83.6505 29.9393L83.6446 29.9452ZM39.8625 33.8291L57.5981 17.209V20.0616C57.5981 20.8042 57.2916 21.5291 56.7553 22.0477L37.552 40.6185C37.44 40.7246 37.3339 40.8366 37.2278 40.9485V39.9113C37.2278 37.6069 38.1826 35.4026 39.8625 33.8291ZM36.6737 48.1329C36.8565 46.0053 37.8113 43.9779 39.3556 42.4868L58.5589 23.916C59.5963 22.9141 60.1916 21.5055 60.1916 20.0616V14.775L63.233 11.9225L63.0974 21.5409C63.0739 23.138 62.3842 24.6763 61.1995 25.7548L36.6678 48.1329H36.6737Z" fill="white"/>
<path d="M75.0331 20.3915C76.2061 20.3915 78.3869 17.5508 78.3869 17.5508H71.0781C71.0781 17.5508 72.7285 20.3915 75.0331 20.3915Z" fill="white"/>
<path d="M68.638 16.838L72.0449 13.9265C72.0449 13.9265 72.4457 13.4845 73.8013 13.4845H78.4519L75.9822 10.9385H73.4241C72.4693 10.9385 71.5321 11.2037 70.7246 11.7164C69.3689 12.5769 67.7834 14.1918 68.638 16.8321V16.838Z" fill="white"/>
<path d="M52.0517 11.0918V5.79343C50.5428 5.9113 49.3522 7.26683 49.2697 8.75203C49.2579 8.95241 49.305 9.12922 49.305 9.30603C49.3168 10.7559 49.2991 12.2057 49.2991 13.6555C48.5093 14.3981 47.7077 15.1348 46.9002 15.8715C46.7057 16.0483 46.5112 16.2782 46.2931 16.4432C46.2577 16.4668 46.2518 16.508 46.1929 16.4903V11.0918C44.5838 11.799 43.5523 13.4551 43.4462 15.1996C43.3696 16.455 43.5169 17.7811 43.4285 19.0423C43.2399 19.2132 43.0748 19.4077 42.8921 19.5845C42.1907 20.2564 41.2535 20.9577 40.6347 21.6767C40.5757 21.7475 40.4696 21.7416 40.505 21.8889H46.1811C46.3461 21.8889 46.912 21.6591 47.077 21.5765C47.8315 21.1817 48.4739 20.3625 48.6095 19.5079C48.6213 19.4431 48.6802 19.1719 48.6036 19.1719H43.9118C44.1299 18.9362 44.3834 18.7358 44.6132 18.5178C45.4856 17.7103 46.3461 16.897 47.2185 16.0837C47.2597 16.066 47.3069 16.066 47.3599 16.0601C48.9867 15.9305 51.3621 16.4078 52.7944 15.6711C53.6078 15.2527 54.3799 14.3922 54.5391 13.4728C54.4919 13.4551 54.4389 13.5082 54.4271 13.5082H50.03C50.6666 12.8422 51.3621 12.2293 52.0576 11.6281C53.0478 11.5397 54.1029 11.7578 55.0636 11.4572C55.8299 11.2156 56.5785 10.638 56.9852 9.94254C57.0854 9.76573 57.2209 9.5182 57.2327 9.31781H54.5509C55.0106 8.85811 55.4821 8.4102 55.9773 7.98585C56.6374 8.1273 57.274 8.36305 57.9341 8.50449C58.9774 8.72845 59.9912 8.30411 60.2918 7.22558C60.3095 7.15485 60.3861 6.81302 60.339 6.78356C59.3016 6.77177 58.2583 6.71873 57.2268 6.83071L58.7122 5.42213C60.2741 5.29247 61.9304 5.48696 63.4924 5.39266C64.9954 5.30426 66.4395 4.12553 66.746 2.64623H61.1995L58.0756 5.52232V0H57.9105C57.8693 0.047149 57.8221 0.047149 57.7809 0H57.716C57.7337 0.0766171 57.6807 0.0707234 57.6276 0.0884043C56.2248 0.589362 55.3407 1.63843 55.3289 3.15309C55.3112 4.8033 55.3407 6.45351 55.323 8.10373C54.2149 9.07028 53.1716 10.1252 52.0576 11.0859L52.0517 11.0918Z" fill="white"/>
<path d="M5.62307 70.9706C4.99239 70.9706 4.36171 70.8822 3.73103 70.7054C3.10035 70.5286 2.51682 70.2457 1.98634 69.8567C1.45587 69.4678 1.00791 68.9609 0.654256 68.3362C0.300604 67.7115 0.0825188 66.9571 0 66.0789H2.52861C2.6465 66.7508 2.87637 67.2636 3.21234 67.629C3.54831 67.9885 3.93732 68.2419 4.38528 68.3892C4.83324 68.5366 5.26352 68.6073 5.6879 68.6073C6.17712 68.6073 6.6074 68.5307 6.97873 68.3716C7.35007 68.2124 7.65067 67.9944 7.86876 67.7233C8.08684 67.4463 8.19294 67.1398 8.19294 66.798C8.19294 66.4149 8.08684 66.073 7.87465 65.7725C7.66246 65.4719 7.19682 65.2538 6.47183 65.1242L4.24382 64.7116C3.07088 64.4877 2.16317 64.0221 1.5207 63.3207C0.878236 62.6194 0.554055 61.7825 0.554055 60.8218C0.554055 59.9555 0.77214 59.2129 1.20831 58.5999C1.64448 57.987 2.22801 57.5214 2.96478 57.1914C3.70156 56.8613 4.51496 56.6963 5.41087 56.6963C6.30679 56.6963 7.18503 56.8554 7.9277 57.1678C8.67037 57.486 9.27747 57.9752 9.74311 58.6353C10.2088 59.3013 10.4917 60.1558 10.5801 61.2108H8.01611C7.9218 60.6214 7.74498 60.1676 7.48563 59.8612C7.22039 59.5547 6.91389 59.3366 6.56024 59.2188C6.20659 59.1009 5.84704 59.042 5.49339 59.042C5.16332 59.042 4.80967 59.095 4.43833 59.2011C4.0611 59.3072 3.74871 59.484 3.48937 59.7315C3.23002 59.979 3.10624 60.3327 3.10624 60.7747C3.10624 61.1401 3.24181 61.4701 3.51294 61.7589C3.78408 62.0477 4.24382 62.254 4.90397 62.3718L6.95515 62.749C8.1281 62.9612 9.05349 63.3679 9.73722 63.9808C10.4209 64.5937 10.7628 65.5014 10.7628 66.7154C10.7628 67.3991 10.6155 68.0061 10.3207 68.5307C10.026 69.0552 9.63112 69.5031 9.13601 69.8626C8.64089 70.2222 8.09273 70.4991 7.49153 70.6936C6.88442 70.8822 6.26553 70.9824 5.63485 70.9824L5.62307 70.9706Z" fill="white"/>
<path d="M15.1186 70.7345V59.1536H11.0929V56.9258H21.8852V59.1536H17.8771V70.7345H15.1127H15.1186Z" fill="white"/>
<path d="M23.2055 70.7346V56.9199H29.0643C30.1842 56.9199 31.1037 57.1085 31.8405 57.4798C32.5714 57.857 33.1136 58.3698 33.4791 59.018C33.8386 59.6722 34.0213 60.4031 34.0213 61.2164C34.0213 61.847 33.8858 62.4305 33.6087 62.9609C33.3317 63.4913 32.9663 63.951 32.5006 64.3341C33.0016 64.6759 33.3848 65.1179 33.6559 65.6543C33.927 66.1965 34.0744 66.8094 34.098 67.5108L34.2571 70.7287H31.5517L31.3336 67.5108C31.31 67.0511 31.2157 66.6739 31.0683 66.3733C30.9151 66.0786 30.6852 65.8546 30.3669 65.7132C30.0486 65.5659 29.6243 65.4951 29.082 65.4951H25.964V70.7228H23.1996L23.2055 70.7346ZM25.9699 63.2732H28.8934C29.7068 63.2732 30.3021 63.0905 30.6675 62.7192C31.033 62.3538 31.2216 61.8529 31.2216 61.2223C31.2216 60.5916 31.0389 60.073 30.6675 59.7135C30.3021 59.354 29.7068 59.1713 28.8934 59.1713H25.9699V63.2732Z" fill="white"/>
<path d="M34.9467 70.7346L39.9803 56.9199H43.116L48.1673 70.7346H45.2438L40.9823 58.4228H42.1081L37.8466 70.7346H34.9467ZM37.2749 67.6345L38.0057 65.4834H45.1083L45.8391 67.6345H37.2749Z" fill="white"/>
<path d="M50.9317 70.7345V59.1536H46.906V56.9258H57.6983V59.1536H53.6902V70.7345H50.9258H50.9317Z" fill="white"/>
<path d="M59.0245 70.7346V56.9199H68.1605V59.1477H61.7889V62.6426H67.5711V64.7938H61.7889V68.5009H68.1605V70.7287H59.0245V70.7346Z" fill="white"/>
<path d="M68.7736 70.7346L73.8072 56.9199H76.9429L81.9942 70.7346H79.0707L74.8092 58.4228H75.935L71.6735 70.7346H68.7736ZM71.1018 67.6345L71.8327 65.4834H78.9352L79.666 67.6345H71.1018Z" fill="white"/>
<path d="M87.8 70.9703C86.7744 70.9703 85.849 70.764 85.018 70.3574C84.1869 69.9507 83.5267 69.3319 83.0316 68.5009C82.5365 67.6699 82.2889 66.6326 82.2889 65.3832V56.9199H85.0533V65.4067C85.0533 66.4087 85.3009 67.1571 85.796 67.664C86.2911 68.1708 86.9748 68.4243 87.859 68.4243C88.7431 68.4243 89.4268 68.1708 89.9219 67.664C90.417 67.1571 90.6587 66.4028 90.6587 65.4067V56.9199H93.4231V65.3832C93.4231 66.6326 93.1696 67.6699 92.6627 68.5009C92.1558 69.3319 91.478 69.9507 90.6233 70.3574C89.7687 70.764 88.8256 70.9703 87.8 70.9703Z" fill="white"/>
<path d="M95.0381 70.7346V56.9199H100.897C102.017 56.9199 102.936 57.1085 103.673 57.4798C104.404 57.857 104.946 58.3698 105.312 59.018C105.671 59.6722 105.854 60.4031 105.854 61.2164C105.854 61.847 105.718 62.4305 105.441 62.9609C105.164 63.4913 104.799 63.951 104.333 64.3341C104.834 64.6759 105.217 65.1179 105.489 65.6543C105.76 66.1965 105.907 66.8094 105.931 67.5108L106.09 70.7287H103.384L103.166 67.5108C103.143 67.0511 103.048 66.6739 102.901 66.3733C102.748 66.0786 102.518 65.8546 102.2 65.7132C101.881 65.5659 101.457 65.4951 100.915 65.4951H97.7966V70.7228H95.0322L95.0381 70.7346ZM97.8025 63.2732H100.726C101.539 63.2732 102.135 63.0905 102.5 62.7192C102.866 62.3538 103.054 61.8529 103.054 61.2223C103.054 60.5916 102.872 60.073 102.5 59.7135C102.135 59.354 101.539 59.1713 100.726 59.1713H97.8025V63.2732Z" fill="white"/>
<path d="M106.779 70.7346L111.813 56.9199H114.949L120 70.7346H117.076L112.815 58.4228H113.941L109.679 70.7346H106.779ZM109.108 67.6345L109.838 65.4834H116.941L117.672 67.6345H109.108Z" fill="white"/>
<path d="M0 79.9298V75.7041H1.49713C1.8331 75.7041 2.10423 75.7571 2.32231 75.8691C2.5404 75.9811 2.69954 76.1284 2.80564 76.3229C2.91173 76.5115 2.96478 76.7355 2.96478 76.9771C2.96478 77.2011 2.91173 77.4133 2.80564 77.6018C2.69954 77.7904 2.5404 77.9496 2.32231 78.0615C2.10423 78.1735 1.8272 78.2325 1.49123 78.2325H0.66015V79.9239H0V79.9298ZM0.666044 77.6961H1.46176C1.75647 77.6961 1.97456 77.6313 2.10423 77.5017C2.2339 77.372 2.29874 77.1952 2.29874 76.9771C2.29874 76.7591 2.2339 76.5705 2.10423 76.4408C1.97456 76.3111 1.76237 76.2463 1.46176 76.2463H0.666044V77.6961Z" fill="white"/>
<path d="M3.5542 79.9298V75.7041H5.27531C5.61127 75.7041 5.8883 75.763 6.10049 75.875C6.31858 75.987 6.47772 76.1402 6.58382 76.3288C6.68991 76.5174 6.74296 76.7355 6.74296 76.983C6.74296 77.1893 6.69581 77.3779 6.60739 77.5488C6.51898 77.7197 6.38931 77.8612 6.21838 77.9731C6.3952 78.0733 6.52488 78.2089 6.61329 78.3857C6.7017 78.5625 6.74886 78.757 6.75475 78.9869L6.8019 79.9298H6.15944L6.10049 79.0163C6.0946 78.8395 6.05923 78.6922 6.00619 78.5802C5.95314 78.4682 5.86473 78.3857 5.74684 78.3327C5.62896 78.2796 5.46981 78.256 5.26352 78.256H4.22024V79.9298H3.5542ZM4.22024 77.7197H5.23405C5.52286 77.7197 5.73505 77.649 5.87062 77.5134C6.00029 77.3779 6.07102 77.2011 6.07102 76.983C6.07102 76.7532 6.00619 76.5764 5.87651 76.4408C5.74684 76.3111 5.52876 76.2463 5.23405 76.2463H4.22614V77.7197H4.22024Z" fill="white"/>
<path d="M7.39722 79.9298V75.7041H10.0909V76.2404H8.06326V77.5252H9.90815V78.0557H8.06326V79.3876H10.0909V79.9239H7.39722V79.9298Z" fill="white"/>
<path d="M12.1125 80.0001C11.9062 80.0001 11.7058 79.9706 11.5172 79.9176C11.3286 79.8645 11.1518 79.7761 10.9926 79.6583C10.8335 79.5404 10.7097 79.393 10.6036 79.2103C10.4975 79.0276 10.4445 78.8155 10.4209 78.562H11.0457C11.0752 78.7683 11.14 78.9392 11.2461 79.063C11.3522 79.1927 11.4819 79.2811 11.6351 79.3341C11.7884 79.3871 11.9475 79.4166 12.1184 79.4166C12.2894 79.4166 12.4426 79.393 12.5782 79.34C12.7137 79.287 12.8257 79.2162 12.9024 79.1101C12.979 79.0041 13.0202 78.8803 13.0202 78.7271C13.0202 78.5856 12.979 78.4618 12.9024 78.3558C12.8257 78.2497 12.6666 78.1731 12.4367 78.1318L11.6528 77.9845C11.3286 77.9255 11.0752 77.79 10.8806 77.5837C10.6861 77.3774 10.5918 77.1358 10.5918 76.8529C10.5918 76.5936 10.6626 76.3696 10.7922 76.1869C10.9278 76.0042 11.1046 75.8628 11.3286 75.7626C11.5526 75.6624 11.7942 75.6152 12.0595 75.6152C12.3247 75.6152 12.5841 75.6624 12.808 75.7626C13.0261 75.8569 13.2089 76.0042 13.3444 76.1928C13.4859 76.3814 13.5684 76.6289 13.5979 76.9236H12.9554C12.9318 76.7409 12.8788 76.5995 12.7904 76.4875C12.702 76.3755 12.6018 76.2989 12.478 76.2517C12.3542 76.2046 12.2186 76.181 12.0654 76.181C11.9298 76.181 11.7942 76.2046 11.6587 76.2458C11.5231 76.2871 11.417 76.3578 11.3345 76.4521C11.252 76.5464 11.2107 76.6702 11.2107 76.8234C11.2107 76.9649 11.2638 77.0886 11.3699 77.1888C11.476 77.289 11.6292 77.3597 11.8296 77.3951L12.5605 77.5307C12.9082 77.5955 13.1794 77.7193 13.3739 77.9137C13.5625 78.1023 13.6568 78.3617 13.6568 78.6976C13.6568 78.9098 13.6156 79.0984 13.5271 79.2575C13.4387 79.4166 13.3208 79.5463 13.1676 79.6583C13.0143 79.7702 12.8552 79.8469 12.6725 79.8999C12.4898 79.9529 12.3011 79.9824 12.1066 79.9824L12.1125 80.0001Z" fill="white"/>
<path d="M14.2522 79.9298V75.7041H16.9458V76.2404H14.9182V77.5252H16.7631V78.0557H14.9182V79.3876H16.9458V79.9239H14.2522V79.9298Z" fill="white"/>
<path d="M17.5411 79.9298V75.7041H18.2072L20.2996 78.8513V75.7041H20.9657V79.9298H20.2996L18.2072 76.7885V79.9298H17.5411Z" fill="white"/>
<path d="M23.565 80C23.1465 80 22.7869 79.9116 22.4804 79.723C22.1739 79.5403 21.9382 79.2869 21.779 78.9568C21.614 78.6268 21.5374 78.2496 21.5374 77.8193C21.5374 77.3891 21.6199 77.006 21.779 76.676C21.9441 76.3459 22.1798 76.0925 22.4804 75.9098C22.7869 75.7271 23.1465 75.6328 23.565 75.6328C24.066 75.6328 24.4727 75.7566 24.7851 75.9982C25.0974 76.2399 25.2979 76.5817 25.3863 77.0237H24.6495C24.5964 76.7762 24.4786 76.5876 24.2958 76.4461C24.1131 76.3047 23.8656 76.234 23.5591 76.234C23.282 76.234 23.0404 76.2988 22.84 76.4226C22.6396 76.5463 22.4804 76.7349 22.3743 76.9707C22.2623 77.2123 22.2093 77.4952 22.2093 77.8252C22.2093 78.1553 22.2623 78.4382 22.3743 78.6739C22.4863 78.9097 22.6396 79.0924 22.84 79.222C23.0404 79.3517 23.282 79.4165 23.5591 79.4165C23.8656 79.4165 24.1072 79.3458 24.2899 79.2102C24.4727 79.0747 24.5905 78.8802 24.6554 78.6268H25.3922C25.3096 79.0629 25.1092 79.4047 24.791 79.6464C24.4727 79.888 24.066 80.0059 23.5709 80.0059L23.565 80Z" fill="white"/>
<path d="M25.9344 79.9298V75.7041H28.6281V76.2404H26.6005V77.5252H28.4454V78.0557H26.6005V79.3876H28.6281V79.9239H25.9344V79.9298Z" fill="white"/>
<path d="M31.0624 79.9298V75.7041H32.701C32.9957 75.7041 33.2373 75.7513 33.4377 75.8456C33.6381 75.9398 33.7855 76.0636 33.8857 76.2286C33.9859 76.3937 34.0389 76.5764 34.0389 76.7885C34.0389 77.0007 33.9918 77.1834 33.8975 77.3248C33.8032 77.4663 33.6853 77.5783 33.532 77.6549C33.3788 77.7315 33.2197 77.7787 33.0487 77.8022L33.1371 77.7374C33.3258 77.7374 33.4967 77.7904 33.644 77.8847C33.7973 77.979 33.9152 78.1028 34.0036 78.2619C34.092 78.4211 34.1391 78.592 34.1391 78.7806C34.1391 78.9986 34.0861 79.1931 33.98 79.3699C33.8739 79.5467 33.7148 79.6823 33.5144 79.7825C33.3081 79.8827 33.0605 79.9357 32.7599 79.9357H31.0683L31.0624 79.9298ZM31.7284 77.5075H32.6126C32.8483 77.5075 33.031 77.4486 33.1607 77.3366C33.2904 77.2247 33.3552 77.0714 33.3552 76.871C33.3552 76.6707 33.2904 76.5233 33.1666 76.4113C33.0428 76.2935 32.8542 76.2404 32.6008 76.2404H31.7284V77.5075ZM31.7284 79.3817H32.6715C32.9191 79.3817 33.1136 79.3228 33.255 79.2049C33.3906 79.087 33.4613 78.922 33.4613 78.704C33.4613 78.4859 33.3906 78.3209 33.2491 78.1971C33.1077 78.0733 32.9073 78.0085 32.6538 78.0085H31.7284V79.3758V79.3817Z" fill="white"/>
<path d="M35.6835 79.9298V78.3857L34.2571 75.7041H35.0056L36.1314 77.9437H35.9192L37.0274 75.7041H37.77L36.3436 78.3857V79.9298H35.6776H35.6835Z" fill="white"/>
<path d="M40.1689 79.9298V75.7041H41.5482C42.0433 75.7041 42.45 75.7925 42.7683 75.9634C43.0866 76.1343 43.3282 76.3819 43.4815 76.6942C43.6347 77.0125 43.7114 77.3838 43.7114 77.8199C43.7114 78.256 43.6347 78.6155 43.4815 78.9338C43.3282 79.2521 43.0925 79.4937 42.7683 79.6646C42.45 79.8355 42.0433 79.9239 41.5482 79.9239H40.1689V79.9298ZM40.835 79.364H41.5246C41.9018 79.364 42.2024 79.2992 42.4264 79.1754C42.6504 79.0517 42.8037 78.8749 42.9039 78.645C42.9982 78.4152 43.0512 78.1382 43.0512 77.8199C43.0512 77.5017 43.0041 77.2188 42.9039 76.9889C42.8095 76.7532 42.6504 76.5764 42.4264 76.4526C42.2024 76.3288 41.9077 76.264 41.5246 76.264H40.835V79.364Z" fill="white"/>
<path d="M44.2831 79.9298V75.7041H46.9767V76.2404H44.9491V77.5252H46.794V78.0557H44.9491V79.3876H46.9767V79.9239H44.2831V79.9298Z" fill="white"/>
<path d="M48.9985 80.0001C48.7922 80.0001 48.5918 79.9706 48.4032 79.9176C48.2146 79.8645 48.0378 79.7761 47.8786 79.6583C47.7195 79.5404 47.5957 79.393 47.4896 79.2103C47.3835 79.0276 47.3305 78.8155 47.3069 78.562H47.9317C47.9611 78.7683 48.026 78.9392 48.1321 79.063C48.2382 79.1927 48.3678 79.2811 48.5211 79.3341C48.6743 79.3871 48.8335 79.4166 49.0044 79.4166C49.1753 79.4166 49.3286 79.393 49.4642 79.34C49.5997 79.287 49.7117 79.2162 49.7883 79.1101C49.865 79.0041 49.9062 78.8803 49.9062 78.7271C49.9062 78.5856 49.865 78.4618 49.7883 78.3558C49.7117 78.2497 49.5526 78.1731 49.3227 78.1318L48.5388 77.9845C48.2146 77.9255 47.9611 77.79 47.7666 77.5837C47.5721 77.3774 47.4778 77.1358 47.4778 76.8529C47.4778 76.5936 47.5485 76.3696 47.6782 76.1869C47.8138 76.0042 47.9906 75.8628 48.2146 75.7626C48.4386 75.6624 48.6802 75.6152 48.9455 75.6152C49.2107 75.6152 49.4701 75.6624 49.694 75.7626C49.9121 75.8569 50.0948 76.0042 50.2304 76.1928C50.3719 76.3814 50.4544 76.6289 50.4839 76.9236H49.8414C49.8178 76.7409 49.7648 76.5995 49.6764 76.4875C49.5879 76.3755 49.4877 76.2989 49.364 76.2517C49.2402 76.2046 49.1046 76.181 48.9514 76.181C48.8158 76.181 48.6802 76.2046 48.5447 76.2458C48.4091 76.2871 48.303 76.3578 48.2205 76.4521C48.138 76.5464 48.0967 76.6702 48.0967 76.8234C48.0967 76.9649 48.1498 77.0886 48.2559 77.1888C48.3619 77.289 48.5152 77.3597 48.7156 77.3951L49.4465 77.5307C49.7942 77.5955 50.0654 77.7193 50.2599 77.9137C50.4485 78.1023 50.5428 78.3617 50.5428 78.6976C50.5428 78.9098 50.5015 79.0984 50.4131 79.2575C50.3247 79.4166 50.2068 79.5463 50.0536 79.6583C49.9003 79.7702 49.7412 79.8469 49.5585 79.8999C49.3757 79.9529 49.1871 79.9824 48.9926 79.9824L48.9985 80.0001Z" fill="white"/>
<path d="M51.1735 79.9298V75.7041H51.8395V79.9298H51.1735Z" fill="white"/>
<path d="M54.5509 80.0001C54.097 80.0001 53.7139 79.9117 53.3956 79.7289C53.0773 79.5462 52.8297 79.2928 52.6647 78.9687C52.4938 78.6445 52.4113 78.2732 52.4113 77.8489C52.4113 77.4245 52.4938 77.0238 52.6647 76.6878C52.8356 76.3519 53.0773 76.0926 53.3838 75.904C53.6962 75.7154 54.0675 75.6211 54.4919 75.6211C54.9811 75.6211 55.3878 75.739 55.712 75.9688C56.0362 76.1987 56.2425 76.5287 56.3309 76.9413H55.5764C55.5175 76.7232 55.3937 76.5464 55.211 76.4226C55.0224 76.293 54.7866 76.234 54.4919 76.234C54.1972 76.234 53.9496 76.2989 53.7374 76.4285C53.5253 76.5582 53.3661 76.7468 53.2541 76.9825C53.1421 77.2242 53.0832 77.5129 53.0832 77.8489C53.0832 78.1848 53.1421 78.45 53.26 78.6799C53.3779 78.9097 53.5429 79.0865 53.7669 79.2162C53.9909 79.3459 54.2444 79.4048 54.5509 79.4048C54.934 79.4048 55.2346 79.2928 55.4586 79.0748C55.6825 78.8567 55.7945 78.5443 55.8063 78.1436H54.5685V77.6249H56.4724V77.9019C56.4724 78.3557 56.3898 78.7388 56.2307 79.0512C56.0657 79.3635 55.8417 79.5993 55.5588 79.7584C55.2758 79.9175 54.9458 79.9942 54.5685 79.9942L54.5509 80.0001Z" fill="white"/>
<path d="M57.0087 79.9298V75.7041H57.6747L59.7672 78.8513V75.7041H60.4332V79.9298H59.7672L57.6747 76.7885V79.9298H57.0087Z" fill="white"/>
<path d="M61.058 79.9296V79.1104H61.9126V79.9296H61.058Z" fill="white"/>
<path d="M64.3764 79.9298V75.7041H65.8735C66.2095 75.7041 66.4806 75.7571 66.6987 75.8691C66.9168 75.9811 67.0759 76.1284 67.182 76.3229C67.2881 76.5115 67.3412 76.7355 67.3412 76.9771C67.3412 77.2011 67.2881 77.4133 67.182 77.6018C67.0759 77.7904 66.9168 77.9496 66.6987 78.0615C66.4806 78.1735 66.2036 78.2325 65.8676 78.2325H65.0365V79.9239H64.3705L64.3764 79.9298ZM65.0365 77.6961H65.8322C66.127 77.6961 66.345 77.6313 66.4747 77.5017C66.6044 77.372 66.6692 77.1952 66.6692 76.9771C66.6692 76.7591 66.6044 76.5705 66.4747 76.4408C66.345 76.3111 66.1329 76.2463 65.8322 76.2463H65.0365V77.6961Z" fill="white"/>
<path d="M69.7873 80C69.3688 80 69.0034 79.9057 68.691 79.723C68.3786 79.5403 68.131 79.2809 67.9542 78.9568C67.7774 78.6267 67.689 78.2495 67.689 77.8193C67.689 77.3891 67.7774 77.0119 67.9542 76.6818C68.131 76.3518 68.3727 76.0984 68.691 75.9157C69.0093 75.733 69.3747 75.6387 69.7932 75.6387C70.2117 75.6387 70.583 75.733 70.8954 75.9157C71.2078 76.0984 71.4554 76.3577 71.6263 76.6818C71.8031 77.0119 71.8915 77.3891 71.8915 77.8193C71.8915 78.2495 71.8031 78.6267 71.6263 78.9568C71.4495 79.2868 71.2078 79.5403 70.8954 79.723C70.583 79.9057 70.2117 80 69.7932 80H69.7873ZM69.7932 79.4106C70.0761 79.4106 70.3296 79.3458 70.5418 79.222C70.754 79.0923 70.919 78.9096 71.0369 78.6739C71.1548 78.4323 71.2137 78.1494 71.2137 77.8193C71.2137 77.4893 71.1548 77.2064 71.0369 76.9706C70.919 76.7349 70.754 76.5522 70.5418 76.4225C70.3296 76.2988 70.082 76.2339 69.7932 76.2339C69.5044 76.2339 69.2568 76.2988 69.0446 76.4225C68.8265 76.5463 68.6615 76.729 68.5436 76.9706C68.4257 77.2064 68.3668 77.4893 68.3668 77.8193C68.3668 78.1494 68.4257 78.4323 68.5436 78.6739C68.6615 78.9155 68.8265 79.0982 69.0446 79.222C69.2568 79.3458 69.5103 79.4106 69.7932 79.4106Z" fill="white"/>
<path d="M73.147 79.9298L72.0094 75.7041H72.7167L73.6362 79.5526H73.4417L74.4968 75.7041H75.2276L76.2591 79.5585H76.0646L76.9841 75.7041H77.6973L76.5361 79.9298H75.7581L74.7738 76.3996H74.9211L73.9132 79.9298H73.147Z" fill="white"/>
<path d="M78.2455 79.9298V75.7041H80.9391V76.2404H78.9115V77.5252H80.7564V78.0557H78.9115V79.3876H80.9391V79.9239H78.2455V79.9298Z" fill="white"/>
<path d="M81.5227 79.9298V75.7041H83.2438C83.5798 75.7041 83.8568 75.763 84.069 75.875C84.2871 75.987 84.4462 76.1402 84.5523 76.3288C84.6584 76.5174 84.7115 76.7355 84.7115 76.983C84.7115 77.1893 84.6643 77.3779 84.5759 77.5488C84.4875 77.7197 84.3578 77.8612 84.1869 77.9731C84.3637 78.0733 84.4934 78.2089 84.5818 78.3857C84.6702 78.5625 84.7174 78.757 84.7233 78.9869L84.7704 79.9298H84.1279L84.069 79.0163C84.0631 78.8395 84.0277 78.6922 83.9747 78.5802C83.9216 78.4682 83.8332 78.3857 83.7153 78.3327C83.5975 78.2796 83.4383 78.256 83.232 78.256H82.1888V79.9298H81.5227ZM82.1888 77.7197H83.2026C83.4914 77.7197 83.7036 77.649 83.8391 77.5134C83.9688 77.3779 84.0395 77.2011 84.0395 76.983C84.0395 76.7532 83.9747 76.5764 83.845 76.4408C83.7153 76.3111 83.4973 76.2463 83.2026 76.2463H82.1946V77.7197H82.1888Z" fill="white"/>
<path d="M87.24 79.9298V75.7041H88.8786C89.1733 75.7041 89.4149 75.7513 89.6154 75.8456C89.8158 75.9398 89.9631 76.0636 90.0633 76.2286C90.1635 76.3937 90.2166 76.5764 90.2166 76.7885C90.2166 77.0007 90.1694 77.1834 90.0751 77.3248C89.9808 77.4663 89.8629 77.5783 89.7097 77.6549C89.5564 77.7315 89.3973 77.7787 89.2263 77.8022L89.3148 77.7374C89.5034 77.7374 89.6743 77.7904 89.8217 77.8847C89.9749 77.979 90.0928 78.1028 90.1812 78.2619C90.2696 78.4211 90.3168 78.592 90.3168 78.7806C90.3168 78.9986 90.2637 79.1931 90.1576 79.3699C90.0515 79.5467 89.8924 79.6823 89.692 79.7825C89.4857 79.8827 89.2381 79.9357 88.9375 79.9357H87.2459L87.24 79.9298ZM87.906 77.5075H88.7902C89.0259 77.5075 89.2087 77.4486 89.3383 77.3366C89.468 77.2247 89.5328 77.0714 89.5328 76.871C89.5328 76.6707 89.468 76.5233 89.3442 76.4113C89.2204 76.2935 89.0318 76.2404 88.7784 76.2404H87.906V77.5075ZM87.906 79.3817H88.8491C89.0967 79.3817 89.2912 79.3228 89.4326 79.2049C89.5682 79.087 89.6389 78.922 89.6389 78.704C89.6389 78.4859 89.5682 78.3209 89.4267 78.1971C89.2853 78.0733 89.0849 78.0085 88.8314 78.0085H87.906V79.3758V79.3817Z" fill="white"/>
<path d="M91.8611 79.9298V78.3857L90.4347 75.7041H91.1833L92.3091 77.9437H92.0969L93.205 75.7041H93.9476L92.5212 78.3857V79.9298H91.8552H91.8611Z" fill="white"/>
<path d="M96.3466 79.9298V75.7041H97.7258C98.2209 75.7041 98.6276 75.7925 98.9459 75.9634C99.2642 76.1343 99.5058 76.3819 99.6591 76.6942C99.8123 77.0125 99.889 77.3838 99.889 77.8199C99.889 78.256 99.8123 78.6155 99.6591 78.9338C99.5058 79.2521 99.2701 79.4937 98.9459 79.6646C98.6276 79.8355 98.2209 79.9239 97.7258 79.9239H96.3466V79.9298ZM97.0126 79.364H97.7022C98.0794 79.364 98.38 79.2992 98.604 79.1754C98.828 79.0517 98.9813 78.8749 99.0815 78.645C99.1758 78.4152 99.2288 78.1382 99.2288 77.8199C99.2288 77.5017 99.1817 77.2188 99.0815 76.9889C98.9872 76.7532 98.828 76.5764 98.604 76.4526C98.38 76.3288 98.0853 76.264 97.7022 76.264H97.0126V79.364Z" fill="white"/>
<path d="M100.455 79.9298V75.7041H103.148V76.2404H101.121V77.5252H102.966V78.0557H101.121V79.3876H103.148V79.9239H100.455V79.9298Z" fill="white"/>
<path d="M103.738 79.9298V75.7041H106.408V76.2404H104.404V77.5429H106.066V78.0733H104.404V79.9239H103.738V79.9298Z" fill="white"/>
<path d="M106.225 79.9298L107.769 75.7041H108.506L110.051 79.9298H109.349L107.993 76.0872H108.276L106.921 79.9298H106.225ZM106.933 78.9102L107.121 78.3798H109.149L109.337 78.9102H106.933Z" fill="white"/>
<path d="M111.937 80.0005C111.636 80.0005 111.359 79.9416 111.117 79.8237C110.876 79.7058 110.681 79.5231 110.534 79.2756C110.387 79.0281 110.316 78.7157 110.316 78.3385V75.71H110.982V78.3503C110.982 78.7098 111.07 78.9809 111.247 79.1518C111.424 79.3227 111.66 79.4112 111.948 79.4112C112.237 79.4112 112.485 79.3286 112.656 79.1518C112.827 78.9809 112.915 78.7157 112.915 78.3503V75.71H113.581V78.3385C113.581 78.7157 113.51 79.0281 113.363 79.2756C113.216 79.5231 113.015 79.7058 112.768 79.8237C112.514 79.9416 112.243 80.0005 111.943 80.0005H111.937Z" fill="white"/>
<path d="M114.224 79.9298V75.7041H114.89V79.4053H116.805V79.9298H114.23H114.224Z" fill="white"/>
<path d="M117.813 79.9298V76.2404H116.564V75.7041H119.723V76.2404H118.479V79.9298H117.813Z" fill="white"/>
</g>
<defs>
<clipPath id="clip0_1141_8999">
<rect width="120" height="80" fill="white"/>
</clipPath>
</defs>
</svg>
