<svg preserveAspectRatio="none" width="100%" height="100%" overflow="visible" style="display: block;" viewBox="0 0 120 14.2861" fill="none" xmlns="http://www.w3.org/2000/svg">
<g id="Group">
<path id="Vector" d="M5.62307 14.2744C4.99239 14.2744 4.36171 14.1859 3.73103 14.0091C3.10035 13.8323 2.51682 13.5494 1.98634 13.1605C1.45587 12.7715 1.00791 12.2646 0.654256 11.6399C0.300604 11.0152 0.0825188 10.2608 0 9.38265H2.52861C2.6465 10.0545 2.87637 10.5673 3.21234 10.9327C3.54831 11.2922 3.93732 11.5456 4.38528 11.6929C4.83324 11.8403 5.26352 11.911 5.6879 11.911C6.17712 11.911 6.6074 11.8344 6.97873 11.6753C7.35007 11.5161 7.65067 11.2981 7.86876 11.027C8.08684 10.75 8.19294 10.4435 8.19294 10.1017C8.19294 9.71858 8.08684 9.37675 7.87465 9.07618C7.66246 8.7756 7.19682 8.55754 6.47183 8.42788L4.24382 8.01533C3.07088 7.79137 2.16317 7.32577 1.5207 6.62443C0.878235 5.92309 0.554055 5.08619 0.554055 4.12553C0.554055 3.25917 0.77214 2.51658 1.20831 1.90364C1.64448 1.2907 2.22801 0.825109 2.96478 0.495066C3.70156 0.165024 4.51496 0 5.41087 0C6.30679 0 7.18503 0.15913 7.9277 0.471491C8.67037 0.789747 9.27747 1.27892 9.74311 1.939C10.2088 2.60498 10.4917 3.45956 10.5801 4.51452H8.01611C7.9218 3.92515 7.74498 3.47134 7.48563 3.16488C7.22039 2.85841 6.91389 2.64035 6.56024 2.52247C6.20659 2.4046 5.84704 2.34566 5.49339 2.34566C5.16332 2.34566 4.80967 2.3987 4.43833 2.50479C4.0611 2.61087 3.74871 2.78768 3.48937 3.03522C3.23002 3.28275 3.10624 3.63637 3.10624 4.07839C3.10624 4.44379 3.24181 4.77384 3.51294 5.06262C3.78408 5.35141 4.24382 5.55769 4.90397 5.67556L6.95515 6.05275C8.1281 6.26492 9.05349 6.67158 9.73722 7.28452C10.4209 7.89745 10.7628 8.80507 10.7628 10.0192C10.7628 10.7028 10.6155 11.3099 10.3207 11.8344C10.026 12.3589 9.63112 12.8068 9.13601 13.1664C8.64089 13.5259 8.09273 13.8029 7.49153 13.9973C6.88442 14.1859 6.26553 14.2861 5.63485 14.2861L5.62307 14.2744Z" fill="var(--fill-0, white)"/>
<path id="Vector_2" d="M15.1186 14.0386V2.45764H11.0929V0.229848H21.8852V2.45764H17.8771V14.0386H15.1127H15.1186Z" fill="var(--fill-0, white)"/>
<path id="Vector_3" d="M23.2055 14.0386V0.223957H29.0643C30.1842 0.223957 31.1037 0.412552 31.8405 0.78385C32.5713 1.16104 33.1136 1.67379 33.479 2.32208C33.8386 2.97628 34.0213 3.70709 34.0213 4.52041C34.0213 5.15102 33.8857 5.73449 33.6087 6.26492C33.3317 6.79534 32.9663 7.25505 32.5006 7.63813C33.0016 7.97996 33.3847 8.42198 33.6559 8.9583C33.927 9.50052 34.0744 10.1135 34.0979 10.8148L34.2571 14.0327H31.5516L31.3336 10.8148C31.31 10.3551 31.2157 9.9779 31.0683 9.67732C30.9151 9.38264 30.6852 9.15868 30.3669 9.01724C30.0486 8.8699 29.6242 8.79917 29.082 8.79917H25.9639V14.0268H23.1996L23.2055 14.0386ZM25.9698 6.57728H28.8934C29.7068 6.57728 30.3021 6.39458 30.6675 6.02328C31.033 5.65787 31.2216 5.15691 31.2216 4.5263C31.2216 3.89568 31.0388 3.37704 30.6675 3.01753C30.3021 2.65802 29.7068 2.47532 28.8934 2.47532H25.9698V6.57728Z" fill="var(--fill-0, white)"/>
<path id="Vector_4" d="M34.9467 14.0386L39.9804 0.223957H43.1161L48.1674 14.0386H45.2439L40.9824 1.72683H42.1082L37.8466 14.0386H34.9467ZM37.2749 10.9386L38.0058 8.78739H45.1083L45.8392 10.9386H37.2749Z" fill="var(--fill-0, white)"/>
<path id="Vector_5" d="M50.9318 14.0386V2.45764H46.906V0.229848H57.6983V2.45764H53.6903V14.0386H50.9259H50.9318Z" fill="var(--fill-0, white)"/>
<path id="Vector_6" d="M59.0245 14.0386V0.223957H68.1605V2.45175H61.7889V5.94666H67.5711V8.09783H61.7889V11.8049H68.1605V14.0327H59.0245V14.0386Z" fill="var(--fill-0, white)"/>
<path id="Vector_7" d="M68.7735 14.0386L73.8072 0.223957H76.9429L81.9942 14.0386H79.0707L74.8092 1.72683H75.935L71.6735 14.0386H68.7735ZM71.1017 10.9386L71.8326 8.78739H78.9351L79.666 10.9386H71.1017Z" fill="var(--fill-0, white)"/>
<path id="Vector_8" d="M87.8 14.2743C86.7744 14.2743 85.849 14.0681 85.0179 13.6614C84.1868 13.2547 83.5267 12.6359 83.0316 11.8049C82.5365 10.9739 82.2889 9.93664 82.2889 8.6872V0.223957H85.0533V8.71077C85.0533 9.71269 85.3008 10.4612 85.796 10.968C86.2911 11.4749 86.9748 11.7283 87.8589 11.7283C88.7431 11.7283 89.4268 11.4749 89.9219 10.968C90.417 10.4612 90.6587 9.70679 90.6587 8.71077V0.223957H93.4231V8.6872C93.4231 9.93664 93.1696 10.9739 92.6627 11.8049C92.1558 12.6359 91.478 13.2547 90.6233 13.6614C89.7686 14.0681 88.8256 14.2743 87.8 14.2743Z" fill="var(--fill-0, white)"/>
<path id="Vector_9" d="M95.0381 14.0386V0.223957H100.897C102.017 0.223957 102.936 0.412552 103.673 0.78385C104.404 1.16104 104.946 1.67379 105.312 2.32208C105.671 2.97628 105.854 3.70709 105.854 4.52041C105.854 5.15102 105.718 5.73449 105.441 6.26492C105.164 6.79534 104.799 7.25505 104.333 7.63813C104.834 7.97996 105.217 8.42198 105.488 8.9583C105.76 9.50052 105.907 10.1135 105.931 10.8148L106.09 14.0327H103.384L103.166 10.8148C103.143 10.3551 103.048 9.9779 102.901 9.67732C102.748 9.38264 102.518 9.15868 102.2 9.01724C101.881 8.8699 101.457 8.79917 100.915 8.79917H97.7965V14.0268H95.0322L95.0381 14.0386ZM97.8024 6.57728H100.726C101.539 6.57728 102.135 6.39458 102.5 6.02328C102.866 5.65787 103.054 5.15691 103.054 4.5263C103.054 3.89568 102.871 3.37704 102.5 3.01753C102.135 2.65802 101.539 2.47532 100.726 2.47532H97.8024V6.57728Z" fill="var(--fill-0, white)"/>
<path id="Vector_10" d="M106.779 14.0386L111.813 0.223957H114.949L120 14.0386H117.076L112.815 1.72683H113.941L109.679 14.0386H106.779ZM109.108 10.9386L109.838 8.78739H116.941L117.672 10.9386H109.108Z" fill="var(--fill-0, white)"/>
</g>
</svg>
