<svg preserveAspectRatio="none" width="100%" height="100%" overflow="visible" style="display: block;" viewBox="0 0 119.723 4.39075" fill="none" xmlns="http://www.w3.org/2000/svg">
<g id="Group">
<path id="Vector" d="M0 4.31412V0.0884007H1.49713C1.8331 0.0884007 2.10423 0.141443 2.32231 0.253421C2.5404 0.3654 2.69954 0.512743 2.80564 0.707233C2.91173 0.895828 2.96478 1.11979 2.96478 1.36142C2.96478 1.58538 2.91173 1.79755 2.80564 1.98615C2.69954 2.17474 2.5404 2.33387 2.32231 2.44585C2.10423 2.55783 1.8272 2.61677 1.49123 2.61677H0.66015V4.30823H0V4.31412ZM0.666044 2.08045H1.46176C1.75647 2.08045 1.97456 2.01562 2.10423 1.88596C2.2339 1.7563 2.29874 1.57949 2.29874 1.36142C2.29874 1.14336 2.2339 0.954763 2.10423 0.825103C1.97456 0.695444 1.76237 0.630613 1.46176 0.630613H0.666044V2.08045Z" fill="var(--fill-0, white)"/>
<path id="Vector_2" d="M3.5542 4.31412V0.0884007H5.27531C5.61128 0.0884007 5.8883 0.147342 6.1005 0.259321C6.31858 0.371299 6.47772 0.524527 6.58382 0.713123C6.68992 0.901719 6.74296 1.11978 6.74296 1.36732C6.74296 1.57359 6.69581 1.76219 6.6074 1.93311C6.51898 2.10402 6.38931 2.24547 6.21838 2.35745C6.39521 2.45764 6.52488 2.59319 6.61329 2.77C6.7017 2.94681 6.74886 3.1413 6.75475 3.37115L6.80191 4.31412H6.15944L6.1005 3.40062C6.0946 3.22381 6.05924 3.07647 6.00619 2.96449C5.95314 2.85251 5.86473 2.77 5.74684 2.71696C5.62896 2.66392 5.46982 2.64034 5.26352 2.64034H4.22025V4.31412H3.5542ZM4.22025 2.10402H5.23405C5.52286 2.10402 5.73506 2.0333 5.87062 1.89775C6.00029 1.76219 6.07103 1.58538 6.07103 1.36732C6.07103 1.13746 6.00619 0.960656 5.87652 0.825103C5.74684 0.695444 5.52876 0.630613 5.23405 0.630613H4.22614V2.10402H4.22025Z" fill="var(--fill-0, white)"/>
<path id="Vector_3" d="M7.39722 4.31412V0.0884007H10.0909V0.624722H8.06327V1.90953H9.90815V2.43996H8.06327V3.77191H10.0909V4.30823H7.39722V4.31412Z" fill="var(--fill-0, white)"/>
<path id="Vector_4" d="M12.1126 4.38485C11.9063 4.38485 11.7059 4.35539 11.5173 4.30234C11.3287 4.2493 11.1518 4.1609 10.9927 4.04302C10.8335 3.92515 10.7098 3.7778 10.6037 3.5951C10.4976 3.4124 10.4445 3.20024 10.4209 2.94681H11.0457C11.0752 3.15309 11.14 3.324 11.2461 3.44776C11.3522 3.57742 11.4819 3.66583 11.6351 3.71887C11.7884 3.77192 11.9475 3.80138 12.1185 3.80138C12.2894 3.80138 12.4427 3.77781 12.5782 3.72476C12.7138 3.67172 12.8258 3.601 12.9024 3.49491C12.979 3.38883 13.0203 3.26506 13.0203 3.11183C13.0203 2.97038 12.979 2.84661 12.9024 2.74053C12.8258 2.63444 12.6666 2.55783 12.4368 2.51658L11.6528 2.36924C11.3287 2.3103 11.0752 2.17474 10.8807 1.96847C10.6862 1.76219 10.5919 1.52055 10.5919 1.23765C10.5919 0.978335 10.6626 0.754384 10.7923 0.571682C10.9278 0.38898 11.1047 0.247532 11.3287 0.14734C11.5526 0.047149 11.7943 0 12.0595 0C12.3248 0 12.5841 0.047149 12.8081 0.14734C13.0262 0.241638 13.2089 0.388976 13.3445 0.577572C13.4859 0.766168 13.5684 1.0137 13.5979 1.30838H12.9555C12.9319 1.12568 12.8788 0.984232 12.7904 0.872253C12.702 0.760274 12.6018 0.683661 12.478 0.636512C12.3542 0.589363 12.2187 0.565782 12.0654 0.565782C11.9299 0.565782 11.7943 0.589357 11.6587 0.630613C11.5232 0.671868 11.4171 0.742595 11.3345 0.836893C11.252 0.931191 11.2108 1.05496 11.2108 1.20819C11.2108 1.34964 11.2638 1.4734 11.3699 1.5736C11.476 1.67379 11.6293 1.74451 11.8297 1.77988L12.5605 1.91543C12.9083 1.98026 13.1794 2.10402 13.3739 2.29851C13.5626 2.4871 13.6569 2.74642 13.6569 3.08236C13.6569 3.29453 13.6156 3.48312 13.5272 3.64225C13.4388 3.80138 13.3209 3.93104 13.1676 4.04302C13.0144 4.155 12.8552 4.23162 12.6725 4.28466C12.4898 4.33771 12.3012 4.36717 12.1067 4.36717L12.1126 4.38485Z" fill="var(--fill-0, white)"/>
<path id="Vector_5" d="M14.2522 4.31412V0.0884007H16.9458V0.624722H14.9182V1.90953H16.7631V2.43996H14.9182V3.77191H16.9458V4.30823H14.2522V4.31412Z" fill="var(--fill-0, white)"/>
<path id="Vector_6" d="M17.5411 4.31412V0.0884007H18.2072L20.2996 3.23559V0.0884007H20.9657V4.31412H20.2996L18.2072 1.17282V4.31412H17.5411Z" fill="var(--fill-0, white)"/>
<path id="Vector_7" d="M23.565 4.38485C23.1465 4.38485 22.787 4.29645 22.4805 4.10785C22.174 3.92515 21.9382 3.67172 21.7791 3.34168C21.614 3.01164 21.5374 2.63444 21.5374 2.20421C21.5374 1.77397 21.6199 1.3909 21.7791 1.06085C21.9441 0.730811 22.1799 0.477383 22.4805 0.294681C22.787 0.111979 23.1465 0.0176801 23.565 0.0176801C24.066 0.0176801 24.4727 0.141443 24.7851 0.383082C25.0975 0.62472 25.2979 0.966553 25.3863 1.40857H24.6495C24.5965 1.16104 24.4786 0.972449 24.2959 0.831003C24.1132 0.689556 23.8656 0.618832 23.5591 0.618832C23.2821 0.618832 23.0404 0.683657 22.84 0.807423C22.6396 0.931189 22.4805 1.11979 22.3744 1.35553C22.2624 1.59717 22.2093 1.88006 22.2093 2.21011C22.2093 2.54015 22.2624 2.82305 22.3744 3.05879C22.4864 3.29453 22.6396 3.47723 22.84 3.60689C23.0404 3.73655 23.2821 3.80138 23.5591 3.80138C23.8656 3.80138 24.1073 3.73066 24.29 3.5951C24.4727 3.45955 24.5906 3.26507 24.6554 3.01164H25.3922C25.3097 3.44777 25.1093 3.7896 24.791 4.03123C24.4727 4.27287 24.066 4.39074 23.5709 4.39074L23.565 4.38485Z" fill="var(--fill-0, white)"/>
<path id="Vector_8" d="M25.9345 4.31412V0.0884007H28.6281V0.624722H26.6005V1.90953H28.4454V2.43996H26.6005V3.77191H28.6281V4.30823H25.9345V4.31412Z" fill="var(--fill-0, white)"/>
<path id="Vector_9" d="M31.0624 4.31412V0.0884007H32.701C32.9957 0.0884007 33.2374 0.135553 33.4378 0.229851C33.6382 0.324149 33.7856 0.447911 33.8858 0.612932C33.986 0.777954 34.039 0.960654 34.039 1.17282C34.039 1.38499 33.9918 1.5677 33.8975 1.70915C33.8032 1.85059 33.6853 1.96257 33.5321 2.03919C33.3789 2.1158 33.2197 2.16295 33.0488 2.18653L33.1372 2.1217C33.3258 2.1217 33.4967 2.17474 33.6441 2.26904C33.7973 2.36334 33.9152 2.4871 34.0036 2.64623C34.092 2.80536 34.1392 2.97628 34.1392 3.16487C34.1392 3.38293 34.0862 3.57742 33.9801 3.75423C33.874 3.93104 33.7148 4.06659 33.5144 4.16678C33.3081 4.26698 33.0606 4.32002 32.76 4.32002H31.0683L31.0624 4.31412ZM31.7285 1.89185H32.6126C32.8484 1.89185 33.0311 1.83291 33.1608 1.72094C33.2904 1.60896 33.3553 1.45572 33.3553 1.25533C33.3553 1.05495 33.2904 0.907612 33.1667 0.795633C33.0429 0.677761 32.8543 0.624722 32.6008 0.624722H31.7285V1.89185ZM31.7285 3.76602H32.6715C32.9191 3.76602 33.1136 3.70708 33.2551 3.58921C33.3906 3.47134 33.4614 3.30631 33.4614 3.08825C33.4614 2.87019 33.3906 2.70517 33.2492 2.5814C33.1077 2.45763 32.9073 2.39281 32.6539 2.39281H31.7285V3.76012V3.76602Z" fill="var(--fill-0, white)"/>
<path id="Vector_10" d="M35.6835 4.31412V2.77L34.2571 0.0884007H35.0057L36.1314 2.32798H35.9193L37.0274 0.0884007H37.77L36.3436 2.77V4.31412H35.6776H35.6835Z" fill="var(--fill-0, white)"/>
<path id="Vector_11" d="M40.169 4.31412V0.0884007H41.5482C42.0433 0.0884007 42.45 0.176806 42.7683 0.347721C43.0866 0.518636 43.3283 0.766172 43.4815 1.07853C43.6348 1.39679 43.7114 1.76808 43.7114 2.20421C43.7114 2.64034 43.6348 2.99985 43.4815 3.3181C43.3283 3.63636 43.0925 3.878 42.7683 4.04891C42.45 4.21983 42.0433 4.30823 41.5482 4.30823H40.169V4.31412ZM40.835 3.74834H41.5246C41.9019 3.74834 42.2025 3.68351 42.4264 3.55974C42.6504 3.43598 42.8037 3.25917 42.9039 3.02932C42.9982 2.79947 43.0512 2.52246 43.0512 2.20421C43.0512 1.88595 43.0041 1.60307 42.9039 1.37321C42.8096 1.13747 42.6504 0.960659 42.4264 0.836893C42.2025 0.713127 41.9078 0.648293 41.5246 0.648293H40.835V3.74834Z" fill="var(--fill-0, white)"/>
<path id="Vector_12" d="M44.2831 4.31412V0.0884007H46.9768V0.624722H44.9492V1.90953H46.794V2.43996H44.9492V3.77191H46.9768V4.30823H44.2831V4.31412Z" fill="var(--fill-0, white)"/>
<path id="Vector_13" d="M48.9985 4.38485C48.7922 4.38485 48.5918 4.35539 48.4032 4.30234C48.2145 4.2493 48.0377 4.1609 47.8786 4.04302C47.7194 3.92515 47.5957 3.7778 47.4896 3.5951C47.3835 3.4124 47.3304 3.20024 47.3068 2.94681H47.9316C47.9611 3.15309 48.0259 3.324 48.132 3.44776C48.2381 3.57742 48.3678 3.66583 48.521 3.71887C48.6743 3.77192 48.8334 3.80138 49.0044 3.80138C49.1753 3.80138 49.3285 3.77781 49.4641 3.72476C49.5997 3.67172 49.7117 3.601 49.7883 3.49491C49.8649 3.38883 49.9062 3.26506 49.9062 3.11183C49.9062 2.97038 49.8649 2.84661 49.7883 2.74053C49.7117 2.63444 49.5525 2.55783 49.3227 2.51658L48.5387 2.36924C48.2145 2.3103 47.9611 2.17474 47.7666 1.96847C47.5721 1.76219 47.4778 1.52055 47.4778 1.23765C47.4778 0.978335 47.5485 0.754384 47.6782 0.571682C47.8137 0.38898 47.9906 0.247532 48.2145 0.14734C48.4385 0.047149 48.6802 0 48.9454 0C49.2107 0 49.47 0.047149 49.694 0.14734C49.9121 0.241638 50.0948 0.388976 50.2304 0.577572C50.3718 0.766168 50.4543 1.0137 50.4838 1.30838H49.8413C49.8178 1.12568 49.7647 0.984232 49.6763 0.872253C49.5879 0.760274 49.4877 0.683661 49.3639 0.636512C49.2401 0.589363 49.1046 0.565782 48.9513 0.565782C48.8158 0.565782 48.6802 0.589357 48.5446 0.630613C48.4091 0.671868 48.303 0.742595 48.2204 0.836893C48.1379 0.931191 48.0967 1.05496 48.0967 1.20819C48.0967 1.34964 48.1497 1.4734 48.2558 1.5736C48.3619 1.67379 48.5151 1.74451 48.7156 1.77988L49.4464 1.91543C49.7942 1.98026 50.0653 2.10402 50.2598 2.29851C50.4484 2.4871 50.5428 2.74642 50.5428 3.08236C50.5428 3.29453 50.5015 3.48312 50.4131 3.64225C50.3247 3.80138 50.2068 3.93104 50.0535 4.04302C49.9003 4.155 49.7411 4.23162 49.5584 4.28466C49.3757 4.33771 49.1871 4.36717 48.9926 4.36717L48.9985 4.38485Z" fill="var(--fill-0, white)"/>
<path id="Vector_14" d="M51.1734 4.31412V0.0884007H51.8395V4.31412H51.1734Z" fill="var(--fill-0, white)"/>
<path id="Vector_15" d="M54.5508 4.38485C54.097 4.38485 53.7138 4.29645 53.3955 4.11374C53.0773 3.93104 52.8297 3.67762 52.6647 3.35347C52.4937 3.02932 52.4112 2.65802 52.4112 2.23368C52.4112 1.80934 52.4937 1.40857 52.6647 1.07263C52.8356 0.736698 53.0773 0.477377 53.3838 0.288782C53.6962 0.100186 54.0675 0.00589038 54.4919 0.00589038C54.9811 0.00589038 55.3878 0.123761 55.712 0.353612C56.0361 0.583463 56.2424 0.913511 56.3309 1.32606H55.5764C55.5175 1.108 55.3937 0.931189 55.211 0.807423C55.0223 0.677763 54.7866 0.618832 54.4919 0.618832C54.1972 0.618832 53.9496 0.683654 53.7374 0.813313C53.5252 0.942973 53.3661 1.13157 53.2541 1.36732C53.1421 1.60895 53.0832 1.89774 53.0832 2.23368C53.0832 2.56961 53.1421 2.83483 53.26 3.06468C53.3779 3.29453 53.5429 3.47134 53.7669 3.601C53.9909 3.73066 54.2443 3.78959 54.5508 3.78959C54.9339 3.78959 55.2345 3.67762 55.4585 3.45955C55.6825 3.24149 55.7945 2.92913 55.8063 2.52836H54.5685V2.00973H56.4723V2.28672C56.4723 2.74053 56.3898 3.12362 56.2307 3.43598C56.0656 3.74834 55.8416 3.98409 55.5587 4.14321C55.2758 4.30234 54.9457 4.37896 54.5685 4.37896L54.5508 4.38485Z" fill="var(--fill-0, white)"/>
<path id="Vector_16" d="M57.0087 4.31412V0.0884007H57.6747L59.7672 3.23559V0.0884007H60.4332V4.31412H59.7672L57.6747 1.17282V4.31412H57.0087Z" fill="var(--fill-0, white)"/>
<path id="Vector_17" d="M61.058 4.31412V3.49491H61.9127V4.31412H61.058Z" fill="var(--fill-0, white)"/>
<path id="Vector_18" d="M64.3764 4.31412V0.0884007H65.8736C66.2095 0.0884007 66.4807 0.141443 66.6987 0.253421C66.9168 0.3654 67.076 0.512743 67.1821 0.707233C67.2882 0.895828 67.3412 1.11979 67.3412 1.36142C67.3412 1.58538 67.2882 1.79755 67.1821 1.98615C67.076 2.17474 66.9168 2.33387 66.6987 2.44585C66.4807 2.55783 66.2036 2.61677 65.8677 2.61677H65.0366V4.30823H64.3705L64.3764 4.31412ZM65.0366 2.08045H65.8323C66.127 2.08045 66.3451 2.01562 66.4748 1.88596C66.6044 1.7563 66.6693 1.57949 66.6693 1.36142C66.6693 1.14336 66.6044 0.954763 66.4748 0.825103C66.3451 0.695444 66.1329 0.630613 65.8323 0.630613H65.0366V2.08045Z" fill="var(--fill-0, white)"/>
<path id="Vector_19" d="M69.7873 4.38485C69.3688 4.38485 69.0034 4.29056 68.691 4.10785C68.3786 3.92515 68.131 3.66583 67.9542 3.34168C67.7774 3.01164 67.689 2.63444 67.689 2.20421C67.689 1.77397 67.7774 1.39679 67.9542 1.06674C68.131 0.736701 68.3727 0.483274 68.691 0.300571C69.0093 0.117869 69.3747 0.0235705 69.7932 0.0235705C70.2117 0.0235705 70.583 0.117869 70.8954 0.300571C71.2078 0.483274 71.4554 0.742595 71.6263 1.06674C71.8031 1.39679 71.8915 1.77397 71.8915 2.20421C71.8915 2.63444 71.8031 3.01164 71.6263 3.34168C71.4495 3.67172 71.2078 3.92515 70.8954 4.10785C70.583 4.29056 70.2117 4.38485 69.7932 4.38485H69.7873ZM69.7932 3.79549C70.0761 3.79549 70.3296 3.73066 70.5418 3.60689C70.754 3.47723 70.919 3.29453 71.0369 3.05879C71.1548 2.81715 71.2137 2.53425 71.2137 2.20421C71.2137 1.87417 71.1548 1.59128 71.0369 1.35553C70.919 1.11979 70.754 0.937083 70.5418 0.807423C70.3296 0.683657 70.082 0.618832 69.7932 0.618832C69.5044 0.618832 69.2568 0.683657 69.0446 0.807423C68.8266 0.931189 68.6615 1.1139 68.5436 1.35553C68.4258 1.59128 68.3668 1.87417 68.3668 2.20421C68.3668 2.53425 68.4258 2.81715 68.5436 3.05879C68.6615 3.30043 68.8266 3.48313 69.0446 3.60689C69.2568 3.73066 69.5103 3.79549 69.7932 3.79549Z" fill="var(--fill-0, white)"/>
<path id="Vector_20" d="M73.147 4.31412L72.0094 0.0884007H72.7167L73.6362 3.93693H73.4417L74.4968 0.0884007H75.2277L76.2591 3.94283H76.0646L76.9841 0.0884007H77.6973L76.5362 4.31412H75.7581L74.7738 0.783853H74.9212L73.9133 4.31412H73.147Z" fill="var(--fill-0, white)"/>
<path id="Vector_21" d="M78.2455 4.31412V0.0884007H80.9392V0.624722H78.9115V1.90953H80.7564V2.43996H78.9115V3.77191H80.9392V4.30823H78.2455V4.31412Z" fill="var(--fill-0, white)"/>
<path id="Vector_22" d="M81.5227 4.31412V0.0884007H83.2438C83.5797 0.0884007 83.8568 0.147342 84.069 0.259321C84.287 0.371299 84.4462 0.524527 84.5523 0.713123C84.6584 0.901719 84.7114 1.11978 84.7114 1.36732C84.7114 1.57359 84.6643 1.76219 84.5759 1.93311C84.4874 2.10402 84.3578 2.24547 84.1868 2.35745C84.3637 2.45764 84.4933 2.59319 84.5818 2.77C84.6702 2.94681 84.7173 3.1413 84.7232 3.37115L84.7704 4.31412H84.1279L84.069 3.40062C84.0631 3.22381 84.0277 3.07647 83.9746 2.96449C83.9216 2.85251 83.8332 2.77 83.7153 2.71696C83.5974 2.66392 83.4383 2.64034 83.232 2.64034H82.1887V4.31412H81.5227ZM82.1887 2.10402H83.2025C83.4913 2.10402 83.7035 2.0333 83.8391 1.89775C83.9688 1.76219 84.0395 1.58538 84.0395 1.36732C84.0395 1.13746 83.9746 0.960656 83.845 0.825103C83.7153 0.695444 83.4972 0.630613 83.2025 0.630613H82.1946V2.10402H82.1887Z" fill="var(--fill-0, white)"/>
<path id="Vector_23" d="M87.24 4.31412V0.0884007H88.8786C89.1733 0.0884007 89.415 0.135553 89.6154 0.229851C89.8158 0.324149 89.9632 0.447911 90.0634 0.612932C90.1636 0.777954 90.2166 0.960654 90.2166 1.17282C90.2166 1.38499 90.1695 1.5677 90.0752 1.70915C89.9808 1.85059 89.863 1.96257 89.7097 2.03919C89.5565 2.1158 89.3973 2.16295 89.2264 2.18653L89.3148 2.1217C89.5034 2.1217 89.6743 2.17474 89.8217 2.26904C89.9749 2.36334 90.0928 2.4871 90.1812 2.64623C90.2697 2.80536 90.3168 2.97628 90.3168 3.16487C90.3168 3.38293 90.2638 3.57742 90.1577 3.75423C90.0516 3.93104 89.8924 4.06659 89.692 4.16678C89.4857 4.26698 89.2382 4.32002 88.9376 4.32002H87.2459L87.24 4.31412ZM87.9061 1.89185H88.7902C89.026 1.89185 89.2087 1.83291 89.3384 1.72094C89.4681 1.60896 89.5329 1.45572 89.5329 1.25533C89.5329 1.05495 89.468 0.907612 89.3443 0.795633C89.2205 0.677761 89.0319 0.624722 88.7784 0.624722H87.9061V1.89185ZM87.9061 3.76602H88.8492C89.0967 3.76602 89.2912 3.70708 89.4327 3.58921C89.5682 3.47134 89.639 3.30631 89.639 3.08825C89.639 2.87019 89.5682 2.70517 89.4268 2.5814C89.2853 2.45763 89.0849 2.39281 88.8315 2.39281H87.9061V3.76012V3.76602Z" fill="var(--fill-0, white)"/>
<path id="Vector_24" d="M91.8611 4.31412V2.77L90.4347 0.0884007H91.1833L92.3091 2.32798H92.0969L93.205 0.0884007H93.9476L92.5212 2.77V4.31412H91.8552H91.8611Z" fill="var(--fill-0, white)"/>
<path id="Vector_25" d="M96.3466 4.31412V0.0884007H97.7258C98.2209 0.0884007 98.6276 0.176806 98.9459 0.347721C99.2642 0.518636 99.5059 0.766172 99.6591 1.07853C99.8124 1.39679 99.889 1.76808 99.889 2.20421C99.889 2.64034 99.8124 2.99985 99.6591 3.3181C99.5059 3.63636 99.2701 3.878 98.9459 4.04891C98.6276 4.21983 98.2209 4.30823 97.7258 4.30823H96.3466V4.31412ZM97.0126 3.74834H97.7022C98.0795 3.74834 98.3801 3.68351 98.6041 3.55974C98.828 3.43598 98.9813 3.25917 99.0815 3.02932C99.1758 2.79947 99.2288 2.52246 99.2288 2.20421C99.2288 1.88595 99.1817 1.60307 99.0815 1.37321C98.9872 1.13747 98.828 0.960659 98.6041 0.836893C98.3801 0.713127 98.0854 0.648293 97.7022 0.648293H97.0126V3.74834Z" fill="var(--fill-0, white)"/>
<path id="Vector_26" d="M100.455 4.31412V0.0884007H103.148V0.624722H101.121V1.90953H102.966V2.43996H101.121V3.77191H103.148V4.30823H100.455V4.31412Z" fill="var(--fill-0, white)"/>
<path id="Vector_27" d="M103.738 4.31412V0.0884007H106.408V0.624722H104.404V1.92722H106.066V2.45764H104.404V4.30823H103.738V4.31412Z" fill="var(--fill-0, white)"/>
<path id="Vector_28" d="M106.225 4.31412L107.77 0.0884007H108.506L110.051 4.31412H109.349L107.994 0.471491H108.276L106.921 4.31412H106.225ZM106.933 3.29453L107.121 2.76411H109.149L109.337 3.29453H106.933Z" fill="var(--fill-0, white)"/>
<path id="Vector_29" d="M111.937 4.38485C111.636 4.38485 111.359 4.32592 111.117 4.20804C110.876 4.09017 110.681 3.90746 110.534 3.65993C110.387 3.4124 110.316 3.10004 110.316 2.72285V0.0943001H110.982V2.73464C110.982 3.09415 111.07 3.36526 111.247 3.53617C111.424 3.70709 111.66 3.79549 111.949 3.79549C112.237 3.79549 112.485 3.71298 112.656 3.53617C112.827 3.36526 112.915 3.10004 112.915 2.73464V0.0943001H113.581V2.72285C113.581 3.10004 113.51 3.4124 113.363 3.65993C113.216 3.90746 113.015 4.09017 112.768 4.20804C112.514 4.32592 112.243 4.38485 111.943 4.38485H111.937Z" fill="var(--fill-0, white)"/>
<path id="Vector_30" d="M114.224 4.31412V0.0884007H114.89V3.78959H116.805V4.31412H114.23H114.224Z" fill="var(--fill-0, white)"/>
<path id="Vector_31" d="M117.813 4.31412V0.624722H116.564V0.0884007H119.723V0.624722H118.479V4.31412H117.813Z" fill="var(--fill-0, white)"/>
</g>
</svg>
