<svg preserveAspectRatio="none" width="100%" height="100%" overflow="visible" style="display: block;" viewBox="0 0 51.4699 48.917" fill="none" xmlns="http://www.w3.org/2000/svg">
<g id="Group">
<path id="Vector" d="M5.73506 27.5114C5.34604 25.9201 5.14564 24.2876 5.14564 22.6315C5.14564 20.3035 5.53465 18.0168 6.3009 15.8479C7.04357 13.7439 8.12221 11.7872 9.50735 10.0309C12.2776 6.51834 16.1737 3.97819 20.4882 2.88198L19.8458 0.365404C14.9831 1.60306 10.5919 4.46147 7.46795 8.42198C5.90599 10.4022 4.69179 12.6123 3.85481 14.9816C2.98836 17.4333 2.55219 20.0088 2.55219 22.6315C2.55219 24.9772 2.90584 27.2934 3.60136 29.5094L5.73506 27.5114Z" fill="var(--fill-0, white)"/>
<path id="Vector_2" d="M50.8787 22.1954L50.5369 21.8418L45.9689 26.2679L49.6174 29.9632L51.4623 28.142L49.6527 26.3091L50.8316 25.1658C51.6627 24.3583 51.6862 23.0264 50.8787 22.1895V22.1954Z" fill="var(--fill-0, white)"/>
<path id="Vector_3" d="M49.5997 29.9455L48.1969 31.3599C48.1969 31.3599 48.1969 31.36 48.191 31.3541L46.3697 33.1988C48.4444 35.2438 48.2028 36.2752 47.7018 37.0119C46.5347 38.7211 44.6368 38.615 44.5484 38.6091H44.5601L44.5484 38.7505V38.6091L38.6777 38.45C33.314 38.45 32.589 35.8627 32.5006 35.6269L32.0114 33.8294L30.4789 34.9904C28.133 36.7703 25.5219 35.9923 24.6908 35.6682C23.9835 34.7606 23.1819 34.0474 22.4864 33.5229L24.5965 31.6016L26.0642 33.1221C27.0603 34.1535 28.7047 34.183 29.7303 33.187L26.5121 29.8512L28.9052 27.6705C30.6204 26.1028 31.6165 23.8986 31.646 21.5765L31.8169 9.45926L37.7111 3.93694L37.0509 3.2356C36.432 2.57551 35.4006 2.54604 34.7463 3.15898L4.04342 31.9316C1.83899 34.0003 0.583527 36.8882 0.583527 39.9057V45.2748C0.200404 46.4299 0 47.6499 0 48.8817V48.9111H5.61717L16.1265 39.3222L17.5235 40.8487C17.9655 41.332 17.9419 42.0746 17.4704 42.5284L10.8571 48.9111H14.594L19.2033 44.4615C19.7456 43.9369 20.1641 43.2768 20.335 42.5401C20.6238 41.2789 20.2819 40.0118 19.4391 39.0924L18.048 37.5718L20.5295 35.3087C21.6848 36.0984 23.5296 37.7015 23.954 40.1061C24.178 41.3673 23.9835 42.7464 23.3823 44.1963C22.7634 45.6873 21.7142 47.2668 20.2466 48.9111H23.6004C26.0465 45.6461 27.0249 42.5343 26.5062 39.6346C26.4473 39.2987 26.3706 38.9804 26.2763 38.668C27.5907 38.7918 29.1999 38.668 30.8149 37.837C31.7049 39.0275 36.7444 41.8742 41.6366 41.6679L33.7148 48.917H37.5578L40.2574 46.4476L42.7271 48.917H46.3991L42.173 44.6972L46.1987 41.0137C47.3363 40.7308 48.7686 40.0589 49.8472 38.4794C50.6783 37.2595 50.8669 35.8921 50.3954 34.5189C50.2657 34.1417 50.083 33.7645 49.8531 33.3815L51.4505 31.7666L49.6056 29.9396L49.5997 29.9455ZM5.81757 33.8294L23.5532 17.2094V20.0619C23.5532 20.8045 23.2467 21.5294 22.7104 22.048L3.50705 40.6188C3.39506 40.7249 3.28896 40.8369 3.18287 40.9489V39.9116C3.18287 37.6072 4.13773 35.403 5.81757 33.8294ZM2.62881 48.1332C2.81153 46.0056 3.76639 43.9782 5.31067 42.4871L24.514 23.9163C25.5514 22.9144 26.1467 21.5058 26.1467 20.0619V14.7753L29.1881 11.9228L29.0525 21.5412C29.0289 23.1384 28.3393 24.6766 27.1546 25.7551L2.62292 48.1332H2.62881Z" fill="var(--fill-0, white)"/>
<path id="Vector_4" d="M40.9883 20.3919C42.1612 20.3919 44.3421 17.5512 44.3421 17.5512H37.0333C37.0333 17.5512 38.6836 20.3919 40.9883 20.3919Z" fill="var(--fill-0, white)"/>
<path id="Vector_5" d="M34.5931 16.8381L37.9999 13.9266C37.9999 13.9266 38.4007 13.4846 39.7564 13.4846H44.4069L41.9372 10.9386H39.3791C38.4243 10.9386 37.4871 11.2038 36.6796 11.7165C35.3239 12.577 33.7384 14.1918 34.5931 16.8322V16.8381Z" fill="var(--fill-0, white)"/>
<path id="Vector_6" d="M18.0068 11.0918V5.79343C16.4979 5.9113 15.3072 7.26683 15.2247 8.75203C15.2129 8.95241 15.2601 9.12922 15.2601 9.30603C15.2719 10.7559 15.2542 12.2057 15.2542 13.6555C14.4644 14.3981 13.6628 15.1348 12.8553 15.8715C12.6607 16.0483 12.4662 16.2782 12.2481 16.4432C12.2128 16.4668 12.2069 16.508 12.1479 16.4903V11.0918C10.5388 11.799 9.50734 13.4551 9.40125 15.1996C9.32462 16.455 9.47198 17.7811 9.38357 19.0423C9.19495 19.2132 9.02991 19.4077 8.84719 19.5845C8.14578 20.2564 7.20861 20.9577 6.58972 21.6767C6.53078 21.7475 6.42468 21.7416 6.46005 21.8889H12.1362C12.3012 21.8889 12.867 21.6591 13.0321 21.5765C13.7865 21.1817 14.429 20.3625 14.5646 19.5079C14.5764 19.4431 14.6353 19.1719 14.5587 19.1719H9.86689C10.085 18.9362 10.3384 18.7358 10.5683 18.5178C11.4406 17.7103 12.3012 16.897 13.1735 16.0837C13.2148 16.066 13.2619 16.066 13.315 16.0601C14.9418 15.9305 17.3172 16.4078 18.7494 15.6711C19.5628 15.2527 20.335 14.3922 20.4941 13.4728C20.447 13.4551 20.3939 13.5082 20.3821 13.5082H15.9851C16.6216 12.8422 17.3172 12.2293 18.0127 11.6281C19.0029 11.5397 20.058 11.7578 21.0187 11.4572C21.785 11.2156 22.5335 10.638 22.9402 9.94254C23.0404 9.76573 23.176 9.5182 23.1878 9.31781H20.5059C20.9657 8.85811 21.4372 8.4102 21.9323 7.98585C22.5925 8.1273 23.229 8.36305 23.8892 8.50449C24.9325 8.72845 25.9463 8.30411 26.2469 7.22558C26.2646 7.15485 26.3412 6.81302 26.294 6.78356C25.2566 6.77177 24.2134 6.71873 23.1819 6.83071L24.6672 5.42213C26.2292 5.29247 27.8855 5.48696 29.4474 5.39266C30.9504 5.30426 32.3945 4.12553 32.701 2.64624H27.1546L24.0306 5.52232V0H23.8656C23.8244 0.047149 23.7772 0.047149 23.7359 0H23.6711C23.6888 0.0766171 23.6357 0.0707234 23.5827 0.0884043C22.1799 0.589362 21.2957 1.63843 21.284 3.15309C21.2663 4.8033 21.2957 6.45351 21.2781 8.10373C20.17 9.07028 19.1267 10.1252 18.0127 11.0859L18.0068 11.0918Z" fill="var(--fill-0, white)"/>
</g>
</svg>
