<svg preserveAspectRatio="none" width="100%" height="100%" overflow="visible" style="display: block;" viewBox="0 0 231.001 84.8792" fill="none" xmlns="http://www.w3.org/2000/svg">
<g id="Group 69" opacity="0.1">
<circle id="Ellipse 7" cx="42.4396" cy="42.4396" r="41.9396" stroke="var(--stroke-0, white)"/>
<path id="Ellipse 8" d="M115.502 0.500012C123.756 0.500057 131.275 5.13617 136.749 12.7227C142.222 20.3085 145.623 30.8135 145.623 42.4395C145.623 54.0654 142.222 64.5704 136.749 72.1563C131.275 79.7428 123.756 84.3789 115.502 84.3789C107.247 84.3789 99.7285 79.7428 94.2546 72.1563C88.7814 64.5704 85.3806 54.0655 85.3806 42.4395C85.3806 30.8135 88.7813 20.3085 94.2546 12.7227C99.7285 5.13616 107.247 0.500012 115.502 0.500012Z" stroke="var(--stroke-0, white)"/>
<path id="Ellipse 9" d="M167.073 0.500007C172.564 0.500007 177.673 5.02223 181.44 12.6514C185.19 20.2489 187.525 30.7801 187.525 42.4395C187.525 54.0989 185.19 64.63 181.44 72.2275C177.673 79.8568 172.564 84.3789 167.073 84.3789C161.583 84.3789 156.474 79.8568 152.707 72.2275C148.957 64.63 146.622 54.0989 146.622 42.4395C146.622 30.7801 148.957 20.2489 152.707 12.6514C156.474 5.02223 161.583 0.500016 167.073 0.500007Z" stroke="var(--stroke-0, white)"/>
<path id="Ellipse 10" d="M198.769 0.500003C199.97 0.500003 201.254 1.47227 202.522 3.5918C203.772 5.67969 204.915 8.73434 205.882 12.5527C207.813 20.1822 209.013 30.7491 209.013 42.4395C209.013 54.1299 207.813 64.6967 205.882 72.3262C204.915 76.1447 203.772 79.1992 202.522 81.2871C201.253 83.4068 199.97 84.3789 198.769 84.3789C197.569 84.3789 196.285 83.4067 195.016 81.2871C193.767 79.1992 192.624 76.1447 191.657 72.3262C189.725 64.6967 188.525 54.1299 188.525 42.4395C188.525 30.7491 189.725 20.1822 191.657 12.5527C192.624 8.73433 193.767 5.67969 195.016 3.5918C196.285 1.47227 197.569 0.500036 198.769 0.500003Z" stroke="var(--stroke-0, white)"/>
<path id="Ellipse 11" d="M216.495 0.500001C216.756 0.500001 217.1 0.660651 217.514 1.17578C217.922 1.68395 218.339 2.46426 218.748 3.5166C219.565 5.61662 220.311 8.68494 220.941 12.5117C222.199 20.1575 222.98 30.7388 222.98 42.4395C222.98 54.1403 222.199 64.7223 220.941 72.3682C220.311 76.1946 219.565 79.2624 218.748 81.3623C218.339 82.4149 217.923 83.1959 217.514 83.7041C217.1 84.2192 216.756 84.3789 216.495 84.3789C216.234 84.3788 215.892 84.2188 215.478 83.7041C215.069 83.1959 214.653 82.4149 214.243 81.3623C213.426 79.2624 212.681 76.1946 212.051 72.3682C210.793 64.7223 210.012 54.1403 210.012 42.4395C210.012 30.7388 210.793 20.1575 212.051 12.5117C212.681 8.68488 213.426 5.61663 214.243 3.5166C214.653 2.46415 215.069 1.68394 215.478 1.17578C215.892 0.66087 216.234 0.500137 216.495 0.500001Z" stroke="var(--stroke-0, white)"/>
<path id="Ellipse 12" d="M227.248 0.547852C227.326 0.637125 227.426 0.799522 227.539 1.06055C227.764 1.57917 227.991 2.37421 228.214 3.4375C228.658 5.55626 229.062 8.64124 229.402 12.4746C230.08 20.1358 230.5 30.7302 230.5 42.4395C230.5 54.1489 230.08 64.744 229.402 72.4053C229.062 76.2384 228.658 79.3227 228.214 81.4414C227.991 82.5048 227.764 83.2997 227.539 83.8184C227.426 84.0794 227.326 84.2417 227.248 84.3311C227.246 84.3336 227.243 84.3355 227.24 84.3379C227.238 84.3355 227.235 84.3337 227.233 84.3311C227.155 84.2418 227.055 84.0795 226.942 83.8184C226.717 83.2997 226.489 82.5048 226.266 81.4414C225.822 79.3227 225.419 76.2383 225.079 72.4053C224.401 64.744 223.98 54.1489 223.98 42.4395C223.98 30.7301 224.401 20.1358 225.079 12.4746C225.419 8.64124 225.822 5.55626 226.266 3.4375C226.489 2.37417 226.717 1.57918 226.942 1.06055C227.055 0.799457 227.155 0.637063 227.233 0.547852C227.235 0.544968 227.238 0.542662 227.24 0.540039C227.243 0.542605 227.246 0.545037 227.248 0.547852Z" stroke="var(--stroke-0, white)"/>
</g>
</svg>
