<svg preserveAspectRatio="none" width="100%" height="100%" overflow="visible" style="display: block;" viewBox="0 0 316 184.292" fill="none" xmlns="http://www.w3.org/2000/svg">
<g id="Group 73">
<circle id="Ellipse 7" cx="61.098" cy="121.814" r="60.598" stroke="var(--stroke-0, white)" stroke-opacity="0.2"/>
<path id="Ellipse 8" d="M152.48 0.500085C164.452 0.500085 175.336 7.22462 183.246 18.1876C191.156 29.1499 196.064 44.3194 196.064 61.0977C196.064 77.876 191.156 93.0456 183.246 104.008C175.336 114.971 164.452 121.696 152.48 121.696C140.508 121.696 129.624 114.971 121.714 104.008C113.805 93.0456 108.897 77.8761 108.897 61.0977C108.897 44.3194 113.805 29.1499 121.714 18.1876C129.624 7.2248 140.508 0.500225 152.48 0.500085Z" stroke="var(--stroke-0, white)" stroke-opacity="0.2"/>
<path id="Ellipse 9" d="M226.726 22.5787C234.76 22.5787 242.172 29.1892 247.606 40.1949C253.023 51.1689 256.388 66.3646 256.388 83.1763C256.388 99.988 253.023 115.184 247.606 126.158C242.172 137.164 234.76 143.775 226.726 143.775C218.692 143.775 211.279 137.164 205.846 126.158C200.429 115.184 197.064 99.9879 197.064 83.1763C197.064 66.3646 200.428 51.1689 205.846 40.1949C211.279 29.1892 218.692 22.5788 226.726 22.5787Z" stroke="var(--stroke-0, white)" stroke-opacity="0.2"/>
<path id="Ellipse 10" d="M270.976 62.5961C272.829 62.5961 274.734 64.0909 276.568 67.1547C278.383 70.1868 280.035 74.6072 281.429 80.1137C284.216 91.1196 285.944 106.351 285.944 123.194C285.944 140.036 284.216 155.268 281.429 166.274C280.035 171.781 278.383 176.202 276.568 179.234C274.734 182.298 272.829 183.792 270.976 183.792C269.123 183.792 267.218 182.298 265.384 179.234C263.57 176.202 261.918 171.781 260.524 166.274C257.738 155.268 256.008 140.036 256.008 123.194C256.008 106.351 257.738 91.1196 260.524 80.1137C261.918 74.6073 263.57 70.1867 265.384 67.1547C267.218 64.0909 269.123 62.5962 270.976 62.5961Z" stroke="var(--stroke-0, white)" stroke-opacity="0.2"/>
<path id="Ellipse 11" d="M295.118 22.5787C295.591 22.5787 296.14 22.8698 296.754 23.6334C297.363 24.39 297.973 25.5365 298.566 27.0611C299.75 30.1053 300.826 34.5401 301.734 40.0552C303.548 51.0775 304.672 66.3233 304.672 83.1763C304.672 100.03 303.548 115.276 301.734 126.298C300.826 131.813 299.75 136.247 298.566 139.292C297.973 140.816 297.363 141.964 296.754 142.72C296.14 143.484 295.591 143.775 295.118 143.775C294.645 143.775 294.096 143.483 293.482 142.72C292.874 141.964 292.264 140.816 291.671 139.292C290.486 136.247 289.41 131.813 288.503 126.298C286.689 115.276 285.564 100.03 285.564 83.1763C285.564 66.3233 286.689 51.0775 288.503 40.0552C289.41 34.5401 290.486 30.1053 291.671 27.0611C292.264 25.5365 292.874 24.39 293.482 23.6334C294.096 22.87 294.645 22.5788 295.118 22.5787Z" stroke="var(--stroke-0, white)" stroke-opacity="0.2"/>
<path id="Ellipse 12" d="M310.587 22.5787C310.568 22.5787 310.627 22.567 310.763 22.7232C310.897 22.8762 311.052 23.1338 311.218 23.5191C311.551 24.2863 311.882 25.4477 312.204 26.983C312.845 30.0459 313.427 34.4967 313.917 40.0181C314.895 51.0558 315.5 66.3147 315.5 83.1763C315.5 100.038 314.895 115.298 313.917 126.336C313.427 131.857 312.845 136.308 312.204 139.371C311.882 140.906 311.551 142.067 311.218 142.835C311.052 143.22 310.897 143.477 310.763 143.63C310.627 143.787 310.568 143.775 310.587 143.775C310.604 143.775 310.545 143.786 310.41 143.63C310.276 143.477 310.121 143.22 309.954 142.835C309.622 142.067 309.29 140.906 308.968 139.371C308.327 136.308 307.746 131.857 307.257 126.336C306.278 115.298 305.673 100.038 305.673 83.1763C305.673 66.3147 306.278 51.0558 307.257 40.0181C307.746 34.4967 308.327 30.0459 308.968 26.983C309.29 25.4478 309.622 24.2863 309.954 23.5191C310.121 23.1335 310.276 22.8762 310.41 22.7232C310.545 22.5679 310.604 22.5785 310.587 22.5787Z" stroke="var(--stroke-0, white)" stroke-opacity="0.2"/>
</g>
</svg>
