<svg width="359" height="377" viewBox="0 0 359 377" fill="none" xmlns="http://www.w3.org/2000/svg">
<g clip-path="url(#clip0_1638_943)">
<rect width="359" height="377" rx="4" fill="url(#paint0_linear_1638_943)"/>
<path d="M55.6 69H50.32L43.03 48.33H47.83L50.89 57.87C51.85 60.75 52.54 63.21 53.02 65.34H53.08C53.5 63.39 54.31 60.87 55.3 57.93L58.54 48.33H63.1L55.6 69ZM79.8077 56.4V60.09H69.9077V65.34H80.8277L80.2877 69H65.5577V48.33H80.2277V51.99H69.9077V56.4H79.8077ZM84.0147 48.33H88.4847V69H84.0147V48.33ZM93.419 69V48.33H97.889V65.34H108.209L107.699 69H93.419ZM121.096 55.56H119.116V53.64C119.116 51.78 119.236 50.46 119.266 49.8H119.206L117.646 55.53H115.786L114.406 49.8H114.316C114.346 50.46 114.436 51.78 114.436 54V55.56H112.486V48.33H115.786L116.836 52.53L118.096 48.33H121.096V55.56ZM105.046 48.33H111.676V50.16H109.456V55.56H107.296V50.16H105.046V48.33ZM130.011 69V48.33H144.441V51.99H134.391V57.06H143.811V60.72H134.391V69H130.011ZM146.844 69V57.69C146.844 56.13 146.844 54.78 146.814 53.46H151.044C151.104 53.82 151.164 55.35 151.164 56.19C151.854 54.42 153.504 53.13 156.144 53.1V57.21C153.024 57.12 151.164 57.96 151.164 62.22V69H146.844ZM171.052 58.47V64.98C171.052 66.48 171.172 68.64 171.262 69H167.152C167.032 68.7 166.942 67.86 166.942 67.47C166.372 68.34 165.322 69.36 162.562 69.36C158.812 69.36 157.252 66.9 157.252 64.5C157.252 60.96 160.072 59.31 164.632 59.31H166.852V58.38C166.852 57.27 166.462 56.19 164.452 56.19C162.652 56.19 162.232 56.94 162.052 58.08H157.972C158.182 55.32 159.892 53.1 164.632 53.1C168.772 53.13 171.052 54.75 171.052 58.47ZM166.852 62.34V61.92H165.112C162.502 61.92 161.542 62.73 161.542 64.23C161.542 65.34 162.232 66.3 163.792 66.3C166.522 66.3 166.852 64.38 166.852 62.34ZM174.91 69V57.48C174.91 56.13 174.91 54.81 174.88 53.46H178.99C179.05 53.85 179.14 54.72 179.17 55.32C179.95 54.18 181.21 53.1 183.49 53.1C185.71 53.1 186.94 54.27 187.48 55.47C188.41 54.21 189.73 53.1 192.28 53.1C194.98 53.1 197.2 54.78 197.2 58.8V69H193V59.34C193 57.93 192.49 56.55 190.72 56.55C188.92 56.55 188.2 57.75 188.2 60.12V69H183.97V59.49C183.97 57.9 183.58 56.58 181.75 56.58C180.01 56.58 179.17 57.66 179.17 60.33V69H174.91ZM214.723 62.16H204.463C204.463 64.11 205.453 66 207.583 66C209.383 66 209.893 65.28 210.313 64.35H214.603C214.063 66.24 212.353 69.36 207.493 69.36C202.363 69.36 200.143 65.55 200.143 61.47C200.143 56.58 202.633 53.1 207.643 53.1C212.953 53.1 214.783 56.97 214.783 60.84C214.783 61.38 214.783 61.71 214.723 62.16ZM204.553 59.52H210.463C210.433 57.72 209.713 56.19 207.613 56.19C205.573 56.19 204.733 57.6 204.553 59.52ZM216.127 53.46H220.657C222.067 59.7 222.817 63.24 223.117 65.19H223.177C223.507 63.45 223.957 61.02 225.847 53.46H229.837C231.577 61.11 232.117 63.36 232.327 65.01H232.357C232.687 63.42 233.167 61.11 234.967 53.46H239.227L234.607 69H230.017C228.727 63.12 228.007 60 227.647 57.96H227.617C227.377 59.91 226.537 63.42 225.157 69H220.537L216.127 53.46ZM248.198 53.1C252.758 53.1 255.728 56.34 255.728 61.2C255.728 65.91 252.908 69.36 247.988 69.36C243.188 69.36 240.368 65.91 240.368 61.29C240.368 56.49 243.278 53.1 248.198 53.1ZM248.018 56.49C246.038 56.49 244.718 57.96 244.718 61.23C244.718 64.23 246.008 66 248.078 66C250.208 66 251.378 64.23 251.378 61.26C251.378 58.02 250.178 56.49 248.018 56.49ZM258.67 69V57.69C258.67 56.13 258.67 54.78 258.64 53.46H262.87C262.93 53.82 262.99 55.35 262.99 56.19C263.68 54.42 265.33 53.13 267.97 53.1V57.21C264.85 57.12 262.99 57.96 262.99 62.22V69H258.67ZM274.679 47.1V60.03C275.819 58.47 277.859 56.07 280.019 53.46H284.939L279.539 59.34L285.449 69H280.589L276.659 62.1L274.679 64.02V69H270.359V47.1H274.679ZM59.02 93.79V96.4H48.73V103.39H60.04L59.65 106H45.7V85.15H59.5V87.79H48.73V93.79H59.02ZM63.0318 106V94.57C63.0318 93.25 63.0318 91.9 63.0018 90.73H65.8818C65.9418 91.18 66.0018 92.68 66.0018 93.13C66.5718 91.87 67.8318 90.37 70.7118 90.37C73.6218 90.37 75.8118 92.17 75.8118 96.19V106H72.8718V96.55C72.8718 94.36 72.0318 92.86 69.7818 92.86C67.1118 92.86 66.0018 94.84 66.0018 97.84V106H63.0318ZM92.7105 98.92H82.0905C82.1205 101.8 83.5605 103.93 86.0505 103.93C88.3305 103.93 89.0805 102.79 89.5305 101.71H92.5005C91.9005 103.66 90.2805 106.36 85.9605 106.36C81.1305 106.36 79.1205 102.49 79.1205 98.53C79.1205 93.94 81.4305 90.37 86.1405 90.37C91.1205 90.37 92.7705 94.3 92.7705 97.66C92.7705 98.14 92.7705 98.5 92.7105 98.92ZM82.1805 96.91H89.8005C89.7705 94.54 88.6005 92.65 86.1105 92.65C83.5305 92.65 82.4205 94.42 82.1805 96.91ZM96.0494 106V94.87C96.0494 92.86 96.0194 91.63 96.0194 90.73H98.8994C98.9594 91.15 98.9894 92.41 98.9894 93.76C99.7694 91.75 101.539 90.43 104.089 90.37V93.28C100.969 93.34 98.9894 94.81 98.9894 98.74V106H96.0494ZM119.348 95.14V104.53C119.348 109.42 117.368 112.27 112.208 112.27C107.408 112.27 106.058 109.57 105.788 107.56H108.788C109.208 109.12 110.438 109.99 112.358 109.99C115.688 109.99 116.468 107.89 116.468 104.47V103.33C115.658 104.95 114.278 105.91 111.788 105.91C107.978 105.91 105.458 102.79 105.458 98.38C105.458 93.46 108.368 90.37 112.088 90.37C114.938 90.37 116.138 91.72 116.468 92.68C116.498 92.02 116.558 91.03 116.588 90.73H119.378C119.378 91.69 119.348 93.67 119.348 95.14ZM108.518 98.26C108.518 101.38 110.108 103.42 112.508 103.42C115.658 103.42 116.558 101.32 116.558 98.08C116.558 94.81 115.748 92.83 112.598 92.83C109.958 92.83 108.518 95.02 108.518 98.26ZM121.903 90.73H125.083C127.393 97.63 128.743 101.83 129.133 103.36H129.163C129.613 101.65 130.663 98.17 133.033 90.73H136.003L130.573 106.66C129.043 111.1 127.873 112.27 124.633 112.27C124.183 112.27 123.553 112.24 122.923 112.18V109.66C123.313 109.72 123.763 109.75 124.153 109.75C126.013 109.75 126.763 108.94 127.603 106.57L121.903 90.73ZM137.043 109.45H134.673C136.263 105.97 136.683 103.36 136.833 101.41H139.833C139.563 104.17 138.573 107.32 137.043 109.45ZM153.833 111.97H150.893V94.45C150.893 93.19 150.893 91.93 150.863 90.73H153.713C153.773 91.21 153.833 92.14 153.833 93.04C154.613 91.57 156.143 90.37 158.693 90.37C162.233 90.37 164.813 93.31 164.813 97.96C164.813 103.42 161.843 106.36 158.153 106.36C155.753 106.36 154.493 105.37 153.833 104.23V111.97ZM161.783 98.08C161.783 94.93 160.373 92.83 157.883 92.83C154.853 92.83 153.683 94.75 153.683 98.35C153.683 101.83 154.673 103.9 157.673 103.9C160.373 103.9 161.783 101.71 161.783 98.08ZM168.149 106V94.87C168.149 92.86 168.119 91.63 168.119 90.73H170.999C171.059 91.15 171.089 92.41 171.089 93.76C171.869 91.75 173.639 90.43 176.189 90.37V93.28C173.069 93.34 171.089 94.81 171.089 98.74V106H168.149ZM191.265 98.92H180.645C180.675 101.8 182.115 103.93 184.605 103.93C186.885 103.93 187.635 102.79 188.085 101.71H191.055C190.455 103.66 188.835 106.36 184.515 106.36C179.685 106.36 177.675 102.49 177.675 98.53C177.675 93.94 179.985 90.37 184.695 90.37C189.675 90.37 191.325 94.3 191.325 97.66C191.325 98.14 191.325 98.5 191.265 98.92ZM180.735 96.91H188.355C188.325 94.54 187.155 92.65 184.665 92.65C182.085 92.65 180.975 94.42 180.735 96.91ZM193.519 101.59H196.459C196.849 103.18 198.049 104.08 200.029 104.08C202.129 104.08 202.939 103.21 202.939 101.92C202.939 100.57 202.249 99.97 199.489 99.28C194.989 98.2 194.119 96.82 194.119 94.72C194.119 92.56 195.709 90.37 199.759 90.37C203.839 90.37 205.429 92.71 205.609 94.81H202.789C202.579 93.91 201.919 92.59 199.639 92.59C197.629 92.59 197.029 93.55 197.029 94.48C197.029 95.56 197.629 96.07 200.359 96.73C205.099 97.84 205.969 99.43 205.969 101.68C205.969 104.35 203.899 106.36 199.909 106.36C195.829 106.36 193.909 104.32 193.519 101.59ZM221.88 98.92H211.26C211.29 101.8 212.73 103.93 215.22 103.93C217.5 103.93 218.25 102.79 218.7 101.71H221.67C221.07 103.66 219.45 106.36 215.13 106.36C210.3 106.36 208.29 102.49 208.29 98.53C208.29 93.94 210.6 90.37 215.31 90.37C220.29 90.37 221.94 94.3 221.94 97.66C221.94 98.14 221.94 98.5 221.88 98.92ZM211.35 96.91H218.97C218.94 94.54 217.77 92.65 215.28 92.65C212.7 92.65 211.59 94.42 211.35 96.91ZM225.219 106V94.57C225.219 93.25 225.219 91.9 225.189 90.73H228.069C228.129 91.18 228.189 92.68 228.189 93.13C228.759 91.87 230.019 90.37 232.899 90.37C235.809 90.37 237.999 92.17 237.999 96.19V106H235.059V96.55C235.059 94.36 234.219 92.86 231.969 92.86C229.299 92.86 228.189 94.84 228.189 97.84V106H225.219ZM251.718 101.29H254.628C253.998 103.9 252.228 106.36 248.208 106.36C243.918 106.36 241.338 103.27 241.338 98.44C241.338 94.09 243.828 90.37 248.418 90.37C252.948 90.37 254.448 93.61 254.628 95.53H251.718C251.388 94.03 250.458 92.8 248.358 92.8C245.808 92.8 244.368 94.99 244.368 98.35C244.368 101.77 245.778 103.96 248.268 103.96C250.098 103.96 251.148 102.97 251.718 101.29ZM270.396 98.92H259.776C259.806 101.8 261.246 103.93 263.736 103.93C266.016 103.93 266.766 102.79 267.216 101.71H270.186C269.586 103.66 267.966 106.36 263.646 106.36C258.816 106.36 256.806 102.49 256.806 98.53C256.806 93.94 259.116 90.37 263.826 90.37C268.806 90.37 270.456 94.3 270.456 97.66C270.456 98.14 270.456 98.5 270.396 98.92ZM259.866 96.91H267.486C267.456 94.54 266.286 92.65 263.796 92.65C261.216 92.65 260.106 94.42 259.866 96.91ZM274.474 109.45H272.104C273.694 105.97 274.114 103.36 274.264 101.41H277.264C276.994 104.17 276.004 107.32 274.474 109.45ZM48.13 143H45.19V121.01H48.13V143ZM65.0542 135.92H54.4342C54.4642 138.8 55.9042 140.93 58.3942 140.93C60.6742 140.93 61.4242 139.79 61.8742 138.71H64.8442C64.2442 140.66 62.6242 143.36 58.3042 143.36C53.4742 143.36 51.4642 139.49 51.4642 135.53C51.4642 130.94 53.7742 127.37 58.4842 127.37C63.4642 127.37 65.1142 131.3 65.1142 134.66C65.1142 135.14 65.1142 135.5 65.0542 135.92ZM54.5242 133.91H62.1442C62.1142 131.54 60.9442 129.65 58.4542 129.65C55.8742 129.65 54.7642 131.42 54.5242 133.91ZM81.5261 132.14V141.53C81.5261 146.42 79.5461 149.27 74.3861 149.27C69.5861 149.27 68.2361 146.57 67.9661 144.56H70.9661C71.3861 146.12 72.6161 146.99 74.5361 146.99C77.8661 146.99 78.6461 144.89 78.6461 141.47V140.33C77.8361 141.95 76.4561 142.91 73.9661 142.91C70.1561 142.91 67.6361 139.79 67.6361 135.38C67.6361 130.46 70.5461 127.37 74.2661 127.37C77.1161 127.37 78.3161 128.72 78.6461 129.68C78.6761 129.02 78.7361 128.03 78.7661 127.73H81.5561C81.5561 128.69 81.5261 130.67 81.5261 132.14ZM70.6961 135.26C70.6961 138.38 72.2861 140.42 74.6861 140.42C77.8361 140.42 78.7361 138.32 78.7361 135.08C78.7361 131.81 77.9261 129.83 74.7761 129.83C72.1361 129.83 70.6961 132.02 70.6961 135.26ZM97.2297 132.41V139.55C97.2297 140.96 97.3497 142.58 97.4397 143H94.6497C94.5297 142.67 94.4397 141.92 94.3797 141.11C93.8697 142.1 92.6697 143.36 89.7597 143.36C86.1297 143.36 84.5997 140.99 84.5997 138.68C84.5997 135.26 87.2997 133.67 91.8297 133.67H94.3497V132.44C94.3497 131.15 93.9297 129.62 91.2597 129.62C88.8297 129.62 88.4097 130.79 88.1697 131.96H85.3197C85.5297 129.74 86.9097 127.34 91.3497 127.37C95.1597 127.37 97.2297 128.93 97.2297 132.41ZM94.3797 136.13V135.65H92.0397C89.0997 135.65 87.5997 136.49 87.5997 138.5C87.5997 140 88.6197 141.11 90.4197 141.11C93.8997 141.11 94.3797 138.74 94.3797 136.13ZM111.005 138.29H113.915C113.285 140.9 111.515 143.36 107.495 143.36C103.205 143.36 100.625 140.27 100.625 135.44C100.625 131.09 103.115 127.37 107.705 127.37C112.235 127.37 113.735 130.61 113.915 132.53H111.005C110.675 131.03 109.745 129.8 107.645 129.8C105.095 129.8 103.655 131.99 103.655 135.35C103.655 138.77 105.065 140.96 107.555 140.96C109.385 140.96 110.435 139.97 111.005 138.29ZM115.604 127.73H118.784C121.094 134.63 122.444 138.83 122.834 140.36H122.864C123.314 138.65 124.364 135.17 126.734 127.73H129.704L124.274 143.66C122.744 148.1 121.574 149.27 118.334 149.27C117.884 149.27 117.254 149.24 116.624 149.18V146.66C117.014 146.72 117.464 146.75 117.854 146.75C119.714 146.75 120.464 145.94 121.304 143.57L115.604 127.73ZM132.789 143H129.669V138.41H132.789V143Z" fill="white"/>
<path d="M265.5 447C265.5 356.165 191.835 282.5 101 282.5C191.835 282.5 265.5 208.835 265.5 118C265.5 208.835 339.165 282.5 430 282.5C339.165 282.5 265.5 356.165 265.5 447Z" fill="white" fill-opacity="0.1"/>
<path d="M89.4142 329.414C90.1953 328.633 90.1953 327.367 89.4142 326.586L76.6863 313.858C75.9052 313.077 74.6389 313.077 73.8579 313.858C73.0768 314.639 73.0768 315.905 73.8579 316.686L85.1716 328L73.8579 339.314C73.0768 340.095 73.0768 341.361 73.8579 342.142C74.6389 342.923 75.9052 342.923 76.6863 342.142L89.4142 329.414ZM41 328V330H88V328V326H41V328Z" fill="white"/>
</g>
<defs>
<linearGradient id="paint0_linear_1638_943" x1="179.5" y1="0" x2="179.5" y2="377" gradientUnits="userSpaceOnUse">
<stop stop-color="#1F3A58"/>
<stop offset="1" stop-color="#437DBE"/>
</linearGradient>
<clipPath id="clip0_1638_943">
<rect width="359" height="377" rx="4" fill="white"/>
</clipPath>
</defs>
</svg>
