<svg width="346" height="377" viewBox="0 0 346 377" fill="none" xmlns="http://www.w3.org/2000/svg">
<g clip-path="url(#clip0_1638_1166)">
<rect width="346" height="377" rx="4" fill="url(#paint0_linear_1638_1166)"/>
<path opacity="0.1" fill-rule="evenodd" clip-rule="evenodd" d="M191.064 372C183.448 305.632 129.181 284.16 103 281.72C129.181 279.28 183.448 255.368 191.064 189H419.556C423.522 219.093 447.165 281.72 510 281.72C447.165 281.72 423.522 341.907 419.556 372H191.064Z" fill="#FFF9E8"/>
<path d="M87.4142 329.414C88.1953 328.633 88.1953 327.367 87.4142 326.586L74.6863 313.858C73.9052 313.077 72.6389 313.077 71.8579 313.858C71.0768 314.639 71.0768 315.905 71.8579 316.686L83.1716 328L71.8579 339.314C71.0768 340.095 71.0768 341.361 71.8579 342.142C72.6389 342.923 73.9052 342.923 74.6863 342.142L87.4142 329.414ZM39 328V330H86V328V326H39V328Z" fill="#B3902F"/>
<path d="M46.6 69V51.99H40.3V48.33H57.34V51.99H51.07V69H46.6ZM59.5567 47.1H63.8767V55.32C64.5367 54.3 65.7967 53.1 68.3167 53.1C71.1967 53.1 73.5067 54.84 73.5067 59.04V69H69.2467V59.67C69.2467 57.66 68.5267 56.58 66.7267 56.58C64.3267 56.58 63.8767 58.38 63.8767 60.75V69H59.5567V47.1ZM91.0492 62.16H80.7892C80.7892 64.11 81.7792 66 83.9092 66C85.7092 66 86.2192 65.28 86.6392 64.35H90.9292C90.3892 66.24 88.6792 69.36 83.8192 69.36C78.6892 69.36 76.4692 65.55 76.4692 61.47C76.4692 56.58 78.9592 53.1 83.9692 53.1C89.2792 53.1 91.1092 56.97 91.1092 60.84C91.1092 61.38 91.1092 61.71 91.0492 62.16ZM80.8792 59.52H86.7892C86.7592 57.72 86.0392 56.19 83.9392 56.19C81.8992 56.19 81.0592 57.6 80.8792 59.52ZM114.745 49.26L114.145 52.77H106.225C106.105 53.82 105.775 55.71 105.625 56.52C106.375 55.92 107.485 55.47 109.195 55.47C113.095 55.47 115.285 58.29 115.285 62.04C115.285 65.85 113.185 69.36 107.845 69.36C103.945 69.36 101.095 67.35 100.645 63.84H104.935C105.325 65.19 106.255 66.06 107.935 66.06C109.975 66.06 110.965 64.56 110.965 62.4C110.965 60.33 110.215 58.86 107.935 58.86C106.105 58.86 105.355 59.67 104.905 60.84L101.035 60.33C101.575 57.84 102.415 51.96 102.745 49.26H114.745ZM131.975 62.61H136.475C135.665 66.48 132.755 69.3 127.565 69.3C120.995 69.3 117.905 64.65 117.905 58.77C117.905 53.1 121.115 48.03 127.775 48.03C133.295 48.03 135.965 51.24 136.475 54.72H132.005C131.555 53.1 130.445 51.51 127.625 51.51C123.935 51.51 122.525 54.84 122.525 58.62C122.525 62.1 123.755 65.79 127.745 65.79C130.685 65.79 131.585 63.84 131.975 62.61ZM138.282 64.32H142.512C142.842 65.58 143.862 66.27 145.452 66.27C147.042 66.27 147.612 65.7 147.612 64.74C147.612 63.75 146.952 63.36 144.732 62.82C139.662 61.56 138.852 60 138.852 57.81C138.852 55.53 140.442 53.1 145.122 53.1C149.832 53.1 151.452 55.68 151.572 57.78H147.492C147.342 57.21 146.952 56.13 144.942 56.13C143.532 56.13 143.052 56.76 143.052 57.45C143.052 58.23 143.532 58.59 146.052 59.19C151.242 60.39 151.992 62.16 151.992 64.44C151.992 67.02 150.012 69.36 145.302 69.36C140.562 69.36 138.642 67.08 138.282 64.32ZM168.996 53.1C173.556 53.1 176.526 56.34 176.526 61.2C176.526 65.91 173.706 69.36 168.786 69.36C163.986 69.36 161.166 65.91 161.166 61.29C161.166 56.49 164.076 53.1 168.996 53.1ZM168.816 56.49C166.836 56.49 165.516 57.96 165.516 61.23C165.516 64.23 166.806 66 168.876 66C171.006 66 172.176 64.23 172.176 61.26C172.176 58.02 170.976 56.49 168.816 56.49ZM184.447 69H180.157V56.7H177.877V53.46H180.157V52.11C180.157 48.9 181.747 46.8 185.107 46.8C185.797 46.8 186.697 46.86 187.087 46.98V50.37C186.847 50.34 186.517 50.31 186.187 50.31C184.927 50.31 184.447 50.76 184.447 52.44V53.46H187.147V56.7H184.447V69ZM197.235 69V48.33H206.265C211.275 48.33 213.165 50.91 213.165 53.61C213.165 55.95 211.935 57.45 210.525 58.08C211.935 58.62 213.765 60.09 213.765 62.82C213.765 66.36 210.975 69 206.595 69H197.235ZM201.615 56.49H205.755C207.885 56.49 208.755 55.53 208.755 54.06C208.755 52.56 207.615 51.78 205.905 51.78H201.615V56.49ZM201.615 59.94V65.55H205.665C208.095 65.55 209.175 64.53 209.175 62.67C209.175 60.99 208.095 59.94 205.635 59.94H201.615ZM216.734 69V57.69C216.734 56.13 216.734 54.78 216.704 53.46H220.934C220.994 53.82 221.054 55.35 221.054 56.19C221.744 54.42 223.394 53.13 226.034 53.1V57.21C222.914 57.12 221.054 57.96 221.054 62.22V69H216.734ZM240.943 58.47V64.98C240.943 66.48 241.063 68.64 241.153 69H237.043C236.923 68.7 236.833 67.86 236.833 67.47C236.263 68.34 235.213 69.36 232.453 69.36C228.703 69.36 227.143 66.9 227.143 64.5C227.143 60.96 229.963 59.31 234.523 59.31H236.743V58.38C236.743 57.27 236.353 56.19 234.343 56.19C232.543 56.19 232.123 56.94 231.943 58.08H227.863C228.073 55.32 229.783 53.1 234.523 53.1C238.663 53.13 240.943 54.75 240.943 58.47ZM236.743 62.34V61.92H235.003C232.393 61.92 231.433 62.73 231.433 64.23C231.433 65.34 232.123 66.3 233.683 66.3C236.413 66.3 236.743 64.38 236.743 62.34ZM244.831 69V57.39C244.831 56.07 244.831 54.63 244.801 53.46H248.971C249.061 53.88 249.121 54.96 249.151 55.44C249.661 54.48 250.921 53.1 253.651 53.1C256.771 53.1 258.781 55.23 258.781 59.13V69H254.491V59.61C254.491 57.84 253.921 56.58 252.001 56.58C250.171 56.58 249.151 57.6 249.151 60.36V69H244.831ZM272.544 47.1H276.834V64.74C276.834 66.15 276.834 67.59 276.864 69H272.754C272.664 68.52 272.574 67.74 272.544 67.38C271.794 68.61 270.444 69.36 268.134 69.36C264.204 69.36 261.714 66.21 261.714 61.35C261.714 56.58 264.354 53.1 268.764 53.1C271.014 53.1 272.214 53.91 272.544 54.6V47.1ZM266.124 61.26C266.124 64.29 267.294 65.91 269.424 65.91C272.364 65.91 272.724 63.45 272.724 61.23C272.724 58.56 272.334 56.55 269.514 56.55C267.264 56.55 266.124 58.32 266.124 61.26ZM42.46 106V85.33H46.93V93.37H55.27V85.33H59.74V106H55.27V97.06H46.93V106H42.46ZM77.4848 99.16H67.2248C67.2248 101.11 68.2148 103 70.3448 103C72.1448 103 72.6548 102.28 73.0748 101.35H77.3648C76.8248 103.24 75.1148 106.36 70.2548 106.36C65.1248 106.36 62.9048 102.55 62.9048 98.47C62.9048 93.58 65.3948 90.1 70.4048 90.1C75.7148 90.1 77.5448 93.97 77.5448 97.84C77.5448 98.38 77.5448 98.71 77.4848 99.16ZM67.3148 96.52H73.2248C73.1948 94.72 72.4748 93.19 70.3748 93.19C68.3348 93.19 67.4948 94.6 67.3148 96.52ZM93.3454 95.47V101.98C93.3454 103.48 93.4654 105.64 93.5554 106H89.4454C89.3254 105.7 89.2354 104.86 89.2354 104.47C88.6654 105.34 87.6154 106.36 84.8554 106.36C81.1054 106.36 79.5454 103.9 79.5454 101.5C79.5454 97.96 82.3654 96.31 86.9254 96.31H89.1454V95.38C89.1454 94.27 88.7554 93.19 86.7454 93.19C84.9454 93.19 84.5254 93.94 84.3454 95.08H80.2654C80.4754 92.32 82.1854 90.1 86.9254 90.1C91.0654 90.13 93.3454 91.75 93.3454 95.47ZM89.1454 99.34V98.92H87.4054C84.7954 98.92 83.8354 99.73 83.8354 101.23C83.8354 102.34 84.5254 103.3 86.0854 103.3C88.8154 103.3 89.1454 101.38 89.1454 99.34ZM101.523 106H97.2032V84.1H101.523V106ZM103.877 93.7V90.46H106.277V86.26H110.567V90.46H113.627V93.7H110.567V101.38C110.567 102.55 110.927 103 112.217 103C112.457 103 112.877 103 113.177 102.97V105.91C112.337 106.21 111.167 106.21 110.297 106.21C107.267 106.21 106.277 104.59 106.277 101.86V93.7H103.877ZM116.07 84.1H120.39V92.32C121.05 91.3 122.31 90.1 124.83 90.1C127.71 90.1 130.02 91.84 130.02 96.04V106H125.76V96.67C125.76 94.66 125.04 93.58 123.24 93.58C120.84 93.58 120.39 95.38 120.39 97.75V106H116.07V84.1ZM144.839 106H141.899V93.07H139.499V90.73H141.899V88.99C141.899 87.41 142.259 86.14 142.979 85.18C143.699 84.2 144.849 83.71 146.429 83.71C147.229 83.71 147.809 83.77 148.169 83.89V86.35C147.869 86.27 147.449 86.23 146.909 86.23C146.169 86.23 145.639 86.46 145.319 86.92C144.999 87.38 144.839 88.14 144.839 89.2V90.73H147.839V93.07H144.839V106ZM150.061 106V94.87C150.061 94.11 150.051 93.28 150.031 92.38C150.031 91.48 150.031 90.93 150.031 90.73H152.911C152.971 91.15 153.001 92.16 153.001 93.76C153.401 92.74 154.041 91.93 154.921 91.33C155.801 90.71 156.861 90.39 158.101 90.37V93.28C154.701 93.34 153.001 95.16 153.001 98.74V106H150.061ZM166.877 90.37C169.017 90.37 170.727 91.1 172.007 92.56C173.307 94 173.957 95.92 173.957 98.32C173.957 100.64 173.317 102.56 172.037 104.08C170.757 105.6 168.977 106.36 166.697 106.36C164.517 106.36 162.787 105.62 161.507 104.14C160.227 102.64 159.587 100.72 159.587 98.38C159.587 96.04 160.237 94.12 161.537 92.62C162.837 91.12 164.617 90.37 166.877 90.37ZM169.847 94.3C169.127 93.3 168.097 92.8 166.757 92.8C165.417 92.8 164.387 93.29 163.667 94.27C162.967 95.25 162.617 96.61 162.617 98.35C162.617 100.01 162.997 101.36 163.757 102.4C164.517 103.42 165.537 103.93 166.817 103.93C168.117 103.93 169.127 103.43 169.847 102.43C170.587 101.43 170.957 100.08 170.957 98.38C170.957 96.66 170.587 95.3 169.847 94.3ZM177.278 106V94.66C177.278 92.88 177.268 91.57 177.248 90.73H180.068C180.148 91.33 180.188 92.08 180.188 92.98C181.128 91.24 182.598 90.37 184.598 90.37C185.638 90.37 186.518 90.61 187.238 91.09C187.958 91.57 188.468 92.21 188.768 93.01C189.808 91.25 191.418 90.37 193.598 90.37C194.998 90.37 196.148 90.83 197.048 91.75C197.968 92.65 198.428 94.06 198.428 95.98V106H195.548V96.31C195.548 95.33 195.328 94.51 194.888 93.85C194.448 93.19 193.708 92.86 192.668 92.86C191.528 92.86 190.678 93.25 190.118 94.03C189.578 94.79 189.308 95.86 189.308 97.24V106H186.428V96.43C186.428 94.05 185.488 92.86 183.608 92.86C182.488 92.86 181.638 93.28 181.058 94.12C180.478 94.94 180.188 96.08 180.188 97.54V106H177.278ZM219.685 101.29H222.595C222.235 102.77 221.535 103.99 220.495 104.95C219.475 105.89 218.035 106.36 216.175 106.36C214.035 106.36 212.355 105.65 211.135 104.23C209.915 102.79 209.305 100.86 209.305 98.44C209.305 96.16 209.935 94.25 211.195 92.71C212.455 91.15 214.185 90.37 216.385 90.37C217.445 90.37 218.385 90.55 219.205 90.91C220.045 91.25 220.685 91.7 221.125 92.26C221.585 92.8 221.925 93.35 222.145 93.91C222.385 94.45 222.535 94.99 222.595 95.53H219.685C219.285 93.71 218.165 92.8 216.325 92.8C215.065 92.8 214.085 93.3 213.385 94.3C212.685 95.3 212.335 96.65 212.335 98.35C212.335 100.07 212.675 101.44 213.355 102.46C214.035 103.46 214.995 103.96 216.235 103.96C217.935 103.96 219.085 103.07 219.685 101.29ZM232.063 90.37C234.203 90.37 235.913 91.1 237.193 92.56C238.493 94 239.143 95.92 239.143 98.32C239.143 100.64 238.503 102.56 237.223 104.08C235.943 105.6 234.163 106.36 231.883 106.36C229.703 106.36 227.973 105.62 226.693 104.14C225.413 102.64 224.773 100.72 224.773 98.38C224.773 96.04 225.423 94.12 226.723 92.62C228.023 91.12 229.803 90.37 232.063 90.37ZM235.033 94.3C234.313 93.3 233.283 92.8 231.943 92.8C230.603 92.8 229.573 93.29 228.853 94.27C228.153 95.25 227.803 96.61 227.803 98.35C227.803 100.01 228.183 101.36 228.943 102.4C229.703 103.42 230.723 103.93 232.003 103.93C233.303 103.93 234.313 103.43 235.033 102.43C235.773 101.43 236.143 100.08 236.143 98.38C236.143 96.66 235.773 95.3 235.033 94.3ZM242.463 106V94.57C242.463 92.79 242.453 91.51 242.433 90.73H245.313C245.393 91.33 245.433 92.13 245.433 93.13C246.273 91.29 247.843 90.37 250.143 90.37C251.683 90.37 252.913 90.86 253.833 91.84C254.773 92.82 255.243 94.27 255.243 96.19V106H252.303V96.55C252.303 94.09 251.273 92.86 249.213 92.86C246.693 92.86 245.433 94.52 245.433 97.84V106H242.463ZM268.962 101.29H271.872C271.512 102.77 270.812 103.99 269.772 104.95C268.752 105.89 267.312 106.36 265.452 106.36C263.312 106.36 261.632 105.65 260.412 104.23C259.192 102.79 258.582 100.86 258.582 98.44C258.582 96.16 259.212 94.25 260.472 92.71C261.732 91.15 263.462 90.37 265.662 90.37C266.722 90.37 267.662 90.55 268.482 90.91C269.322 91.25 269.962 91.7 270.402 92.26C270.862 92.8 271.202 93.35 271.422 93.91C271.662 94.45 271.812 94.99 271.872 95.53H268.962C268.562 93.71 267.442 92.8 265.602 92.8C264.342 92.8 263.362 93.3 262.662 94.3C261.962 95.3 261.612 96.65 261.612 98.35C261.612 100.07 261.952 101.44 262.632 102.46C263.312 103.46 264.272 103.96 265.512 103.96C267.212 103.96 268.362 103.07 268.962 101.29ZM287.64 98.92H277.02C277.04 100.4 277.4 101.61 278.1 102.55C278.8 103.47 279.76 103.93 280.98 103.93C282 103.93 282.76 103.73 283.26 103.33C283.78 102.93 284.18 102.39 284.46 101.71H287.43C287.25 102.27 287.02 102.8 286.74 103.3C286.46 103.78 286.07 104.27 285.57 104.77C285.09 105.25 284.44 105.64 283.62 105.94C282.82 106.22 281.91 106.36 280.89 106.36C278.63 106.36 276.92 105.6 275.76 104.08C274.62 102.56 274.05 100.71 274.05 98.53C274.05 96.13 274.65 94.17 275.85 92.65C277.07 91.13 278.81 90.37 281.07 90.37C282.25 90.37 283.29 90.59 284.19 91.03C285.09 91.47 285.78 92.05 286.26 92.77C286.76 93.49 287.12 94.26 287.34 95.08C287.58 95.9 287.7 96.76 287.7 97.66C287.7 98.22 287.68 98.64 287.64 98.92ZM277.11 96.91H284.73C284.71 95.65 284.39 94.63 283.77 93.85C283.15 93.05 282.24 92.65 281.04 92.65C278.7 92.65 277.39 94.07 277.11 96.91ZM293.919 111.97H290.979V94.45C290.979 92.77 290.969 91.53 290.949 90.73H293.799C293.879 91.37 293.919 92.14 293.919 93.04C294.859 91.26 296.479 90.37 298.779 90.37C300.579 90.37 302.049 91.06 303.189 92.44C304.329 93.82 304.899 95.66 304.899 97.96C304.899 100.6 304.269 102.66 303.009 104.14C301.749 105.62 300.159 106.36 298.239 106.36C296.179 106.36 294.739 105.65 293.919 104.23V111.97ZM301.869 98.08C301.869 96.48 301.519 95.21 300.819 94.27C300.139 93.31 299.189 92.83 297.969 92.83C296.489 92.83 295.419 93.29 294.759 94.21C294.099 95.13 293.769 96.51 293.769 98.35C293.769 100.19 294.069 101.58 294.669 102.52C295.289 103.44 296.319 103.9 297.759 103.9C299.099 103.9 300.119 103.39 300.819 102.37C301.519 101.35 301.869 99.92 301.869 98.08ZM306.375 93.07V90.73H308.955V86.29H311.895V90.73H315.195V93.07H311.895V101.74C311.895 102.5 312.015 103.05 312.255 103.39C312.495 103.71 312.945 103.87 313.605 103.87C314.185 103.87 314.605 103.83 314.865 103.75V105.94C314.345 106.12 313.555 106.21 312.495 106.21C311.255 106.21 310.355 105.9 309.795 105.28C309.235 104.64 308.955 103.66 308.955 102.34V93.07H306.375ZM40.33 130.07V127.73H42.91V123.29H45.85V127.73H49.15V130.07H45.85V138.74C45.85 139.5 45.97 140.05 46.21 140.39C46.45 140.71 46.9 140.87 47.56 140.87C48.14 140.87 48.56 140.83 48.82 140.75V142.94C48.3 143.12 47.51 143.21 46.45 143.21C45.21 143.21 44.31 142.9 43.75 142.28C43.19 141.64 42.91 140.66 42.91 139.34V130.07H40.33ZM58.0101 127.37C60.1501 127.37 61.8601 128.1 63.1401 129.56C64.4401 131 65.0901 132.92 65.0901 135.32C65.0901 137.64 64.4501 139.56 63.1701 141.08C61.8901 142.6 60.1101 143.36 57.8301 143.36C55.6501 143.36 53.9201 142.62 52.6401 141.14C51.3601 139.64 50.7201 137.72 50.7201 135.38C50.7201 133.04 51.3701 131.12 52.6701 129.62C53.9701 128.12 55.7501 127.37 58.0101 127.37ZM60.9801 131.3C60.2601 130.3 59.2301 129.8 57.8901 129.8C56.5501 129.8 55.5201 130.29 54.8001 131.27C54.1001 132.25 53.7501 133.61 53.7501 135.35C53.7501 137.01 54.1301 138.36 54.8901 139.4C55.6501 140.42 56.6701 140.93 57.9501 140.93C59.2501 140.93 60.2601 140.43 60.9801 139.43C61.7201 138.43 62.0901 137.08 62.0901 135.38C62.0901 133.66 61.7201 132.3 60.9801 131.3ZM87.55 132.41V139.55C87.55 141.19 87.62 142.34 87.76 143H84.97C84.87 142.7 84.78 142.07 84.7 141.11C83.92 142.61 82.38 143.36 80.08 143.36C78.38 143.36 77.09 142.9 76.21 141.98C75.35 141.06 74.92 139.96 74.92 138.68C74.92 137 75.54 135.75 76.78 134.93C78.04 134.09 79.83 133.67 82.15 133.67H84.67V132.44C84.67 130.56 83.64 129.62 81.58 129.62C80.48 129.62 79.73 129.83 79.33 130.25C78.93 130.65 78.65 131.22 78.49 131.96H75.64C75.76 130.64 76.29 129.54 77.23 128.66C78.17 127.78 79.65 127.35 81.67 127.37C85.59 127.37 87.55 129.05 87.55 132.41ZM84.7 136.13V135.65H82.36C79.4 135.65 77.92 136.6 77.92 138.5C77.92 139.28 78.17 139.91 78.67 140.39C79.17 140.87 79.86 141.11 80.74 141.11C81.58 141.11 82.27 140.98 82.81 140.72C83.37 140.46 83.78 140.08 84.04 139.58C84.3 139.08 84.47 138.57 84.55 138.05C84.65 137.51 84.7 136.87 84.7 136.13ZM101.985 121.01H104.925V138.71C104.925 140.59 104.935 142.02 104.955 143H102.105C102.025 142.44 101.985 141.75 101.985 140.93C101.185 142.55 99.6154 143.36 97.2754 143.36C95.3354 143.36 93.7854 142.64 92.6254 141.2C91.4854 139.76 90.9154 137.87 90.9154 135.53C90.9154 133.13 91.5354 131.17 92.7754 129.65C94.0154 128.13 95.6854 127.37 97.7854 127.37C99.9654 127.37 101.365 127.99 101.985 129.23V121.01ZM93.9754 135.44C93.9754 137.16 94.3354 138.5 95.0554 139.46C95.7954 140.42 96.7554 140.9 97.9354 140.9C98.7754 140.9 99.4754 140.76 100.035 140.48C100.595 140.18 101.015 139.75 101.295 139.19C101.595 138.63 101.795 138.04 101.895 137.42C102.015 136.78 102.075 136.03 102.075 135.17C102.075 133.37 101.805 132.03 101.265 131.15C100.725 130.27 99.6854 129.83 98.1454 129.83C96.8254 129.83 95.7954 130.32 95.0554 131.3C94.3354 132.28 93.9754 133.66 93.9754 135.44ZM107.537 127.73H110.687C112.827 134.35 114.107 138.54 114.527 140.3H114.557C114.757 139.26 116.117 135.07 118.637 127.73H121.607L116.027 143H112.847L107.537 127.73ZM130.227 127.37C132.367 127.37 134.077 128.1 135.357 129.56C136.657 131 137.307 132.92 137.307 135.32C137.307 137.64 136.667 139.56 135.387 141.08C134.107 142.6 132.327 143.36 130.047 143.36C127.867 143.36 126.137 142.62 124.857 141.14C123.577 139.64 122.937 137.72 122.937 135.38C122.937 133.04 123.587 131.12 124.887 129.62C126.187 128.12 127.967 127.37 130.227 127.37ZM133.197 131.3C132.477 130.3 131.447 129.8 130.107 129.8C128.767 129.8 127.737 130.29 127.017 131.27C126.317 132.25 125.967 133.61 125.967 135.35C125.967 137.01 126.347 138.36 127.107 139.4C127.867 140.42 128.887 140.93 130.167 140.93C131.467 140.93 132.477 140.43 133.197 139.43C133.937 138.43 134.307 137.08 134.307 135.38C134.307 133.66 133.937 132.3 133.197 131.3ZM150.163 138.29H153.073C152.713 139.77 152.013 140.99 150.973 141.95C149.953 142.89 148.513 143.36 146.653 143.36C144.513 143.36 142.833 142.65 141.613 141.23C140.393 139.79 139.783 137.86 139.783 135.44C139.783 133.16 140.413 131.25 141.673 129.71C142.933 128.15 144.663 127.37 146.863 127.37C147.923 127.37 148.863 127.55 149.683 127.91C150.523 128.25 151.163 128.7 151.603 129.26C152.063 129.8 152.403 130.35 152.623 130.91C152.863 131.45 153.013 131.99 153.073 132.53H150.163C149.763 130.71 148.643 129.8 146.803 129.8C145.543 129.8 144.563 130.3 143.863 131.3C143.163 132.3 142.813 133.65 142.813 135.35C142.813 137.07 143.153 138.44 143.833 139.46C144.513 140.46 145.473 140.96 146.713 140.96C148.413 140.96 149.563 140.07 150.163 138.29ZM167.765 132.41V139.55C167.765 141.19 167.835 142.34 167.975 143H165.185C165.085 142.7 164.995 142.07 164.915 141.11C164.135 142.61 162.595 143.36 160.295 143.36C158.595 143.36 157.305 142.9 156.425 141.98C155.565 141.06 155.135 139.96 155.135 138.68C155.135 137 155.755 135.75 156.995 134.93C158.255 134.09 160.045 133.67 162.365 133.67H164.885V132.44C164.885 130.56 163.855 129.62 161.795 129.62C160.695 129.62 159.945 129.83 159.545 130.25C159.145 130.65 158.865 131.22 158.705 131.96H155.855C155.975 130.64 156.505 129.54 157.445 128.66C158.385 127.78 159.865 127.35 161.885 127.37C165.805 127.37 167.765 129.05 167.765 132.41ZM164.915 136.13V135.65H162.575C159.615 135.65 158.135 136.6 158.135 138.5C158.135 139.28 158.385 139.91 158.885 140.39C159.385 140.87 160.075 141.11 160.955 141.11C161.795 141.11 162.485 140.98 163.025 140.72C163.585 140.46 163.995 140.08 164.255 139.58C164.515 139.08 164.685 138.57 164.765 138.05C164.865 137.51 164.915 136.87 164.915 136.13ZM181.54 138.29H184.45C184.09 139.77 183.39 140.99 182.35 141.95C181.33 142.89 179.89 143.36 178.03 143.36C175.89 143.36 174.21 142.65 172.99 141.23C171.77 139.79 171.16 137.86 171.16 135.44C171.16 133.16 171.79 131.25 173.05 129.71C174.31 128.15 176.04 127.37 178.24 127.37C179.3 127.37 180.24 127.55 181.06 127.91C181.9 128.25 182.54 128.7 182.98 129.26C183.44 129.8 183.78 130.35 184 130.91C184.24 131.45 184.39 131.99 184.45 132.53H181.54C181.14 130.71 180.02 129.8 178.18 129.8C176.92 129.8 175.94 130.3 175.24 131.3C174.54 132.3 174.19 133.65 174.19 135.35C174.19 137.07 174.53 138.44 175.21 139.46C175.89 140.46 176.85 140.96 178.09 140.96C179.79 140.96 180.94 140.07 181.54 138.29ZM186.139 127.73H189.319C191.639 134.67 192.989 138.88 193.369 140.36H193.399C193.879 138.52 195.169 134.31 197.269 127.73H200.239L194.809 143.66C194.049 145.9 193.269 147.39 192.469 148.13C191.689 148.89 190.489 149.27 188.869 149.27C188.349 149.27 187.779 149.24 187.159 149.18V146.66C187.539 146.72 187.949 146.75 188.389 146.75C189.309 146.75 190.009 146.52 190.489 146.06C190.969 145.6 191.419 144.77 191.839 143.57L186.139 127.73ZM203.324 143H200.204V138.41H203.324V143Z" fill="white"/>
</g>
<defs>
<linearGradient id="paint0_linear_1638_1166" x1="173" y1="0" x2="173" y2="377" gradientUnits="userSpaceOnUse">
<stop stop-color="#B3902F"/>
<stop offset="1" stop-color="#FFDF85"/>
</linearGradient>
<clipPath id="clip0_1638_1166">
<rect width="346" height="377" rx="4" fill="white"/>
</clipPath>
</defs>
</svg>
