<svg width="350" height="377" viewBox="0 0 350 377" fill="none" xmlns="http://www.w3.org/2000/svg">
<g clip-path="url(#clip0_1638_938)">
<rect width="350" height="377" rx="4" fill="url(#paint0_linear_1638_938)"/>
<path d="M57.89 64.23H50.33L48.74 69H44.33L51.35 48.33H56.96L64.31 69H59.6L57.89 64.23ZM51.29 60.57H56.93C55.46 56.19 54.53 53.4 54.02 51.54H53.99C53.48 53.58 52.46 56.82 51.29 60.57ZM66.9678 69V48.33H71.4378V65.34H81.7578L81.2478 69H66.9678ZM97.0013 64.23H89.4413L87.8513 69H83.4413L90.4613 48.33H96.0713L103.421 69H98.7113L97.0013 64.23ZM90.4013 60.57H96.0413C94.5713 56.19 93.6413 53.4 93.1313 51.54H93.1013C92.5913 53.58 91.5713 56.82 90.4013 60.57ZM105.005 59.4H113.345V63.15H105.005V59.4ZM121.204 69H117.124V48.33H122.674C125.254 52.95 130.024 61.35 130.984 63.6H131.044C130.804 61.44 130.804 57.84 130.804 54.45V48.33H134.854V69H129.604C127.384 64.95 122.104 55.35 121.054 52.95H120.994C121.144 54.75 121.204 59.01 121.204 62.7V69ZM152.588 62.16H142.328C142.328 64.11 143.318 66 145.448 66C147.248 66 147.758 65.28 148.178 64.35H152.468C151.928 66.24 150.218 69.36 145.358 69.36C140.228 69.36 138.008 65.55 138.008 61.47C138.008 56.58 140.498 53.1 145.508 53.1C150.818 53.1 152.648 56.97 152.648 60.84C152.648 61.38 152.648 61.71 152.588 62.16ZM142.418 59.52H148.328C148.298 57.72 147.578 56.19 145.478 56.19C143.438 56.19 142.598 57.6 142.418 59.52ZM153.539 53.46H158.309C159.929 56.4 160.589 57.54 161.039 58.35H161.069C161.609 57.39 162.569 55.68 163.829 53.46H168.599L163.559 60.87L168.569 69H163.709C162.329 66.36 161.459 64.68 160.979 63.78H160.949C160.559 64.59 159.479 66.6 158.219 69H153.509L158.339 61.44L153.539 53.46ZM183.76 53.46V64.5C183.76 65.97 183.76 67.62 183.79 69H179.59C179.53 68.58 179.5 67.74 179.47 67.2C178.54 68.76 177.19 69.36 175.18 69.36C172.03 69.36 170.02 67.44 170.02 63.6V53.46H174.31V62.73C174.31 64.44 174.85 65.85 176.71 65.85C178.66 65.85 179.47 64.8 179.47 61.74V53.46H183.76ZM186.345 64.32H190.575C190.905 65.58 191.925 66.27 193.515 66.27C195.105 66.27 195.675 65.7 195.675 64.74C195.675 63.75 195.015 63.36 192.795 62.82C187.725 61.56 186.915 60 186.915 57.81C186.915 55.53 188.505 53.1 193.185 53.1C197.895 53.1 199.515 55.68 199.635 57.78H195.555C195.405 57.21 195.015 56.13 193.005 56.13C191.595 56.13 191.115 56.76 191.115 57.45C191.115 58.23 191.595 58.59 194.115 59.19C199.305 60.39 200.055 62.16 200.055 64.44C200.055 67.02 198.075 69.36 193.365 69.36C188.625 69.36 186.705 67.08 186.345 64.32ZM216.783 55.56H214.803V53.64C214.803 51.78 214.923 50.46 214.953 49.8H214.893L213.333 55.53H211.473L210.093 49.8H210.003C210.033 50.46 210.123 51.78 210.123 54V55.56H208.173V48.33H211.473L212.523 52.53L213.783 48.33H216.783V55.56ZM200.733 48.33H207.363V50.16H205.143V55.56H202.983V50.16H200.733V48.33ZM57.92 100.03H49.73L47.63 106H44.54L51.89 85.15H55.73L63.41 106H60.11L57.92 100.03ZM50.51 97.39H57.17C55.11 91.69 53.97 88.43 53.75 87.61H53.72C53.54 88.27 52.47 91.53 50.51 97.39ZM65.232 101.59H68.172C68.572 103.25 69.762 104.08 71.742 104.08C73.682 104.08 74.652 103.36 74.652 101.92C74.652 101.24 74.412 100.72 73.932 100.36C73.472 99.98 72.562 99.62 71.202 99.28C69.082 98.78 67.652 98.18 66.912 97.48C66.192 96.78 65.832 95.86 65.832 94.72C65.832 93.52 66.302 92.5 67.242 91.66C68.182 90.8 69.592 90.37 71.472 90.37C73.352 90.37 74.772 90.81 75.732 91.69C76.692 92.55 77.222 93.59 77.322 94.81H74.502C74.162 93.33 73.112 92.59 71.352 92.59C70.432 92.59 69.762 92.77 69.342 93.13C68.942 93.49 68.742 93.94 68.742 94.48C68.742 95.04 68.962 95.48 69.402 95.8C69.842 96.1 70.732 96.41 72.072 96.73C74.292 97.25 75.782 97.9 76.542 98.68C77.302 99.44 77.682 100.44 77.682 101.68C77.682 103.06 77.152 104.19 76.092 105.07C75.052 105.93 73.562 106.36 71.622 106.36C69.682 106.36 68.182 105.93 67.122 105.07C66.062 104.21 65.432 103.05 65.232 101.59ZM79.8512 101.59H82.7912C83.1912 103.25 84.3812 104.08 86.3612 104.08C88.3012 104.08 89.2712 103.36 89.2712 101.92C89.2712 101.24 89.0312 100.72 88.5512 100.36C88.0912 99.98 87.1812 99.62 85.8212 99.28C83.7012 98.78 82.2712 98.18 81.5312 97.48C80.8112 96.78 80.4512 95.86 80.4512 94.72C80.4512 93.52 80.9212 92.5 81.8612 91.66C82.8012 90.8 84.2112 90.37 86.0912 90.37C87.9712 90.37 89.3912 90.81 90.3512 91.69C91.3112 92.55 91.8412 93.59 91.9412 94.81H89.1212C88.7812 93.33 87.7312 92.59 85.9712 92.59C85.0512 92.59 84.3812 92.77 83.9612 93.13C83.5612 93.49 83.3612 93.94 83.3612 94.48C83.3612 95.04 83.5812 95.48 84.0212 95.8C84.4612 96.1 85.3512 96.41 86.6912 96.73C88.9112 97.25 90.4012 97.9 91.1612 98.68C91.9212 99.44 92.3012 100.44 92.3012 101.68C92.3012 103.06 91.7712 104.19 90.7112 105.07C89.6712 105.93 88.1812 106.36 86.2412 106.36C84.3012 106.36 82.8012 105.93 81.7412 105.07C80.6812 104.21 80.0512 103.05 79.8512 101.59ZM108.212 98.92H97.5924C97.6124 100.4 97.9724 101.61 98.6724 102.55C99.3724 103.47 100.332 103.93 101.552 103.93C102.572 103.93 103.332 103.73 103.832 103.33C104.352 102.93 104.752 102.39 105.032 101.71H108.002C107.822 102.27 107.592 102.8 107.312 103.3C107.032 103.78 106.642 104.27 106.142 104.77C105.662 105.25 105.012 105.64 104.192 105.94C103.392 106.22 102.482 106.36 101.462 106.36C99.2024 106.36 97.4924 105.6 96.3324 104.08C95.1924 102.56 94.6224 100.71 94.6224 98.53C94.6224 96.13 95.2224 94.17 96.4224 92.65C97.6424 91.13 99.3824 90.37 101.642 90.37C102.822 90.37 103.862 90.59 104.762 91.03C105.662 91.47 106.352 92.05 106.832 92.77C107.332 93.49 107.692 94.26 107.912 95.08C108.152 95.9 108.272 96.76 108.272 97.66C108.272 98.22 108.252 98.64 108.212 98.92ZM97.6824 96.91H105.302C105.282 95.65 104.962 94.63 104.342 93.85C103.722 93.05 102.812 92.65 101.612 92.65C99.2724 92.65 97.9624 94.07 97.6824 96.91ZM110.466 101.59H113.406C113.806 103.25 114.996 104.08 116.976 104.08C118.916 104.08 119.886 103.36 119.886 101.92C119.886 101.24 119.646 100.72 119.166 100.36C118.706 99.98 117.796 99.62 116.436 99.28C114.316 98.78 112.886 98.18 112.146 97.48C111.426 96.78 111.066 95.86 111.066 94.72C111.066 93.52 111.536 92.5 112.476 91.66C113.416 90.8 114.826 90.37 116.706 90.37C118.586 90.37 120.006 90.81 120.966 91.69C121.926 92.55 122.456 93.59 122.556 94.81H119.736C119.396 93.33 118.346 92.59 116.586 92.59C115.666 92.59 114.996 92.77 114.576 93.13C114.176 93.49 113.976 93.94 113.976 94.48C113.976 95.04 114.196 95.48 114.636 95.8C115.076 96.1 115.966 96.41 117.306 96.73C119.526 97.25 121.016 97.9 121.776 98.68C122.536 99.44 122.916 100.44 122.916 101.68C122.916 103.06 122.386 104.19 121.326 105.07C120.286 105.93 118.796 106.36 116.856 106.36C114.916 106.36 113.416 105.93 112.356 105.07C111.296 104.21 110.666 103.05 110.466 101.59ZM125.086 101.59H128.026C128.426 103.25 129.616 104.08 131.596 104.08C133.536 104.08 134.506 103.36 134.506 101.92C134.506 101.24 134.266 100.72 133.786 100.36C133.326 99.98 132.416 99.62 131.056 99.28C128.936 98.78 127.506 98.18 126.766 97.48C126.046 96.78 125.686 95.86 125.686 94.72C125.686 93.52 126.156 92.5 127.096 91.66C128.036 90.8 129.446 90.37 131.326 90.37C133.206 90.37 134.626 90.81 135.586 91.69C136.546 92.55 137.076 93.59 137.176 94.81H134.356C134.016 93.33 132.966 92.59 131.206 92.59C130.286 92.59 129.616 92.77 129.196 93.13C128.796 93.49 128.596 93.94 128.596 94.48C128.596 95.04 128.816 95.48 129.256 95.8C129.696 96.1 130.586 96.41 131.926 96.73C134.146 97.25 135.636 97.9 136.396 98.68C137.156 99.44 137.536 100.44 137.536 101.68C137.536 103.06 137.006 104.19 135.946 105.07C134.906 105.93 133.416 106.36 131.476 106.36C129.536 106.36 128.036 105.93 126.976 105.07C125.916 104.21 125.286 103.05 125.086 101.59ZM141.441 109.45H139.071C140.311 106.75 141.031 104.07 141.231 101.41H144.231C143.911 104.61 142.981 107.29 141.441 109.45ZM155.802 106V85.15H158.892V103.39H169.662L169.242 106H155.802ZM184.97 98.92H174.35C174.37 100.4 174.73 101.61 175.43 102.55C176.13 103.47 177.09 103.93 178.31 103.93C179.33 103.93 180.09 103.73 180.59 103.33C181.11 102.93 181.51 102.39 181.79 101.71H184.76C184.58 102.27 184.35 102.8 184.07 103.3C183.79 103.78 183.4 104.27 182.9 104.77C182.42 105.25 181.77 105.64 180.95 105.94C180.15 106.22 179.24 106.36 178.22 106.36C175.96 106.36 174.25 105.6 173.09 104.08C171.95 102.56 171.38 100.71 171.38 98.53C171.38 96.13 171.98 94.17 173.18 92.65C174.4 91.13 176.14 90.37 178.4 90.37C179.58 90.37 180.62 90.59 181.52 91.03C182.42 91.47 183.11 92.05 183.59 92.77C184.09 93.49 184.45 94.26 184.67 95.08C184.91 95.9 185.03 96.76 185.03 97.66C185.03 98.22 185.01 98.64 184.97 98.92ZM174.44 96.91H182.06C182.04 95.65 181.72 94.63 181.1 93.85C180.48 93.05 179.57 92.65 178.37 92.65C176.03 92.65 174.72 94.07 174.44 96.91ZM186.742 90.73H189.892C192.032 97.35 193.312 101.54 193.732 103.3H193.762C193.962 102.26 195.322 98.07 197.842 90.73H200.812L195.232 106H192.052L186.742 90.73ZM215.732 98.92H205.112C205.132 100.4 205.492 101.61 206.192 102.55C206.892 103.47 207.852 103.93 209.072 103.93C210.092 103.93 210.852 103.73 211.352 103.33C211.872 102.93 212.272 102.39 212.552 101.71H215.522C215.342 102.27 215.112 102.8 214.832 103.3C214.552 103.78 214.162 104.27 213.662 104.77C213.182 105.25 212.532 105.64 211.712 105.94C210.912 106.22 210.002 106.36 208.982 106.36C206.722 106.36 205.012 105.6 203.852 104.08C202.712 102.56 202.142 100.71 202.142 98.53C202.142 96.13 202.742 94.17 203.942 92.65C205.162 91.13 206.902 90.37 209.162 90.37C210.342 90.37 211.382 90.59 212.282 91.03C213.182 91.47 213.872 92.05 214.352 92.77C214.852 93.49 215.212 94.26 215.432 95.08C215.672 95.9 215.792 96.76 215.792 97.66C215.792 98.22 215.772 98.64 215.732 98.92ZM205.202 96.91H212.822C212.802 95.65 212.482 94.63 211.862 93.85C211.242 93.05 210.332 92.65 209.132 92.65C206.792 92.65 205.482 94.07 205.202 96.91ZM219.071 106V94.87C219.071 94.11 219.061 93.28 219.041 92.38C219.041 91.48 219.041 90.93 219.041 90.73H221.921C221.981 91.15 222.011 92.16 222.011 93.76C222.411 92.74 223.051 91.93 223.931 91.33C224.811 90.71 225.871 90.39 227.111 90.37V93.28C223.711 93.34 222.011 95.16 222.011 98.74V106H219.071ZM240.993 95.41V102.55C240.993 104.19 241.063 105.34 241.203 106H238.413C238.313 105.7 238.223 105.07 238.143 104.11C237.363 105.61 235.823 106.36 233.523 106.36C231.823 106.36 230.533 105.9 229.653 104.98C228.793 104.06 228.363 102.96 228.363 101.68C228.363 100 228.983 98.75 230.223 97.93C231.483 97.09 233.273 96.67 235.593 96.67H238.113V95.44C238.113 93.56 237.083 92.62 235.023 92.62C233.923 92.62 233.173 92.83 232.773 93.25C232.373 93.65 232.093 94.22 231.933 94.96H229.083C229.203 93.64 229.733 92.54 230.673 91.66C231.613 90.78 233.093 90.35 235.113 90.37C239.033 90.37 240.993 92.05 240.993 95.41ZM238.143 99.13V98.65H235.803C232.843 98.65 231.363 99.6 231.363 101.5C231.363 102.28 231.613 102.91 232.113 103.39C232.613 103.87 233.303 104.11 234.183 104.11C235.023 104.11 235.713 103.98 236.253 103.72C236.813 103.46 237.223 103.08 237.483 102.58C237.743 102.08 237.913 101.57 237.993 101.05C238.093 100.51 238.143 99.87 238.143 99.13ZM258.249 95.14V104.53C258.249 107.07 257.679 108.99 256.539 110.29C255.419 111.61 253.609 112.27 251.109 112.27C249.969 112.27 248.979 112.12 248.139 111.82C247.299 111.54 246.649 111.15 246.189 110.65C245.729 110.15 245.379 109.65 245.139 109.15C244.919 108.65 244.769 108.12 244.689 107.56H247.689C248.129 109.18 249.319 109.99 251.259 109.99C252.839 109.99 253.919 109.53 254.499 108.61C255.079 107.71 255.369 106.33 255.369 104.47V103.33C254.509 105.05 252.949 105.91 250.689 105.91C248.789 105.91 247.259 105.21 246.099 103.81C244.939 102.41 244.359 100.6 244.359 98.38C244.359 95.96 244.989 94.02 246.249 92.56C247.509 91.1 249.089 90.37 250.989 90.37C252.269 90.37 253.269 90.61 253.989 91.09C254.709 91.55 255.169 92.08 255.369 92.68C255.409 91.76 255.449 91.11 255.489 90.73H258.279C258.279 91.01 258.269 91.68 258.249 92.74C258.249 93.8 258.249 94.6 258.249 95.14ZM247.419 98.26C247.419 99.82 247.779 101.07 248.499 102.01C249.239 102.95 250.209 103.42 251.409 103.42C252.909 103.42 253.959 102.97 254.559 102.07C255.159 101.15 255.459 99.82 255.459 98.08C255.459 96.32 255.169 95.01 254.589 94.15C254.029 93.27 252.999 92.83 251.499 92.83C250.199 92.83 249.189 93.32 248.469 94.3C247.769 95.28 247.419 96.6 247.419 98.26ZM275.146 98.92H264.526C264.546 100.4 264.906 101.61 265.606 102.55C266.306 103.47 267.266 103.93 268.486 103.93C269.506 103.93 270.266 103.73 270.766 103.33C271.286 102.93 271.686 102.39 271.966 101.71H274.936C274.756 102.27 274.526 102.8 274.246 103.3C273.966 103.78 273.576 104.27 273.076 104.77C272.596 105.25 271.946 105.64 271.126 105.94C270.326 106.22 269.416 106.36 268.396 106.36C266.136 106.36 264.426 105.6 263.266 104.08C262.126 102.56 261.556 100.71 261.556 98.53C261.556 96.13 262.156 94.17 263.356 92.65C264.576 91.13 266.316 90.37 268.576 90.37C269.756 90.37 270.796 90.59 271.696 91.03C272.596 91.47 273.286 92.05 273.766 92.77C274.266 93.49 274.626 94.26 274.846 95.08C275.086 95.9 275.206 96.76 275.206 97.66C275.206 98.22 275.186 98.64 275.146 98.92ZM264.616 96.91H272.236C272.216 95.65 271.896 94.63 271.276 93.85C270.656 93.05 269.746 92.65 268.546 92.65C266.206 92.65 264.896 94.07 264.616 96.91ZM279.224 109.45H276.854C278.094 106.75 278.814 104.07 279.014 101.41H282.014C281.694 104.61 280.764 107.29 279.224 109.45ZM57.92 137.03H49.73L47.63 143H44.54L51.89 122.15H55.73L63.41 143H60.11L57.92 137.03ZM50.51 134.39H57.17C55.11 128.69 53.97 125.43 53.75 124.61H53.72C53.54 125.27 52.47 128.53 50.51 134.39ZM75.5012 138.29H78.4112C78.0512 139.77 77.3512 140.99 76.3112 141.95C75.2912 142.89 73.8512 143.36 71.9912 143.36C69.8512 143.36 68.1712 142.65 66.9512 141.23C65.7312 139.79 65.1212 137.86 65.1212 135.44C65.1212 133.16 65.7512 131.25 67.0112 129.71C68.2712 128.15 70.0012 127.37 72.2012 127.37C73.2612 127.37 74.2012 127.55 75.0212 127.91C75.8612 128.25 76.5012 128.7 76.9412 129.26C77.4012 129.8 77.7412 130.35 77.9612 130.91C78.2012 131.45 78.3512 131.99 78.4112 132.53H75.5012C75.1012 130.71 73.9812 129.8 72.1412 129.8C70.8812 129.8 69.9012 130.3 69.2012 131.3C68.5012 132.3 68.1512 133.65 68.1512 135.35C68.1512 137.07 68.4912 138.44 69.1712 139.46C69.8512 140.46 70.8112 140.96 72.0512 140.96C73.7512 140.96 74.9012 140.07 75.5012 138.29ZM79.9257 130.07V127.73H82.5057V123.29H85.4457V127.73H88.7457V130.07H85.4457V138.74C85.4457 139.5 85.5657 140.05 85.8057 140.39C86.0457 140.71 86.4957 140.87 87.1557 140.87C87.7357 140.87 88.1557 140.83 88.4157 140.75V142.94C87.8957 143.12 87.1057 143.21 86.0457 143.21C84.8057 143.21 83.9057 142.9 83.3457 142.28C82.7857 141.64 82.5057 140.66 82.5057 139.34V130.07H79.9257ZM103.699 127.73V138.56C103.699 139.08 103.699 139.88 103.699 140.96C103.719 142.04 103.729 142.72 103.729 143H100.849C100.789 142.6 100.759 141.87 100.759 140.81C99.9593 142.51 98.4493 143.36 96.2293 143.36C94.7293 143.36 93.5093 142.92 92.5693 142.04C91.6293 141.14 91.1593 139.71 91.1593 137.75V127.73H94.0993V137.12C94.0993 139.6 95.0993 140.84 97.0993 140.84C98.4193 140.84 99.3593 140.45 99.9193 139.67C100.479 138.87 100.759 137.55 100.759 135.71V127.73H103.699ZM119.675 132.41V139.55C119.675 141.19 119.745 142.34 119.885 143H117.095C116.995 142.7 116.905 142.07 116.825 141.11C116.045 142.61 114.505 143.36 112.205 143.36C110.505 143.36 109.215 142.9 108.335 141.98C107.475 141.06 107.045 139.96 107.045 138.68C107.045 137 107.665 135.75 108.905 134.93C110.165 134.09 111.955 133.67 114.275 133.67H116.795V132.44C116.795 130.56 115.765 129.62 113.705 129.62C112.605 129.62 111.855 129.83 111.455 130.25C111.055 130.65 110.775 131.22 110.615 131.96H107.765C107.885 130.64 108.415 129.54 109.355 128.66C110.295 127.78 111.775 127.35 113.795 127.37C117.715 127.37 119.675 129.05 119.675 132.41ZM116.825 136.13V135.65H114.485C111.525 135.65 110.045 136.6 110.045 138.5C110.045 139.28 110.295 139.91 110.795 140.39C111.295 140.87 111.985 141.11 112.865 141.11C113.705 141.11 114.395 140.98 114.935 140.72C115.495 140.46 115.905 140.08 116.165 139.58C116.425 139.08 116.595 138.57 116.675 138.05C116.775 137.51 116.825 136.87 116.825 136.13ZM121.996 130.07V127.73H124.576V123.29H127.516V127.73H130.816V130.07H127.516V138.74C127.516 139.5 127.636 140.05 127.876 140.39C128.116 140.71 128.566 140.87 129.226 140.87C129.806 140.87 130.226 140.83 130.486 140.75V142.94C129.966 143.12 129.176 143.21 128.116 143.21C126.876 143.21 125.976 142.9 125.416 142.28C124.856 141.64 124.576 140.66 124.576 139.34V130.07H121.996ZM145.976 135.92H135.356C135.376 137.4 135.736 138.61 136.436 139.55C137.136 140.47 138.096 140.93 139.316 140.93C140.336 140.93 141.096 140.73 141.596 140.33C142.116 139.93 142.516 139.39 142.796 138.71H145.766C145.586 139.27 145.356 139.8 145.076 140.3C144.796 140.78 144.406 141.27 143.906 141.77C143.426 142.25 142.776 142.64 141.956 142.94C141.156 143.22 140.246 143.36 139.226 143.36C136.966 143.36 135.256 142.6 134.096 141.08C132.956 139.56 132.386 137.71 132.386 135.53C132.386 133.13 132.986 131.17 134.186 129.65C135.406 128.13 137.146 127.37 139.406 127.37C140.586 127.37 141.626 127.59 142.526 128.03C143.426 128.47 144.116 129.05 144.596 129.77C145.096 130.49 145.456 131.26 145.676 132.08C145.916 132.9 146.036 133.76 146.036 134.66C146.036 135.22 146.016 135.64 145.976 135.92ZM135.446 133.91H143.066C143.046 132.65 142.726 131.63 142.106 130.85C141.486 130.05 140.576 129.65 139.376 129.65C137.036 129.65 135.726 131.07 135.446 133.91ZM152.099 143H148.979V138.41H152.099V143Z" fill="white"/>
<path d="M98.4142 329.414C99.1953 328.633 99.1953 327.367 98.4142 326.586L85.6863 313.858C84.9052 313.077 83.6389 313.077 82.8579 313.858C82.0768 314.639 82.0768 315.905 82.8579 316.686L94.1716 328L82.8579 339.314C82.0768 340.095 82.0768 341.361 82.8579 342.142C83.6389 342.923 84.9052 342.923 85.6863 342.142L98.4142 329.414ZM50 328V330H97V328V326H50V328Z" fill="#B3902F"/>
<path opacity="0.1" fill-rule="evenodd" clip-rule="evenodd" d="M159 316.099V226.901C174.909 226.901 193.091 220.04 211.273 201.743C225.818 187.105 227.939 165.149 227.182 156H313.545C313.545 172.01 319 187.562 331.727 204.03C344.454 220.497 371.879 226.139 384 226.901V316.099C368.091 316.099 349.909 322.96 331.727 341.257C317.182 355.895 315.061 377.851 315.818 387H229.455C229.455 370.99 224 355.438 211.273 338.97C198.546 322.503 171.121 316.861 159 316.099Z" fill="#FFF9E8"/>
</g>
<defs>
<linearGradient id="paint0_linear_1638_938" x1="175" y1="0" x2="175" y2="377" gradientUnits="userSpaceOnUse">
<stop stop-color="#B3902F"/>
<stop offset="1" stop-color="#FFDF85"/>
</linearGradient>
<clipPath id="clip0_1638_938">
<rect width="350" height="377" rx="4" fill="white"/>
</clipPath>
</defs>
</svg>
