<svg preserveAspectRatio="none" width="100%" height="100%" overflow="visible" style="display: block;" viewBox="0 0 18 18" fill="none" xmlns="http://www.w3.org/2000/svg">
<g id="In" clip-path="url(#clip0_0_186)">
<path id="Vector" d="M9.00134 4.38553C6.44759 4.38553 4.38659 6.44653 4.38659 9.00028C4.38659 11.554 6.44759 13.615 9.00134 13.615C11.5551 13.615 13.6161 11.554 13.6161 9.00028C13.6161 6.44653 11.5551 4.38553 9.00134 4.38553ZM9.00134 11.9995C7.34984 11.9995 6.00209 10.6518 6.00209 9.00028C6.00209 7.34878 7.34984 6.00103 9.00134 6.00103C10.6528 6.00103 12.0006 7.34878 12.0006 9.00028C12.0006 10.6518 10.6528 11.9995 9.00134 11.9995ZM13.8051 3.12103C13.2088 3.12103 12.7273 3.60253 12.7273 4.19878C12.7273 4.79503 13.2088 5.27653 13.8051 5.27653C14.4013 5.27653 14.8828 4.79728 14.8828 4.19878C14.883 4.0572 14.8553 3.91698 14.8012 3.78614C14.7471 3.6553 14.6677 3.53642 14.5676 3.4363C14.4675 3.33619 14.3486 3.25681 14.2177 3.20271C14.0869 3.14861 13.9467 3.12086 13.8051 3.12103V3.12103ZM17.9968 9.00028C17.9968 7.75828 18.0081 6.52753 17.9383 5.28778C17.8686 3.84778 17.5401 2.56978 16.4871 1.51678C15.4318 0.461535 14.1561 0.135285 12.7161 0.065535C11.4741 -0.00421504 10.2433 0.007035 9.00359 0.007035C7.76159 0.007035 6.53084 -0.00421504 5.29109 0.065535C3.85109 0.135285 2.57309 0.463785 1.52009 1.51678C0.464839 2.57203 0.138589 3.84778 0.0688389 5.28778C-0.000911097 6.52978 0.0103389 7.76053 0.0103389 9.00028C0.0103389 10.24 -0.000911097 11.473 0.0688389 12.7128C0.138589 14.1528 0.467089 15.4308 1.52009 16.4838C2.57534 17.539 3.85109 17.8653 5.29109 17.935C6.53309 18.0048 7.76384 17.9935 9.00359 17.9935C10.2456 17.9935 11.4763 18.0048 12.7161 17.935C14.1561 17.8653 15.4341 17.5368 16.4871 16.4838C17.5423 15.4285 17.8686 14.1528 17.9383 12.7128C18.0103 11.473 17.9968 10.2423 17.9968 9.00028V9.00028ZM16.0168 14.3058C15.8526 14.7153 15.6546 15.0213 15.3373 15.3363C15.0201 15.6535 14.7163 15.8515 14.3068 16.0158C13.1233 16.486 10.3131 16.3803 9.00134 16.3803C7.68959 16.3803 4.87709 16.486 3.69359 16.018C3.28409 15.8538 2.97809 15.6558 2.66309 15.3385C2.34584 15.0213 2.14784 14.7175 1.98359 14.308C1.51559 13.1223 1.62134 10.312 1.62134 9.00028C1.62134 7.68853 1.51559 4.87603 1.98359 3.69253C2.14784 3.28303 2.34584 2.97703 2.66309 2.66203C2.98034 2.34703 3.28409 2.14679 3.69359 1.98254C4.87709 1.51454 7.68959 1.62028 9.00134 1.62028C10.3131 1.62028 13.1256 1.51454 14.3091 1.98254C14.7186 2.14679 15.0246 2.34478 15.3396 2.66203C15.6568 2.97928 15.8548 3.28303 16.0191 3.69253C16.4871 4.87603 16.3813 7.68853 16.3813 9.00028C16.3813 10.312 16.4871 13.1223 16.0168 14.3058Z" fill="var(--fill-0, #B3902F)"/>
</g>
<defs>
<clipPath id="clip0_0_186">
<rect width="18" height="18" fill="white"/>
</clipPath>
</defs>
</svg>
