<svg preserveAspectRatio="none" width="100%" height="100%" overflow="visible" style="display: block;" viewBox="0 0 18 14" fill="none" xmlns="http://www.w3.org/2000/svg">
<g id="Tw" clip-path="url(#clip0_0_86)">
<path id="Vector" d="M18.0003 1.66303C17.3391 1.9364 16.6195 2.13314 15.8784 2.20977C16.6479 1.77162 17.2241 1.07942 17.499 0.263026C16.7769 0.674719 15.9859 0.963406 15.161 1.11628C14.8162 0.763021 14.3992 0.4816 13.936 0.28955C13.4727 0.0975012 12.9732 -0.00105991 12.4685 8.5955e-06C10.4265 8.5955e-06 8.78425 1.5864 8.78425 3.53314C8.78425 3.80652 8.81882 4.07989 8.875 4.34291C5.81738 4.18965 3.09037 2.78965 1.27741 0.646162C0.947068 1.18693 0.773957 1.80266 0.776088 2.4293C0.776088 3.65533 1.42651 4.7364 2.41834 5.37219C1.83384 5.35013 1.26302 5.19616 0.752319 4.92279V4.96628C0.752319 6.68314 2.01859 8.10592 3.70622 8.43314C3.38935 8.51202 3.06338 8.55238 2.73599 8.55326C2.49614 8.55326 2.26925 8.53048 2.04019 8.49941C2.50694 9.89941 3.86612 10.9163 5.48461 10.9494C4.21834 11.9 2.63227 12.4592 0.910062 12.4592C0.601059 12.4592 0.315825 12.4488 0.0197864 12.4157C1.6534 13.4201 3.59169 14 5.67909 14C12.4556 14 16.1636 8.61953 16.1636 3.94941C16.1636 3.79616 16.1636 3.64291 16.1528 3.48965C16.8702 2.9864 17.499 2.36302 18.0003 1.66303Z" fill="var(--fill-0, #B3902F)"/>
</g>
<defs>
<clipPath id="clip0_0_86">
<rect width="18" height="14" fill="white"/>
</clipPath>
</defs>
</svg>
