<svg width="244" height="41" viewBox="0 0 244 41" fill="none" xmlns="http://www.w3.org/2000/svg">
<g id="For Developer">
<g id="1920px- Homepage">
<g id="Frame 2147225617">
<g id="Frame 111">
<g id="Frame 2147225620">
<g id="Group">
<path id="Vector" d="M4.74436 22.7584C4.42255 21.442 4.25676 20.0915 4.25676 18.7215C4.25676 16.7956 4.57858 14.9039 5.21246 13.1097C5.82683 11.3692 6.71914 9.75051 7.865 8.2976C10.1567 5.3918 13.3797 3.29045 16.949 2.3836L16.4175 0.301758C12.3948 1.32562 8.76218 3.69024 6.17791 6.96659C4.88577 8.60476 3.88132 10.4331 3.18892 12.393C2.47215 14.4212 2.11133 16.5519 2.11133 18.7215C2.11133 20.6619 2.40389 22.578 2.97925 24.4112L4.74436 22.7584Z" fill="white"/>
<path id="Vector_2" d="M42.0897 18.3609L41.8069 18.0684L38.028 21.7299L41.0462 24.7868L42.5724 23.2803L41.0755 21.764L42.0507 20.8181C42.7382 20.1502 42.7577 19.0483 42.0897 18.356V18.3609Z" fill="white"/>
<path id="Vector_3" d="M41.0315 24.7712L39.871 25.9413C39.871 25.9413 39.871 25.9413 39.8661 25.9364L38.3594 27.4625C40.0758 29.1543 39.8759 30.0075 39.4614 30.6169C38.496 32.0308 36.9259 31.9431 36.8528 31.9382H36.8625L36.8528 32.0552V31.9382L31.9963 31.8065C27.5591 31.8065 26.9594 29.6662 26.8862 29.4712L26.4815 27.9841L25.2138 28.9446C23.2731 30.417 21.1131 29.7735 20.4255 29.5053C19.8404 28.7545 19.1773 28.1645 18.6019 27.7306L20.3475 26.1412L21.5617 27.3991C22.3857 28.2523 23.7461 28.2767 24.5945 27.4527L21.9322 24.6932L23.9119 22.8892C25.3308 21.5923 26.1548 19.7689 26.1792 17.8479L26.3206 7.82388L31.1966 3.25553L30.6505 2.67534C30.1385 2.12928 29.2852 2.1049 28.744 2.61196L3.34493 26.4142C1.52131 28.1255 0.482724 30.5145 0.482724 33.0108V37.4524C0.165785 38.408 0 39.4172 0 40.4362V40.4606H4.64682L13.3407 32.5281L14.4963 33.7909C14.862 34.1907 14.8425 34.805 14.4524 35.1804L8.98158 40.4606H12.073L15.886 36.7796C16.3346 36.3456 16.6808 35.7996 16.8222 35.1902C17.0611 34.1468 16.7783 33.0986 16.081 32.338L14.9303 31.0801L16.9831 29.2079C17.9388 29.8612 19.465 31.1874 19.816 33.1766C20.0013 34.2199 19.8404 35.3608 19.3431 36.5602C18.8311 37.7937 17.9632 39.1003 16.749 40.4606H19.5235C21.547 37.7595 22.3564 35.1853 21.9274 32.7865C21.8786 32.5086 21.8152 32.2453 21.7372 31.9869C22.8245 32.0893 24.1557 31.9869 25.4917 31.2995C26.228 32.2843 30.3969 34.6392 34.444 34.4686L27.8907 40.4655H31.0698L33.303 38.4226L35.3461 40.4655H38.3838L34.8877 36.9746L38.218 33.9274C39.1591 33.6934 40.344 33.1376 41.2363 31.8309C41.9238 30.8217 42.0798 29.6906 41.6898 28.5546C41.5825 28.2425 41.4313 27.9305 41.2412 27.6136L42.5626 26.2777L41.0364 24.7663L41.0315 24.7712ZM4.81261 27.9841L19.4845 14.2352V16.5949C19.4845 17.2093 19.2309 17.8089 18.7872 18.238L2.90122 33.6007C2.80857 33.6885 2.72081 33.7811 2.63304 33.8738V33.0157C2.63304 31.1093 3.42295 29.2859 4.81261 27.9841ZM2.1747 39.817C2.32585 38.057 3.11576 36.3798 4.39327 35.1463L20.2793 19.7835C21.1374 18.9547 21.6299 17.7894 21.6299 16.5949V12.2216L24.1459 9.86185L24.0338 17.8187C24.0143 19.14 23.4438 20.4125 22.4637 21.3047L2.16982 39.817H2.1747Z" fill="white"/>
<path id="Vector_4" d="M33.9077 16.8686C34.878 16.8686 36.6821 14.5186 36.6821 14.5186H30.6359C30.6359 14.5186 32.0011 16.8686 33.9077 16.8686Z" fill="white"/>
<path id="Vector_5" d="M28.6172 13.9282L31.4355 11.5197C31.4355 11.5197 31.7671 11.1541 32.8886 11.1541H36.7357L34.6927 9.04785H32.5765C31.7866 9.04785 31.0113 9.26725 30.3433 9.69142C29.2218 10.4032 27.9102 11.7391 28.6172 13.9234V13.9282Z" fill="white"/>
<path id="Vector_6" d="M14.8962 9.17572V4.79263C13.6479 4.89014 12.663 6.01151 12.5947 7.24014C12.5849 7.40591 12.624 7.55217 12.624 7.69844C12.6337 8.89781 12.6191 10.0972 12.6191 11.2966C11.9657 11.9109 11.3026 12.5203 10.6345 13.1298C10.4736 13.276 10.3127 13.4662 10.1323 13.6027C10.1031 13.6222 10.0982 13.6563 10.0494 13.6417V9.17572C8.71828 9.76078 7.86498 11.1308 7.77721 12.574C7.71382 13.6124 7.83573 14.7094 7.76259 15.7528C7.60655 15.8942 7.47002 16.0551 7.31887 16.2013C6.73862 16.7571 5.96334 17.3373 5.45137 17.9321C5.40261 17.9906 5.31484 17.9858 5.34409 18.1077H10.0397C10.1762 18.1077 10.6443 17.9175 10.7808 17.8493C11.405 17.5226 11.9364 16.8449 12.0486 16.138C12.0583 16.0843 12.1071 15.86 12.0437 15.86H8.16242C8.34283 15.665 8.5525 15.4993 8.74266 15.3189C9.46431 14.6509 10.1762 13.9781 10.8979 13.3053C10.932 13.2907 10.971 13.2907 11.0149 13.2858C12.3606 13.1785 14.3257 13.5734 15.5105 12.964C16.1834 12.6178 16.8222 11.906 16.9538 11.1454C16.9148 11.1308 16.8709 11.1747 16.8612 11.1747H13.2237C13.7503 10.6237 14.3257 10.1167 14.901 9.61939C15.7202 9.54626 16.593 9.72665 17.3878 9.478C18.0217 9.2781 18.6409 8.8003 18.9774 8.22499C19.0603 8.07873 19.1724 7.87396 19.1822 7.70819H16.9636C17.3439 7.3279 17.734 6.95736 18.1436 6.60632C18.6897 6.72333 19.2163 6.91836 19.7624 7.03537C20.6255 7.22064 21.4641 6.8696 21.7128 5.97738C21.7274 5.91888 21.7908 5.6361 21.7518 5.61172C20.8936 5.60197 20.0306 5.55809 19.1773 5.65072L20.406 4.48547C21.6982 4.37821 23.0683 4.5391 24.3605 4.4611C25.6038 4.38796 26.7985 3.41286 27.052 2.18911H22.4637L19.8794 4.56836V0H19.7429C19.7088 0.0390041 19.6698 0.0390041 19.6356 0H19.582C19.5966 0.0633817 19.5527 0.0585062 19.5089 0.0731327C18.3484 0.487551 17.617 1.35539 17.6072 2.6084C17.5926 3.97354 17.617 5.33869 17.6023 6.70383C16.6857 7.50342 15.8226 8.37613 14.901 9.17084L14.8962 9.17572Z" fill="white"/>
</g>
<g id="Frame 2147225619">
<g id="Group_2">
<path id="Vector_7" d="M65.4112 24.0361C64.4265 24.0361 63.4417 23.8981 62.457 23.622C61.4722 23.3459 60.5611 22.9042 59.7328 22.2969C58.9045 21.6895 58.2051 20.8981 57.6529 19.9227C57.1007 18.9472 56.7602 17.7693 56.6313 16.3982H60.5795C60.7636 17.4472 61.1225 18.2478 61.6471 18.8184C62.1717 19.3797 62.7791 19.7754 63.4786 20.0055C64.178 20.2355 64.8498 20.346 65.5125 20.346C66.2763 20.346 66.9482 20.2263 67.528 19.9779C68.1078 19.7294 68.5771 19.3889 68.9177 18.9656C69.2582 18.5331 69.4238 18.0546 69.4238 17.5208C69.4238 16.9227 69.2582 16.389 68.9269 15.9196C68.5956 15.4503 67.8685 15.1098 66.7365 14.9074L63.2577 14.2632C61.4262 13.9135 60.0089 13.1866 59.0058 12.0915C58.0026 10.9964 57.4965 9.68966 57.4965 8.18968C57.4965 6.83694 57.837 5.67745 58.518 4.7204C59.1991 3.76336 60.1102 3.03638 61.2606 2.52105C62.411 2.00572 63.681 1.74805 65.0799 1.74805C66.4788 1.74805 67.8501 1.99651 69.0097 2.48424C70.1693 2.98116 71.1172 3.74495 71.8443 4.77561C72.5714 5.81548 73.0131 7.14982 73.1512 8.79704H69.1477C69.0005 7.8768 68.7244 7.16822 68.3195 6.6897C67.9053 6.21118 67.4267 5.8707 66.8745 5.68665C66.3224 5.5026 65.761 5.41058 65.2088 5.41058C64.6934 5.41058 64.1412 5.4934 63.5614 5.65904C62.9724 5.82468 62.4846 6.10075 62.0797 6.48725C61.6747 6.87375 61.4815 7.42589 61.4815 8.11607C61.4815 8.68661 61.6931 9.20194 62.1165 9.65285C62.5398 10.1038 63.2577 10.4258 64.2884 10.6099L67.4912 11.1988C69.3226 11.5301 70.7675 12.1651 71.8351 13.1221C72.9027 14.0792 73.4365 15.4963 73.4365 17.392C73.4365 18.4595 73.2064 19.4073 72.7462 20.2263C72.2861 21.0453 71.6694 21.7447 70.8964 22.3061C70.1233 22.8674 69.2674 23.2999 68.3287 23.6036C67.3807 23.8981 66.4144 24.0545 65.4296 24.0545L65.4112 24.0361Z" fill="white"/>
<path id="Vector_8" d="M80.2377 23.6675V5.58493H73.9519V2.10645H90.803V5.58493H84.5448V23.6675H80.2285H80.2377Z" fill="white"/>
<path id="Vector_9" d="M92.8645 23.6679V2.09766H102.013C103.761 2.09766 105.197 2.39213 106.347 2.97187C107.488 3.56082 108.335 4.36143 108.906 5.37368C109.467 6.39514 109.752 7.53623 109.752 8.80616C109.752 9.79081 109.541 10.7018 109.108 11.53C108.676 12.3583 108.105 13.076 107.378 13.6742C108.16 14.2079 108.759 14.8981 109.182 15.7355C109.605 16.5821 109.835 17.5392 109.872 18.6342L110.121 23.6587H105.896L105.556 18.6342C105.519 17.9165 105.372 17.3275 105.142 16.8582C104.902 16.3981 104.543 16.0484 104.046 15.8275C103.55 15.5975 102.887 15.487 102.04 15.487H97.1717V23.6495H92.8553L92.8645 23.6679ZM97.1809 12.0178H101.746C103.016 12.0178 103.945 11.7325 104.516 11.1527C105.086 10.5822 105.381 9.8 105.381 8.81535C105.381 7.8307 105.096 7.0209 104.516 6.45956C103.945 5.89822 103.016 5.61295 101.746 5.61295H97.1809V12.0178Z" fill="white"/>
<path id="Vector_10" d="M111.197 23.6679L119.057 2.09766H123.953L131.84 23.6679H127.275L120.621 4.44425H122.379L115.725 23.6679H111.197ZM114.833 18.8275L115.974 15.4686H127.064L128.205 18.8275H114.833Z" fill="white"/>
<path id="Vector_11" d="M136.157 23.6675V5.58493H129.871V2.10645H146.722V5.58493H140.464V23.6675H136.147H136.157Z" fill="white"/>
<path id="Vector_12" d="M148.793 23.6679V2.09766H163.058V5.57614H153.109V11.0331H162.137V14.392H153.109V20.1802H163.058V23.6587H148.793V23.6679Z" fill="white"/>
<path id="Vector_13" d="M164.015 23.6679L171.874 2.09766H176.77L184.658 23.6679H180.093L173.439 4.44425H175.197L168.543 23.6679H164.015ZM167.65 18.8275L168.791 15.4686H179.881L181.022 18.8275H167.65Z" fill="white"/>
<path id="Vector_14" d="M193.723 24.036C192.121 24.036 190.676 23.7139 189.379 23.079C188.081 22.444 187.05 21.4778 186.277 20.1802C185.504 18.8827 185.118 17.2631 185.118 15.3122V2.09766H189.434V15.349C189.434 16.9134 189.821 18.0821 190.594 18.8735C191.367 19.6649 192.434 20.0606 193.815 20.0606C195.195 20.0606 196.263 19.6649 197.036 18.8735C197.809 18.0821 198.186 16.9042 198.186 15.349V2.09766H202.503V15.3122C202.503 17.2631 202.107 18.8827 201.315 20.1802C200.524 21.4778 199.466 22.444 198.131 23.079C196.797 23.7139 195.324 24.036 193.723 24.036Z" fill="white"/>
<path id="Vector_15" d="M205.024 23.6679V2.09766H214.172C215.921 2.09766 217.357 2.39213 218.507 2.97187C219.648 3.56082 220.495 4.36143 221.066 5.37368C221.627 6.39514 221.912 7.53623 221.912 8.80616C221.912 9.79081 221.701 10.7018 221.268 11.53C220.836 12.3583 220.265 13.076 219.538 13.6742C220.32 14.2079 220.918 14.8981 221.342 15.7355C221.765 16.5821 221.995 17.5392 222.032 18.6342L222.28 23.6587H218.056L217.716 18.6342C217.679 17.9165 217.532 17.3275 217.301 16.8582C217.062 16.3981 216.703 16.0484 216.206 15.8275C215.709 15.5975 215.047 15.487 214.2 15.487H209.331V23.6495H205.015L205.024 23.6679ZM209.341 12.0178H213.905C215.176 12.0178 216.105 11.7325 216.676 11.1527C217.246 10.5822 217.541 9.8 217.541 8.81535C217.541 7.8307 217.255 7.0209 216.676 6.45956C216.105 5.89822 215.176 5.61295 213.905 5.61295H209.341V12.0178Z" fill="white"/>
<path id="Vector_16" d="M223.357 23.6679L231.217 2.09766H236.113L244 23.6679H239.435L232.781 4.44425H234.539L227.885 23.6679H223.357ZM226.992 18.8275L228.134 15.4686H239.224L240.365 18.8275H226.992Z" fill="white"/>
</g>
<g id="Group_3">
<path id="Vector_17" d="M56.6313 38.599V32.001H58.969C59.4936 32.001 59.9169 32.0838 60.2574 32.2586C60.5979 32.4335 60.8464 32.6635 61.0121 32.9672C61.1777 33.2617 61.2606 33.6114 61.2606 33.9887C61.2606 34.3384 61.1777 34.6697 61.0121 34.9641C60.8464 35.2586 60.5979 35.5071 60.2574 35.6819C59.9169 35.8568 59.4844 35.9488 58.9598 35.9488H57.6621V38.5898H56.6313V38.599ZM57.6713 35.1114H58.9138C59.3739 35.1114 59.7144 35.0101 59.9169 34.8077C60.1194 34.6052 60.2206 34.3292 60.2206 33.9887C60.2206 33.6482 60.1194 33.3537 59.9169 33.1513C59.7144 32.9488 59.3831 32.8476 58.9138 32.8476H57.6713V35.1114Z" fill="white"/>
<path id="Vector_18" d="M62.1809 38.599V32.001H64.8683C65.3928 32.001 65.8254 32.093 66.1567 32.2679C66.4972 32.4427 66.7457 32.6819 66.9114 32.9764C67.077 33.2709 67.1599 33.6114 67.1599 33.9979C67.1599 34.32 67.0862 34.6144 66.9482 34.8813C66.8101 35.1482 66.6077 35.369 66.3408 35.5439C66.6169 35.7003 66.8193 35.912 66.9574 36.188C67.0954 36.4641 67.1691 36.7678 67.1783 37.1267L67.2519 38.599H66.2487L66.1567 37.1727C66.1475 36.8966 66.0923 36.6666 66.0095 36.4917C65.9266 36.3169 65.7886 36.188 65.6045 36.1052C65.4204 36.0224 65.172 35.9856 64.8498 35.9856H63.2209V38.599H62.1809ZM63.2209 35.1482H64.8038C65.2548 35.1482 65.5861 35.0378 65.7978 34.8261C66.0003 34.6144 66.1107 34.3384 66.1107 33.9979C66.1107 33.639 66.0095 33.3629 65.807 33.1513C65.6045 32.9488 65.264 32.8476 64.8038 32.8476H63.2301V35.1482H63.2209Z" fill="white"/>
<path id="Vector_19" d="M68.1814 38.599V32.001H72.3873V32.8384H69.2214V34.8445H72.102V35.6727H69.2214V37.7524H72.3873V38.5898H68.1814V38.599Z" fill="white"/>
<path id="Vector_20" d="M75.544 38.7079C75.2219 38.7079 74.909 38.6619 74.6145 38.579C74.32 38.4962 74.0439 38.3582 73.7954 38.1741C73.5469 37.9901 73.3537 37.76 73.188 37.4747C73.0224 37.1895 72.9395 36.8582 72.9027 36.4625H73.8783C73.9243 36.7846 74.0255 37.0514 74.1912 37.2447C74.3568 37.4471 74.5593 37.5852 74.7986 37.668C75.0379 37.7508 75.2863 37.7968 75.5532 37.7968C75.8201 37.7968 76.0594 37.76 76.2711 37.6772C76.4828 37.5944 76.6576 37.4839 76.7773 37.3183C76.8969 37.1527 76.9613 36.9594 76.9613 36.7202C76.9613 36.4993 76.8969 36.306 76.7773 36.1404C76.6576 35.9748 76.4091 35.8551 76.0502 35.7907L74.8262 35.5607C74.32 35.4686 73.9243 35.257 73.6206 34.9349C73.3169 34.6128 73.1696 34.2355 73.1696 33.7938C73.1696 33.3889 73.28 33.0392 73.4825 32.754C73.6942 32.4687 73.9703 32.2478 74.32 32.0914C74.6697 31.9349 75.0471 31.8613 75.4612 31.8613C75.8754 31.8613 76.2803 31.9349 76.63 32.0914C76.9705 32.2386 77.2558 32.4687 77.4675 32.7632C77.6884 33.0576 77.8172 33.4441 77.8633 33.9042H76.8601C76.8233 33.619 76.7405 33.3981 76.6024 33.2233C76.4644 33.0484 76.3079 32.9288 76.1146 32.8552C75.9214 32.7816 75.7097 32.7447 75.4704 32.7447C75.2587 32.7447 75.0471 32.7816 74.8354 32.846C74.6237 32.9104 74.4581 33.0208 74.3292 33.1681C74.2004 33.3153 74.1359 33.5085 74.1359 33.7478C74.1359 33.9687 74.2188 34.1619 74.3844 34.3183C74.5501 34.4748 74.7894 34.5852 75.1023 34.6404L76.2435 34.8521C76.7865 34.9533 77.2098 35.1466 77.5135 35.4502C77.808 35.7447 77.9553 36.1496 77.9553 36.6741C77.9553 37.0054 77.8909 37.2999 77.7528 37.5484C77.6148 37.7968 77.4307 37.9993 77.1914 38.1741C76.9521 38.349 76.7036 38.4686 76.4183 38.5514C76.133 38.6342 75.8385 38.6803 75.5348 38.6803L75.544 38.7079Z" fill="white"/>
<path id="Vector_21" d="M78.8848 38.599V32.001H83.0906V32.8384H79.9247V34.8445H82.8053V35.6727H79.9247V37.7524H83.0906V38.5898H78.8848V38.599Z" fill="white"/>
<path id="Vector_22" d="M84.0201 38.599V32.001H85.0601L88.3273 36.915V32.001H89.3672V38.599H88.3273L85.0601 33.6942V38.599H84.0201Z" fill="white"/>
<path id="Vector_23" d="M93.4259 38.7076C92.7725 38.7076 92.2111 38.5696 91.7325 38.2751C91.254 37.9898 90.8858 37.5941 90.6373 37.0788C90.3797 36.5635 90.26 35.9745 90.26 35.3027C90.26 34.631 90.3889 34.0328 90.6373 33.5175C90.895 33.0022 91.2632 32.6065 91.7325 32.3212C92.2111 32.0359 92.7725 31.8887 93.4259 31.8887C94.2082 31.8887 94.8432 32.0819 95.331 32.4592C95.8188 32.8365 96.1317 33.3702 96.2697 34.0604H95.1193C95.0365 33.6739 94.8524 33.3795 94.5671 33.1586C94.2818 32.9377 93.8953 32.8273 93.4167 32.8273C92.9842 32.8273 92.6068 32.9285 92.2939 33.1218C91.981 33.315 91.7325 33.6095 91.5669 33.9776C91.392 34.3549 91.3092 34.7966 91.3092 35.3119C91.3092 35.8273 91.392 36.269 91.5669 36.6371C91.7417 37.0052 91.981 37.2904 92.2939 37.4929C92.6068 37.6953 92.9842 37.7966 93.4167 37.7966C93.8953 37.7966 94.2726 37.6861 94.5579 37.4745C94.8432 37.2628 95.0273 36.9592 95.1285 36.5635H96.2789C96.1501 37.2444 95.8372 37.7782 95.3402 38.1555C94.8432 38.5328 94.2082 38.7168 93.4351 38.7168L93.4259 38.7076Z" fill="white"/>
<path id="Vector_24" d="M97.1255 38.599V32.001H101.331V32.8384H98.1655V34.8445H101.046V35.6727H98.1655V37.7524H101.331V38.5898H97.1255V38.599Z" fill="white"/>
<path id="Vector_25" d="M105.132 38.599V32.001H107.691C108.151 32.001 108.528 32.0746 108.841 32.2218C109.154 32.3691 109.384 32.5623 109.541 32.82C109.697 33.0776 109.78 33.3629 109.78 33.6942C109.78 34.0255 109.706 34.3108 109.559 34.5316C109.412 34.7525 109.228 34.9273 108.989 35.0469C108.749 35.1666 108.501 35.2402 108.234 35.277L108.372 35.1758C108.666 35.1758 108.933 35.2586 109.163 35.4058C109.403 35.5531 109.587 35.7463 109.725 35.9948C109.863 36.2432 109.937 36.5101 109.937 36.8046C109.937 37.1451 109.854 37.4488 109.688 37.7248C109.522 38.0009 109.274 38.2125 108.961 38.369C108.639 38.5254 108.252 38.6083 107.783 38.6083H105.142L105.132 38.599ZM106.172 34.8169H107.553C107.921 34.8169 108.206 34.7249 108.409 34.55C108.611 34.3752 108.713 34.1359 108.713 33.823C108.713 33.5102 108.611 33.2801 108.418 33.1053C108.225 32.9212 107.93 32.8384 107.534 32.8384H106.172V34.8169ZM106.172 37.7432H107.645C108.031 37.7432 108.335 37.6512 108.556 37.4672C108.768 37.2831 108.878 37.0254 108.878 36.685C108.878 36.3445 108.768 36.0868 108.547 35.8936C108.326 35.7003 108.013 35.5991 107.617 35.5991H106.172V37.734V37.7432Z" fill="white"/>
<path id="Vector_26" d="M112.348 38.599V36.188L110.121 32.001H111.289L113.047 35.4979H112.716L114.446 32.001H115.606L113.379 36.188V38.599H112.339H112.348Z" fill="white"/>
<path id="Vector_27" d="M119.351 38.599V32.001H121.505C122.278 32.001 122.913 32.139 123.41 32.4059C123.907 32.6727 124.284 33.0593 124.524 33.547C124.763 34.0439 124.882 34.6236 124.882 35.3046C124.882 35.9856 124.763 36.5469 124.524 37.0438C124.284 37.5408 123.916 37.9181 123.41 38.1849C122.913 38.4518 122.278 38.5898 121.505 38.5898H119.351V38.599ZM120.391 37.7156H121.468C122.057 37.7156 122.526 37.6144 122.876 37.4211C123.226 37.2279 123.465 36.9518 123.622 36.5929C123.769 36.2341 123.852 35.8015 123.852 35.3046C123.852 34.8077 123.778 34.366 123.622 34.0071C123.474 33.639 123.226 33.3629 122.876 33.1697C122.526 32.9764 122.066 32.8752 121.468 32.8752H120.391V37.7156Z" fill="white"/>
<path id="Vector_28" d="M125.775 38.599V32.001H129.981V32.8384H126.815V34.8445H129.696V35.6727H126.815V37.7524H129.981V38.5898H125.775V38.599Z" fill="white"/>
<path id="Vector_29" d="M133.138 38.7079C132.816 38.7079 132.503 38.6619 132.208 38.579C131.914 38.4962 131.638 38.3582 131.389 38.1741C131.141 37.9901 130.947 37.76 130.782 37.4747C130.616 37.1895 130.533 36.8582 130.496 36.4625H131.472C131.518 36.7846 131.619 37.0514 131.785 37.2447C131.951 37.4471 132.153 37.5852 132.392 37.668C132.632 37.7508 132.88 37.7968 133.147 37.7968C133.414 37.7968 133.653 37.76 133.865 37.6772C134.077 37.5944 134.251 37.4839 134.371 37.3183C134.491 37.1527 134.555 36.9594 134.555 36.7202C134.555 36.4993 134.491 36.306 134.371 36.1404C134.251 35.9748 134.003 35.8551 133.644 35.7907L132.42 35.5607C131.914 35.4686 131.518 35.257 131.214 34.9349C130.911 34.6128 130.763 34.2355 130.763 33.7938C130.763 33.3889 130.874 33.0392 131.076 32.754C131.288 32.4687 131.564 32.2478 131.914 32.0914C132.263 31.9349 132.641 31.8613 133.055 31.8613C133.469 31.8613 133.874 31.9349 134.224 32.0914C134.564 32.2386 134.85 32.4687 135.061 32.7632C135.282 33.0576 135.411 33.4441 135.457 33.9042H134.454C134.417 33.619 134.334 33.3981 134.196 33.2233C134.058 33.0484 133.902 32.9288 133.708 32.8552C133.515 32.7816 133.303 32.7447 133.064 32.7447C132.852 32.7447 132.641 32.7816 132.429 32.846C132.217 32.9104 132.052 33.0208 131.923 33.1681C131.794 33.3153 131.73 33.5085 131.73 33.7478C131.73 33.9687 131.813 34.1619 131.978 34.3183C132.144 34.4748 132.383 34.5852 132.696 34.6404L133.837 34.8521C134.38 34.9533 134.804 35.1466 135.107 35.4502C135.402 35.7447 135.549 36.1496 135.549 36.6741C135.549 37.0054 135.485 37.2999 135.347 37.5484C135.209 37.7968 135.024 37.9993 134.785 38.1741C134.546 38.349 134.297 38.4686 134.012 38.5514C133.727 38.6342 133.432 38.6803 133.129 38.6803L133.138 38.7079Z" fill="white"/>
<path id="Vector_30" d="M136.534 38.599V32.001H137.574V38.599H136.534Z" fill="white"/>
<path id="Vector_31" d="M141.807 38.7084C141.099 38.7084 140.5 38.5704 140.003 38.2851C139.507 37.9998 139.12 37.6042 138.862 37.098C138.595 36.5919 138.467 36.0121 138.467 35.3496C138.467 34.687 138.595 34.0612 138.862 33.5367C139.129 33.0122 139.507 32.6073 139.985 32.3128C140.473 32.0183 141.053 31.8711 141.715 31.8711C142.479 31.8711 143.114 32.0551 143.62 32.414C144.127 32.7729 144.449 33.2883 144.587 33.9324H143.409C143.317 33.5919 143.123 33.3159 142.838 33.1226C142.544 32.9202 142.175 32.8281 141.715 32.8281C141.255 32.8281 140.869 32.9294 140.537 33.1318C140.206 33.3343 139.957 33.6287 139.783 33.9968C139.608 34.3741 139.516 34.825 139.516 35.3496C139.516 35.8741 139.608 36.2882 139.792 36.6471C139.976 37.006 140.234 37.2821 140.583 37.4845C140.933 37.687 141.329 37.779 141.807 37.779C142.406 37.779 142.875 37.6041 143.225 37.2637C143.574 36.9232 143.749 36.4354 143.768 35.8097H141.835V34.9999H144.808V35.4324C144.808 36.141 144.679 36.7391 144.43 37.2269C144.173 37.7146 143.823 38.0827 143.381 38.3311C142.939 38.5796 142.424 38.6992 141.835 38.6992L141.807 38.7084Z" fill="white"/>
<path id="Vector_32" d="M145.645 38.599V32.001H146.685L149.952 36.915V32.001H150.992V38.599H149.952L146.685 33.6942V38.599H145.645Z" fill="white"/>
<path id="Vector_33" d="M151.968 38.5985V37.3193H153.302V38.5985H151.968Z" fill="white"/>
<path id="Vector_34" d="M157.149 38.599V32.001H159.487C160.011 32.001 160.435 32.0838 160.775 32.2586C161.116 32.4335 161.364 32.6635 161.53 32.9672C161.695 33.2617 161.778 33.6114 161.778 33.9887C161.778 34.3384 161.695 34.6697 161.53 34.9641C161.364 35.2586 161.116 35.5071 160.775 35.6819C160.435 35.8568 160.002 35.9488 159.478 35.9488H158.18V38.5898H157.14L157.149 38.599ZM158.18 35.1114H159.422C159.882 35.1114 160.223 35.0101 160.425 34.8077C160.628 34.6052 160.729 34.3292 160.729 33.9887C160.729 33.6482 160.628 33.3537 160.425 33.1513C160.223 32.9488 159.892 32.8476 159.422 32.8476H158.18V35.1114Z" fill="white"/>
<path id="Vector_35" d="M165.598 38.7082C164.944 38.7082 164.374 38.5609 163.886 38.2757C163.398 37.9904 163.012 37.5855 162.735 37.0794C162.459 36.564 162.321 35.9751 162.321 35.3033C162.321 34.6315 162.459 34.0426 162.735 33.5273C163.012 33.0119 163.389 32.6162 163.886 32.3309C164.383 32.0457 164.953 31.8984 165.607 31.8984C166.26 31.8984 166.84 32.0457 167.328 32.3309C167.816 32.6162 168.202 33.0211 168.469 33.5273C168.745 34.0426 168.883 34.6315 168.883 35.3033C168.883 35.9751 168.745 36.564 168.469 37.0794C168.193 37.5947 167.816 37.9904 167.328 38.2757C166.84 38.5609 166.26 38.7082 165.607 38.7082H165.598ZM165.607 37.7879C166.049 37.7879 166.444 37.6867 166.776 37.4935C167.107 37.291 167.365 37.0057 167.549 36.6376C167.733 36.2604 167.825 35.8186 167.825 35.3033C167.825 34.788 167.733 34.3463 167.549 33.9782C167.365 33.6101 167.107 33.3248 166.776 33.1223C166.444 32.9291 166.058 32.8279 165.607 32.8279C165.156 32.8279 164.769 32.9291 164.438 33.1223C164.098 33.3156 163.84 33.6009 163.656 33.9782C163.472 34.3463 163.38 34.788 163.38 35.3033C163.38 35.8186 163.472 36.2604 163.656 36.6376C163.84 37.0149 164.098 37.3002 164.438 37.4935C164.769 37.6867 165.165 37.7879 165.607 37.7879Z" fill="white"/>
<path id="Vector_36" d="M170.843 38.599L169.067 32.001H170.172L171.607 38.0101H171.304L172.951 32.001H174.092L175.703 38.0193H175.399L176.835 32.001H177.948L176.135 38.599H174.921L173.384 33.0869H173.614L172.04 38.599H170.843Z" fill="white"/>
<path id="Vector_37" d="M178.804 38.599V32.001H183.01V32.8384H179.844V34.8445H182.725V35.6727H179.844V37.7524H183.01V38.5898H178.804V38.599Z" fill="white"/>
<path id="Vector_38" d="M183.921 38.599V32.001H186.609C187.133 32.001 187.566 32.093 187.897 32.2679C188.238 32.4427 188.486 32.6819 188.652 32.9764C188.817 33.2709 188.9 33.6114 188.9 33.9979C188.9 34.32 188.827 34.6144 188.689 34.8813C188.55 35.1482 188.348 35.369 188.081 35.5439C188.357 35.7003 188.56 35.912 188.698 36.188C188.836 36.4641 188.909 36.7678 188.919 37.1267L188.992 38.599H187.989L187.897 37.1727C187.888 36.8966 187.833 36.6666 187.75 36.4917C187.667 36.3169 187.529 36.188 187.345 36.1052C187.161 36.0224 186.912 35.9856 186.59 35.9856H184.961V38.599H183.921ZM184.961 35.1482H186.544C186.995 35.1482 187.326 35.0378 187.538 34.8261C187.741 34.6144 187.851 34.3384 187.851 33.9979C187.851 33.639 187.75 33.3629 187.547 33.1513C187.345 32.9488 187.004 32.8476 186.544 32.8476H184.97V35.1482H184.961Z" fill="white"/>
<path id="Vector_39" d="M192.849 38.599V32.001H195.407C195.867 32.001 196.245 32.0746 196.557 32.2218C196.87 32.3691 197.1 32.5623 197.257 32.82C197.413 33.0776 197.496 33.3629 197.496 33.6942C197.496 34.0255 197.423 34.3108 197.275 34.5316C197.128 34.7525 196.944 34.9273 196.705 35.0469C196.465 35.1666 196.217 35.2402 195.95 35.277L196.088 35.1758C196.383 35.1758 196.649 35.2586 196.88 35.4058C197.119 35.5531 197.303 35.7463 197.441 35.9948C197.579 36.2432 197.653 36.5101 197.653 36.8046C197.653 37.1451 197.57 37.4488 197.404 37.7248C197.238 38.0009 196.99 38.2125 196.677 38.369C196.355 38.5254 195.968 38.6083 195.499 38.6083H192.858L192.849 38.599ZM193.888 34.8169H195.269C195.637 34.8169 195.922 34.7249 196.125 34.55C196.327 34.3752 196.429 34.1359 196.429 33.823C196.429 33.5102 196.327 33.2801 196.134 33.1053C195.941 32.9212 195.646 32.8384 195.251 32.8384H193.888V34.8169ZM193.888 37.7432H195.361C195.748 37.7432 196.051 37.6512 196.272 37.4672C196.484 37.2831 196.594 37.0254 196.594 36.685C196.594 36.3445 196.484 36.0868 196.263 35.8936C196.042 35.7003 195.729 35.5991 195.333 35.5991H193.888V37.734V37.7432Z" fill="white"/>
<path id="Vector_40" d="M200.064 38.599V36.188L197.837 32.001H199.005L200.763 35.4979H200.432L202.162 32.001H203.322L201.095 36.188V38.599H200.055H200.064Z" fill="white"/>
<path id="Vector_41" d="M207.067 38.599V32.001H209.221C209.994 32.001 210.629 32.139 211.126 32.4059C211.623 32.6727 212 33.0593 212.24 33.547C212.479 34.0439 212.599 34.6236 212.599 35.3046C212.599 35.9856 212.479 36.5469 212.24 37.0438C212 37.5408 211.632 37.9181 211.126 38.1849C210.629 38.4518 209.994 38.5898 209.221 38.5898H207.067V38.599ZM208.107 37.7156H209.184C209.773 37.7156 210.242 37.6144 210.592 37.4211C210.942 37.2279 211.181 36.9518 211.338 36.5929C211.485 36.2341 211.568 35.8015 211.568 35.3046C211.568 34.8077 211.494 34.366 211.338 34.0071C211.19 33.639 210.942 33.3629 210.592 33.1697C210.242 32.9764 209.782 32.8752 209.184 32.8752H208.107V37.7156Z" fill="white"/>
<path id="Vector_42" d="M213.482 38.599V32.001H217.688V32.8384H214.522V34.8445H217.403V35.6727H214.522V37.7524H217.688V38.5898H213.482V38.599Z" fill="white"/>
<path id="Vector_43" d="M218.608 38.599V32.001H222.777V32.8384H219.648V34.8721H222.244V35.7003H219.648V38.5898H218.608V38.599Z" fill="white"/>
<path id="Vector_44" d="M222.492 38.599L224.903 32.001H226.054L228.465 38.599H227.37L225.253 32.5991H225.695L223.578 38.599H222.492ZM223.596 37.007L223.891 36.1788H227.057L227.351 37.007H223.596Z" fill="white"/>
<path id="Vector_45" d="M231.41 38.7091C230.941 38.7091 230.508 38.617 230.131 38.433C229.753 38.2489 229.45 37.9637 229.22 37.5772C228.989 37.1907 228.879 36.7029 228.879 36.114V32.0098H229.919V36.1324C229.919 36.6937 230.057 37.1171 230.333 37.3839C230.609 37.6508 230.977 37.7888 231.428 37.7888C231.879 37.7888 232.266 37.66 232.533 37.3839C232.8 37.1171 232.938 36.703 232.938 36.1324V32.0098H233.978V36.114C233.978 36.7029 233.867 37.1907 233.637 37.5772C233.407 37.9637 233.094 38.2489 232.708 38.433C232.312 38.617 231.888 38.7091 231.419 38.7091H231.41Z" fill="white"/>
<path id="Vector_46" d="M234.981 38.599V32.001H236.021V37.78H239.012V38.599H234.99H234.981Z" fill="white"/>
<path id="Vector_47" d="M240.586 38.599V32.8384H238.635V32.001H243.567V32.8384H241.626V38.599H240.586Z" fill="white"/>
</g>
</g>
</g>
</g>
</g>
</g>
</g>
</svg>
