<svg preserveAspectRatio="none" overflow="visible" style="display: block;" width="559" height="458" viewBox="0 0 559 458" fill="none" xmlns="http://www.w3.org/2000/svg">
<g id="Frame 6" opacity="0.45">
<path id="Vector" d="M246.123 232.079V121.177C214.026 123.646 188.574 151.957 186.855 183.106C186.624 187.293 187.577 190.94 187.621 194.743C187.881 225.069 187.462 255.409 187.462 285.736C170.604 301.317 153.502 316.743 136.356 332.069C132.166 335.801 128.021 340.612 123.485 344.032C122.777 344.557 122.604 345.352 121.391 345.054V232.094C87.1705 246.937 65.1131 281.62 62.8597 318.02C61.2419 344.344 64.362 371.988 62.4986 398.44C58.5118 402.031 54.915 406.132 51.0582 409.765C36.0788 423.871 16.1448 438.459 2.94208 453.558C1.65648 455.034 -0.611377 454.864 0.154205 458H121.058C124.568 458 136.587 453.246 140.14 451.415C156.232 443.156 169.868 426.028 172.771 408.161C172.988 406.856 174.23 401.179 172.627 401.179H72.61C77.2757 396.255 82.6059 392.069 87.6039 387.499C106.166 370.612 124.482 353.583 143.145 336.61C144.084 336.185 145.095 336.185 146.091 336.114C180.701 333.446 231.403 343.379 261.896 328.025C279.288 319.269 295.698 301.246 299.078 282.06C298.11 281.649 296.998 282.741 296.637 282.741H202.903C216.51 268.848 231.273 255.977 246.065 243.333C267.183 241.474 289.689 246.086 310.056 239.785C326.321 234.747 342.34 222.586 350.993 208.125C353.174 204.478 356.077 199.256 356.207 195.112H299.063C308.843 185.462 318.954 176.053 329.47 167.198C343.482 170.122 357.118 175.103 371.1 178.083C393.331 182.823 414.926 173.911 421.383 151.304C421.788 149.857 423.434 142.605 422.452 142.023C400.395 141.811 378.106 140.633 356.222 143.074L387.885 113.599C421.195 110.903 456.383 114.961 489.693 112.974C521.674 111.073 552.413 86.4941 559 55.4442H440.884L374.336 115.685V0H370.84C369.959 0.950796 368.905 0.950796 368.052 0H366.666C367.012 1.63196 365.9 1.49005 364.788 1.8874C334.887 12.3745 316.123 34.3138 315.834 66.0449C315.516 100.572 316.123 135.127 315.646 169.653C292.043 189.847 269.798 211.942 246.108 232.094L246.123 232.079Z" fill="white"/>
</g>
</svg>
