<svg preserveAspectRatio="none" width="100%" height="100%" overflow="visible" style="display: block;" viewBox="0 0 847 695" fill="none" xmlns="http://www.w3.org/2000/svg">
<g id="Frame 6">
<path id="Vector" d="M372.926 352.173V183.882C324.293 187.629 285.728 230.59 283.124 277.858C282.774 284.211 284.218 289.745 284.284 295.516C284.678 341.535 284.043 387.575 284.043 433.594C258.501 457.239 232.587 480.647 206.607 503.904C200.259 509.568 193.978 516.868 187.105 522.058C186.033 522.854 185.77 524.06 183.932 523.608V352.194C132.081 374.719 98.6597 427.349 95.2454 482.585C92.794 522.531 97.5216 564.48 94.6982 604.62C88.6574 610.068 83.2075 616.292 77.3636 621.805C54.6668 643.21 24.4626 665.347 4.45785 688.26C2.50991 690.499 -0.926361 690.241 0.233652 695H183.428C188.747 695 206.957 687.786 212.341 685.008C236.723 672.475 257.385 646.483 261.784 619.371C262.112 617.39 263.995 608.776 261.565 608.776H110.019C117.089 601.304 125.165 594.951 132.738 588.017C160.863 562.391 188.616 536.55 216.894 510.795C218.316 510.149 219.848 510.149 221.359 510.041C273.8 505.993 350.624 521.067 396.827 497.767C423.179 484.48 448.043 457.131 453.164 428.017C451.698 427.392 450.013 429.051 449.465 429.051H307.44C328.058 407.969 350.427 388.437 372.839 369.25C404.838 366.429 438.938 373.427 469.799 363.866C494.443 356.221 518.716 337.766 531.826 315.823C535.131 310.289 539.531 302.364 539.728 296.076H453.142C467.96 281.433 483.281 267.155 499.215 253.718C520.445 258.154 541.107 265.712 562.293 270.235C595.977 277.427 628.699 263.904 638.482 229.599C639.095 227.403 641.59 216.399 640.102 215.516C606.68 215.193 572.908 213.406 539.75 217.109L587.726 172.383C638.198 168.291 691.514 174.45 741.986 171.435C790.444 168.549 837.02 131.252 847 84.1348H668.03L567.196 175.548V0H561.899C560.564 1.4428 558.966 1.4428 557.675 0H555.574C556.099 2.47645 554.414 2.26111 552.729 2.86407C507.422 18.778 478.991 52.0701 478.553 100.221C478.072 152.614 478.991 205.05 478.269 257.443C442.505 288.087 408.799 321.616 372.905 352.194L372.926 352.173Z" fill="var(--fill-0, white)"/>
</g>
</svg>
