<svg preserveAspectRatio="none" width="100%" height="100%" overflow="visible" style="display: block;" viewBox="0 0 567.016 487.143" fill="none" xmlns="http://www.w3.org/2000/svg">
<g id="Frame 7">
<path id="Vector" opacity="0.1" d="M249.652 246.847V128.887C217.095 131.514 191.278 161.626 189.535 194.758C189.3 199.21 190.267 203.089 190.311 207.135C190.575 239.39 190.15 271.661 190.15 303.917C173.051 320.49 155.703 336.897 138.311 353.199C134.062 357.169 129.857 362.286 125.256 365.923C124.538 366.482 124.362 367.327 123.131 367.01V246.862C88.4206 262.65 66.0469 299.54 63.7612 338.256C62.1201 366.255 65.285 395.658 63.3949 423.793C59.3509 427.612 55.7025 431.974 51.7904 435.839C36.5962 450.842 16.3763 466.358 2.98431 482.418C1.68028 483.988 -0.620102 483.807 0.156458 487.143H122.794C126.355 487.143 138.545 482.086 142.15 480.139C158.472 471.355 172.304 453.136 175.249 434.133C175.469 432.744 176.729 426.707 175.102 426.707H73.6513C78.384 421.469 83.7906 417.016 88.8602 412.156C107.688 394.194 126.267 376.081 145.197 358.029C146.15 357.576 147.176 357.576 148.186 357.501C183.293 354.663 234.722 365.229 265.652 348.897C283.293 339.584 299.938 320.415 303.367 300.008C302.385 299.57 301.257 300.732 300.891 300.732H205.813C219.615 285.955 234.59 272.265 249.594 258.816C271.015 256.839 293.843 261.745 314.502 255.043C331.001 249.685 347.25 236.749 356.026 221.368C358.239 217.489 361.184 211.934 361.316 207.527H303.352C313.272 197.263 323.528 187.256 334.195 177.837C348.407 180.947 362.239 186.245 376.422 189.414C398.972 194.456 420.877 184.977 427.426 160.932C427.836 159.392 429.507 151.679 428.51 151.06C406.136 150.834 383.528 149.581 361.33 152.177L393.448 120.827C427.235 117.959 462.928 122.276 496.716 120.163C529.155 118.141 560.335 91.9978 567.016 58.9722H447.206L379.704 123.046V0H376.158C375.265 1.0113 374.195 1.0113 373.33 0H371.924C372.276 1.73581 371.147 1.58487 370.019 2.0075C339.689 13.1619 320.656 36.4972 320.363 70.2474C320.041 106.971 320.656 143.725 320.173 180.448C296.231 201.927 273.667 225.428 249.638 246.862L249.652 246.847Z" fill="var(--fill-0, white)"/>
</g>
</svg>
